<?xml version="1.0" encoding="UTF-8"?>
<svg version="1.1" xmlns="http://www.w3.org/2000/svg" width="512" height="512">
<path d="M0 0 C1.35938845 -0.00373944 2.71877475 -0.00834213 4.07815766 -0.01373065 C7.80364963 -0.02593984 11.52905165 -0.02570264 15.25455904 -0.02334189 C19.27651121 -0.0229332 23.29843476 -0.03397792 27.32037354 -0.04345703 C35.196543 -0.06005672 43.07268252 -0.06556612 50.94886801 -0.06668179 C57.35259693 -0.06763278 63.756316 -0.07174561 70.16004181 -0.07808304 C88.32435186 -0.09569285 106.48863829 -0.10492235 124.65295693 -0.10342209 C125.63181769 -0.10334218 126.61067845 -0.10326227 127.61920166 -0.10317993 C129.08929008 -0.10305729 129.08929008 -0.10305729 130.58907726 -0.10293217 C146.4694973 -0.1021194 162.34982245 -0.12125537 178.23021504 -0.14945666 C194.54448556 -0.17819934 210.85870982 -0.19199619 227.1730063 -0.19026911 C236.32885638 -0.18960568 245.48460701 -0.1950776 254.64043427 -0.21662521 C262.43642396 -0.23485525 270.23226912 -0.23916942 278.02827093 -0.22560637 C282.00335658 -0.21908581 285.97816507 -0.21892624 289.95322418 -0.23631287 C293.59778922 -0.2520895 297.24185841 -0.2491338 300.8864117 -0.2317446 C302.81754772 -0.22724386 304.74869941 -0.242296 306.679775 -0.25822389 C317.36655069 -0.17400475 326.1903232 1.93449471 334.05181885 9.47445679 C342.67066985 18.82682702 342.85919241 29.51159231 342.81768799 41.52694702 C342.81783401 42.63987625 342.81798004 43.75280548 342.81813049 44.89945984 C342.81743619 48.56249977 342.80966638 52.22548828 342.80181885 55.88851929 C342.79995296 58.43442253 342.79852986 60.98032613 342.79753113 63.52622986 C342.79410863 69.53255503 342.78623444 75.53885826 342.77618164 81.54517466 C342.76498082 88.38680039 342.75950007 95.22842703 342.7544862 102.07005966 C342.74405069 116.13585841 342.72647605 130.20164097 342.7041626 144.26742554 C343.27303696 144.25891571 343.84191132 144.25040588 344.42802429 144.24163818 C347.03957122 144.20757446 349.65107117 144.18662964 352.26275635 144.16586304 C353.15748657 144.15224731 354.0522168 144.13863159 354.97406006 144.12460327 C362.57714669 144.07933644 368.67294501 145.2199277 375.7041626 148.26742554 C376.6322876 148.66832397 377.5604126 149.06922241 378.5166626 149.48226929 C393.31491149 156.73425205 404.29530356 169.7586117 409.7041626 185.26742554 C414.61187236 201.60283492 412.54755668 218.85118253 405.0166626 233.95492554 C396.51354995 248.63240893 383.29526448 258.46922957 367.15362549 263.33847046 C362.16854941 264.55685523 357.30869044 264.48887737 352.2041626 264.39242554 C351.2863501 264.3834021 350.3685376 264.37437866 349.4229126 264.36508179 C347.18304704 264.34174985 344.94375077 264.30901789 342.7041626 264.26742554 C342.73642535 265.20921819 342.76868811 266.15101084 342.80192852 267.12134266 C343.58438736 290.20517377 344.15655755 313.28725964 344.51758862 336.38161945 C344.69691133 347.55178229 344.94143283 358.71302876 345.34454346 369.87753296 C348.22791461 451.25735837 348.22791461 451.25735837 332.42739201 469.86428738 C325.21084922 477.43200774 316.92621069 483.39683284 307.7041626 488.26742554 C303.98702524 486.52982407 301.61675247 484.41065675 298.7197876 481.47836304 C298.02910187 480.78343246 298.02910187 480.78343246 297.32446289 480.07446289 C295.86291182 478.60176655 294.40849092 477.12225151 292.9541626 475.64242554 C291.96113649 474.63936232 290.96765171 473.63675297 289.97369385 472.63461304 C287.54518319 470.18411718 285.12301584 467.72745884 282.7041626 465.26742554 C278.9381239 466.83025536 276.56777109 469.17377304 273.7197876 472.05648804 C273.25933044 472.51977509 272.79887329 472.98306213 272.32446289 473.46038818 C270.86291182 474.93308452 269.40849092 476.41259956 267.9541626 477.89242554 C266.96113649 478.89548875 265.96765171 479.89809811 264.97369385 480.90023804 C262.54518319 483.35073389 260.12301584 485.80739223 257.7041626 488.26742554 C253.9381239 486.70459571 251.56777109 484.36107803 248.7197876 481.47836304 C248.02910187 480.78343246 248.02910187 480.78343246 247.32446289 480.07446289 C245.86291182 478.60176655 244.40849092 477.12225151 242.9541626 475.64242554 C241.96113649 474.63936232 240.96765171 473.63675297 239.97369385 472.63461304 C237.54518319 470.18411718 235.12301584 467.72745884 232.7041626 465.26742554 C228.9381239 466.83025536 226.56777109 469.17377304 223.7197876 472.05648804 C223.25933044 472.51977509 222.79887329 472.98306213 222.32446289 473.46038818 C220.86291182 474.93308452 219.40849092 476.41259956 217.9541626 477.89242554 C216.96113649 478.89548875 215.96765171 479.89809811 214.97369385 480.90023804 C212.54518319 483.35073389 210.12301584 485.80739223 207.7041626 488.26742554 C203.9381239 486.70459571 201.56777109 484.36107803 198.7197876 481.47836304 C198.02910187 480.78343246 198.02910187 480.78343246 197.32446289 480.07446289 C195.86291182 478.60176655 194.40849092 477.12225151 192.9541626 475.64242554 C191.96113649 474.63936232 190.96765171 473.63675297 189.97369385 472.63461304 C187.54518319 470.18411718 185.12301584 467.72745884 182.7041626 465.26742554 C178.9381239 466.83025536 176.56777109 469.17377304 173.7197876 472.05648804 C173.25933044 472.51977509 172.79887329 472.98306213 172.32446289 473.46038818 C170.86291182 474.93308452 169.40849092 476.41259956 167.9541626 477.89242554 C166.96113649 478.89548875 165.96765171 479.89809811 164.97369385 480.90023804 C162.54518319 483.35073389 160.12301584 485.80739223 157.7041626 488.26742554 C153.9381239 486.70459571 151.56777109 484.36107803 148.7197876 481.47836304 C148.02910187 480.78343246 148.02910187 480.78343246 147.32446289 480.07446289 C145.86291182 478.60176655 144.40849092 477.12225151 142.9541626 475.64242554 C141.96113649 474.63936232 140.96765171 473.63675297 139.97369385 472.63461304 C137.54518319 470.18411718 135.12301584 467.72745884 132.7041626 465.26742554 C128.9381239 466.83025536 126.56777109 469.17377304 123.7197876 472.05648804 C123.25933044 472.51977509 122.79887329 472.98306213 122.32446289 473.46038818 C120.86291182 474.93308452 119.40849092 476.41259956 117.9541626 477.89242554 C116.96113649 478.89548875 115.96765171 479.89809811 114.97369385 480.90023804 C112.54518319 483.35073389 110.12301584 485.80739223 107.7041626 488.26742554 C103.9381239 486.70459571 101.56777109 484.36107803 98.7197876 481.47836304 C98.02910187 480.78343246 98.02910187 480.78343246 97.32446289 480.07446289 C95.86291182 478.60176655 94.40849092 477.12225151 92.9541626 475.64242554 C91.96113649 474.63936232 90.96765171 473.63675297 89.97369385 472.63461304 C87.54518319 470.18411718 85.12301584 467.72745884 82.7041626 465.26742554 C78.9381239 466.83025536 76.56777109 469.17377304 73.7197876 472.05648804 C73.25933044 472.51977509 72.79887329 472.98306213 72.32446289 473.46038818 C70.86291182 474.93308452 69.40849092 476.41259956 67.9541626 477.89242554 C66.96113649 478.89548875 65.96765171 479.89809811 64.97369385 480.90023804 C62.54518319 483.35073389 60.12301584 485.80739223 57.7041626 488.26742554 C42.12298101 480.83813728 27.36798037 469.65577459 20.7041626 453.26742554 C13.92633572 428.69360171 17.37942573 399.88377795 18.32728064 374.73020327 C18.70100373 364.6325597 18.87878839 354.53406434 19.04348361 344.43119323 C19.38562812 323.70224456 19.96346889 302.98572202 20.7041626 282.26742554 C20.15816406 282.27408737 19.61216553 282.28074921 19.04962158 282.28761292 C13.33898845 282.35426318 7.62846681 282.39934867 1.9175415 282.43222046 C-0.21043388 282.4472563 -2.33837855 282.46769036 -4.46624756 282.4937439 C-7.53452157 282.53035643 -10.60238389 282.54720434 -13.6708374 282.56039429 C-14.61386719 282.57587814 -15.55689697 282.591362 -16.52850342 282.60731506 C-22.71113372 282.60887109 -28.94544891 282.22574372 -33.82025146 277.92140198 C-39.22778744 271.79961818 -39.58846871 266.32102091 -39.55653381 258.53945923 C-39.56035936 257.55331753 -39.56418491 256.56717582 -39.56812638 255.55115104 C-39.57845363 252.24330566 -39.57446468 248.93563396 -39.57049561 245.6277771 C-39.57484229 243.25743448 -39.5800253 240.88709327 -39.58598328 238.51675415 C-39.59799781 232.74385167 -39.60052379 226.97100334 -39.59818301 221.19808987 C-39.5963993 216.5038681 -39.59815065 211.80966045 -39.60240746 207.11544037 C-39.60330024 206.11289817 -39.60330024 206.11289817 -39.60421106 205.0901026 C-39.60542283 203.73224785 -39.60663697 202.3743931 -39.60785343 201.01653835 C-39.61872978 188.28223823 -39.61656639 175.54796459 -39.61046859 162.81366298 C-39.60530271 151.17381334 -39.61654599 139.53404748 -39.63556681 127.89421442 C-39.6549591 115.93508351 -39.66319856 103.9759922 -39.65944356 92.01684546 C-39.65753319 85.30572687 -39.66026828 78.59469006 -39.6741581 71.88358307 C-39.68673555 65.57002439 -39.6847929 59.2566332 -39.67174721 52.94307709 C-39.66938151 50.62799523 -39.67211585 48.3129016 -39.68037033 45.99783325 C-39.69084 42.83280375 -39.6827348 39.66833593 -39.6700592 36.50332642 C-39.67743349 35.5913431 -39.68480777 34.67935978 -39.69240552 33.73974061 C-39.60836384 23.73599266 -36.62618462 16.18295481 -29.9833374 8.64242554 C-20.9093678 0.62356868 -11.73498717 -0.02893486 0 0 Z " fill="#D1D8DF" transform="translate(42.29583740234375,11.732574462890625)"/>
<path d="M0 0 C91.08 0 182.16 0 276 0 C291.67619494 43.54498594 291.67619494 43.54498594 291 54 C288.50629873 52.84906095 286.39124515 51.57651836 284.125 50 C278.62674844 46.481119 273.67602296 45.70376715 267.246521 45.72584534 C266.48482581 45.72060866 265.72313063 45.71537198 264.93835378 45.70997661 C262.39602327 45.69502194 259.85389484 45.69427246 257.31152344 45.69360352 C255.48451907 45.68597894 253.6575179 45.67755093 251.83052063 45.66838074 C246.87374478 45.64645741 241.91703061 45.63763966 236.96021175 45.63255429 C233.86082925 45.62890796 230.76146284 45.62266643 227.66208649 45.6155529 C216.84193718 45.59106529 206.02183576 45.57800813 195.20166016 45.57446289 C185.12802898 45.57082885 175.05470271 45.54094106 164.98116469 45.49905831 C156.3227744 45.46432593 147.66448501 45.44891393 139.00602555 45.44821686 C133.83907161 45.44742501 128.67242832 45.43872871 123.50554657 45.41021919 C118.64298371 45.38398833 113.78098796 45.38186138 108.91838646 45.39787483 C107.13908079 45.39968536 105.35974213 45.39303448 103.58050728 45.37705612 C93.09226001 45.28864903 83.97645607 45.43699582 75.87800217 52.97519779 C70.50245961 58.60034537 67.87944467 64.05042852 67.5625 71.875 C67.800998 80.18095212 70.770669 86.41343647 76.359375 92.49609375 C82.66012777 98.27178379 89.30642725 99.1493486 97.56402588 99.14717102 C98.3174051 99.15084771 99.07078432 99.1545244 99.84699321 99.1583125 C102.36707797 99.16931029 104.88712144 99.1731865 107.40722656 99.17700195 C109.21599965 99.18326948 111.02477146 99.18991654 112.83354187 99.19691467 C118.76922719 99.21792053 124.70491266 99.22831284 130.640625 99.23828125 C132.68628706 99.2423299 134.73194899 99.24644686 136.77761078 99.25063133 C146.38792333 99.26967424 155.99822824 99.28390797 165.60855603 99.2922433 C176.69334533 99.30201699 187.77793501 99.3283438 198.86265397 99.36874419 C207.43692386 99.39892016 216.01113656 99.41371353 224.58545852 99.41702431 C229.70373255 99.4193728 234.82179311 99.42830747 239.94001007 99.45348549 C244.75652088 99.47679753 249.57267809 99.48098682 254.38923073 99.47072411 C256.15282939 99.47022942 257.91644565 99.47652989 259.67999077 99.49028015 C271.46141546 99.57696969 280.45372084 98.83346845 289.4921875 90.59375 C291.71403568 88.24526799 293.34787171 85.77557553 295 83 C296.79457676 86.08782978 297.24576692 88.30428435 297.22705078 91.86035156 C297.22689972 92.82104553 297.22674866 93.7817395 297.22659302 94.77154541 C297.21627045 95.80084167 297.20594788 96.83013794 297.1953125 97.890625 C297.19106766 99.48025055 297.19106766 99.48025055 297.18673706 101.10198975 C297.17554734 104.48477497 297.1504447 107.86729487 297.125 111.25 C297.11496865 113.54426701 297.10584307 115.83853817 297.09765625 118.1328125 C297.07561196 123.75529877 297.04214627 129.37763043 297 135 C295.80617769 135.00331015 294.61235538 135.00662029 293.38235664 135.01003075 C265.06681301 135.08898573 236.75131436 135.17818168 208.43584395 135.28005161 C204.95348608 135.29257103 201.4711279 135.30500372 197.98876953 135.31738281 C196.94882252 135.3210818 196.94882252 135.3210818 195.88786648 135.32485552 C184.65040781 135.36461906 173.41293904 135.39735045 162.17545094 135.42749982 C150.65154327 135.45857353 139.12768289 135.49731441 127.60382259 135.54279006 C121.12818837 135.56809949 114.65258477 135.58986753 108.17691422 135.60334396 C102.08833878 135.61612412 95.99986817 135.63813435 89.91135025 135.66738319 C87.67074716 135.67649076 85.43012718 135.68215655 83.18950653 135.68421364 C80.14225908 135.68751382 77.0953129 135.70292984 74.04812622 135.7215271 C73.1512519 135.71959237 72.25437758 135.71765763 71.33032525 135.71566427 C66.6841948 135.53846349 66.6841948 135.53846349 63 138 C62.58333333 141 62.58333333 141 63 144 C66.97822202 146.65214801 70.43516843 146.28860242 75.05448914 146.2784729 C75.9921859 146.2842653 76.92988267 146.2900577 77.89599448 146.29602563 C81.05138425 146.31308834 84.20662831 146.31590753 87.36206055 146.31884766 C89.61863567 146.3281415 91.87520735 146.33830935 94.1317749 146.34928894 C100.26982391 146.37666427 106.40784987 146.39176064 112.54594398 146.40471697 C118.95617816 146.42031461 125.36636505 146.44711551 131.77656555 146.4727478 C142.53958982 146.51426793 153.3026108 146.54884532 164.06567383 146.578125 C175.15228125 146.60830381 186.23886281 146.64265099 197.32543945 146.68261719 C198.00867327 146.68507874 198.69190709 146.68754028 199.39584496 146.69007643 C202.82338562 146.7024509 206.25092598 146.71490746 209.6784662 146.72740483 C238.11894131 146.83099726 266.55944929 146.92004481 295 147 C294.85580033 149.7086421 294.7075051 152.4169577 294.55688477 155.12524414 C294.51681557 155.88582375 294.47674637 156.64640335 294.43546295 157.43003082 C294.08990547 163.5546789 293.263265 169.44397086 291.9375 175.4375 C291.72198486 176.43628174 291.50646973 177.43506348 291.28442383 178.46411133 C285.55967127 203.95736651 276.53643941 228.58961896 265 252 C263.97845825 252.03758423 263.97845825 252.03758423 262.9362793 252.07592773 C259.85316245 252.19190952 256.77034954 252.31462616 253.6875 252.4375 C252.61564453 252.47681641 251.54378906 252.51613281 250.43945312 252.55664062 C248.89741211 252.61948242 248.89741211 252.61948242 247.32421875 252.68359375 C246.37635498 252.72025146 245.42849121 252.75690918 244.4519043 252.79467773 C241.863829 252.91430187 241.863829 252.91430187 239 254 C238.83318891 256.91652174 238.83318891 256.91652174 239 260 C242.02093215 263.02093215 245.56372072 262.46676834 249.625 262.625 C250.42679688 262.66367187 251.22859375 262.70234375 252.0546875 262.7421875 C254.03607556 262.83653931 256.01800645 262.91936215 258 263 C256.42864883 267.36486436 254.20770985 271.23601167 251.8125 275.1875 C251.45091797 275.79658203 251.08933594 276.40566406 250.71679688 277.03320312 C249.96180246 278.28719557 249.18375692 279.52760109 248.38319683 280.75300598 C246.94109848 283.00051047 246.94109848 283.00051047 245.80818653 285.54411316 C244.15057467 288.62622263 242.65625528 290.70126082 240 293 C234.40590274 294.49701269 228.92832439 294.30489599 223.17260742 294.1953125 C221.4506891 294.1990827 219.72877564 294.20727966 218.00689697 294.21955872 C213.34324138 294.24058297 208.68186783 294.20055308 204.01851439 294.15000534 C199.1387204 294.1081176 194.25913864 294.12441473 189.37922668 294.13500977 C180.14144841 294.14660686 170.90458289 294.1091117 161.6669963 294.05248928 C148.09235494 293.97133246 134.51761585 293.96031222 120.94276142 293.95379639 C118.94257927 293.9527632 116.94239712 293.95172564 114.94221497 293.95068359 C113.96608712 293.95029083 112.98995927 293.94989807 111.9842518 293.94949341 C106.1699527 293.94544315 100.35596137 293.92582555 94.54175699 293.89264774 C90.93398875 293.87314645 87.326218 293.86108147 83.71841431 293.850317 C82.04055769 293.84339318 80.36271151 293.83294707 78.68490028 293.81879616 C76.40222712 293.7998247 74.11982275 293.79287194 71.83708191 293.78881836 C70.55750705 293.78136093 69.27793219 293.7739035 67.95958233 293.76622009 C64.87993589 293.68724443 64.87993589 293.68724443 63 296 C63 298.31 63 300.62 63 303 C118.11 303.33 173.22 303.66 230 304 C225.04949396 313.90101208 216.47074298 321.85415083 208.67138672 329.58935547 C207.12620622 331.12380216 205.59203991 332.66868002 204.05859375 334.21484375 C197.69779753 340.58453059 191.08458328 346.42983293 184 352 C183.40960938 352.4753418 182.81921875 352.95068359 182.2109375 353.44042969 C166.63722276 365.97462699 149.63041157 376.61292169 132 386 C131.32462189 386.41445877 130.64924377 386.82891754 129.95339966 387.25593567 C122.69773827 391.40174385 116.3600145 391.73319566 108.1171875 391.70703125 C106.82177032 391.72215256 105.52635315 391.73727386 104.19168091 391.75285339 C100.782075 391.79238147 97.37300371 391.80287264 93.9631958 391.80688477 C90.47009388 391.81627784 86.97729822 391.85372906 83.484375 391.88867188 C76.65629366 391.95291811 69.82836537 391.98642787 63 392 C62.83322718 395.41656024 62.83322718 395.41656024 63 399 C65.71663793 401.71663793 67.30194653 401.30753121 71.1015625 401.4140625 C72.31328125 401.45273437 73.525 401.49140625 74.7734375 401.53125 C76.04445313 401.5621875 77.31546875 401.593125 78.625 401.625 C79.90375 401.66367187 81.1825 401.70234375 82.5 401.7421875 C85.66652017 401.83671049 88.8330304 401.92226357 92 402 C88.27139109 405.72860891 82.47625613 406.40224232 77.5 407.8125 C76.2507373 408.16707275 75.00147461 408.52164551 73.71435547 408.88696289 C65.25150595 411.2485996 56.75335964 413.26182346 48.125 414.9375 C47.11244141 415.13641846 46.09988281 415.33533691 45.05664062 415.5402832 C37.28928325 416.96967508 29.9952962 417.42890741 22 418 C22 429.22 22 440.44 22 452 C21.67 452 21.34 452 21 452 C21.00227832 451.09680566 21.00455664 450.19361132 21.00690401 449.26304746 C21.14118429 395.72760059 21.24412532 342.19217158 21.30639198 288.65659 C21.31389618 282.22792821 21.32166212 275.79926675 21.32958984 269.37060547 C21.33116371 268.09077946 21.33273757 266.81095344 21.33435912 265.49234483 C21.36046409 244.77194799 21.40777001 224.05165108 21.46291678 203.33131352 C21.519034 182.06894848 21.55235444 160.80663576 21.56453097 139.54419971 C21.57276199 126.42502783 21.59875511 113.3061384 21.6474988 100.18705347 C21.67922448 91.18972966 21.68879827 82.19255178 21.68100826 73.19517609 C21.6771668 68.0047628 21.68303847 62.81484291 21.71523285 57.62451744 C21.74452015 52.86804106 21.74584856 48.11238795 21.72539337 43.35587296 C21.72286686 41.63963803 21.73040373 39.92335085 21.74929909 38.20721808 C21.86506899 27.03881971 20.81890024 17.41917406 12.95789659 8.74723458 C9.05724604 5.02287302 5.05770011 2.79126879 0 1 C0 0.67 0 0.34 0 0 Z " fill="#E7F0F7" transform="translate(42,13)"/>
<path d="M0 0 C7.86339235 5.12876199 11.89496912 11.24659761 15 20 C15.63112683 23.72932665 15.65785917 27.34163358 15.60127258 31.11747742 C15.60554471 32.1804326 15.60981683 33.24338778 15.61421841 34.33855373 C15.62239877 37.87026718 15.59504411 41.40077058 15.56762695 44.93237305 C15.56621542 47.47583488 15.56701051 50.01929875 15.56983948 52.5627594 C15.57097495 58.02318675 15.55687221 63.48323032 15.52865028 68.94357872 C15.4878742 76.83806469 15.47497873 84.73240651 15.46871033 92.62698636 C15.45778916 105.43784852 15.42457437 118.24855076 15.37719727 131.05932617 C15.3312451 143.49779464 15.29588096 155.93621955 15.2746582 168.37475586 C15.27334459 169.14251076 15.27203097 169.91026566 15.27067754 170.70128586 C15.26415197 174.55319899 15.25783352 178.40511243 15.25161803 182.25702608 C15.19985289 214.17146798 15.11147348 246.08570905 15 278 C8.59545578 278.0763903 2.19103014 278.12874214 -4.21386719 278.16479492 C-6.39034415 278.17983299 -8.56679105 278.20026873 -10.74316406 278.22631836 C-13.88093508 278.2629209 -17.0183036 278.27977661 -20.15625 278.29296875 C-21.12115356 278.30845261 -22.08605713 278.32393646 -23.0802002 278.33988953 C-29.3165269 278.34142493 -35.60322739 278.00095648 -40.52355957 273.65397644 C-45.93296128 267.53395251 -46.29262852 262.05291594 -46.26069641 254.27203369 C-46.26452196 253.28589199 -46.26834751 252.29975029 -46.27228898 251.2837255 C-46.28261622 247.97588013 -46.27862727 244.66820842 -46.2746582 241.36035156 C-46.27900489 238.99000894 -46.28418789 236.61966773 -46.29014587 234.24932861 C-46.30216041 228.47642614 -46.30468639 222.7035778 -46.30234561 216.93066433 C-46.3005619 212.23644257 -46.30231325 207.54223491 -46.30657005 202.84801483 C-46.30746284 201.84547264 -46.30746284 201.84547264 -46.30837366 200.82267706 C-46.30958543 199.46482231 -46.31079956 198.10696756 -46.31201603 196.74911281 C-46.32289238 184.01481269 -46.32072898 171.28053905 -46.31463119 158.54623744 C-46.30946531 146.90638781 -46.32070858 135.26662195 -46.33972941 123.62678888 C-46.3591217 111.66765797 -46.36736115 99.70856666 -46.36360615 87.74941993 C-46.36169578 81.03830133 -46.36443087 74.32726452 -46.37832069 67.61615753 C-46.39089814 61.30259886 -46.3889555 54.98920766 -46.37590981 48.67565155 C-46.37354411 46.3605697 -46.37627845 44.04547606 -46.38453293 41.73040771 C-46.3950026 38.56537822 -46.3868974 35.4009104 -46.3742218 32.23590088 C-46.38159609 31.32391756 -46.38897037 30.41193425 -46.39656812 29.47231507 C-46.31252644 19.46856712 -43.33034721 11.91552927 -36.6875 4.375 C-25.68669946 -5.34663769 -13.20997556 -5.79797267 0 0 Z " fill="#ACBADF" transform="translate(49,16)"/>
<path d="M0 0 C1.8274491 -0.00542621 3.65489382 -0.01255166 5.48233032 -0.02124023 C10.42663588 -0.03941844 15.37060618 -0.03242847 20.31491733 -0.01972389 C25.50056759 -0.00956614 30.68618999 -0.01899741 35.87184143 -0.02526855 C44.57981495 -0.03253753 53.2876526 -0.0229776 61.99560547 -0.00390625 C72.04712396 0.01785417 82.09831777 0.01081408 92.14982837 -0.01121187 C100.79555799 -0.0293954 109.44119015 -0.03190956 118.08693272 -0.0214572 C123.24370806 -0.01523762 128.40033107 -0.01434415 133.55709648 -0.02760315 C138.40736497 -0.03920379 143.25721717 -0.0310592 148.10744095 -0.00802612 C149.88189187 -0.00276119 151.65637814 -0.00421462 153.43081474 -0.01307678 C163.77632186 -0.05996075 172.80064659 0.16481315 181.55688477 6.34179688 C187.73987486 12.78128655 191.10310884 18.45955687 191.47094727 27.51757812 C191.12779063 36.2403984 187.77450015 42.44455324 181.90844727 48.79101562 C176.0029696 54.05355823 169.37579897 55.6675193 161.64743042 55.65802002 C160.89576005 55.66099114 160.14408968 55.66396226 159.36964142 55.66702342 C156.84334025 55.67571566 154.31708644 55.67721913 151.79077148 55.67871094 C149.98229369 55.68333885 148.17381687 55.68836348 146.36534119 55.6937561 C141.44565032 55.7068873 136.52597311 55.71332682 131.60626745 55.71776676 C128.53187342 55.72069718 125.45748313 55.724802 122.38309097 55.72927094 C112.7620905 55.74294964 103.14109856 55.75261367 93.52008903 55.75647283 C82.41833592 55.7609504 71.31670612 55.7784828 60.2149905 55.80747342 C51.63226758 55.82910678 43.04957931 55.83917804 34.46682942 55.84051394 C29.34186065 55.84156106 24.21700775 55.84744877 19.09206772 55.86533356 C14.26741812 55.88184211 9.44297112 55.8839562 4.6183033 55.87519455 C2.85148767 55.87442559 1.08466103 55.87874829 -0.682127 55.8886528 C-13.03705261 55.9538277 -22.63711119 55.64475058 -32.07983398 46.71289062 C-37.77732844 40.29607322 -39.46006571 33.10827144 -39.36889648 24.72070312 C-38.58213029 17.3052057 -34.57845702 10.98291949 -29.02478886 6.10027313 C-20.355472 -0.77482641 -10.5147821 -0.05244902 0 0 Z " fill="#475DA9" transform="translate(148.029052734375,57.482421875)"/>
<path d="M0 0 C0.92039062 0.40089844 1.84078125 0.80179688 2.7890625 1.21484375 C17.60547822 8.4143697 28.59772693 21.51007011 34 37 C38.90770976 53.33540938 36.84339408 70.58375699 29.3125 85.6875 C20.74199092 100.48131843 7.46896846 110.21015793 -8.765625 115.14453125 C-24.74576302 118.88156006 -41.31354379 115.87822399 -55.3671875 107.765625 C-60.02668769 104.64085633 -64.03397545 100.95201032 -68 97 C-68.56460937 96.45859375 -69.12921875 95.9171875 -69.7109375 95.359375 C-80.93544464 83.60036752 -84.55322898 67.01765846 -84.3125 51.3125 C-84.31572266 50.24966797 -84.31894531 49.18683594 -84.32226562 48.09179688 C-84.22109016 33.18221235 -79.88639343 21.17824222 -69.41796875 10.25390625 C-52.08596851 -5.90209397 -21.62210738 -10.11356636 0 0 Z " fill="#F54141" transform="translate(418,160)"/>
<path d="M0 0 C17.40848325 -0.86681244 32.01247506 3.37336484 45.25 15.1875 C56.03293439 25.22536298 63.69874399 39.25281413 64.3359375 54.13671875 C64.64604179 73.18427851 60.79590446 88.56861628 47.33984375 102.71875 C34.43085551 115.30447477 19.75828148 120.42448072 2.01025391 120.36572266 C-14.87870089 120.04416876 -28.20457835 112.75374172 -40 101 C-40.56460937 100.45859375 -41.12921875 99.9171875 -41.7109375 99.359375 C-50.98577728 89.64287619 -56.11994721 74.97345799 -56.1875 61.75 C-56.14052081 60.16613017 -56.08410038 58.58233303 -56 57 C-54.12644381 60.43344007 -53.01035403 63.97129075 -51.8125 67.6875 C-49.49819538 74.21086157 -46.77107902 79.00933157 -42 84 C-41.40445312 84.62390625 -40.80890625 85.2478125 -40.1953125 85.890625 C-30.06661207 95.5570196 -17.70802074 99.46587875 -3.98046875 99.1875 C10.38212268 98.28395559 21.81259383 92.72879357 31.6875 82.3125 C41.50017663 70.51446787 44.08603163 57.19158091 42.7578125 42.28125 C40.90163399 29.09859443 33.80952238 17.9726506 23.29296875 9.9296875 C15.9633441 5.02960277 8.75308833 2.12219081 0 1 C0 0.67 0 0.34 0 0 Z " fill="#C00101" transform="translate(390,156)"/>
<path d="M0 0 C0.9551434 -0.00297112 1.91028681 -0.00594224 2.89437395 -0.0090034 C6.11493987 -0.01771843 9.33546874 -0.019201 12.55604553 -0.02069092 C14.8568632 -0.02531704 17.1576801 -0.03034142 19.45849609 -0.03573608 C25.72284183 -0.04888035 31.98717684 -0.05530878 38.25153422 -0.05974674 C42.16091161 -0.0626737 46.07028604 -0.06677774 49.97966194 -0.07125092 C60.79790483 -0.0833618 71.61614445 -0.09374362 82.43439388 -0.09712601 C83.12698999 -0.09734557 83.81958609 -0.09756514 84.53316996 -0.09779136 C85.22744521 -0.09800964 85.92172046 -0.09822791 86.63703436 -0.09845281 C88.04395735 -0.09889628 89.45088035 -0.09934284 90.85780334 -0.09979248 C91.55568927 -0.10001391 92.25357519 -0.10023534 92.97260917 -0.10046348 C104.28690635 -0.10441351 115.6011392 -0.12187365 126.91541152 -0.145152 C138.5241104 -0.16884392 150.13277379 -0.18106865 161.7414971 -0.18249393 C168.26244504 -0.18354467 174.78330226 -0.18950974 181.30422783 -0.20731354 C187.43468685 -0.22372535 193.56498628 -0.22598339 199.69545937 -0.21717453 C201.95017294 -0.21640049 204.20489485 -0.22079471 206.4595871 -0.23063278 C209.52834573 -0.24324166 212.59652958 -0.23753602 215.6652832 -0.22705078 C216.56566234 -0.23510719 217.46604148 -0.24316359 218.39370483 -0.25146413 C219.21355914 -0.24487428 220.03341346 -0.23828444 220.87811184 -0.2314949 C221.58672499 -0.23209199 222.29533814 -0.23268908 223.02542442 -0.23330426 C225.48021026 0.25713373 226.37465656 1.18763521 227.89613342 3.14044189 C228.27113342 5.64044189 228.27113342 5.64044189 227.89613342 8.14044189 C226.37516179 10.09191495 225.47922995 11.02315645 223.02657509 11.51648939 C222.31850401 11.51697644 221.61043293 11.5174635 220.88090515 11.51796532 C220.06166754 11.52578856 219.24242992 11.5336118 218.39836693 11.54167211 C217.0488214 11.53163386 217.0488214 11.53163386 215.67201233 11.52139282 C214.23801558 11.52841278 214.23801558 11.52841278 212.77504921 11.53557456 C209.55745884 11.5475829 206.34028979 11.53804446 203.12269592 11.52862549 C200.82172903 11.53268859 198.52076408 11.53802899 196.21980286 11.54455566 C189.95959975 11.55826611 183.69954448 11.5529152 177.43933868 11.54341841 C170.89840283 11.53584111 164.35747992 11.54286204 157.81654358 11.5475769 C146.12631528 11.55399094 134.43614936 11.54404742 122.74593186 11.52879889 C112.14166874 11.51539521 101.53750414 11.51772315 90.9332428 11.53155518 C78.6255104 11.54760161 66.31784084 11.55359011 54.01009941 11.54471838 C47.49253345 11.54003304 40.97503539 11.53944064 34.45747375 11.54932785 C28.3310849 11.55797188 22.20488271 11.55202252 16.0785141 11.53464508 C13.82541972 11.53066651 11.57230973 11.53183754 9.3192215 11.53843307 C6.25268457 11.54658454 3.18675251 11.53640449 0.12025452 11.52139282 C-0.7794425 11.52808499 -1.67913952 11.53477715 -2.60610008 11.54167211 C-3.8349565 11.52993725 -3.8349565 11.52993725 -5.08863831 11.51796532 C-6.15074492 11.51723473 -6.15074492 11.51723473 -7.23430824 11.51648939 C-9.71916038 11.01668021 -10.62450947 10.1765178 -12.10386658 8.14044189 C-11.91636658 4.51544189 -11.91636658 4.51544189 -11.10386658 1.14044189 C-7.68402064 -0.56948107 -3.76317737 -0.00361255 0 0 Z " fill="#ADBBDF" transform="translate(116.10386657714844,403.85955810546875)"/>
<path d="M0 0 C0.81923761 -0.00782324 1.63847523 -0.01564648 2.48253822 -0.02370679 C3.83208375 -0.01366855 3.83208375 -0.01366855 5.20889282 -0.00342751 C6.64288957 -0.01044746 6.64288957 -0.01044746 8.10585594 -0.01760924 C11.32344632 -0.02961758 14.54061536 -0.02007914 17.75820923 -0.01066017 C20.05917612 -0.01472327 22.36014107 -0.02006367 24.66110229 -0.02659035 C30.9213054 -0.04030079 37.18136068 -0.03494988 43.44156647 -0.02545309 C49.98250233 -0.0178758 56.52342524 -0.02489672 63.06436157 -0.02961159 C74.75458987 -0.03602562 86.44475579 -0.0260821 98.13497329 -0.01083358 C108.73923641 0.00257011 119.34340101 0.00024217 129.94766235 -0.01358986 C142.25539475 -0.02963629 154.56306431 -0.03562479 166.87080574 -0.02675307 C173.3883717 -0.02206772 179.90586976 -0.02147533 186.4234314 -0.03136253 C192.54982025 -0.04000657 198.67602244 -0.0340572 204.80239105 -0.01667976 C207.05548543 -0.0127012 209.30859542 -0.01387222 211.56168365 -0.02046776 C214.62822059 -0.02861923 217.69415265 -0.01843918 220.76065063 -0.00342751 C222.11019616 -0.01346575 222.11019616 -0.01346575 223.48700523 -0.02370679 C224.71586165 -0.01197193 224.71586165 -0.01197193 225.96954346 0 C227.03165008 0.00073059 227.03165008 0.00073059 228.11521339 0.00147593 C230.60006553 0.50128511 231.50541463 1.34144751 232.98477173 3.37752342 C232.79727173 7.00252342 232.79727173 7.00252342 231.98477173 10.37752342 C228.56492579 12.08744639 224.64408252 11.52157787 220.88090515 11.51796532 C219.92576175 11.52093644 218.97061834 11.52390756 217.9865312 11.52696872 C214.76596528 11.53568375 211.54543641 11.53716632 208.32485962 11.53865623 C206.02404195 11.54328236 203.72322505 11.54830674 201.42240906 11.5537014 C195.15806332 11.56684566 188.89372831 11.57327409 182.62937093 11.57771206 C178.71999354 11.58063901 174.81061911 11.58474305 170.90124321 11.58921623 C160.08300033 11.60132711 149.2647607 11.61170894 138.44651127 11.61509132 C137.75391516 11.61531089 137.06131906 11.61553046 136.34773519 11.61575668 C135.65345994 11.61597495 134.95918469 11.61619323 134.24387079 11.61641812 C132.8369478 11.61686159 131.4300248 11.61730816 130.02310181 11.6177578 C129.32521588 11.61797923 128.62732996 11.61820066 127.90829598 11.6184288 C116.5939988 11.62237883 105.27976595 11.63983896 93.96549363 11.66311732 C82.35679475 11.68680924 70.74813137 11.69903397 59.13940805 11.70045924 C52.61846011 11.70150999 46.09760289 11.70747505 39.57667732 11.72527885 C33.4462183 11.74169067 27.31591887 11.7439487 21.18544579 11.73513985 C18.93073221 11.73436581 16.6760103 11.73876002 14.42131805 11.7485981 C11.35255942 11.76120698 8.28437557 11.75550134 5.21562195 11.7450161 C4.31524281 11.7530725 3.41486367 11.76112891 2.48720032 11.76942945 C1.25741885 11.75954468 1.25741885 11.75954468 0.00279331 11.74946022 C-0.70581984 11.75005731 -1.41443299 11.7506544 -2.14451927 11.75126958 C-4.59930511 11.26083158 -5.49375141 10.33033011 -7.01522827 8.37752342 C-7.39022827 5.87752342 -7.39022827 5.87752342 -7.01522827 3.37752342 C-4.86360244 0.61689349 -3.46080321 0.00238056 0 0 Z " fill="#F05450" transform="translate(111.01522827148438,305.6224765777588)"/>
<path d="M0 0 C0.91107388 0.00446144 1.82214775 0.00892289 2.76082993 0.01351953 C3.724846 0.01039954 4.68886208 0.00727956 5.68209076 0.00406504 C8.93268205 -0.00395233 12.1830886 0.00242321 15.43368149 0.00869775 C17.75582616 0.00598955 20.07796998 0.00242958 22.40011215 -0.00192237 C28.72226172 -0.01106895 35.04434628 -0.00749278 41.36649704 -0.0011642 C47.30084161 0.003373 53.23517799 -0.00008281 59.16952276 -0.00301859 C71.63940186 -0.00872657 84.1092516 -0.00215666 96.57912588 0.00858214 C107.28716955 0.01751809 117.99516986 0.01596618 128.70321274 0.00674462 C141.12738001 -0.00394976 153.55152152 -0.00817721 165.97569275 -0.00203085 C172.55638546 0.00109421 179.13704829 0.00148356 185.71773911 -0.00510383 C191.90316886 -0.01086256 198.08851639 -0.00690747 204.27393723 0.00468469 C206.55002836 0.00733918 208.82612637 0.00655284 211.10221481 0.00215936 C214.19749907 -0.0032665 217.29251605 0.00350188 220.38778305 0.01351953 C221.29885693 0.00905808 222.2099308 0.00459664 223.14861298 0 C229.3460065 0.03918683 229.3460065 0.03918683 231.57430649 2.26748681 C231.88680649 5.26748681 231.88680649 5.26748681 231.57430649 8.26748681 C228.52890236 10.29775623 227.95579249 10.51761087 224.54066753 10.51916909 C223.30566097 10.52699233 223.30566097 10.52699233 222.04570478 10.53497362 C221.1414347 10.53051218 220.23716461 10.52605073 219.3054924 10.5214541 C217.86431198 10.52613407 217.86431198 10.52613407 216.3940168 10.53090858 C213.1603506 10.53891407 209.92687072 10.53255501 206.69320297 10.52627587 C204.38076288 10.52898458 202.06832366 10.53254484 199.75588608 10.53689599 C193.46478635 10.54603601 187.173752 10.54246922 180.88265109 10.53613782 C174.31055314 10.53108678 167.73846092 10.53576671 161.16636276 10.53891015 C149.42158766 10.54318603 137.67684016 10.53655718 125.93206985 10.52639148 C115.27577262 10.51745362 104.61951895 10.51900942 93.9632225 10.528229 C81.59654605 10.53892331 69.22989739 10.54292087 56.86321694 10.53700447 C50.31383821 10.53387967 43.76448951 10.53348943 37.21511269 10.54007745 C31.06003823 10.54583602 24.90504641 10.5418814 18.74998093 10.53028893 C16.48517685 10.52763447 14.22036587 10.52842074 11.9555645 10.53281426 C8.87566 10.53824016 5.79602409 10.53147174 2.71613693 10.5214541 C1.35638572 10.52814626 1.35638572 10.52814626 -0.03083521 10.53497362 C-6.19739334 10.49578698 -6.19739334 10.49578698 -8.42569351 8.26748681 C-8.67569351 5.26748681 -8.67569351 5.26748681 -8.42569351 2.26748681 C-5.73337643 -0.42483027 -3.65872225 0.02313452 0 0 Z " fill="#F04F4A" transform="translate(112.42569351196289,148.7325131893158)"/>
<path d="M0 0 C1.75403389 -0.01268921 1.75403389 -0.01268921 3.54350281 -0.02563477 C5.46988335 -0.01652573 5.46988335 -0.01652573 7.43518066 -0.00723267 C8.80020061 -0.01129738 10.16521726 -0.0166387 11.53022766 -0.02316284 C15.23889271 -0.03685432 18.94730776 -0.03153037 22.65597725 -0.02202559 C26.53433031 -0.01443842 30.41266174 -0.02147197 34.29101562 -0.02618408 C40.80444183 -0.0316444 47.31776603 -0.02444283 53.83117676 -0.01016235 C61.36514062 0.00616475 68.89886093 0.00087643 76.43281889 -0.01564157 C82.8974375 -0.02924863 89.36198274 -0.03117994 95.82661104 -0.02332556 C99.68935419 -0.01864472 103.55198281 -0.01803539 107.41471863 -0.02793503 C111.04599616 -0.03659114 114.67695924 -0.03060798 118.30820274 -0.01325226 C120.27926067 -0.0073829 122.25034514 -0.01631453 124.22138977 -0.02563477 C125.3907457 -0.01717529 126.56010162 -0.00871582 127.76489258 0 C129.29245052 0.00169662 129.29245052 0.00169662 130.85086823 0.00342751 C133.38244629 0.38095093 133.38244629 0.38095093 135.21401215 1.71335411 C137.00684492 4.27209672 136.70482535 6.35058779 136.38244629 9.38095093 C133.72918306 12.03421415 132.50790208 11.63221952 128.80249023 11.63491821 C127.6162355 11.64055786 126.42998077 11.64619751 125.20777893 11.65200806 C123.24559669 11.64593536 123.24559669 11.64593536 121.24377441 11.63973999 C119.85757768 11.64244889 118.47138238 11.64600925 117.08518982 11.65036011 C113.31459734 11.65949844 109.54411397 11.65593396 105.77351952 11.64960194 C101.83330357 11.64454939 97.89309716 11.64923131 93.95288086 11.65237427 C87.33514727 11.65601609 80.71745827 11.65120916 74.09973145 11.64169312 C66.4414152 11.63080814 58.78320543 11.63433356 51.12489176 11.64534593 C44.55756164 11.65441265 37.99026364 11.6557071 31.42292929 11.65046859 C27.49706876 11.64734549 23.57125834 11.64694881 19.645401 11.65354156 C15.95510927 11.6593055 12.26495523 11.65533575 8.57467842 11.64375305 C6.56882544 11.63983322 4.56296085 11.64580023 2.55711365 11.65200806 C1.37085892 11.64636841 0.18460419 11.64072876 -1.03759766 11.63491821 C-2.07293892 11.63416416 -3.10828018 11.63341011 -4.17499542 11.63263321 C-6.61755371 11.38095093 -6.61755371 11.38095093 -8.61755371 9.38095093 C-9.17171327 4.17185106 -9.17171327 4.17185106 -7.44911957 1.71335411 C-4.90109707 -0.14024743 -3.1368014 0.00348396 0 0 Z " fill="#AEBCE0" transform="translate(112.6175537109375,226.61904907226563)"/>
<path d="M0 0 C1.75403389 -0.01268921 1.75403389 -0.01268921 3.54350281 -0.02563477 C5.46988335 -0.01652573 5.46988335 -0.01652573 7.43518066 -0.00723267 C8.80020061 -0.01129738 10.16521726 -0.0166387 11.53022766 -0.02316284 C15.23889271 -0.03685432 18.94730776 -0.03153037 22.65597725 -0.02202559 C26.53433031 -0.01443842 30.41266174 -0.02147197 34.29101562 -0.02618408 C40.80444183 -0.0316444 47.31776603 -0.02444283 53.83117676 -0.01016235 C61.36514062 0.00616475 68.89886093 0.00087643 76.43281889 -0.01564157 C82.8974375 -0.02924863 89.36198274 -0.03117994 95.82661104 -0.02332556 C99.68935419 -0.01864472 103.55198281 -0.01803539 107.41471863 -0.02793503 C111.04599616 -0.03659114 114.67695924 -0.03060798 118.30820274 -0.01325226 C120.27926067 -0.0073829 122.25034514 -0.01631453 124.22138977 -0.02563477 C125.3907457 -0.01717529 126.56010162 -0.00871582 127.76489258 0 C129.29245052 0.00169662 129.29245052 0.00169662 130.85086823 0.00342751 C133.38244629 0.38095093 133.38244629 0.38095093 135.2101059 1.71335411 C137.02716046 4.29802527 136.77293304 6.32213803 136.38244629 9.38095093 C132.97134578 11.65501793 131.77045083 11.63357279 127.76489258 11.64164734 C126.59553665 11.64873215 125.42618073 11.65581696 124.22138977 11.66311646 C122.29500923 11.65940033 122.29500923 11.65940033 120.32971191 11.65560913 C118.96469341 11.6599559 117.59967734 11.66513893 116.23466492 11.6710968 C112.52605428 11.68450074 108.81754547 11.68506402 105.10891533 11.6825335 C102.01480553 11.6814649 98.92071642 11.68634422 95.82661104 11.69113892 C88.5289636 11.70223857 81.23136763 11.70266871 73.93371582 11.69662476 C66.39976231 11.69058117 58.86599537 11.70290459 51.33207369 11.72419482 C44.86746417 11.74179299 38.40291414 11.74781508 31.93828154 11.74455708 C28.07552742 11.74274148 24.21290643 11.74540791 20.35017395 11.75927162 C16.71891381 11.77181674 13.08794532 11.76993769 9.45668983 11.75686073 C7.48561982 11.75335509 5.51454103 11.76469682 3.54350281 11.77642822 C2.37414688 11.76941391 1.20479095 11.7623996 0 11.75517273 C-1.01837196 11.75534047 -2.03674393 11.75550821 -3.08597565 11.75568104 C-5.61755371 11.38095093 -5.61755371 11.38095093 -7.44521332 10.01381207 C-9.12238088 7.67781669 -9.03864178 6.18820474 -8.61755371 3.38095093 C-6.18316471 -0.00884557 -4.02438299 0.00446977 0 0 Z " fill="#ADBBDF" transform="translate(112.6175537109375,188.61904907226563)"/>
<path d="M0 0 C1.18625473 -0.00563965 2.37250946 -0.0112793 3.5947113 -0.01708984 C4.90283279 -0.01304138 6.21095428 -0.00899292 7.55871582 -0.00482178 C8.94491256 -0.00753068 10.33110786 -0.01109104 11.71730042 -0.01544189 C15.4878929 -0.02458022 19.25837626 -0.02101574 23.02897072 -0.01468372 C26.96918667 -0.00963117 30.90939307 -0.01431309 34.84960938 -0.01745605 C41.46734297 -0.02109788 48.08503196 -0.01629094 54.70275879 -0.0067749 C62.36107504 0.00411008 70.01928481 0.00058465 77.67759848 -0.01042771 C84.24492859 -0.01949444 90.8122266 -0.02078889 97.37956095 -0.01555037 C101.30542147 -0.01242728 105.2312319 -0.0120306 109.15708923 -0.01862335 C112.84738097 -0.02438729 116.537535 -0.02041754 120.22781181 -0.00883484 C122.2336648 -0.00491501 124.23952938 -0.01088201 126.24537659 -0.01708984 C127.43163132 -0.0114502 128.61788605 -0.00581055 129.84008789 0 C130.87542915 0.00075405 131.91077042 0.0015081 132.97748566 0.002285 C135.42004395 0.25396729 135.42004395 0.25396729 137.42004395 2.25396729 C137.67004395 5.25396729 137.67004395 5.25396729 137.42004395 8.25396729 C134.76678072 10.90723051 133.54549974 10.50523588 129.84008789 10.50793457 C128.65383316 10.51357422 127.46757843 10.51921387 126.24537659 10.52502441 C124.28319435 10.51895172 124.28319435 10.51895172 122.28137207 10.51275635 C120.89517533 10.51546525 119.50898003 10.51902561 118.12278748 10.52337646 C114.35219499 10.53251479 110.58171163 10.52895031 106.81111717 10.52261829 C102.87090123 10.51756574 98.93069482 10.52224767 94.99047852 10.52539062 C88.37274492 10.52903245 81.75505593 10.52422551 75.1373291 10.51470947 C67.47901285 10.50382449 59.82080308 10.50734992 52.16248941 10.51836228 C45.5951593 10.52742901 39.02786129 10.52872346 32.46052694 10.52348495 C28.53466642 10.52036185 24.60885599 10.51996517 20.68299866 10.52655792 C16.99270692 10.53232186 13.30255289 10.52835211 9.61227608 10.51676941 C7.6064231 10.51284958 5.60055851 10.51881658 3.5947113 10.52502441 C2.40845657 10.51938477 1.22220184 10.51374512 0 10.50793457 C-1.03534126 10.50718052 -2.07068253 10.50642647 -3.13739777 10.50564957 C-5.57995605 10.25396729 -5.57995605 10.25396729 -7.57995605 8.25396729 C-7.82995605 5.25396729 -7.82995605 5.25396729 -7.57995605 2.25396729 C-4.92669283 -0.39929594 -3.70541185 0.00269869 0 0 Z " fill="#ACBADF" transform="translate(111.5799560546875,265.74603271484375)"/>
<path d="M0 0 C0.89294769 -0.00511093 1.78589539 -0.01022186 2.7059021 -0.01548767 C5.66207553 -0.02940542 8.61801643 -0.02842544 11.57421875 -0.02612305 C13.62540779 -0.03000842 15.67659602 -0.03434276 17.7277832 -0.03910828 C22.0285096 -0.04657492 26.32915391 -0.04627572 30.62988281 -0.04101562 C36.14832864 -0.03521659 41.66643932 -0.05216041 47.18482971 -0.0753603 C51.4209592 -0.09007177 55.65700746 -0.09097294 59.89315796 -0.08785057 C61.92817855 -0.08836496 63.96320356 -0.09362464 65.99819946 -0.10366249 C68.84016902 -0.1159612 71.68147898 -0.10927512 74.5234375 -0.09765625 C75.36820648 -0.10529999 76.21297546 -0.11294373 77.08334351 -0.12081909 C82.83067449 -0.06872701 82.83067449 -0.06872701 84.9778595 1.64179707 C86.26171875 3.2746582 86.26171875 3.2746582 86.63671875 5.7746582 C86.1905438 8.7491579 85.57619983 9.43227299 83.26171875 11.2746582 C80.25023094 11.57624143 77.44479809 11.69459182 74.43164062 11.67871094 C73.52893936 11.68557419 72.6262381 11.69243744 71.69618225 11.69950867 C68.70745183 11.71783461 65.71924338 11.71393126 62.73046875 11.70825195 C60.6568586 11.71281066 58.58324997 11.7181153 56.50964355 11.72413635 C52.16180283 11.73307862 47.81414568 11.73063125 43.46630859 11.72070312 C37.88722035 11.70920656 32.30876437 11.72943002 26.72975922 11.75862026 C22.44728554 11.77694138 18.16496456 11.77669807 13.88246155 11.77098274 C11.82510999 11.77082906 9.76774838 11.77691227 7.71043396 11.78927422 C4.83714792 11.80410686 1.96504518 11.79356459 -0.90820312 11.77636719 C-1.76232285 11.78603516 -2.61644257 11.79570312 -3.4964447 11.80566406 C-9.23209305 11.73356282 -9.23209305 11.73356282 -11.79797363 9.40736389 C-13.04464036 6.57980708 -12.79759911 5.14994954 -11.73828125 2.2746582 C-7.83057882 -0.33047675 -4.53352444 -0.01329527 0 0 Z " fill="#ADBBDF" transform="translate(257.73828125,362.725341796875)"/>
<path d="M0 0 C3.18651836 -0.63730367 5.84505171 -0.86979814 9 0 C11.06792507 2.43208798 12.39753307 4.85654134 13.80859375 7.71484375 C14.78812189 10.13837614 14.78812189 10.13837614 17 11 C17.2475 10.29875 17.495 9.5975 17.75 8.875 C19.24061716 5.44658053 20.50889182 2.81888557 23 0 C25.84601354 -0.52885692 28.07509203 -0.2924908 31 0 C29.37963273 5.61341518 26.65071408 9.61859562 23.265625 14.31640625 C21.71627461 16.89077927 21.71627461 16.89077927 22.5390625 19.41796875 C24.32713671 22.57817477 26.17685727 25.68666603 28.125 28.75 C32 34.87759516 32 34.87759516 32 36 C28.77759362 36.72339735 26.19028828 36.94396188 23 36 C20.05137659 32.65074841 18.00541151 28.97213341 16 25 C15.01941648 26.45738102 14.04057868 27.91593675 13.0625 29.375 C12.51722656 30.18710938 11.97195313 30.99921875 11.41015625 31.8359375 C9.98906121 33.92719184 9.98906121 33.92719184 9 36 C6.03 36 3.06 36 0 36 C1.77575174 31.01527556 4.59192275 27.10596854 7.63671875 22.81640625 C9.37083068 19.23389994 9.1789283 17.77640449 8 14 C6.7087596 11.62772113 5.4177353 9.42958353 3.9375 7.1875 C0 1.08269231 0 1.08269231 0 0 Z " fill="#FEF8F8" transform="translate(368,188)"/>
<path d="M0 0 C0.76691666 -0.00570007 1.53383331 -0.01140015 2.32398987 -0.01727295 C3.94718037 -0.0267236 5.57039007 -0.03325719 7.19360352 -0.03710938 C9.67823654 -0.04682351 12.16204528 -0.07784846 14.64648438 -0.109375 C16.22265133 -0.11590427 17.79882421 -0.12115504 19.375 -0.125 C20.49073647 -0.1435202 20.49073647 -0.1435202 21.62901306 -0.16241455 C26.7583447 -0.14023494 26.7583447 -0.14023494 29.22290039 1.56738281 C30.71108116 3.92845578 30.66387646 5.46999026 30.25390625 8.203125 C29.22070312 9.83447266 29.22070312 9.83447266 27.25390625 11.203125 C24.56059614 11.5013397 22.10314831 11.62364161 19.41015625 11.6015625 C18.26190369 11.60586777 18.26190369 11.60586777 17.0904541 11.61026001 C15.47321838 11.6123 13.85595795 11.60677463 12.23876953 11.59423828 C9.76278534 11.57818258 7.2884334 11.59408797 4.8125 11.61328125 C3.24088181 11.61129881 1.66926464 11.6074551 0.09765625 11.6015625 C-0.64303101 11.60763519 -1.38371826 11.61370789 -2.14685059 11.6199646 C-5.09757439 11.5795726 -7.23381652 11.53535553 -9.74804688 9.90478516 C-11.47381422 6.96236872 -10.50948294 4.37412624 -9.74609375 1.203125 C-6.65676116 -0.3415413 -3.3916025 0.0193255 0 0 Z " fill="#474747" transform="translate(478.74609375,209.796875)"/>
<path d="M0 0 C2.0304137 0.00315772 4.05936624 -0.02029792 6.08959961 -0.0456543 C8.01255859 -0.04662109 8.01255859 -0.04662109 9.97436523 -0.04760742 C11.14926514 -0.05058838 12.32416504 -0.05356934 13.53466797 -0.05664062 C16.86736393 0.34771623 18.26300173 0.94565038 20.60327148 3.31567383 C21.09159096 6.10607081 21.10110853 7.57181266 19.51147461 9.94702148 C16.61780224 12.02249837 14.15879425 11.70467613 10.63452148 11.71411133 C9.95780396 11.71698151 9.28108643 11.71985168 8.5838623 11.72280884 C7.15493939 11.7248478 5.72598846 11.71932951 4.29711914 11.70678711 C2.11077424 11.69072893 -0.07372231 11.70663917 -2.26000977 11.72583008 C-3.64933676 11.72384761 -5.0386626 11.72000387 -6.42797852 11.71411133 C-7.6919043 11.71072754 -8.95583008 11.70734375 -10.25805664 11.70385742 C-13.39672852 11.31567383 -13.39672852 11.31567383 -15.34008789 9.98217773 C-16.39672852 8.31567383 -16.39672852 8.31567383 -16.27172852 5.25317383 C-14.13130237 -1.93254251 -6.14932513 -0.02006911 0 0 Z " fill="#AEBCE0" transform="translate(296.396728515625,226.684326171875)"/>
<path d="M0 0 C2.0304137 0.00315772 4.05936624 -0.02029792 6.08959961 -0.0456543 C8.01255859 -0.04662109 8.01255859 -0.04662109 9.97436523 -0.04760742 C11.14926514 -0.05058838 12.32416504 -0.05356934 13.53466797 -0.05664062 C16.86736393 0.34771623 18.26300173 0.94565038 20.60327148 3.31567383 C21.09159096 6.10607081 21.10110853 7.57181266 19.51147461 9.94702148 C16.61780224 12.02249837 14.15879425 11.70467613 10.63452148 11.71411133 C9.95780396 11.71698151 9.28108643 11.71985168 8.5838623 11.72280884 C7.15493939 11.7248478 5.72598846 11.71932951 4.29711914 11.70678711 C2.11077424 11.69072893 -0.07372231 11.70663917 -2.26000977 11.72583008 C-3.64933676 11.72384761 -5.0386626 11.72000387 -6.42797852 11.71411133 C-7.6919043 11.71072754 -8.95583008 11.70734375 -10.25805664 11.70385742 C-13.39672852 11.31567383 -13.39672852 11.31567383 -15.34008789 9.98217773 C-16.39672852 8.31567383 -16.39672852 8.31567383 -16.27172852 5.25317383 C-14.13130237 -1.93254251 -6.14932513 -0.02006911 0 0 Z " fill="#AEBCE0" transform="translate(296.396728515625,188.684326171875)"/>
<path d="M0 0 C2.27836299 -0.00972828 4.55583233 -0.04076136 6.83398438 -0.07226562 C8.27668734 -0.07879351 9.71939677 -0.08404482 11.16210938 -0.08789062 C13.13824219 -0.10190918 13.13824219 -0.10190918 15.15429688 -0.11621094 C16.188125 0.00141602 17.22195313 0.11904297 18.28710938 0.24023438 C20.28710938 3.24023438 20.28710938 3.24023438 20.03710938 5.80273438 C19.28710938 8.24023438 19.28710938 8.24023438 17.28710938 10.24023438 C12.887096 10.63971909 8.47252775 10.56924999 4.05639648 10.5559082 C1.86131017 10.5527512 -0.33242448 10.57619198 -2.52734375 10.6015625 C-3.92122226 10.60383581 -5.31510439 10.60453884 -6.70898438 10.60351562 C-7.9792749 10.60649658 -9.24956543 10.60947754 -10.55834961 10.61254883 C-13.71289062 10.24023438 -13.71289062 10.24023438 -15.66235352 8.9128418 C-16.71289062 7.24023438 -16.71289062 7.24023438 -16.52539062 4.11523438 C-16.25726563 3.16648437 -15.98914063 2.21773438 -15.71289062 1.24023438 C-11.2012019 -1.01560999 -5.02089658 0.01301875 0 0 Z " fill="#ACBADF" transform="translate(296.712890625,265.759765625)"/>
<path d="M0 0 C2.4664769 1.56210203 2.89160004 2.54231129 3.5625 5.375 C2.72347634 9.29044373 0.15201665 10.86162747 -3 13 C-3.56460937 13.39703125 -4.12921875 13.7940625 -4.7109375 14.203125 C-8.90222958 16.8961724 -12.0761484 17.57927666 -17 17 C-19 15 -19 15 -19.6875 11.75 C-19 8 -19 8 -17.12890625 6.27734375 C-14.80173288 4.72207353 -12.46793416 3.31977274 -10 2 C-8.95779297 1.43152344 -8.95779297 1.43152344 -7.89453125 0.8515625 C-5.1387883 -0.38710134 -2.97874231 -0.31688748 0 0 Z " fill="#474747" transform="translate(488,186)"/>
<path d="M0 0 C6.35364488 0.12063883 12.73071457 5.23071457 17.0625 9.5625 C16.8125 13.125 16.8125 13.125 16.0625 16.5625 C13.2124262 17.9875369 11.2344856 17.83156927 8.0625 17.5625 C4.88671875 16.06640625 4.88671875 16.06640625 1.75 14.125 C0.70199219 13.48691406 -0.34601563 12.84882813 -1.42578125 12.19140625 C-3.9375 10.5625 -3.9375 10.5625 -4.9375 9.5625 C-5.125 6.125 -5.125 6.125 -4.9375 2.5625 C-2.9375 0.5625 -2.9375 0.5625 0 0 Z " fill="#464646" transform="translate(473.9375,227.4375)"/>
</svg>
