<?xml version="1.0" encoding="UTF-8"?>
<svg version="1.1" xmlns="http://www.w3.org/2000/svg" width="512" height="512">
<path d="M0 0 C1.28583984 0.65355469 1.28583984 0.65355469 2.59765625 1.3203125 C14.52516646 7.9047299 21.61825111 17.48601313 26.171875 30.296875 C29.22439223 43.94681053 27.77790374 58.52131216 20.4375 70.5 C12.1701836 81.79490677 1.60219454 91.55943327 -8.25210571 101.45310974 C-9.66702252 102.87707434 -11.08174882 104.30122823 -12.49630296 105.7255531 C-16.3545039 109.60910145 -20.21572844 113.4896307 -24.07757711 117.3695513 C-27.39690367 120.70514711 -30.71447997 124.04248121 -34.03210725 127.37976699 C-64.99722085 158.52740278 -96.00609731 189.63158402 -127.02523233 220.72541334 C-131.6358076 225.34712653 -136.24616679 229.96905526 -140.85644531 234.59106445 C-141.36578532 235.10169068 -141.87512532 235.6123169 -142.39989987 236.13841665 C-158.90245054 252.68293257 -175.38408447 269.24809423 -191.85449852 285.82459825 C-208.82413497 302.90333887 -225.81351032 319.96219334 -242.82809198 336.99616387 C-245.23678207 339.4076108 -247.64525536 341.81927414 -250.05360031 344.23106575 C-250.52749015 344.70561816 -251.00137998 345.18017057 -251.48963012 345.66910336 C-258.60777398 352.79824853 -265.70858177 359.94434536 -272.80037308 367.09969902 C-280.87971284 375.25144146 -288.97938145 383.38228492 -297.10568871 391.48721843 C-301.24369915 395.61561821 -305.37170273 399.75279085 -309.47338676 403.91731071 C-340.22660792 435.11748894 -340.22660792 435.11748894 -361.34434962 443.83902943 C-365.93912103 445.84772546 -370.26624979 448.34207402 -374.625 450.8125 C-384.17102028 456.06398389 -393.83268916 461.06748902 -403.52612305 466.03918457 C-412.65812114 470.72555945 -421.71235716 475.52323197 -430.69946289 480.48339844 C-439.61260781 485.38144143 -448.65084075 490.03257015 -457.69506836 494.68212891 C-465.36143816 498.62454543 -472.98398077 502.63266 -480.54296875 506.77734375 C-483 508 -483 508 -485 508 C-483.71312563 503.86672754 -482.16222121 500.11905499 -480.1640625 496.28125 C-479.31932373 494.65364746 -479.31932373 494.65364746 -478.45751953 492.99316406 C-477.85278809 491.84041992 -477.24805664 490.68767578 -476.625 489.5 C-475.98927328 488.28100128 -475.35369591 487.06192467 -474.71826172 485.84277344 C-470.47293229 477.71732151 -466.10818224 469.66111906 -461.68212891 461.6328125 C-456.94529196 452.99605758 -452.45552108 444.23735812 -447.96054077 435.47332764 C-443.27607252 426.34505195 -438.48365495 417.29255033 -433.52099609 408.31152344 C-428.57915981 399.32667144 -423.9038531 390.20618455 -419.24975586 381.06982422 C-418.65428955 379.90725098 -418.05882324 378.74467773 -417.4453125 377.546875 C-416.92469238 376.52432617 -416.40407227 375.50177734 -415.86767578 374.44824219 C-415.25134277 373.31032227 -414.63500977 372.17240234 -414 371 C-413.5042012 370.00327691 -413.5042012 370.00327691 -412.99838626 368.98641801 C-408.20244964 360.10053593 -401.06448964 353.51399393 -393.96902466 346.47454834 C-392.51676787 345.01911213 -391.06538732 343.56280117 -389.6148051 342.10569596 C-385.63939956 338.11749921 -381.65166418 334.14183658 -377.66174626 330.16816568 C-373.35586827 325.87546997 -369.06155826 321.57122858 -364.76577759 317.26843262 C-357.32423766 309.81798091 -349.87538923 302.37489459 -342.42117691 294.93712616 C-334.60132877 287.1345245 -326.78522061 279.32820976 -318.97417831 271.5167923 C-318.48775768 271.03035638 -318.00133705 270.54392045 -317.5001764 270.04274405 C-315.52554106 268.06802689 -313.55093043 266.09328503 -311.57635347 264.11850949 C-293.06327715 245.60362211 -274.53937969 227.09959683 -256.01000584 208.60102119 C-239.55428895 192.17255514 -223.10597628 175.73671395 -206.66455078 159.29394531 C-205.60866914 158.23798285 -204.55278744 157.18202043 -203.4969057 156.12605807 C-202.9748934 155.60400507 -202.45288109 155.08195206 -201.91505024 154.54407927 C-199.28720447 151.91603191 -196.65934849 149.28799476 -194.03148079 146.65996933 C-193.51302235 146.14147747 -192.99456391 145.6229856 -192.46039461 145.08878186 C-178.71351507 131.34117169 -164.96173174 117.59846893 -151.20828617 103.85742784 C-150.71894334 103.36852555 -150.22960051 102.87962326 -149.72542911 102.37590575 C-147.75775846 100.41001152 -145.79008761 98.44411749 -143.82239084 96.47824941 C-136.98217206 89.64434507 -130.14360025 82.80879662 -123.30609542 75.97217697 C-114.49465999 67.16193662 -105.6797168 58.35522536 -96.85916533 49.55410978 C-92.6066395 45.31081408 -88.35569399 41.06596755 -84.10903931 36.81679535 C-80.22110349 32.92666646 -76.32857463 29.04119577 -72.4323331 25.15938619 C-71.02418754 23.75486125 -69.61771267 22.34865889 -68.21309115 20.94060966 C-66.30161055 19.02498179 -64.38407324 17.11562238 -62.46493721 15.2076683 C-61.92293881 14.66155927 -61.38094041 14.11545023 -60.82251781 13.55279243 C-55.50923703 8.29580026 -49.68476241 3.53914962 -42.9375 0.25 C-41.77541016 -0.33007812 -41.77541016 -0.33007812 -40.58984375 -0.921875 C-28.22805384 -6.06795949 -11.96332181 -6.32543452 0 0 Z " fill="#FEB04E" transform="translate(485,4)"/>
<path d="M0 0 C2.89746876 1.3954221 5.01375279 2.75230847 7.31567383 5.00927734 C8.25102715 5.92064957 8.25102715 5.92064957 9.20527649 6.85043335 C9.86585556 7.50564972 10.52643463 8.16086609 11.20703125 8.8359375 C11.89182053 9.5116983 12.5766098 10.18745911 13.28215027 10.88369751 C14.72459077 12.31165193 16.16425421 13.74241631 17.60131836 15.17578125 C19.80975997 17.3722748 22.03616401 19.5494285 24.26367188 21.7265625 C25.66260331 23.11603568 27.06042886 24.50662334 28.45703125 25.8984375 C29.12773148 26.54960541 29.7984317 27.20077332 30.48945618 27.87167358 C31.09726425 28.48555939 31.70507233 29.09944519 32.33129883 29.73193359 C33.14260002 30.53562881 33.14260002 30.53562881 33.97029114 31.3555603 C35 33 35 33 34.85901648 34.78504634 C33.63685125 37.93637045 31.67470466 39.69748764 29.28544521 42.08369827 C28.53914165 42.83519413 28.53914165 42.83519413 27.77776125 43.60187173 C26.09835746 45.28925551 24.40841082 46.96567142 22.71836853 48.64239502 C21.50417282 49.85789822 20.29063625 51.07406016 19.07770544 52.29082561 C15.73462821 55.64063084 12.3822348 58.98097666 9.0282954 62.31990147 C5.41618646 65.91908766 1.81271771 69.52690559 -1.79179382 73.13369751 C-8.04074297 79.38422178 -14.29517331 85.62921798 -20.55333138 91.87052155 C-29.60163171 100.89446876 -38.64166331 109.92666198 -47.67968064 118.96090683 C-62.34252436 133.61718028 -77.01205884 148.26673796 -91.68579102 162.91210938 C-105.94222899 177.14102169 -120.19552119 191.373073 -134.44458008 205.609375 C-135.76145104 206.92506371 -135.76145104 206.92506371 -137.10492546 208.26733199 C-141.50902332 212.66751481 -145.91305926 217.06775961 -150.3170644 221.46803522 C-186.8684467 257.98830367 -223.43068424 294.49768972 -260 331 C-257.45031562 333.54968438 -255.75853795 333.63984211 -252.234375 334.33203125 C-251.04352295 334.57099121 -249.8526709 334.80995117 -248.62573242 335.05615234 C-247.34674072 335.30574707 -246.06774902 335.5553418 -244.75 335.8125 C-242.11509721 336.33855247 -239.48136188 336.8703342 -236.84765625 337.40234375 C-235.85606255 337.60165497 -235.85606255 337.60165497 -234.84443665 337.80499268 C-228.60300596 339.06537689 -222.39257392 340.44766636 -216.1875 341.875 C-215.25196289 342.09003174 -214.31642578 342.30506348 -213.35253906 342.52661133 C-211.23446594 343.01531973 -209.11713366 343.50723769 -207 344 C-207 344.66 -207 345.32 -207 346 C-207.58152832 346.30067383 -208.16305664 346.60134766 -208.76220703 346.91113281 C-219.40057864 352.41869127 -230.00846554 357.96689045 -240.5 363.75 C-250.08483999 369.02667149 -259.79119517 374.04618009 -269.52557373 379.03890991 C-278.65775604 383.72537569 -287.71217722 388.52313266 -296.69946289 393.48339844 C-305.61260781 398.38144143 -314.65084075 403.03257015 -323.69506836 407.68212891 C-331.36143816 411.62454543 -338.98398077 415.63266 -346.54296875 419.77734375 C-349 421 -349 421 -351 421 C-349.71312563 416.86672754 -348.16222121 413.11905499 -346.1640625 409.28125 C-345.31932373 407.65364746 -345.31932373 407.65364746 -344.45751953 405.99316406 C-343.85278809 404.84041992 -343.24805664 403.68767578 -342.625 402.5 C-341.98927328 401.28100128 -341.35369591 400.06192467 -340.71826172 398.84277344 C-336.47293229 390.71732151 -332.10818224 382.66111906 -327.68212891 374.6328125 C-322.94529196 365.99605758 -318.45552108 357.23735812 -313.96054077 348.47332764 C-309.27607252 339.34505195 -304.48365495 330.29255033 -299.52099609 321.31152344 C-294.57915981 312.32667144 -289.9038531 303.20618455 -285.24975586 294.06982422 C-284.65428955 292.90725098 -284.05882324 291.74467773 -283.4453125 290.546875 C-282.92469238 289.52432617 -282.40407227 288.50177734 -281.86767578 287.44824219 C-281.25134277 286.31032227 -280.63500977 285.17240234 -280 284 C-279.63573768 283.30163202 -279.27147536 282.60326404 -278.89617479 281.88373339 C-274.67393338 274.27684776 -269.00675573 268.45561869 -262.87637329 262.39535522 C-261.74014609 261.25738099 -260.60479944 260.118527 -259.47025239 258.97887766 C-256.36869248 255.86842013 -253.2548783 252.77049539 -250.13882709 249.6745646 C-246.77375868 246.32683219 -243.42032162 242.96748309 -240.06542969 239.60955811 C-234.25745189 233.79948683 -228.44221793 227.99676184 -222.6219368 222.19901657 C-214.20689089 213.8165321 -205.80296249 205.42297353 -197.40167288 197.02670462 C-183.76957612 183.403354 -170.12857785 169.78895287 -156.48193359 156.18017578 C-143.22853992 142.9635198 -129.97937004 129.74265309 -116.73583984 116.51611328 C-115.51054917 115.29239895 -115.51054917 115.29239895 -114.26050515 114.04396312 C-110.1624246 109.95110286 -106.06442675 105.85815981 -101.96647 101.76517558 C-67.99045874 67.83060515 -33.99997898 33.91055531 0 0 Z " fill="#FECD47" transform="translate(351,91)"/>
<path d="M0 0 C0.85722656 0.43570312 1.71445312 0.87140625 2.59765625 1.3203125 C14.52516646 7.9047299 21.61825111 17.48601313 26.171875 30.296875 C29.22439223 43.94681053 27.77790374 58.52131216 20.4375 70.5 C11.6416304 82.49869361 0.339581 92.79617945 -10.16796875 103.265625 C-11.69946433 104.79525081 -13.2307358 106.32510102 -14.76179504 107.85516357 C-18.75267062 111.84225792 -22.74654203 115.82633765 -26.74108887 119.80975342 C-30.83249526 123.89085014 -34.92100049 127.97485112 -39.00976562 132.05859375 C-47.00370629 140.0418748 -55.00082136 148.02196761 -63 156 C-67.74190735 152.04145382 -72.22496834 147.9163086 -76.57788086 143.53564453 C-77.50112656 142.61261787 -77.50112656 142.61261787 -78.44302368 141.67094421 C-80.45267998 139.6605979 -82.45878274 137.64674589 -84.46484375 135.6328125 C-85.86709544 134.22869339 -87.26956981 132.82479664 -88.67225647 131.42111206 C-92.34541268 127.74415621 -96.01555454 124.06420609 -99.68505859 120.38360596 C-103.43729767 116.62109763 -107.19240493 112.86145421 -110.94726562 109.1015625 C-118.30097336 101.73716251 -125.65149708 94.36959333 -133 87 C-128.83717573 82.03826767 -124.50821326 77.35965376 -119.92822266 72.78295898 C-119.24769333 72.09907104 -118.567164 71.41518311 -117.86601257 70.71057129 C-115.63465307 68.46977879 -113.39960394 66.23271363 -111.1640625 63.99609375 C-109.59989289 62.42870702 -108.03579699 60.86124672 -106.47177124 59.29371643 C-103.20040477 56.01637839 -99.92699423 52.74109757 -96.65234375 49.46704102 C-92.46900864 45.28380759 -88.29260079 41.09373164 -84.11792946 36.90185452 C-80.89219176 33.66496884 -77.66188934 30.43266824 -74.4303093 27.20161629 C-72.88902342 25.65915513 -71.34934772 24.1150832 -69.81135941 22.56933403 C-67.65584593 20.40396104 -65.49401331 18.24508934 -63.33056641 16.08764648 C-62.70485245 15.45631302 -62.07913849 14.82497955 -61.4344635 14.17451477 C-55.90689342 8.68560422 -49.97890499 3.68253799 -42.9375 0.25 C-42.16277344 -0.13671875 -41.38804687 -0.5234375 -40.58984375 -0.921875 C-28.22805384 -6.06795949 -11.96332181 -6.32543452 0 0 Z " fill="#FE745C" transform="translate(485,4)"/>
<path d="M0 0 C0.66 0 1.32 0 2 0 C2.22139648 1.02657715 2.44279297 2.0531543 2.67089844 3.11083984 C3.51278526 7.01379309 4.35541576 10.9165855 5.19824219 14.81933594 C5.55911406 16.49084337 5.91979882 18.16239122 6.28027344 19.83398438 C8.81037684 31.56574875 11.38308702 43.2872892 14 55 C15.20422607 55.25692627 16.40845215 55.51385254 17.64916992 55.77856445 C22.17641918 56.74476988 26.70336399 57.71239541 31.23022461 58.68041992 C33.17838581 59.09681465 35.12662611 59.51283949 37.07495117 59.9284668 C47.73656867 62.20312768 58.39088294 64.48957886 69 67 C69 67.66 69 68.32 69 69 C68.41847168 69.30067383 67.83694336 69.60134766 67.23779297 69.91113281 C56.59942136 75.41869127 45.99153446 80.96689045 35.5 86.75 C25.91516001 92.02667149 16.20880483 97.04618009 6.47442627 102.03890991 C-2.65775604 106.72537569 -11.71217722 111.52313266 -20.69946289 116.48339844 C-29.61260781 121.38144143 -38.65084075 126.03257015 -47.69506836 130.68212891 C-55.36143816 134.62454543 -62.98398077 138.63266 -70.54296875 142.77734375 C-73 144 -73 144 -75 144 C-73.71312563 139.86672754 -72.16222121 136.11905499 -70.1640625 132.28125 C-69.60090332 131.19618164 -69.03774414 130.11111328 -68.45751953 128.99316406 C-67.85278809 127.84041992 -67.24805664 126.68767578 -66.625 125.5 C-65.98927328 124.28100128 -65.35369591 123.06192467 -64.71826172 121.84277344 C-60.47293229 113.71732151 -56.10818224 105.66111906 -51.68212891 97.6328125 C-46.94529196 88.99605758 -42.45552108 80.23735812 -37.96054077 71.47332764 C-33.27726349 62.3473727 -28.48475029 53.29795163 -23.52539062 44.31811523 C-18.53330341 35.23811986 -13.80006974 26.02652104 -9.07397461 16.80615234 C-6.16075029 11.13255928 -3.23761629 5.49585366 0 0 Z " fill="#FEEAB3" transform="translate(75,368)"/>
<path d="M0 0 C4.74190735 3.95854618 9.22496834 8.0836914 13.57788086 12.46435547 C14.19337799 13.07970657 14.80887512 13.69505768 15.44302368 14.32905579 C17.45267998 16.3394021 19.45878274 18.35325411 21.46484375 20.3671875 C22.86709544 21.77130661 24.26956981 23.17520336 25.67225647 24.57888794 C29.34541268 28.25584379 33.01555454 31.93579391 36.68505859 35.61639404 C40.43729767 39.37890237 44.19240493 43.13854579 47.94726562 46.8984375 C55.30097336 54.26283749 62.65149708 61.63040667 70 69 C66.77736442 72.81296792 63.55310331 76.57297152 60.01416016 80.09936523 C59.29386627 80.81958359 58.57357239 81.53980194 57.83145142 82.28184509 C57.07496307 83.03317215 56.31847473 83.78449921 55.5390625 84.55859375 C54.74849457 85.34774673 53.95792664 86.13689972 53.1434021 86.94996643 C50.63962374 89.44818661 48.13237525 91.94289044 45.625 94.4375 C43.91773752 96.13974208 42.21070391 97.84221373 40.50390625 99.54492188 C36.33858075 103.69927389 32.17020328 107.85054509 28 112 C23.25809265 108.04145382 18.77503166 103.9163086 14.42211914 99.53564453 C13.80662201 98.92029343 13.19112488 98.30494232 12.55697632 97.67094421 C10.54732002 95.6605979 8.54121726 93.64674589 6.53515625 91.6328125 C5.13290456 90.22869339 3.73043019 88.82479664 2.32774353 87.42111206 C-1.34541268 83.74415621 -5.01555454 80.06420609 -8.68505859 76.38360596 C-12.43729767 72.62109763 -16.19240493 68.86145421 -19.94726562 65.1015625 C-27.30097336 57.73716251 -34.65149708 50.36959333 -42 43 C-38.77736442 39.18703208 -35.55310331 35.42702848 -32.01416016 31.90063477 C-31.29386627 31.18041641 -30.57357239 30.46019806 -29.83145142 29.71815491 C-29.07496307 28.96682785 -28.31847473 28.21550079 -27.5390625 27.44140625 C-26.74849457 26.65225327 -25.95792664 25.86310028 -25.1434021 25.05003357 C-22.63962374 22.55181339 -20.13237525 20.05710956 -17.625 17.5625 C-15.91773752 15.86025792 -14.21070391 14.15778627 -12.50390625 12.45507812 C-8.33858075 8.30072611 -4.17020328 4.14945491 0 0 Z " fill="#174460" transform="translate(394,48)"/>
<path d="M0 0 C4.56836963 0.86164693 6.9343915 3.55260774 10.078125 6.78515625 C10.64956238 7.36083847 11.22099976 7.93652069 11.80975342 8.52964783 C13.63033802 10.36700319 15.44020568 12.21452132 17.25 14.0625 C18.48368253 15.31123138 19.71804978 16.55928669 20.953125 17.80664062 C23.97674655 20.8633102 26.99079921 23.92913526 30 27 C27.72349306 29.51700557 25.46649705 30.96232817 22.44921875 32.49609375 C21.53358154 32.966521 20.61794434 33.43694824 19.67456055 33.92163086 C18.68883057 34.42186768 17.70310059 34.92210449 16.6875 35.4375 C7.56129824 40.12744403 -1.48239437 44.94110891 -10.46411133 49.90209961 C-26.99383245 59 -26.99383245 59 -30 59 C-28.71312563 54.86672754 -27.16222121 51.11905499 -25.1640625 47.28125 C-24.59977539 46.19400635 -24.03548828 45.1067627 -23.45410156 43.98657227 C-22.85049805 42.83600342 -22.24689453 41.68543457 -21.625 40.5 C-20.99953082 39.30077479 -20.37420695 38.10147377 -19.74902344 36.90209961 C-14.33620167 26.54321314 -8.76341108 16.27269786 -3.10644531 6.04516602 C-2.02703295 4.04996801 -1.00260525 2.03471573 0 0 Z " fill="#184561" transform="translate(30,453)"/>
</svg>
