<?xml version="1.0" encoding="UTF-8"?>
<svg version="1.1" xmlns="http://www.w3.org/2000/svg" width="512" height="512">
<path d="M0 0 C1.23081802 -0.00852997 2.46163605 -0.01705994 3.72975159 -0.02584839 C5.09097303 -0.02514938 6.45219437 -0.02422633 7.81341553 -0.02310181 C9.24928639 -0.02908731 10.68515404 -0.03589291 12.12101746 -0.04345703 C16.01997094 -0.06112518 19.91883663 -0.06581284 23.81782627 -0.0670886 C26.25552088 -0.06851066 28.6931932 -0.07278136 31.13088226 -0.07808304 C39.64047155 -0.09658822 48.14999819 -0.10475332 56.65960693 -0.10317993 C64.58262846 -0.10197941 72.50537718 -0.12306288 80.42832971 -0.15466726 C87.23698461 -0.18085549 94.04555058 -0.19154611 100.85425544 -0.19026911 C104.91784996 -0.18976009 108.98120219 -0.19540961 113.0447464 -0.21662521 C116.86979144 -0.23604992 120.69436423 -0.23610357 124.51942635 -0.22159195 C125.91900132 -0.21950774 127.31860616 -0.22418162 128.71813011 -0.23631287 C137.01807556 -0.30356563 144.17227523 -0.35264225 150.50203323 5.71474648 C154.32639696 10.06463947 156.23770988 13.55501709 156.259552 19.32620239 C156.27234695 20.85689865 156.27234695 20.85689865 156.28540039 22.41851807 C156.28404083 24.08927902 156.28404083 24.08927902 156.28265381 25.79379272 C156.28937103 26.9714621 156.29608826 28.14913147 156.30300903 29.36248779 C156.3187526 32.58999809 156.32536422 35.81735393 156.32664061 39.04489803 C156.32806363 41.06382025 156.33233616 43.08271562 156.33763504 45.10163116 C156.35613589 52.15235603 156.36430595 59.20300533 156.36273193 66.25375366 C156.36153182 72.8135096 156.38260809 79.37293581 156.41421926 85.93260837 C156.44042872 91.57354736 156.45109722 97.21437902 156.44982111 102.85537839 C156.44931267 106.22035136 156.45492954 109.58503152 156.47617722 112.94994354 C156.49580431 116.70806587 156.49001049 120.46534388 156.47796631 124.22348022 C156.48920532 125.32922394 156.50044434 126.43496765 156.51202393 127.57421875 C156.44936275 135.28079065 155.3075716 140.8598847 149.74212646 146.57992554 C141.36868808 151.71817182 133.81316766 151.67205804 124.21087646 151.56039429 C122.78741913 151.55478963 121.36395595 151.55052365 119.94049072 151.54753113 C116.21844119 151.53615063 112.49675041 151.50674345 108.77484131 151.47341919 C104.96711071 151.44257046 101.15932137 151.42899437 97.35150146 151.41390991 C89.89821403 151.38186599 82.44522077 151.33075367 74.99212646 151.26742554 C75.13944717 151.81103729 75.28676788 152.35464905 75.43855286 152.91473389 C78.80087934 165.32204217 82.16141404 177.72983355 85.51966858 190.13824463 C86.96802199 195.48870347 88.41815496 200.83866371 89.87361145 206.18719482 C90.68553631 209.17184117 91.49479572 212.15721042 92.30462646 215.14242554 C92.58765625 216.17802612 92.87068604 217.21362671 93.16229248 218.28060913 C93.41164551 219.20180542 93.66099854 220.12300171 93.91790771 221.07211304 C94.12842773 221.8453894 94.33894775 222.61866577 94.55584717 223.41537476 C94.99212646 225.26742554 94.99212646 225.26742554 94.99212646 227.26742554 C96.12005615 227.49043335 97.24798584 227.71344116 98.41009521 227.94320679 C103.06641771 228.97622292 107.60628278 230.30378517 112.16790771 231.68539429 C112.904758 231.90776764 113.64160828 232.13014099 114.40078735 232.35925293 C117.48864748 233.29318541 120.57544221 234.23021789 123.65838623 235.18026733 C125.92976048 235.87851252 128.20464202 236.56412047 130.48040771 237.24789429 C131.52265251 237.57433174 131.52265251 237.57433174 132.58595276 237.90736389 C137.32108735 239.34051967 137.32108735 239.34051967 141.99212646 238.26742554 C144.17309741 236.55464616 144.17309741 236.55464616 146.30462646 234.45492554 C150.00992761 231.03795081 153.51386525 228.55419722 157.99212646 226.26742554 C157.3514624 226.19265991 156.71079834 226.11789429 156.05072021 226.04086304 C149.59101898 225.05891143 145.26089301 223.33658581 140.99212646 218.26742554 C138.24824593 213.80171393 138.36428301 209.36080558 138.99212646 204.26742554 C140.76910611 198.92639013 144.12993443 195.95714879 148.99212646 193.26742554 C151.97317348 192.2737432 153.93909539 192.13715762 157.05126953 192.12698364 C158.09704666 192.1212735 159.14282379 192.11556335 160.22029114 192.10968018 C161.9408799 192.10800339 161.9408799 192.10800339 163.69622803 192.10629272 C164.90461838 192.10132782 166.11300873 192.09636292 167.35801697 192.09124756 C170.67433542 192.07913754 173.9905908 192.07168017 177.30692387 192.0672369 C179.38026513 192.06430405 181.4536009 192.0601988 183.52693939 192.05573273 C190.01800296 192.04205885 196.50905392 192.03239224 203.00013089 192.02853084 C210.48527744 192.02405331 217.97024109 192.00651932 225.45533204 191.97753024 C231.24569134 191.9558858 237.0359993 191.94582505 242.82639861 191.94448972 C246.28241113 191.94344345 249.73825169 191.93757426 253.1942215 191.9196701 C257.05302272 191.90006818 260.91159703 191.90448942 264.77044678 191.91098022 C265.90940903 191.90176544 267.04837128 191.89255066 268.22184753 191.88305664 C275.15092369 191.91956281 280.31066979 192.43666403 285.95306396 196.77523804 C289.34075662 200.64956057 290.92630651 203.80785582 291.15618896 208.99789429 C290.76259765 214.44257409 289.14669238 218.58910632 284.99212646 222.20492554 C281.41944972 224.6611408 279.04009501 225.39935945 274.80462646 225.32992554 C273.54650146 225.30930054 272.28837646 225.28867554 270.99212646 225.26742554 C270.827771 226.12400757 270.827771 226.12400757 270.66009521 226.99789429 C269.91927045 230.78633962 269.17208454 234.55493847 268.22650146 238.29867554 C264.63375254 252.52877914 262.74909507 266.93026611 270.55462646 280.07992554 C275.07484814 286.29523034 281.73084631 290.83177202 288.99212646 293.26742554 C293.50439689 293.69991152 298.01674698 293.72353909 302.54681396 293.74789429 C304.72286644 293.76725418 306.89508892 293.82932019 309.07025146 293.89242554 C317.57575425 294.02058847 323.42577521 293.10878532 329.99212646 287.26742554 C331.02337646 286.52492554 332.05462646 285.78242554 333.11712646 285.01742554 C342.10798077 276.41747794 347.72205878 265.25157908 348.23040771 252.78305054 C348.82194188 225.13146911 337.73156164 201.09599037 327.29705811 175.96835327 C327.01994995 175.29667114 326.7428418 174.62498901 326.45733643 173.93295288 C325.69884559 172.09509335 324.93560608 170.25919568 324.17205811 168.4234314 C323.14620692 165.6795501 322.45481663 163.15153883 321.99212646 160.26742554 C321.07717407 160.29099121 321.07717407 160.29099121 320.14373779 160.31503296 C317.36412936 160.37762367 314.58466955 160.41649176 311.80462646 160.45492554 C310.84491943 160.48006226 309.8852124 160.50519897 308.89642334 160.53109741 C299.79136684 160.62561357 299.79136684 160.62561357 295.99212646 157.26742554 C294.10751322 153.1055713 293.64075679 151.21612366 295.24212646 146.89242554 C296.99212646 144.26742554 296.99212646 144.26742554 298.99212646 143.26742554 C300.8967872 143.23233436 302.80261448 143.25366229 304.70697021 143.30258179 C319.89592662 144.13038816 319.89592662 144.13038816 332.67962646 137.45492554 C333.36411865 136.58223022 334.04861084 135.70953491 334.75384521 134.81039429 C338.28590728 130.79752797 342.16271392 128.61551323 347.51043701 127.95761108 C350.1832629 127.87573183 352.82017154 127.9164505 355.49212646 128.01742554 C356.40993896 128.03547241 357.32775146 128.05351929 358.27337646 128.07211304 C360.51408738 128.11879451 362.75252445 128.18424032 364.99212646 128.26742554 C372.63423173 146.59938042 372.63423173 146.59938042 370.99212646 154.26742554 C368.33217029 160.67550179 363.04265065 162.65784831 356.99212646 165.26742554 C358.10931396 166.89242554 359.22650146 168.51742554 360.34368896 170.14242554 C360.82579834 170.84367554 361.30790771 171.54492554 361.80462646 172.26742554 C362.54906006 173.35023804 362.54906006 173.35023804 363.30853271 174.45492554 C364.86973063 176.72575887 366.43092855 178.9965922 367.99212646 181.26742554 C368.46182861 181.95062866 368.93153076 182.63383179 369.41546631 183.33773804 C370.09343262 184.32387085 370.09343262 184.32387085 370.78509521 185.32992554 C371.45653564 186.30651123 371.45653564 186.30651123 372.14154053 187.30282593 C373.04857947 188.62222983 373.95547852 189.94172992 374.86224365 191.26132202 C377.16401712 194.61065563 379.46821344 197.95827304 381.77728271 201.30258179 C384.06801655 204.62123474 386.34880563 207.9465575 388.62493896 211.27523804 C389.55074244 212.62426595 390.48055587 213.97054918 391.41400146 215.31430054 C392.8028858 217.31368348 394.17966709 219.32095013 395.55462646 221.32992554 C396.18123169 222.2223999 396.18123169 222.2223999 396.82049561 223.13290405 C400.67346721 228.81033573 402.28581614 234.18267159 402.17962646 241.01742554 C402.17318115 241.94039429 402.16673584 242.86336304 402.16009521 243.81430054 C401.99212646 246.26742554 401.99212646 246.26742554 400.99212646 249.26742554 C401.67275146 249.41437866 402.35337646 249.56133179 403.05462646 249.71273804 C417.34561602 253.01942977 433.95114794 257.30154807 442.71478271 269.99789429 C445.7475514 275.38639155 447.6266851 281.21652675 448.80462646 287.26742554 C449.62927124 290.93334639 451.36091414 293.58454565 453.42962646 296.70492554 C460.86201998 307.96940553 462.35767073 320.18970419 459.71087646 333.42367554 C456.53785505 345.97780373 449.46947818 355.63844766 438.99212646 363.26742554 C427.17503413 369.90927201 414.9029742 372.2098634 401.48431396 369.57992554 C388.36276401 365.85750002 378.00369521 358.93686496 370.67962646 347.32992554 C363.58275176 334.60183503 362.77101707 321.40303782 365.99212646 307.26742554 C365.99212646 306.60742554 365.99212646 305.94742554 365.99212646 305.26742554 C365.44685303 305.95449585 364.90157959 306.64156616 364.33978271 307.34945679 C363.20863037 308.70103882 363.20863037 308.70103882 362.05462646 310.07992554 C361.32372803 310.97324585 360.59282959 311.86656616 359.83978271 312.78695679 C353.52521542 318.28730004 345.95138245 318.70541926 337.88250732 318.60800171 C336.9155896 318.60843979 335.94867188 318.60887787 334.95245361 318.60932922 C331.78708012 318.60725527 328.62225008 318.5839902 325.45697021 318.56039429 C323.25023182 318.55479338 321.04348968 318.55052562 318.83674622 318.54753113 C313.05156 318.53612137 307.26660265 318.50668754 301.48150635 318.47341919 C295.56906225 318.44263473 289.65658087 318.42900793 283.74407959 318.41390991 C272.15999511 318.38181409 260.57607988 318.33066471 248.99212646 318.26742554 C248.99942276 319.09157455 249.00671906 319.91572357 249.01423645 320.7648468 C249.01991135 321.84585159 249.02558624 322.92685638 249.03143311 324.0406189 C249.0387294 325.11226791 249.0460257 326.18391693 249.05354309 327.28804016 C248.82695574 338.28003167 243.18739566 348.51266582 235.96087646 356.51742554 C225.6195714 366.40910865 213.2745168 370.67712892 199.19940186 370.63632202 C185.82560434 370.25332747 173.92164443 364.74203523 164.67962646 355.07992554 C155.44786351 343.95252338 152.51731479 332.37988357 152.99212646 318.26742554 C152.41245117 318.2883728 151.83277588 318.30932007 151.23553467 318.3309021 C148.59207723 318.41439361 145.94889766 318.46618706 143.30462646 318.51742554 C142.39261475 318.55094116 141.48060303 318.58445679 140.54095459 318.61898804 C136.17442851 318.68250114 133.70487525 318.7046504 129.91009521 316.37680054 C126.25839464 312.36067363 126.81428758 308.48720591 126.78900146 303.30648804 C126.78330139 302.40554413 126.77760132 301.50460022 126.77172852 300.57635498 C126.76226552 298.66137875 126.75573939 296.74638613 126.75189209 294.83139038 C126.74228013 291.93867195 126.71130935 289.04669298 126.67962646 286.15414429 C126.62469178 276.46781666 126.79127221 267.5364786 129.99212646 258.26742554 C130.32212646 257.27742554 130.65212646 256.28742554 130.99212646 255.26742554 C130.18517334 255.0830896 129.37822021 254.89875366 128.54681396 254.70883179 C119.403723 252.52497248 110.35934883 250.01173994 101.34106445 247.36334229 C99.98884466 246.96764626 98.63544834 246.5759478 97.28088379 246.18835449 C95.34400306 245.63263941 93.41210628 245.05964468 91.48040771 244.48617554 C90.3515918 244.15553101 89.22277588 243.82488647 88.05975342 243.48422241 C83.9544968 241.85584207 80.87642817 240.11881808 78.92816162 236.03988647 C78.71466064 235.20231812 78.50115967 234.36474976 78.28118896 233.50180054 C78.01306396 232.49286743 77.74493896 231.48393433 77.46868896 230.44442749 C77.18767334 229.31351685 76.90665771 228.1826062 76.61712646 227.01742554 C76.12644697 225.14356779 75.63567729 223.26973321 75.14343262 221.39628601 C74.55925567 219.16314039 73.98337666 216.92793204 73.40716553 214.69271851 C71.69846749 208.10218235 69.91676104 201.53143193 68.14056396 194.95883179 C66.75723427 189.83266919 65.37432115 184.70639429 63.99212646 179.57992554 C63.81927376 178.93891403 63.64642105 178.29790253 63.46833038 177.63746643 C62.30559342 173.32378081 61.1478774 169.00876874 59.99212646 164.69320679 C59.53801895 163.00911461 59.53801895 163.00911461 59.07473755 161.29100037 C58.79997589 160.262686 58.52521423 159.23437164 58.24212646 158.17489624 C57.99978271 157.27197342 57.75743896 156.3690506 57.50775146 155.43876648 C56.99212646 153.26742554 56.99212646 153.26742554 56.99212646 151.26742554 C56.24789932 151.27630798 55.50367218 151.28519043 54.7368927 151.29434204 C47.69071808 151.37480566 40.64470513 151.43555015 33.59819889 151.47467422 C29.97629609 151.49546535 26.35477592 151.52362501 22.73309326 151.56918335 C19.23173246 151.61294773 15.73073748 151.63662623 12.22912407 151.64693451 C10.25669654 151.65781924 8.28441425 151.68899573 6.31221008 151.72061157 C-1.44393561 151.7225314 -8.61833415 151.29701344 -14.58488464 145.81973267 C-18.38976226 141.47839722 -20.25540813 137.8990659 -20.26856995 132.15722656 C-20.27565475 131.12545792 -20.28273956 130.09368927 -20.29003906 129.03065491 C-20.28756165 127.90432144 -20.28508423 126.77798798 -20.28253174 125.61752319 C-20.28764267 124.42688766 -20.2927536 123.23625214 -20.29801941 122.00953674 C-20.30953773 118.74703058 -20.31198888 115.48468197 -20.30945611 112.22216082 C-20.30838565 109.49611111 -20.31327178 106.77008478 -20.31806153 104.04404008 C-20.32915445 97.61067159 -20.32959564 91.17736147 -20.32354736 84.74398804 C-20.31750973 78.11381054 -20.32981358 71.48384537 -20.35111743 64.85370409 C-20.36875032 59.15589855 -20.37473206 53.45816047 -20.37147969 47.76032865 C-20.36966903 44.35970816 -20.3722809 40.95923906 -20.38619423 37.55864334 C-20.39852246 33.76430129 -20.39178784 29.97045105 -20.38018799 26.17611694 C-20.38783173 25.05383194 -20.39547546 23.93154694 -20.40335083 22.7752533 C-20.35926298 16.2547134 -19.93301397 11.44368012 -15.32427979 6.43930054 C-14.74549072 5.97008179 -14.16670166 5.50086304 -13.57037354 5.01742554 C-12.9941626 4.53789429 -12.41795166 4.05836304 -11.82427979 3.56430054 C-7.81694427 0.70314916 -4.95295129 0.01551543 0 0 Z M367.99212646 300.26742554 C368.99212646 302.26742554 368.99212646 302.26742554 368.99212646 302.26742554 Z " fill="#FEE076" transform="translate(40.00787353515625,70.73257446289063)"/>
<path d="M0 0 C1.23081802 -0.00852997 2.46163605 -0.01705994 3.72975159 -0.02584839 C5.09097303 -0.02514938 6.45219437 -0.02422633 7.81341553 -0.02310181 C9.24928639 -0.02908731 10.68515404 -0.03589291 12.12101746 -0.04345703 C16.01997094 -0.06112518 19.91883663 -0.06581284 23.81782627 -0.0670886 C26.25552088 -0.06851066 28.6931932 -0.07278136 31.13088226 -0.07808304 C39.64047155 -0.09658822 48.14999819 -0.10475332 56.65960693 -0.10317993 C64.58262846 -0.10197941 72.50537718 -0.12306288 80.42832971 -0.15466726 C87.23698461 -0.18085549 94.04555058 -0.19154611 100.85425544 -0.19026911 C104.91784996 -0.18976009 108.98120219 -0.19540961 113.0447464 -0.21662521 C116.86979144 -0.23604992 120.69436423 -0.23610357 124.51942635 -0.22159195 C125.91900132 -0.21950774 127.31860616 -0.22418162 128.71813011 -0.23631287 C137.01807556 -0.30356563 144.17227523 -0.35264225 150.50203323 5.71474648 C154.32639696 10.06463947 156.23770988 13.55501709 156.259552 19.32620239 C156.27234695 20.85689865 156.27234695 20.85689865 156.28540039 22.41851807 C156.28404083 24.08927902 156.28404083 24.08927902 156.28265381 25.79379272 C156.28937103 26.9714621 156.29608826 28.14913147 156.30300903 29.36248779 C156.3187526 32.58999809 156.32536422 35.81735393 156.32664061 39.04489803 C156.32806363 41.06382025 156.33233616 43.08271562 156.33763504 45.10163116 C156.35613589 52.15235603 156.36430595 59.20300533 156.36273193 66.25375366 C156.36153182 72.8135096 156.38260809 79.37293581 156.41421926 85.93260837 C156.44042872 91.57354736 156.45109722 97.21437902 156.44982111 102.85537839 C156.44931267 106.22035136 156.45492954 109.58503152 156.47617722 112.94994354 C156.49580431 116.70806587 156.49001049 120.46534388 156.47796631 124.22348022 C156.48920532 125.32922394 156.50044434 126.43496765 156.51202393 127.57421875 C156.44936275 135.28079065 155.3075716 140.8598847 149.74212646 146.57992554 C141.61692576 151.56584415 134.44356706 151.7039776 125.09979248 151.67147827 C123.70436051 151.67718894 122.30893321 151.68415589 120.91351318 151.692276 C117.14277375 151.71014553 113.37226782 151.70905085 109.60149884 151.70333362 C106.44556201 151.7002328 103.28966945 151.7063441 100.13373893 151.71237236 C92.68472287 151.72639554 85.23582155 151.72487469 77.7868042 151.71347046 C70.11931782 151.70199068 62.45218128 151.71606742 54.78474098 151.74286693 C48.18489332 151.7650655 41.58515515 151.771652 34.98527282 151.76579052 C31.05082722 151.76242973 27.11660582 151.76477722 23.18219185 151.78204155 C19.48100093 151.79757529 15.78032598 151.79348482 12.07915497 151.7747364 C10.08543074 151.76932866 8.09168297 151.78351548 6.0980072 151.7984314 C-1.55842709 151.7358963 -8.69852598 151.22024446 -14.58566952 145.82016659 C-18.3888684 141.47702797 -20.25540658 137.8997453 -20.26856995 132.15722656 C-20.27565475 131.12545792 -20.28273956 130.09368927 -20.29003906 129.03065491 C-20.28756165 127.90432144 -20.28508423 126.77798798 -20.28253174 125.61752319 C-20.28764267 124.42688766 -20.2927536 123.23625214 -20.29801941 122.00953674 C-20.30953773 118.74703058 -20.31198888 115.48468197 -20.30945611 112.22216082 C-20.30838565 109.49611111 -20.31327178 106.77008478 -20.31806153 104.04404008 C-20.32915445 97.61067159 -20.32959564 91.17736147 -20.32354736 84.74398804 C-20.31750973 78.11381054 -20.32981358 71.48384537 -20.35111743 64.85370409 C-20.36875032 59.15589855 -20.37473206 53.45816047 -20.37147969 47.76032865 C-20.36966903 44.35970816 -20.3722809 40.95923906 -20.38619423 37.55864334 C-20.39852246 33.76430129 -20.39178784 29.97045105 -20.38018799 26.17611694 C-20.38783173 25.05383194 -20.39547546 23.93154694 -20.40335083 22.7752533 C-20.35926298 16.2547134 -19.93301397 11.44368012 -15.32427979 6.43930054 C-14.74549072 5.97008179 -14.16670166 5.50086304 -13.57037354 5.01742554 C-12.9941626 4.53789429 -12.41795166 4.05836304 -11.82427979 3.56430054 C-7.81694427 0.70314916 -4.95295129 0.01551543 0 0 Z " fill="#FEE077" transform="translate(40.00787353515625,70.73257446289063)"/>
<path d="M0 0 C1.37671875 0.02707031 1.37671875 0.02707031 2.78125 0.0546875 C5.02196092 0.10136898 7.26039799 0.16681478 9.5 0.25 C17.14210526 18.58195489 17.14210526 18.58195489 15.5 26.25 C12.84004382 32.65807625 7.55052419 34.64042277 1.5 37.25 C2.6171875 38.875 3.734375 40.5 4.8515625 42.125 C5.57472656 43.176875 5.57472656 43.176875 6.3125 44.25 C6.80878906 44.971875 7.30507813 45.69375 7.81640625 46.4375 C9.37760417 48.70833333 10.93880208 50.97916667 12.5 53.25 C12.96970215 53.93320313 13.4394043 54.61640625 13.92333984 55.3203125 C14.37531738 55.97773438 14.82729492 56.63515625 15.29296875 57.3125 C15.7405957 57.96355713 16.18822266 58.61461426 16.64941406 59.28540039 C17.55645301 60.6048043 18.46335205 61.92430439 19.37011719 63.24389648 C21.67189066 66.59323009 23.97608697 69.9408475 26.28515625 73.28515625 C28.57589008 76.60380921 30.85667917 79.92913196 33.1328125 83.2578125 C34.05861597 84.60684042 34.9884294 85.95312364 35.921875 87.296875 C37.31075933 89.29625794 38.68754063 91.3035246 40.0625 93.3125 C40.48023682 93.90748291 40.89797363 94.50246582 41.32836914 95.11547852 C45.18134075 100.7929102 46.79368968 106.16524605 46.6875 113 C46.68105469 113.92296875 46.67460937 114.8459375 46.66796875 115.796875 C46.5 118.25 46.5 118.25 45.5 121.25 C46.180625 121.39695312 46.86125 121.54390625 47.5625 121.6953125 C61.85348956 125.00200423 78.45902148 129.28412253 87.22265625 141.98046875 C90.25542493 147.36896601 92.13455864 153.19910121 93.3125 159.25 C94.13714477 162.91592085 95.86878768 165.56712011 97.9375 168.6875 C105.36989352 179.95197999 106.86554427 192.17227865 104.21875 205.40625 C101.04572859 217.9603782 93.97735172 227.62102212 83.5 235.25 C71.68290767 241.89184648 59.41084773 244.19243786 45.9921875 241.5625 C32.87063754 237.84007448 22.51156875 230.91943942 15.1875 219.3125 C8.09062529 206.58440949 7.27889061 193.38561228 10.5 179.25 C10.5 178.59 10.5 177.93 10.5 177.25 C9.95472656 177.93707031 9.40945313 178.62414062 8.84765625 179.33203125 C8.09355469 180.23308594 7.33945312 181.13414062 6.5625 182.0625 C5.83160156 182.95582031 5.10070312 183.84914063 4.34765625 184.76953125 C-1.96691104 190.2698745 -9.54074402 190.68799373 -17.60961914 190.59057617 C-18.57653687 190.59101425 -19.54345459 190.59145233 -20.53967285 190.59190369 C-23.70504634 190.58982973 -26.86987639 190.56656466 -30.03515625 190.54296875 C-32.24189464 190.53736784 -34.44863678 190.53310008 -36.65538025 190.53010559 C-42.44056647 190.51869583 -48.22552382 190.489262 -54.01062012 190.45599365 C-59.92306422 190.4252092 -65.83554559 190.41158239 -71.74804688 190.39648438 C-83.33213135 190.36438855 -94.91604658 190.31323917 -106.5 190.25 C-106.48905556 191.48622353 -106.48905556 191.48622353 -106.47789001 192.74742126 C-106.47221512 193.82842606 -106.46654022 194.90943085 -106.46069336 196.02319336 C-106.44974892 197.63066689 -106.44974892 197.63066689 -106.43858337 199.27061462 C-106.66517072 210.26260614 -112.30473081 220.49524028 -119.53125 228.5 C-129.87255507 238.39168311 -142.21760967 242.65970338 -156.29272461 242.61889648 C-169.66652212 242.23590194 -181.57048203 236.72460969 -190.8125 227.0625 C-200.04426295 215.93509784 -202.97481167 204.36245804 -202.5 190.25 C-203.07967529 190.27094727 -203.65935059 190.29189453 -204.2565918 190.31347656 C-206.90004924 190.39696807 -209.5432288 190.44876153 -212.1875 190.5 C-213.09951172 190.53351563 -214.01152344 190.56703125 -214.95117188 190.6015625 C-219.11387934 190.66211097 -221.82949339 190.59332658 -225.58203125 188.671875 C-228.02924378 185.58170846 -228.06203045 183.10818261 -228.5 179.25 C-227.40447563 179.24945523 -226.30895126 179.24891047 -225.18022919 179.24834919 C-198.52276415 179.23395329 -171.86546239 179.19093456 -145.20809174 179.11790943 C-132.31676847 179.08325751 -119.42555217 179.05790362 -106.53417969 179.05444336 C-95.2979519 179.05140377 -84.06191458 179.03091373 -72.82576036 178.98947543 C-66.87635215 178.96814358 -60.92721475 178.95554595 -54.97776794 178.96384621 C-49.3765523 178.9713849 -43.77588544 178.95557012 -38.17477036 178.92193985 C-36.12052401 178.91370452 -34.06622311 178.91395902 -32.01198196 178.92340279 C-29.2027779 178.9350374 -26.3953686 178.91588709 -23.58630371 178.88923645 C-22.77694351 178.89990971 -21.9675833 178.91058297 -21.13369703 178.92157966 C-14.0091642 178.79582821 -9.16293705 175.93521986 -4.19506836 170.92578125 C0.14835113 165.20001513 4.15805635 159.3622294 7.9375 153.25 C11.93613373 146.86431322 15.96508203 140.50432782 20.11328125 134.21484375 C20.49975327 133.62820953 20.88622528 133.04157532 21.28440857 132.43716431 C22.8140232 130.11692925 24.3445038 127.79733309 25.88327026 125.4831543 C26.95205413 123.87542516 28.01519585 122.26394964 29.078125 120.65234375 C29.69075195 119.72929443 30.30337891 118.80624512 30.93457031 117.85522461 C35.28739369 110.61115439 35.41713213 103.46324577 34.5 95.25 C32.10341198 87.89282721 27.64628263 81.79529463 23.0234375 75.67578125 C19.58715986 71.08215614 16.40763665 66.30862095 13.1875 61.5625 C12.54006836 60.61012451 11.89263672 59.65774902 11.22558594 58.67651367 C9.93223897 56.7738573 8.63926541 54.87094705 7.34667969 52.96777344 C4.6753647 49.03637756 1.99782076 45.10934106 -0.6875 41.1875 C-1.1203833 40.55175049 -1.5532666 39.91600098 -1.99926758 39.26098633 C-4.36773561 35.8057376 -6.8392992 32.48565684 -9.5 29.25 C-10.49 29.91 -11.48 30.57 -12.5 31.25 C-14.43505859 31.56884766 -14.43505859 31.56884766 -16.6484375 31.6640625 C-17.47923828 31.70305664 -18.31003906 31.74205078 -19.16601562 31.78222656 C-20.05998047 31.8128418 -20.95394531 31.84345703 -21.875 31.875 C-22.79732422 31.91077148 -23.71964844 31.94654297 -24.66992188 31.98339844 C-27.61302519 32.08801111 -30.55607768 32.17199617 -33.5 32.25 C-34.47743164 32.27868164 -35.45486328 32.30736328 -36.46191406 32.33691406 C-39.3080023 32.41208657 -42.1532028 32.46126464 -45 32.5 C-46.31556885 32.532146 -46.31556885 32.532146 -47.65771484 32.56494141 C-52.40354007 32.58998289 -55.71227519 32.45329071 -59.5 29.25 C-61.38461324 25.08814576 -61.85136967 23.19869812 -60.25 18.875 C-58.5 16.25 -58.5 16.25 -56.5 15.25 C-54.59533927 15.21490883 -52.68951199 15.23623675 -50.78515625 15.28515625 C-35.59619984 16.11296263 -35.59619984 16.11296263 -22.8125 9.4375 C-22.12800781 8.56480469 -21.44351563 7.69210938 -20.73828125 6.79296875 C-14.96432835 0.23303273 -8.3338973 -0.31494379 0 0 Z M12.5 172.25 C13.5 174.25 13.5 174.25 13.5 174.25 Z " fill="#FED065" transform="translate(395.5,198.75)"/>
<path d="M0 0 C3.42484369 2.28322912 4.97163392 4.19326784 6.8125 7.875 C7.48202814 13.23122511 6.29068755 16.19470945 3.8125 20.875 C4.88886719 20.96136719 5.96523437 21.04773438 7.07421875 21.13671875 C23.13595535 22.60174717 35.98119007 26.6951474 46.91015625 39.29296875 C53.52290268 48.12400379 56.99605016 58.17193571 56.875 69.1875 C56.86597656 70.25613281 56.85695312 71.32476562 56.84765625 72.42578125 C56.83025391 73.63814453 56.83025391 73.63814453 56.8125 74.875 C58.1325 75.205 59.4525 75.535 60.8125 75.875 C60.60447238 81.80378727 59.59556084 84.88397948 55.67578125 89.33203125 C49.85594605 94.15139163 44.53431203 94.30798558 37.3125 94.26318359 C36.26787598 94.26844055 35.22325195 94.27369751 34.14697266 94.27911377 C30.70199529 94.29229221 27.25748188 94.283583 23.8125 94.2734375 C21.4140616 94.27545885 19.0156238 94.27837079 16.6171875 94.28213501 C11.5936904 94.28655546 6.57035347 94.2801361 1.546875 94.26611328 C-4.88928985 94.2490218 -11.32507938 94.25886444 -17.76123047 94.27683067 C-22.71291934 94.28767591 -27.66451937 94.28421871 -32.61621094 94.2764473 C-34.98925827 94.27444735 -37.36231368 94.27689734 -39.73535156 94.28388596 C-43.05295147 94.29151234 -46.36994519 94.27987883 -49.6875 94.26318359 C-50.66638184 94.26925629 -51.64526367 94.27532898 -52.65380859 94.28158569 C-58.82402853 94.22411957 -63.15218993 93.38851673 -68.05078125 89.33203125 C-71.97056084 84.88397948 -72.97947238 81.80378727 -73.1875 75.875 C-71.2075 75.38 -71.2075 75.38 -69.1875 74.875 C-69.25710937 73.69357422 -69.25710937 73.69357422 -69.328125 72.48828125 C-69.79855413 58.29140229 -65.73848528 46.23916831 -56.15625 35.625 C-44.56746666 24.54007681 -31.59166464 21.76731441 -16.1875 20.875 C-16.6721875 20.14152344 -17.156875 19.40804687 -17.65625 18.65234375 C-19.85985152 14.65550528 -20.03466228 11.33044605 -19.1875 6.875 C-17.50791513 3.72911087 -15.18902647 1.60945275 -12.3125 -0.5 C-7.92422853 -1.79066808 -4.28345394 -1.51180727 0 0 Z " fill="#D8EBFD" transform="translate(114.1875,100.125)"/>
<path d="M0 0 C8.00323676 10.21611328 10.76632316 22.34911767 9.75 35.1484375 C7.68696624 49.47915418 1.42375949 59.83223634 -9.54296875 69.2109375 C-20.48354796 77.1772098 -32.77994841 79.06398806 -46 78 C-59.39590085 75.37452277 -70.76009581 68.75850498 -78.72265625 57.58203125 C-86.3164825 45.54758916 -88.97723584 31.77563206 -85.859375 17.703125 C-83.48353008 10.23001278 -80.60692071 3.51011354 -74 -1 C-54.48294925 -10.42530744 -18.36909564 -14.11699017 0 0 Z " fill="#837683" transform="translate(491,363)"/>
<path d="M0 0 C1.04577713 -0.00571014 2.09155426 -0.01142029 3.16902161 -0.01730347 C4.88961037 -0.01898026 4.88961037 -0.01898026 6.6449585 -0.02069092 C7.85334885 -0.02565582 9.0617392 -0.03062073 10.30674744 -0.03573608 C13.62306589 -0.0478461 16.93932127 -0.05530347 20.25565434 -0.05974674 C22.3289956 -0.06267959 24.40233137 -0.06678485 26.47566986 -0.07125092 C32.96673343 -0.08492479 39.45778439 -0.0945914 45.94886136 -0.09845281 C53.43400791 -0.10293033 60.91897156 -0.12046432 68.40406251 -0.1494534 C74.19442181 -0.17109784 79.98472977 -0.18115859 85.77512908 -0.18249393 C89.2311416 -0.18354019 92.68698215 -0.18940939 96.14295197 -0.20731354 C100.00175319 -0.22691547 103.86032749 -0.22249423 107.71917725 -0.21600342 C108.8581395 -0.2252182 109.99710175 -0.23443298 111.170578 -0.243927 C118.09965415 -0.20742083 123.25940026 0.30968039 128.90179443 4.64825439 C132.28948709 8.52257693 133.87503698 11.68087217 134.10491943 16.87091064 C133.71132812 22.31559045 132.09542285 26.46212268 127.94085693 30.07794189 C124.00244748 32.78559839 121.38590718 33.26643123 116.72312927 33.28761292 C115.10181091 33.29834587 115.10181091 33.29834587 113.44773865 33.30929565 C112.26170547 33.31198456 111.0756723 33.31467346 109.85369873 33.31744385 C108.60468781 33.32401505 107.35567688 33.33058624 106.06881714 33.33735657 C101.9259009 33.35710538 97.78302336 33.36875643 93.64007568 33.37872314 C92.21284275 33.38277138 90.78561 33.38688832 89.35837746 33.39107323 C82.65321098 33.41011969 75.94805549 33.42435228 69.24286717 33.4326852 C61.50692889 33.4424583 53.77127668 33.46878172 46.03543919 33.50918609 C40.05316638 33.5393578 34.07097553 33.55415503 28.08862811 33.55746621 C24.51689474 33.55981537 20.94546718 33.5687579 17.37381554 33.59392738 C13.38785034 33.62156339 9.40226096 33.61737368 5.41619873 33.6104126 C4.23623825 33.62322266 3.05627777 33.63603271 1.84056091 33.64923096 C-4.43649169 33.60921887 -8.32089117 33.41759008 -13.05914307 29.14044189 C-17.43878197 24.16895989 -18.42119533 21.2684661 -18.33648682 14.74591064 C-17.89166765 10.56711654 -16.61333113 8.50121566 -14.05914307 5.14044189 C-9.37772781 1.50995659 -5.87085468 0.01919236 0 0 Z " fill="#675D67" transform="translate(197.05914306640625,262.85955810546875)"/>
<path d="M0 0 C6.32117899 3.07063671 10.24489358 6.31807681 13 13 C13.25726891 15.37516403 13.25726891 15.37516403 13.26742554 18.05877686 C13.28022049 19.58947311 13.28022049 19.58947311 13.29327393 21.15109253 C13.29191437 22.82185349 13.29191437 22.82185349 13.29052734 24.52636719 C13.29724457 25.70403656 13.30396179 26.88170593 13.31088257 28.09506226 C13.32662614 31.32257255 13.33323775 34.54992839 13.33451414 37.7774725 C13.33593716 39.79639471 13.3402097 41.81529009 13.34550858 43.83420563 C13.36400943 50.88493049 13.37217948 57.93557979 13.37060547 64.98632812 C13.36940536 71.54608406 13.39048162 78.10551028 13.4220928 84.66518283 C13.44830226 90.30612182 13.45897076 95.94695348 13.45769465 101.58795285 C13.4571862 104.95292583 13.46280308 108.31760598 13.48405075 111.68251801 C13.50367785 115.44064033 13.49788403 119.19791834 13.48583984 122.95605469 C13.49707886 124.0617984 13.50831787 125.16754211 13.51989746 126.30679321 C13.45723629 134.01336511 12.31544514 139.59245917 6.75 145.3125 C-1.37520071 150.29841862 -8.5485594 150.43655206 -17.89233398 150.40405273 C-19.28776595 150.40976341 -20.68319325 150.41673036 -22.07861328 150.42485046 C-25.84935271 150.44271999 -29.61985865 150.44162531 -33.39062762 150.43590808 C-36.54656446 150.43280726 -39.70245702 150.43891856 -42.85838753 150.44494683 C-50.30740359 150.45897 -57.75630491 150.45744915 -65.20532227 150.44604492 C-72.87280865 150.43456514 -80.53994519 150.44864188 -88.20738548 150.4754414 C-94.80723314 150.49763996 -101.40697132 150.50422646 -108.00685364 150.49836498 C-111.94129925 150.4950042 -115.87552064 150.49735168 -119.80993462 150.51461601 C-123.51112554 150.53014976 -127.21180048 150.52605929 -130.9129715 150.50731087 C-132.90669573 150.50190313 -134.90044349 150.51608994 -136.89411926 150.53100586 C-144.60403673 150.46803393 -151.64539804 149.90667669 -157.61319637 144.55274105 C-160.02788353 141.84912548 -161.27527749 139.50282548 -162 136 C-160.87466354 136.00553076 -160.87466354 136.00553076 -159.72659302 136.01117325 C-141.45618302 136.09958274 -123.18581583 136.16573803 -104.91523743 136.20724869 C-96.07964385 136.22785748 -87.24419322 136.25594581 -78.40869141 136.30175781 C-70.7059774 136.34167722 -63.00336695 136.36744505 -55.30055237 136.37635398 C-51.22345151 136.38156012 -47.14664686 136.39376106 -43.06964111 136.42292023 C-39.22827551 136.4501702 -35.38732673 136.45842582 -31.54587364 136.45243073 C-30.1398358 136.4535267 -28.73378331 136.46142372 -27.32782936 136.4768219 C-18.96958122 136.56383419 -11.9183538 136.60033386 -5.49034119 130.58795547 C-1.45207886 126.07612397 0.25295558 121.79811262 0.24050903 115.80509949 C0.24325836 114.78011353 0.24600769 113.75512756 0.24884033 112.69908142 C0.24164978 111.58561844 0.23445923 110.47215546 0.22705078 109.32495117 C0.22734283 108.144039 0.22763489 106.96312683 0.22793579 105.74642944 C0.22678304 102.51741997 0.21676789 99.28858492 0.20278788 96.05961013 C0.19026649 92.68170034 0.18910891 89.30378696 0.18673706 85.92585754 C0.18052642 79.53340904 0.16412126 73.14102913 0.14403808 66.74861079 C0.12166611 59.46932016 0.11068239 52.19002621 0.10064721 44.91070974 C0.07975465 29.94043497 0.04458679 14.97022435 0 0 Z " fill="#FED064" transform="translate(183,72)"/>
<path d="M0 0 C9.57 0 19.14 0 29 0 C29 3.3 29 6.6 29 10 C30.50325238 15.35580873 33.50227011 19.10515631 38.1875 22.0625 C43.1134574 24.41092155 47.63446803 25.08001851 53 24 C59.83053674 21.11965318 63.71767712 16.56464575 67 10 C67.33 7.03 67.66 4.06 68 1 C77.24 1 86.48 1 96 1 C96 16.31216431 93.37282932 27.72548136 82.96875 39.25 C72.62744493 49.14168311 60.28239033 53.40970338 46.20727539 53.36889648 C32.83347788 52.98590194 20.92951797 47.47460969 11.6875 37.8125 C1.93027023 26.05173229 0 15.0451148 0 0 Z " fill="#837683" transform="translate(193,388)"/>
<path d="M0 0 C1.20294205 -0.0112793 2.40588409 -0.02255859 3.64527893 -0.03417969 C4.96176926 -0.02608276 6.27825958 -0.01798584 7.63464355 -0.00964355 C9.03759996 -0.01506476 10.44055067 -0.02218741 11.8434906 -0.03088379 C15.65139406 -0.0491207 19.45886408 -0.04204838 23.26677513 -0.02936745 C27.25142969 -0.01924156 31.23604711 -0.02863197 35.22070312 -0.03491211 C41.91229924 -0.04218974 48.60371878 -0.03259787 55.29528809 -0.0135498 C63.03210301 0.00821929 70.7684963 0.00116799 78.505301 -0.02085543 C85.14746412 -0.03900623 91.7895003 -0.04156936 98.4316802 -0.03110075 C102.39898687 -0.02486401 106.36609534 -0.024035 110.33338928 -0.0372467 C114.06326093 -0.04880008 117.79258891 -0.0407896 121.52240181 -0.01766968 C123.54454424 -0.00985586 125.56673265 -0.02174287 127.58885193 -0.03417969 C129.393265 -0.01726074 129.393265 -0.01726074 131.23413086 0 C132.27977959 0.0015081 133.32542831 0.0030162 134.40276337 0.00457001 C137.81557973 0.63747334 138.97834706 1.83067424 141.11706543 4.50793457 C142.46256579 7.91653548 142.22222721 9.22565822 140.92956543 12.69543457 C139.00185517 15.68670911 138.33998125 16.30102362 135.11706543 17.50793457 C132.46802616 17.76241016 132.46802616 17.76241016 129.39271545 17.76863098 C128.22487518 17.77571579 127.05703491 17.7828006 125.85380554 17.7901001 C124.57628922 17.78762268 123.29877289 17.78514526 121.98254395 17.78259277 C120.62062297 17.78694101 119.25870444 17.79212453 117.89678955 17.79808044 C114.20050001 17.8114697 110.50431273 17.81204922 106.80800366 17.80951715 C103.72148819 17.80844739 100.6349934 17.8133309 97.54848236 17.81812257 C90.26655876 17.82921747 82.98468675 17.82965524 75.70275879 17.8236084 C68.19211346 17.8175675 60.6816554 17.82988251 53.17104203 17.85117847 C46.72081831 17.86879482 40.27065421 17.87479578 33.82040733 17.87154073 C29.9687824 17.86972779 26.11729108 17.872365 22.26568794 17.88625526 C18.6434368 17.89882964 15.02147761 17.89689344 11.39923096 17.88384438 C9.43809753 17.88035077 7.47695521 17.89165943 5.51585388 17.90341187 C3.75986374 17.8928904 3.75986374 17.8928904 1.96839905 17.88215637 C0.95316949 17.88232411 -0.06206007 17.88249186 -1.10805416 17.88266468 C-4.35827571 17.44374275 -6.24703176 16.42968773 -8.88293457 14.50793457 C-10.4476469 11.37850992 -10.57995415 7.89711234 -9.88293457 4.50793457 C-6.83261521 0.6509266 -4.85159312 0.00699728 0 0 Z " fill="#A79BA7" transform="translate(21.8829345703125,408.4920654296875)"/>
<path d="M0 0 C1.11059784 -0.00281982 2.22119568 -0.00563965 3.365448 -0.00854492 C5.20914474 -0.00550858 5.20914474 -0.00550858 7.09008789 -0.00241089 C8.37609894 -0.00416321 9.66210999 -0.00591553 10.98709106 -0.00772095 C14.52418578 -0.01229489 18.06125146 -0.01050589 21.59834671 -0.00734186 C25.2921278 -0.00481806 28.98590632 -0.00715586 32.6796875 -0.00872803 C38.88387501 -0.01054966 45.08805063 -0.00814357 51.29223633 -0.00338745 C58.47507778 0.00205516 65.65789086 0.0002925 72.84073162 -0.00521386 C78.99698219 -0.00974516 85.1532242 -0.01039545 91.3094759 -0.00777519 C94.99106118 -0.00621251 98.6726331 -0.0060184 102.35421753 -0.00931168 C106.45629571 -0.01272448 110.55832461 -0.00800038 114.66040039 -0.00241089 C115.88953156 -0.00443512 117.11866272 -0.00645935 118.38504028 -0.00854492 C120.05093704 -0.00431519 120.05093704 -0.00431519 121.75048828 0 C123.20727745 0.00056554 123.20727745 0.00056554 124.6934967 0.0011425 C126.87524414 0.12698364 126.87524414 0.12698364 127.87524414 1.12698364 C127.77291991 7.06178884 126.64712165 10.14865364 122.73852539 14.58401489 C116.91869019 19.40337528 111.59705617 19.55996922 104.37524414 19.51516724 C103.33062012 19.52042419 102.28599609 19.52568115 101.2097168 19.53109741 C97.76473943 19.54427585 94.32022602 19.53556665 90.87524414 19.52542114 C88.47680574 19.52744249 86.07836794 19.53035443 83.67993164 19.53411865 C78.65643454 19.5385391 73.63309761 19.53211974 68.60961914 19.51809692 C62.17345429 19.50100544 55.73766476 19.51084808 49.30151367 19.52881432 C44.3498248 19.53965955 39.39822477 19.53620236 34.4465332 19.52843094 C32.07348588 19.52643099 29.70043046 19.52888098 27.32739258 19.5358696 C24.00979267 19.54349599 20.69279895 19.53186247 17.37524414 19.51516724 C16.3963623 19.52123993 15.41748047 19.52731262 14.40893555 19.53356934 C8.23871561 19.47610321 3.91055421 18.64050037 -0.98803711 14.58401489 C-4.89663337 10.14865364 -6.02243163 7.06178884 -6.12475586 1.12698364 C-4.43450444 -0.56326778 -2.31577031 0.000899 0 0 Z " fill="#9FACBA" transform="translate(47.124755859375,174.87301635742188)"/>
<path d="M0 0 C5.94 0 11.88 0 18 0 C21.51117056 12.95640155 25.02066301 25.91325527 28.52754211 38.87081909 C29.97589553 44.22127793 31.42602849 49.57123817 32.88148499 54.91976929 C33.69340985 57.90441563 34.50266925 60.88978488 35.3125 63.875 C35.59552979 64.91060059 35.87855957 65.94620117 36.17016602 67.01318359 C36.41951904 67.93437988 36.66887207 68.85557617 36.92578125 69.8046875 C37.13630127 70.57796387 37.34682129 71.35124023 37.5637207 72.14794922 C38 74 38 74 38 76 C38.818386 76.17128922 38.818386 76.17128922 39.65330505 76.34603882 C45.17441029 77.53282086 50.56788079 78.97003045 55.97265625 80.6015625 C56.78117538 80.8428891 57.58969452 81.0842157 58.42271423 81.33285522 C60.97020213 82.09395719 63.51636177 82.85939658 66.0625 83.625 C67.80394996 84.14612246 69.5454857 84.66695839 71.28710938 85.1875 C75.52573706 86.45502734 79.76318042 87.72644262 84 89 C83.21647115 90.42667623 82.43091814 91.85224088 81.64453125 93.27734375 C81.20729736 94.07132568 80.77006348 94.86530762 80.31958008 95.68334961 C78.67964818 98.56240859 76.88535419 101.27671061 75 104 C66.04381002 102.44478826 57.41677042 99.94576703 48.7121582 97.36914062 C46.17916508 96.62254329 43.64157925 95.89320832 41.10351562 95.1640625 C39.47885699 94.68594687 37.85449679 94.20681571 36.23046875 93.7265625 C35.47831589 93.51287018 34.72616302 93.29917786 33.95121765 93.07901001 C29.56592972 91.75700288 26.28814694 90.34300693 23 87 C21.93603516 84.77246094 21.93603516 84.77246094 21.2890625 82.234375 C21.0209375 81.22544189 20.7528125 80.21650879 20.4765625 79.17700195 C20.19554688 78.04609131 19.91453125 76.91518066 19.625 75.75 C19.1343205 73.87614225 18.64355082 72.00230768 18.15130615 70.12886047 C17.5671292 67.89571485 16.99125019 65.6605065 16.41503906 63.42529297 C14.70634102 56.83475681 12.92463457 50.2640064 11.1484375 43.69140625 C9.7651078 38.56524366 8.38219468 33.43896875 7 28.3125 C6.74072094 27.35098274 6.74072094 27.35098274 6.47620392 26.37004089 C5.31346695 22.05635527 4.15575093 17.74134321 3 13.42578125 C2.69726166 12.30305313 2.39452332 11.18032501 2.08261108 10.02357483 C1.80784943 8.99526047 1.53308777 7.96694611 1.25 6.9074707 C1.00765625 6.00454788 0.7653125 5.10162506 0.515625 4.17134094 C0 2 0 2 0 0 Z " fill="#9FACB9" transform="translate(97,222)"/>
<path d="M0 0 C14.50732429 2.98837608 32.24010421 6.81067125 41.7578125 19.09765625 C46.224433 25.93804676 47.86113012 32.98295544 49 41 C47.62470947 40.73064586 46.24979641 40.45936489 44.875 40.1875 C43.94816406 40.00832031 43.02132812 39.82914062 42.06640625 39.64453125 C40.04079999 39.21876688 38.02596539 38.73761223 36.02734375 38.19921875 C15.09000096 32.83132163 -7.64062417 35.32031208 -27 45 C-25.59214181 41.1379203 -23.7813857 37.87796774 -21.55078125 34.4296875 C-20.86693359 33.3675 -20.18308594 32.3053125 -19.47851562 31.2109375 C-18.76373047 30.11007812 -18.04894531 29.00921875 -17.3125 27.875 C-15.91264276 25.70580509 -14.51290231 23.53653481 -13.11328125 21.3671875 C-12.42830566 20.30725586 -11.74333008 19.24732422 -11.03759766 18.15527344 C-9.05656778 15.08759669 -7.07665684 12.01932388 -5.10546875 8.9453125 C-4.5539917 8.08695801 -4.00251465 7.22860352 -3.43432617 6.34423828 C-2.16533169 4.2702153 -1.04539041 2.19338807 0 0 Z " fill="#FEC238" transform="translate(440,320)"/>
<path d="M0 0 C0.86862167 -0.0049649 1.73724335 -0.00992981 2.63218689 -0.01504517 C5.50894968 -0.02966315 8.38565732 -0.03646835 11.26245117 -0.04199219 C13.26161195 -0.04774413 15.26077272 -0.05350186 17.25993347 -0.05926514 C21.45389056 -0.06977422 25.64782847 -0.07561743 29.84179688 -0.07910156 C35.21195554 -0.08458474 40.58186047 -0.10860945 45.95193958 -0.13707352 C50.08266435 -0.15571129 54.21332815 -0.16090612 58.34409142 -0.16243744 C60.32360915 -0.16546214 62.30312586 -0.1734845 64.28260231 -0.18662262 C67.05448242 -0.20370608 69.82574463 -0.20179718 72.59765625 -0.1953125 C73.41293793 -0.20452728 74.2282196 -0.21374207 75.06820679 -0.22323608 C79.93299136 -0.18764332 83.27662405 0.4651716 87.49291992 3.16113281 C89.05763225 6.29055746 89.1899395 9.77195505 88.49291992 13.16113281 C86.84423516 15.53108372 85.51966461 16.95523156 82.62217903 17.53628731 C80.206131 17.69067586 77.81846245 17.71282215 75.39746094 17.69458008 C74.47831909 17.70319565 73.55917725 17.71181122 72.61218262 17.72068787 C69.57344411 17.74339302 66.53562446 17.73660028 63.49682617 17.72753906 C61.38459498 17.73277284 59.27236614 17.73904842 57.16014099 17.74632263 C52.73246262 17.75673543 48.30510546 17.75215295 43.87744141 17.73754883 C38.20315688 17.72036512 32.52988531 17.74384709 26.85571384 17.77903843 C22.49335519 17.80099923 18.13123935 17.799574 13.7688427 17.79127312 C11.67685778 17.79045278 9.58485518 17.79733191 7.49292183 17.81204414 C4.56723926 17.82946413 1.64338252 17.81496817 -1.28222656 17.79223633 C-2.14628616 17.80392853 -3.01034576 17.81562073 -3.90058899 17.82766724 C-8.25613905 17.75881117 -9.99232336 17.55919953 -13.54847717 14.80918884 C-15.50708008 12.16113281 -15.50708008 12.16113281 -16.06958008 9.16113281 C-15.37914151 5.47879377 -14.1389408 3.79299354 -11.50708008 1.16113281 C-7.65564022 -0.12268047 -4.01414999 0.00546324 0 0 Z " fill="#A69BA6" transform="translate(49.507080078125,363.8388671875)"/>
<path d="M0 0 C5.18729073 1.37310637 8.29022826 4.50365951 11 9 C12.71783684 14.2958727 12.28855602 19.13074164 10.08984375 24.20703125 C7.68470737 28.16386852 4.39342672 30.53552443 0 32 C-1.7371437 32.09850397 -3.47781135 32.13926707 -5.21772766 32.14717102 C-6.83904602 32.15790398 -6.83904602 32.15790398 -8.49311829 32.16885376 C-9.67915146 32.17154266 -10.86518463 32.17423157 -12.0871582 32.17700195 C-13.33616913 32.18357315 -14.58518005 32.19014435 -15.87203979 32.19691467 C-20.01495604 32.21666348 -24.15783357 32.22831454 -28.30078125 32.23828125 C-29.72801419 32.24232948 -31.15524693 32.24644643 -32.58247948 32.25063133 C-39.28764595 32.26967779 -45.99280144 32.28391039 -52.69798976 32.2922433 C-60.43392805 32.30201641 -68.16958026 32.32833982 -75.90541774 32.36874419 C-81.88769055 32.39891591 -87.8698814 32.41371313 -93.85222882 32.41702431 C-97.42396219 32.41937348 -100.99538975 32.42831601 -104.5670414 32.45348549 C-108.5530066 32.48112149 -112.53859597 32.47693179 -116.5246582 32.4699707 C-117.70461868 32.48278076 -118.88457916 32.49559082 -120.10029602 32.50878906 C-126.38021883 32.46875868 -130.25731048 32.27409394 -135 28 C-139 23.57894737 -139 23.57894737 -139 21 C-138.34769661 21.00460896 -137.69539322 21.00921793 -137.02332306 21.01396656 C-121.1313053 21.12451977 -105.23942181 21.20719225 -89.34711456 21.25906086 C-81.66160753 21.28481266 -73.9763576 21.31990478 -66.29101562 21.37719727 C-59.59031735 21.42712553 -52.88980535 21.45931301 -46.18892622 21.47044247 C-42.64268903 21.47694548 -39.09698456 21.49216471 -35.55091858 21.52865028 C-31.58658062 21.56910639 -27.6227578 21.56994337 -23.65820312 21.56762695 C-22.4900708 21.58560333 -21.32193848 21.60357971 -20.1184082 21.62210083 C-13.1845563 21.57829734 -8.28485069 20.70697174 -3 16 C0.7145437 11.00858191 0.31817099 5.96276002 0 0 Z " fill="#554954" transform="translate(319,264)"/>
<path d="M0 0 C0.71446289 -0.00540298 1.42892578 -0.01080597 2.16503906 -0.01637268 C4.516703 -0.02883655 6.86713697 -0.012386 9.21875 0.00561523 C10.85872461 0.00546019 12.49869959 0.00397031 14.13867188 0.00120544 C17.57177984 -0.00017749 21.0044695 0.01236147 24.4375 0.03515625 C28.83253054 0.06354082 33.22686628 0.06080228 37.62194824 0.04806614 C41.00722156 0.04110275 44.39233499 0.04890573 47.77758789 0.06132317 C49.3978616 0.06583127 51.0181525 0.06618007 52.63842773 0.06225777 C54.90514151 0.05933899 57.17090632 0.07588297 59.4375 0.09765625 C61.37012695 0.10576073 61.37012695 0.10576073 63.34179688 0.11402893 C66.94818507 0.52804853 68.84764496 1.32224939 71.71875 3.50170898 C73.28810594 6.64042086 73.07076103 9.0402672 72.71875 12.50170898 C70.07723078 15.95927894 68.58570015 17.3442899 64.25914001 18.12989807 C62.91903348 18.1563709 61.57821068 18.15564129 60.23803711 18.1328125 C59.50246078 18.1399678 58.76688446 18.14712311 58.00901794 18.15449524 C55.58740367 18.17134883 53.16764937 18.15200362 50.74609375 18.13061523 C49.05888211 18.13144416 47.37167055 18.13390445 45.6844635 18.13792419 C42.1529197 18.14077976 38.62201098 18.12610362 35.09057617 18.09863281 C30.56526555 18.06452371 26.04108837 18.07057889 21.51572323 18.08929539 C18.03351908 18.09986564 14.55157852 18.09092788 11.06939888 18.07591057 C9.4008519 18.07073021 7.73227738 18.07120881 6.06373405 18.07745552 C3.73191017 18.08290933 1.40170745 18.06253121 -0.92993164 18.03515625 C-1.61835144 18.04168213 -2.30677124 18.04820801 -3.01605225 18.05493164 C-6.36435273 17.98812584 -8.03386975 17.695064 -10.70530701 15.60704041 C-12.50846972 13.19816195 -12.84885672 11.98403612 -12.84375 9.00170898 C-12.86566406 8.24889648 -12.88757812 7.49608398 -12.91015625 6.72045898 C-11.15686746 0.53494326 -5.59261886 0.00072128 0 0 Z " fill="#A79BA7" transform="translate(24.28125,319.498291015625)"/>
<path d="M0 0 C4.31045723 2.68169668 7.10513988 6.60822974 9.046875 11.2734375 C9.96529866 17.37565627 9.85798188 22.84758653 6.609375 28.2109375 C2.71556644 33.23815513 -1.95129043 36.5111833 -8.25 37.7109375 C-13.86379975 38.02066438 -18.38504889 36.51497622 -22.953125 33.2734375 C-27.05055667 29.47759344 -29.58272207 25.19359085 -30.2890625 19.625 C-30.3810924 13.20131286 -29.87323316 9.43147455 -25.953125 4.2734375 C-18.26616137 -3.62412787 -9.72088496 -4.72636131 0 0 Z " fill="#EAEDEF" transform="translate(462.953125,375.7265625)"/>
<path d="M0 0 C3.1875 -0.4375 3.1875 -0.4375 6 0 C6.33 0.33 6.66 0.66 7 1 C6.89767577 6.93480519 5.77187751 10.02167 1.86328125 14.45703125 C-3.95655395 19.27639163 -9.27818797 19.43298558 -16.5 19.38818359 C-17.54462402 19.39344055 -18.58924805 19.39869751 -19.66552734 19.40411377 C-23.11050471 19.41729221 -26.55501812 19.408583 -30 19.3984375 C-32.3984384 19.40045885 -34.7968762 19.40337079 -37.1953125 19.40713501 C-42.2188096 19.41155546 -47.24214653 19.4051361 -52.265625 19.39111328 C-58.70178985 19.3740218 -65.13757938 19.38386444 -71.57373047 19.40183067 C-76.52541934 19.41267591 -81.47701937 19.40921871 -86.42871094 19.4014473 C-88.80175827 19.39944735 -91.17481368 19.40189734 -93.54785156 19.40888596 C-96.86545147 19.41651234 -100.18244519 19.40487883 -103.5 19.38818359 C-104.47888184 19.39425629 -105.45776367 19.40032898 -106.46630859 19.40658569 C-113.36868687 19.34230064 -117.59909022 18.13994132 -122.875 13.4375 C-125 11 -125 11 -125 9 C-124.27177725 9.1619646 -123.5435545 9.3239292 -122.79326439 9.49080181 C-120.22286125 9.9593735 -117.91384199 10.13307538 -115.30776978 10.14717102 C-114.39386978 10.15432632 -113.47996979 10.16148163 -112.53837585 10.16885376 C-111.05299065 10.17288712 -111.05299065 10.17288712 -109.53759766 10.17700195 C-108.48497238 10.18357315 -107.43234711 10.19014435 -106.3478241 10.19691467 C-102.8699028 10.21660069 -99.39202453 10.22829803 -95.9140625 10.23828125 C-94.72483562 10.24235678 -93.53560875 10.2464323 -92.3103447 10.25063133 C-86.01939824 10.27146906 -79.72847347 10.28578241 -73.4375 10.29516602 C-66.94196745 10.30624343 -60.44677623 10.3406657 -53.95136452 10.38033772 C-48.95333213 10.40647764 -43.95538157 10.4148554 -38.95728683 10.41844749 C-36.56271425 10.42331786 -34.16814543 10.43494457 -31.77363968 10.45348549 C-28.42254729 10.47782679 -25.07234509 10.47692095 -21.72119141 10.4699707 C-20.73498306 10.48278076 -19.74877472 10.49559082 -18.73268127 10.50878906 C-12.62805043 10.46269052 -8.96021586 9.64409979 -4 6 C-3.319375 4.9275 -2.63875 3.855 -1.9375 2.75 C-0.9784375 1.38875 -0.9784375 1.38875 0 0 Z " fill="#909DA7" transform="translate(168,175)"/>
<path d="M0 0 C1.29693535 -0.01925285 1.29693535 -0.01925285 2.62007141 -0.03889465 C3.55650986 -0.04628159 4.4929483 -0.05366852 5.45776367 -0.0612793 C6.41970139 -0.06935104 7.3816391 -0.07742279 8.37272644 -0.08573914 C10.41122635 -0.09958415 12.44974948 -0.11030443 14.48828125 -0.11816406 C17.60290579 -0.13537193 20.7164676 -0.17925381 23.83081055 -0.22338867 C25.81062044 -0.23351596 27.79043937 -0.24203195 29.77026367 -0.2487793 C30.70062943 -0.26628738 31.63099518 -0.28379547 32.58955383 -0.30183411 C36.86694922 -0.28751756 39.18648455 -0.20918103 42.89941406 2.07861328 C44.95172275 4.32884841 45.4968085 5.17790676 45.43823242 8.17700195 C45.45112305 8.83700195 45.46401367 9.49700195 45.47729492 10.17700195 C44.38754895 13.4590604 42.77206811 14.43651037 39.81323242 16.17700195 C36.65123562 16.80955264 33.53142002 16.87616357 30.31323242 16.92700195 C29.39993164 16.95375 28.48663086 16.98049805 27.5456543 17.00805664 C24.63492722 17.08465472 21.72458362 17.13079003 18.81323242 17.17700195 C16.85489178 17.22880991 14.89655833 17.2808903 12.93823242 17.33325195 C11.06327958 17.36721385 9.188277 17.39855209 7.31323242 17.42700195 C6.43602539 17.44859375 5.55881836 17.47018555 4.6550293 17.49243164 C-0.09060713 17.51654942 -3.3991151 17.38023149 -7.18676758 14.17700195 C-9.07138082 10.01514771 -9.53813725 8.12570007 -7.93676758 3.80200195 C-5.53044839 0.19252317 -4.11919109 0.05320616 0 0 Z " fill="#9FACB9" transform="translate(343.186767578125,213.822998046875)"/>
<path d="M0 0 C15.2194199 3.19773738 33.94770805 7.13689881 43 21 C46.6272989 27.3297567 47.98149339 33.83024951 49 41 C47.41642541 40.68872484 45.83315007 40.37592711 44.25 40.0625 C43.36828125 39.88847656 42.4865625 39.71445312 41.578125 39.53515625 C40.72734375 39.35855469 39.8765625 39.18195313 39 39 C37.93458984 38.86464844 37.93458984 38.86464844 36.84765625 38.7265625 C34.09878215 37.64560989 33.52584159 35.89276087 32.1875 33.3125 C24.13504937 19.28565051 8.57218421 16.3457656 -6 12 C-4.02 8.04 -2.04 4.08 0 0 Z " fill="#F5B829" transform="translate(440,320)"/>
<path d="M0 0 C12.87 0 25.74 0 39 0 C39 12.57894737 39 12.57894737 35 17 C30.57561449 21.23510699 26.56145384 24.26643363 20.3125 24.4375 C14.56803905 24.27675662 10.38984073 22.72927422 6 19 C0.43481759 12.41357793 0 9.04501668 0 0 Z " fill="#EAEDEF" transform="translate(221,389)"/>
<path d="M0 0 C11.45525445 -1.03303898 20.79161711 2.16965349 29.875 9.1875 C39.25745386 17.45006854 45.05732511 27.58951381 47 40 C47.0659735 42.10323534 47.08562245 44.20835724 47.0625 46.3125 C47.05347656 47.38113281 47.04445312 48.44976562 47.03515625 49.55078125 C47.02355469 50.35902344 47.01195312 51.16726562 47 52 C43.37 52 39.74 52 36 52 C35.97421875 50.97261719 35.9484375 49.94523437 35.921875 48.88671875 C35.46281376 36.2003542 32.97127598 26.20168167 25 16 C24.52175781 15.38382813 24.04351562 14.76765625 23.55078125 14.1328125 C18.27585147 8.15367295 11.10792396 5.28124626 4 2 C2.66366762 1.33936547 1.32868559 0.67588225 0 0 Z " fill="#C6E2FC" transform="translate(124,123)"/>
<path d="M0 0 C4.29 0 8.58 0 13 0 C11.25755585 8.98028909 11.25755585 8.98028909 10.234375 13.03125 C6.9879754 25.8895386 5.95714965 37.25101152 10 50 C10.34328965 51.33080468 10.68068058 52.66324124 11 54 C4.18663795 50.10665026 -0.26241372 44.83252329 -2.875 37.375 C-5.66818735 26.46826845 -5.18408195 10.3681639 0 0 Z " fill="#FFD064" transform="translate(298,296)"/>
<path d="M0 0 C3.42484369 2.28322912 4.97163392 4.19326784 6.8125 7.875 C7.46887993 13.12603941 6.50092364 16.35844829 3.8125 20.875 C1.65345181 23.03404819 -3.07634545 22.10659535 -6.0625 22.125 C-7.30580078 22.1559375 -7.30580078 22.1559375 -8.57421875 22.1875 C-9.37214844 22.19265625 -10.17007813 22.1978125 -10.9921875 22.203125 C-11.72421387 22.2124707 -12.45624023 22.22181641 -13.21044922 22.23144531 C-15.76578429 21.7707403 -16.60727821 20.90086451 -18.1875 18.875 C-19.54562586 14.80062242 -19.84115174 11.13099909 -19.1875 6.875 C-17.52466405 3.72226305 -15.18581113 1.60709483 -12.3125 -0.5 C-7.92422853 -1.79066808 -4.28345394 -1.51180727 0 0 Z " fill="#C4E1FC" transform="translate(114.1875,100.125)"/>
<path d="M0 0 C1.74216797 0.02707031 1.74216797 0.02707031 3.51953125 0.0546875 C4.39996094 0.07789063 5.28039062 0.10109375 6.1875 0.125 C8.88321229 6.05556704 10.13306564 10.74590295 8.1875 17.125 C6.07301994 20.81158419 3.28919512 23.75776829 -0.8125 25.125 C-1.8025 25.125 -2.7925 25.125 -3.8125 25.125 C-4.080625 24.01125 -4.34875 22.8975 -4.625 21.75 C-5.47059019 17.90659049 -5.47059019 17.90659049 -8.8125 16.125 C-10.73994369 15.7623883 -10.73994369 15.7623883 -12.82421875 15.7109375 C-13.58154297 15.67226562 -14.33886719 15.63359375 -15.11914062 15.59375 C-15.90482422 15.5628125 -16.69050781 15.531875 -17.5 15.5 C-18.69592773 15.44199219 -18.69592773 15.44199219 -19.91601562 15.3828125 C-21.88113475 15.28867506 -23.8467854 15.20575368 -25.8125 15.125 C-23.12247974 11.56522723 -20.36320387 8.71623868 -16.875 5.9375 C-16.04097656 5.26332031 -15.20695312 4.58914062 -14.34765625 3.89453125 C-9.51098381 0.51854879 -5.87498119 -0.11868649 0 0 Z " fill="#FEE076" transform="translate(391.8125,198.875)"/>
</svg>
