<?xml version="1.0" encoding="UTF-8"?>
<svg version="1.1" xmlns="http://www.w3.org/2000/svg" width="512" height="512">
<path d="M0 0 C147.84 0 295.68 0 448 0 C448 59.73 448 119.46 448 181 C450.97 181.66 453.94 182.32 457 183 C473.34330798 188.46824966 486.66328381 197.82476009 495 213 C495.90611881 215.71835643 496.12800479 217.29638907 496.13701439 220.08937931 C496.14208893 220.92520041 496.14716347 221.7610215 496.15239179 222.62217051 C496.15288955 223.54043838 496.15338731 224.45870625 496.15390015 225.40480042 C496.1582824 226.3803606 496.16266465 227.35592078 496.1671797 228.36104339 C496.1805833 231.64507577 496.18675012 234.9290813 496.19287109 238.21313477 C496.20077092 240.56185528 496.20903979 242.91057459 496.21765137 245.2592926 C496.24162256 252.31932414 496.25680283 259.37935652 496.26971143 266.43941608 C496.27590266 269.76592095 496.28282021 273.09242437 496.28956985 276.41892815 C496.31140221 287.48081825 496.33008994 298.54270879 496.34119225 309.60461521 C496.34412185 312.47509833 496.34708352 315.34558142 496.35009766 318.21606445 C496.35084371 318.92949239 496.35158976 319.64292033 496.35235842 320.37796729 C496.36500332 331.92677913 496.39821478 343.47543671 496.43989949 355.02417649 C496.48236661 366.88719095 496.5058929 378.75012656 496.51111281 390.61321682 C496.51452185 397.27135847 496.52678682 403.92929078 496.55921555 410.58737373 C496.58930025 416.85418901 496.59560615 423.1205848 496.58383179 429.38745689 C496.58361108 431.68439421 496.5919135 433.98135102 496.60948563 436.27822113 C496.63221847 439.42142102 496.62386206 442.5631051 496.60800171 445.70631409 C496.6218838 446.6089669 496.63576588 447.51161972 496.65006864 448.44162565 C496.53399021 457.81925289 492.32691617 465.363081 485.9921875 472.1328125 C475.69668401 481.78232361 462.82645477 487.44233964 449.4375 491.3125 C448.18102661 491.67613647 448.18102661 491.67613647 446.89916992 492.04711914 C433.95510087 495.58595637 421.27364412 496.40691435 407.9375 496.375 C406.71302155 496.37468277 406.71302155 496.37468277 405.46380615 496.37435913 C392.91764201 496.34193573 381.09357937 495.5917462 369 492 C368.3296875 491.81276367 367.659375 491.62552734 366.96875 491.43261719 C349.56158371 486.51135289 333.64250296 478.58663112 323.2421875 463.359375 C321.93906286 460.88425777 321.4007281 458.75622739 321 456 C320.34 456 319.68 456 319 456 C318.85884766 457.07314453 318.85884766 457.07314453 318.71484375 458.16796875 C316.19955813 468.13289811 306.74241459 475.88675263 298.32958984 481.01904297 C278.01537608 492.83892849 255.11027457 496.43045411 231.9375 496.375 C230.71302155 496.37468277 230.71302155 496.37468277 229.46380615 496.37435913 C216.91764201 496.34193573 205.09357937 495.5917462 193 492 C192.3296875 491.81276367 191.659375 491.62552734 190.96875 491.43261719 C172.8970892 486.32349043 155.56977931 477.85173965 146 461 C143.4017559 456.10424445 143.73232266 451.28443981 143.77294922 445.88549805 C143.77270815 444.85402806 143.77246708 443.82255808 143.7722187 442.75983143 C143.7737093 439.4270389 143.78893067 436.09447116 143.8046875 432.76171875 C143.80762871 430.70170194 143.80966867 428.64168364 143.81079102 426.58166504 C143.82126925 418.95025387 143.84919171 411.31887472 143.875 403.6875 C143.91625 386.630625 143.9575 369.57375 144 352 C96.48 352 48.96 352 0 352 C0 235.84 0 119.68 0 0 Z " fill="#7BB57A" transform="translate(8,8)"/>
<path d="M0 0 C5.14666654 4.73143655 11.26127197 12.36957229 11.75495183 19.58747584 C11.7584478 20.67123056 11.7584478 20.67123056 11.76201439 21.77687931 C11.7696262 23.03061095 11.7696262 23.03061095 11.77739179 24.30967051 C11.77788955 25.22793838 11.77838731 26.14620625 11.77890015 27.09230042 C11.7832824 28.0678606 11.78766465 29.04342078 11.7921797 30.04854339 C11.8055833 33.33257577 11.81175012 36.6165813 11.81787109 39.90063477 C11.82577092 42.24935528 11.83403979 44.59807459 11.84265137 46.9467926 C11.86662256 54.00682414 11.88180283 61.06685652 11.89471143 68.12691608 C11.90090266 71.45342095 11.90782021 74.77992437 11.91456985 78.10642815 C11.93640221 89.16831825 11.95508994 100.23020879 11.96619225 111.29211521 C11.96912185 114.16259833 11.97208352 117.03308142 11.97509766 119.90356445 C11.97584371 120.61699239 11.97658976 121.33042033 11.97735842 122.06546729 C11.99000332 133.61427913 12.02321478 145.16293671 12.06489949 156.71167649 C12.10736661 168.57469095 12.1308929 180.43762656 12.13611281 192.30071682 C12.13952185 198.95885847 12.15178682 205.61679078 12.18421555 212.27487373 C12.21430025 218.54168901 12.22060615 224.8080848 12.20883179 231.07495689 C12.20861108 233.37189421 12.2169135 235.66885102 12.23448563 237.96572113 C12.25721847 241.10892102 12.24886206 244.2506051 12.23300171 247.39381409 C12.2468838 248.2964669 12.26076588 249.19911972 12.27506864 250.12912565 C12.15899021 259.50675289 7.95191617 267.050581 1.6171875 273.8203125 C-8.67831599 283.46982361 -21.54854523 289.12983964 -34.9375 293 C-36.19397339 293.36363647 -36.19397339 293.36363647 -37.47583008 293.73461914 C-50.41989913 297.27345637 -63.10135588 298.09441435 -76.4375 298.0625 C-77.66197845 298.06218277 -77.66197845 298.06218277 -78.91119385 298.06185913 C-91.45735799 298.02943573 -103.28142063 297.2792462 -115.375 293.6875 C-116.0453125 293.50026367 -116.715625 293.31302734 -117.40625 293.12011719 C-134.81341629 288.19885289 -150.73249704 280.27413112 -161.1328125 265.046875 C-162.43593714 262.57175777 -162.9742719 260.44372739 -163.375 257.6875 C-164.035 257.6875 -164.695 257.6875 -165.375 257.6875 C-165.46910156 258.40292969 -165.56320312 259.11835938 -165.66015625 259.85546875 C-168.17544187 269.82039811 -177.63258541 277.57425263 -186.04541016 282.70654297 C-206.35962392 294.52642849 -229.26472543 298.11795411 -252.4375 298.0625 C-253.66197845 298.06218277 -253.66197845 298.06218277 -254.91119385 298.06185913 C-267.45735799 298.02943573 -279.28142063 297.2792462 -291.375 293.6875 C-292.0453125 293.50026367 -292.715625 293.31302734 -293.40625 293.12011719 C-311.4779108 288.01099043 -328.80522069 279.53923965 -338.375 262.6875 C-340.14957631 258.90104738 -340.62886441 255.92683367 -340.64242554 251.75592041 C-340.65095551 250.56724365 -340.65948547 249.37856689 -340.66827393 248.15386963 C-340.66736755 246.85818054 -340.66646118 245.56249146 -340.66552734 244.22753906 C-340.67151504 242.84240355 -340.67832115 241.45727137 -340.68588257 240.07214355 C-340.70352807 236.31573889 -340.70823741 232.55942539 -340.70951414 228.80298328 C-340.71093744 226.45321777 -340.7152105 224.1034753 -340.72050858 221.75371552 C-340.73900604 213.54770949 -340.74717979 205.34176837 -340.74560547 197.13574219 C-340.74440505 189.50071025 -340.76548836 181.86596146 -340.7970928 174.23100114 C-340.82329761 167.66519544 -340.83397096 161.09948196 -340.83269465 154.53362441 C-340.83218613 150.61700339 -340.8378078 146.70063393 -340.85905075 142.78406525 C-340.87850364 139.09688866 -340.87851011 135.41020168 -340.86401749 131.7230072 C-340.86095002 129.73639538 -340.87755755 127.74978314 -340.89489746 125.76324463 C-340.81410534 114.20677138 -337.35290218 106.05704465 -329.375 97.6875 C-305.41379285 75.98888362 -271.80734131 72.49340178 -240.87109375 73.49658203 C-217.21128034 74.78861933 -191.99417453 82.24293711 -174.375 98.6875 C-170.52033355 103.0138345 -167.94091292 107.50455861 -165.375 112.6875 C-165.37135437 111.54237442 -165.36770874 110.39724884 -165.36395264 109.21742249 C-165.32694451 98.40369088 -165.26910811 87.59024251 -165.19109726 76.77672672 C-165.15165843 71.21792007 -165.1194522 65.65927099 -165.10400391 60.1003418 C-165.08881384 54.73145962 -165.0543261 49.36301071 -165.00669098 43.99432182 C-164.99190149 41.95035006 -164.98396039 39.90631643 -164.98311615 37.86229134 C-164.98073744 34.98984189 -164.95358497 32.1185811 -164.92089844 29.24633789 C-164.92844398 27.99044609 -164.92844398 27.99044609 -164.93614197 26.70918274 C-164.76259227 16.79367228 -160.11794916 8.76146666 -153.375 1.6875 C-114.87811342 -33.17423165 -39.46536393 -31.60253281 0 0 Z " fill="#E28B05" transform="translate(492.375,206.3125)"/>
<path d="M0 0 C105.6 0 211.2 0 320 0 C320 29.7 320 59.4 320 90 C318.40351132 87.60526698 317.08131712 85.28837798 315.75 82.75 C306.65779675 66.59766186 289.40415074 59.06941716 272.25 53.8125 C269.841355 53.17710689 267.42398482 52.57410167 265 52 C264.36739258 51.84901855 263.73478516 51.69803711 263.08300781 51.54248047 C231.40721149 44.30653587 193.21387044 47.8399867 165.19726562 65.11132812 C154.78648863 71.93709411 150.09654795 78.53276711 145 90 C144.67 102.54 144.34 115.08 144 128 C96.48 128 48.96 128 0 128 C0 85.76 0 43.52 0 0 Z " fill="#5B915A" transform="translate(8,232)"/>
<path d="M0 0 C147.84 0 295.68 0 448 0 C448 59.73 448 119.46 448 181 C439.75 179.68 431.5 178.36 423 177 C414.99791062 176.36937784 414.99791062 176.36937784 407 176 C413.15487481 169.6907387 417.955301 167.75121422 426.609375 166.72265625 C429.11234819 166.24927162 429.11234819 166.24927162 430.13354111 164.22328281 C431.05144998 161.86798236 431.25139325 160.22141538 431.25396729 157.70481873 C431.25960693 156.85382599 431.26524658 156.00283325 431.27105713 155.12605286 C431.26700867 154.2007225 431.26296021 153.27539215 431.25878906 152.32202148 C431.2622937 151.34114563 431.26579834 150.36026978 431.26940918 149.34967041 C431.27821336 146.10673959 431.27238235 142.8640268 431.265625 139.62109375 C431.26697192 137.36955219 431.26891267 135.1180109 431.27142334 132.86647034 C431.27437273 128.1480126 431.27008242 123.42963058 431.26074219 118.71118164 C431.24934128 112.65587312 431.25591241 106.60074176 431.26788712 100.54543972 C431.27510507 95.89669961 431.27281818 91.24800169 431.26763153 86.59926033 C431.2662952 84.36607912 431.26794218 82.1328941 431.27259064 79.89971733 C431.27765546 76.78256923 431.26994639 73.66571047 431.25878906 70.54858398 C431.26486176 69.15755211 431.26486176 69.15755211 431.27105713 67.73841858 C431.26541748 66.89024567 431.25977783 66.04207275 431.25396729 65.16819763 C431.25321323 64.43134955 431.25245918 63.69450148 431.25168228 62.93532467 C431.10293176 60.67473386 431.10293176 60.67473386 429 58 C425.93089322 57.19299779 425.93089322 57.19299779 422.375 56.6875 C413.01397911 54.84787256 407.5183256 50.62827362 402 43 C399.91545366 39.14358927 399.63770061 35.39231398 399.34375 31.0859375 C399.09773501 28.70024095 399.09773501 28.70024095 397 26 C393.87904216 24.95968072 391.71551801 24.87158682 388.44144535 24.86577892 C386.69622974 24.85909216 386.69622974 24.85909216 384.91575724 24.85227031 C383.63153846 24.85245467 382.34731968 24.85263903 381.02418518 24.85282898 C379.6508872 24.84953019 378.2775902 24.84580459 376.90429443 24.8416875 C373.12206938 24.83166156 369.3398602 24.82794977 365.55762374 24.82529819 C361.4818904 24.82139705 357.40616965 24.81181876 353.33044434 24.80308533 C343.48509911 24.78331837 333.63975285 24.77325566 323.79439273 24.76435754 C319.16109917 24.75997612 314.52780674 24.75460904 309.89451408 24.74936867 C294.49882145 24.73235824 279.10312953 24.71786223 263.70742893 24.71061993 C259.71177227 24.70870996 255.71611562 24.70678964 251.72045898 24.70483398 C250.72733001 24.70435024 249.73420104 24.7038665 248.71097725 24.7033681 C232.60895059 24.69506086 216.50699806 24.66971142 200.40500379 24.63725331 C183.8841067 24.60422137 167.36324734 24.58617478 150.84231704 24.58297569 C141.56198685 24.58080729 132.28176483 24.57201038 123.00146675 24.54651451 C115.10125027 24.52486048 107.20116824 24.51673096 99.30092544 24.52648129 C95.26799827 24.53104109 91.23534882 24.52904291 87.20245934 24.50971985 C83.51308389 24.49219474 79.82419096 24.4929981 76.13481116 24.50861714 C74.16251463 24.51214596 72.19021366 24.4958879 70.21798617 24.47901267 C69.05190134 24.48759356 67.88581652 24.49617445 66.68439579 24.50501537 C65.67596593 24.50403856 64.66753607 24.50306176 63.62854773 24.50205535 C60.28402983 25.13563136 59.09486058 26.37339208 57 29 C56.45670159 31.07625006 56.45670159 31.07625006 56.5 33.25 C55.92376513 40.89137547 52.45544193 46.35094066 46.91015625 51.53125 C41.69610615 55.54041735 35.4688796 56.42877331 29.1015625 57.375 C26.62670666 57.86724972 26.62670666 57.86724972 25 61 C24.70065845 62.9790928 24.70065845 62.9790928 24.74603271 65.16819763 C24.74039307 66.01637054 24.73475342 66.86454346 24.72894287 67.73841858 C24.73299133 68.66577316 24.73703979 69.59312775 24.74121094 70.54858398 C24.7377063 71.52770752 24.73420166 72.50683105 24.73059082 73.515625 C24.72177296 76.75918625 24.72762337 80.00253019 24.734375 83.24609375 C24.73302826 85.49666892 24.73108765 87.74724382 24.72857666 89.99781799 C24.72562523 94.71805589 24.72992329 99.43821815 24.73925781 104.15844727 C24.75064576 110.21256508 24.74409708 116.26650544 24.73211288 122.32061672 C24.72488925 126.96939941 24.72718466 131.61813996 24.73236847 136.2669239 C24.73370391 138.4992786 24.73206094 140.7316371 24.72740936 142.96398735 C24.72233668 146.08343525 24.73006532 149.20259507 24.74121094 152.32202148 C24.73716248 153.24735184 24.73311401 154.17268219 24.72894287 155.12605286 C24.73458252 155.97704559 24.74022217 156.82803833 24.74603271 157.70481873 C24.74716379 158.81065638 24.74716379 158.81065638 24.74831772 159.93883419 C25.04227535 162.34621631 25.72809708 163.94265325 27 166 C29.22761628 167.11380814 30.65473256 167.16187394 33.125 167.3125 C41.85832615 168.27665921 46.64551437 172.16567881 52.3359375 178.68359375 C55.88236795 183.62029154 56.51810756 188.67846107 57.33984375 194.57421875 C57.80916807 197.34741717 57.80916807 197.34741717 61 199 C63.16130732 199.3035647 63.16130732 199.3035647 65.58583355 199.26171303 C66.5323235 199.26917852 67.47881345 199.27664401 68.45398492 199.28433573 C70.01671119 199.28143363 70.01671119 199.28143363 71.61100769 199.2784729 C72.7161301 199.2842653 73.82125251 199.2900577 74.95986348 199.29602563 C78.68184892 199.31310002 82.40371092 199.31590855 86.12573242 199.31884766 C88.78624689 199.32814071 91.44674748 199.33822073 94.10725403 199.34928894 C99.84486044 199.37158316 105.58244896 199.38658341 111.32008934 199.39665604 C119.61578857 199.41122992 127.91142546 199.43676308 136.20708815 199.46498732 C149.66563017 199.51047882 163.12418114 199.54708386 176.58276367 199.578125 C189.657975 199.6083009 202.73316439 199.64264673 215.80834961 199.68261719 C216.61405024 199.68507874 217.41975088 199.68754028 218.24986669 199.69007643 C222.29175423 199.70245084 226.33364152 199.71490741 230.37552869 199.72740483 C263.91698932 199.83100793 297.45847434 199.92019952 331 200 C330.51644043 200.74983154 330.03288086 201.49966309 329.53466797 202.2722168 C328.90189941 203.25875244 328.26913086 204.24528809 327.6171875 205.26171875 C326.98925293 206.23842529 326.36131836 207.21513184 325.71435547 208.22143555 C322.45915046 213.49735241 321.03863605 217.7681837 320 224 C214.4 224 108.8 224 0 224 C0 150.08 0 76.16 0 0 Z " fill="#C8F6B5" transform="translate(8,8)"/>
<path d="M0 0 C15.45058942 12.66731101 25.30613153 28.70600878 29.16699219 48.36669922 C29.43962891 49.46691406 29.43962891 49.46691406 29.71777344 50.58935547 C33.16355803 71.89329324 27.89357469 92.37717286 15.74121094 109.97998047 C2.65288777 128.04335229 -16.0078137 139.05432201 -37.87988281 142.89794922 C-59.67850117 145.48276562 -80.89682824 141.08394814 -98.38769531 127.37841797 C-99.19464844 126.71455078 -100.00160156 126.05068359 -100.83300781 125.36669922 C-101.9815625 124.47917969 -101.9815625 124.47917969 -103.15332031 123.57373047 C-117.46604676 111.87918569 -127.6682212 92.69912635 -129.83300781 74.36669922 C-131.38483874 51.22685945 -126.74575187 30.49364637 -111.83300781 12.36669922 C-110.94548828 11.21814453 -110.94548828 11.21814453 -110.04003906 10.04638672 C-83.54783542 -22.37690729 -32.19071304 -25.26010766 0 0 Z " fill="#C8F6B5" transform="translate(281.8330078125,56.63330078125)"/>
<path d="M0 0 C40.92 0 81.84 0 124 0 C125.65 3.96 127.3 7.92 129 12 C135.86361267 22.67673082 142.87720127 25.94883386 155 31 C155 58.06 155 85.12 155 113 C151.04 114.65 147.08 116.3 143 118 C135.9998408 122.50010234 130.96053994 127.6704743 127.5 135.3125 C123.57425663 139.53267412 118.66764 139.6967079 113.13580322 140.57125854 C110.96386754 140.96497311 110.96386754 140.96497311 108.777771 141.7180481 C98.12537576 145.02704704 87.19986681 144.3757955 76.171875 144.29296875 C73.96942434 144.2873645 71.76696991 144.28309833 69.56451416 144.28010559 C63.80403076 144.2687221 58.04377895 144.23931154 52.28338623 144.20599365 C46.39077892 144.1751519 40.49813373 144.16157026 34.60546875 144.14648438 C23.07021147 144.11443504 11.53512509 144.06331827 0 144 C2.53650176 141.39050208 5.20910677 139.35041836 8.1875 137.25 C25.43823669 124.70812582 37.31984736 107.87829333 41.56640625 86.671875 C44.25502692 63.90337562 40.29668298 41.686453 25.9453125 23.37890625 C24.98238281 22.20134766 24.98238281 22.20134766 24 21 C23.48179687 20.30777344 22.96359375 19.61554688 22.4296875 18.90234375 C17.87959738 13.15185297 12.10907945 9.29382332 6.109375 5.19921875 C3 3 3 3 0 0 Z " fill="#7BB57A" transform="translate(269,48)"/>
<path d="M0 0 C1.37431867 -0.00432921 2.74863189 -0.01084539 4.122931 -0.01936007 C7.8989375 -0.03636958 11.67428197 -0.02215842 15.45025373 -0.00284529 C19.52258205 0.0125668 23.59482846 -0.00081628 27.66716003 -0.0105896 C35.64461651 -0.02512653 43.62181875 -0.01287176 51.59925115 0.00852364 C60.88622072 0.03251824 70.17313183 0.03082022 79.46012551 0.02821773 C96.02876771 0.0245263 112.59729002 0.04536395 129.16589355 0.07946777 C145.24893219 0.11255993 161.33184499 0.12672621 177.41491699 0.1204834 C194.92174497 0.11372138 212.42852021 0.11617426 229.9353404 0.1358428 C230.86085796 0.13688229 231.78637552 0.13792177 232.73993906 0.13899276 C234.59887287 0.14108368 236.45780666 0.14319465 238.31674042 0.14532593 C244.79261106 0.15222539 251.26846545 0.15289019 257.74433899 0.15144348 C265.63460654 0.15000467 273.52477139 0.15967821 281.41500485 0.18338984 C285.44193108 0.19526065 289.46871405 0.20236783 293.49565697 0.19655228 C297.18064616 0.19138775 300.86533245 0.20004255 304.55026978 0.21982688 C306.51772365 0.22682634 308.48521278 0.21910962 310.45266199 0.21090555 C312.2029257 0.22449051 312.2029257 0.22449051 313.98854828 0.23834991 C315.49899727 0.24070672 315.49899727 0.24070672 317.03996038 0.24311113 C320.27323394 0.68787746 322.16562475 1.71116845 324.79040527 3.62145996 C325.90421342 5.84907624 325.95227921 7.27619252 326.10290527 9.74645996 C327.00087203 17.98662548 330.47302639 22.85908835 336.69274902 28.17614746 C341.55126864 31.52373081 346.53517587 32.12558111 352.26696777 32.86364746 C354.79040527 33.62145996 354.79040527 33.62145996 356.42385864 35.06593323 C358.54083842 39.02481637 358.20771055 42.8453339 358.17858887 47.2677002 C358.1864743 48.7341951 358.1864743 48.7341951 358.19451904 50.23031616 C358.20772807 53.4637243 358.19897688 56.69664051 358.18884277 59.93005371 C358.19086341 62.17680455 358.19377476 64.42355475 358.19754028 66.67030334 C358.201965 71.38040406 358.19552828 76.09033415 358.18151855 80.80041504 C358.1644366 86.83766755 358.17426089 92.87451969 358.19223595 98.91175747 C358.20307807 103.55201736 358.19962526 108.19218239 358.19185257 112.83244514 C358.18985125 115.05839142 358.19230745 117.2843463 358.19929123 119.51028252 C358.20691145 122.62236197 358.19529252 125.73379394 358.17858887 128.8458252 C358.18466156 129.76598923 358.19073425 130.68615326 358.19699097 131.63420105 C358.14968483 136.39263546 358.02957831 139.83948111 354.79040527 143.62145996 C351.38006884 144.65712757 348.05523684 145.06557623 344.52868652 145.55505371 C340.9167679 146.58541294 339.7327789 147.33299007 336.98962402 149.66442871 C332.31184801 153.42172632 328.13040756 153.51343671 322.29040527 153.49645996 C321.37259277 153.51708496 320.45478027 153.53770996 319.50915527 153.55895996 C317.26865091 153.60563714 315.03129155 153.62594173 312.79040527 153.62145996 C318.40169267 140.76980172 326.01337422 134.90241877 338.79040527 129.62145996 C339.78040527 129.62145996 340.77040527 129.62145996 341.79040527 129.62145996 C341.79040527 102.56145996 341.79040527 75.50145996 341.79040527 47.62145996 C339.81040527 47.29145996 337.83040527 46.96145996 335.79040527 46.62145996 C324.10601438 41.66847492 316.74339032 34.30585086 311.79040527 22.62145996 C311.43007848 20.62614652 311.09325164 18.6263029 310.79040527 16.62145996 C310.15817204 16.63122266 309.52593882 16.64098536 308.874547 16.65104389 C293.44000265 16.8875905 278.00537344 17.09534709 262.57003498 17.27167225 C255.10538631 17.35762762 247.64109116 17.45306847 240.17687988 17.57141113 C233.66563136 17.67462019 227.15443703 17.75945011 220.6426751 17.82286948 C217.199553 17.85702727 213.7570762 17.89993708 210.31438637 17.96491432 C206.45639151 18.03309266 202.5993097 18.06877741 198.74084473 18.09729004 C197.618741 18.12461716 196.49663727 18.15194427 195.3405304 18.18009949 C186.93143551 18.19221292 180.44937821 15.94799349 172.79040527 12.62145996 C158.2406849 7.45731762 140.37472665 8.29215935 125.79040527 12.62145996 C124.03836995 13.4846281 122.28752942 14.35022447 120.53771973 15.21789551 C109.62007115 19.44753026 97.65595584 18.11565206 86.14587402 17.89099121 C83.56373208 17.8591834 80.98156118 17.82965279 78.39936829 17.80229187 C72.3290882 17.73252699 66.25955621 17.64003464 60.18977672 17.53617257 C53.27086729 17.41907576 46.35167811 17.33155385 39.43231428 17.24632037 C25.21780835 17.07057195 11.00401787 16.858318 -3.20959473 16.62145996 C-3.35058594 17.55482178 -3.49157715 18.48818359 -3.63684082 19.4498291 C-5.11455435 27.63268352 -10.47969941 35.75969076 -17.20959473 40.62145996 C-29.41472293 47.62145996 -29.41472293 47.62145996 -34.20959473 47.62145996 C-34.20959473 74.68145996 -34.20959473 101.74145996 -34.20959473 129.62145996 C-32.22959473 129.95145996 -30.24959473 130.28145996 -28.20959473 130.62145996 C-15.02155853 136.21183661 -8.55265951 144.69416645 -3.20959473 157.62145996 C-3.20959473 158.61145996 -3.20959473 159.60145996 -3.20959473 160.62145996 C-2.61766956 160.61169726 -2.0257444 160.60193457 -1.41588211 160.59187603 C13.03351565 160.35534673 27.48311965 160.14758553 41.93337631 159.97124767 C48.92164528 159.88528622 55.90953686 159.78984079 62.89733887 159.67150879 C69.64691443 159.55723826 76.39641485 159.47013903 83.14658356 159.39925575 C85.71575618 159.36790321 88.28483641 159.32760155 90.85372162 159.2780056 C94.46526087 159.20984183 98.0758251 159.17414721 101.68786621 159.14562988 C102.73875931 159.11830276 103.7896524 159.09097565 104.87239075 159.06282043 C112.80403446 159.05061072 118.66464378 161.30108798 125.79040527 164.62145996 C141.59317556 169.64338154 162.56649235 170.02367708 177.84054565 162.62890625 C187.72738046 158.06441707 198.46204978 159.22866851 209.08337402 159.44958496 C211.24239212 159.4795258 213.40143634 159.50763408 215.5605011 159.53399658 C221.21113785 159.60786895 226.861077 159.70644991 232.51123047 159.81036377 C238.28961937 159.91220129 244.06832419 159.99041487 249.8470459 160.07067871 C261.16192931 160.23128868 272.47621631 160.41803086 283.79040527 160.62145996 C280.55679407 163.85507117 276.19211571 165.42084531 272.08337402 167.34802246 C268.35977598 169.15043952 265.33322782 170.9710303 262.22867966 173.71670437 C257.1967678 177.51884518 252.7029848 177.45523961 246.56707764 177.36317444 C245.45642181 177.37041768 244.34576599 177.37766093 243.20145392 177.38512367 C239.49000158 177.40199465 235.78010766 177.37607988 232.06872559 177.35021973 C229.40407834 177.35343939 226.73953133 177.35901676 224.0749054 177.36747742 C217.59606663 177.38257028 211.11768875 177.3657226 204.63890728 177.33792651 C197.09363813 177.30672168 189.54846769 177.30698641 182.00314614 177.30844425 C168.54297521 177.30994473 155.08301847 177.28249573 141.6229248 177.2388916 C128.56071065 177.19659833 115.49868492 177.17538083 102.43640137 177.17736816 C101.63128897 177.17748803 100.82617657 177.1776079 99.99666682 177.1777314 C99.19294653 177.17785247 98.38922624 177.17797353 97.56115079 177.17809826 C82.68695383 177.18016708 67.81283691 177.16250616 52.93866588 177.13563861 C47.67807416 177.12658744 42.41749714 177.12339972 37.1568985 177.1220417 C30.7499655 177.11999648 24.34316749 177.10661845 17.93629178 177.07904328 C14.66690269 177.06518312 11.39772126 177.05764844 8.12829781 177.0598259 C4.58725153 177.06129217 1.04676661 177.04438969 -2.49420166 177.02259827 C-3.53154032 177.02724407 -4.56887899 177.03188988 -5.63765216 177.03667647 C-6.58468296 177.02700313 -7.53171377 177.01732979 -8.50744247 177.00736332 C-9.73350979 177.00419341 -9.73350979 177.00419341 -10.98434615 177.00095946 C-13.78754955 176.52289409 -15.15811362 175.56753917 -17.20959473 173.62145996 C-18.04553223 170.54724121 -18.04553223 170.54724121 -18.58459473 166.93395996 C-20.10283055 158.93846803 -22.90910602 154.68044949 -28.77209473 149.24645996 C-32.77408359 146.57846739 -36.02033191 145.58836531 -40.77209473 145.18395996 C-44.39560609 144.84029915 -46.6449724 144.39980081 -49.20959473 141.62145996 C-50.11908969 138.89297508 -50.34221461 137.26900801 -50.36349487 134.45999146 C-50.37209534 133.6132637 -50.3806958 132.76653595 -50.38955688 131.89414978 C-50.39381683 130.96836624 -50.39807678 130.0425827 -50.40246582 129.08874512 C-50.41064331 128.11122787 -50.4188208 127.13371063 -50.42724609 126.12657166 C-50.45208372 122.88789483 -50.46860996 119.64926172 -50.48303223 116.41052246 C-50.4883559 115.30522564 -50.49367958 114.19992882 -50.49916458 113.06113815 C-50.52588614 107.21341393 -50.54526624 101.36571102 -50.55969238 95.51794434 C-50.57635853 89.47270479 -50.62115609 83.42800846 -50.67206383 77.38297462 C-50.70568088 72.73844765 -50.71726362 68.09405067 -50.72291946 63.4494133 C-50.72964477 61.22063407 -50.74489979 58.99186378 -50.76881027 56.76320267 C-50.80035157 53.64600208 -50.8005151 50.53028145 -50.79309082 47.41296387 C-50.80949615 46.49122879 -50.82590149 45.56949371 -50.84280396 44.61982727 C-50.79884925 40.11593298 -50.67840294 38.22721606 -47.84085083 34.5607605 C-44.97518406 32.44869353 -43.27689329 31.88422491 -39.77209473 31.49645996 C-30.93417117 30.17136299 -26.49405427 26.68138608 -21.20959473 19.62145996 C-19.05791172 15.80711281 -18.94477131 12.2045601 -18.84631348 7.90270996 C-16.26674712 -1.33941736 -7.94349299 -0.07782311 0 0 Z " fill="#89C585" transform="translate(82.2095947265625,31.3785400390625)"/>
<path d="M0 0 C5.60146 5.14953753 11.12087119 12.68222107 11.8984375 20.40234375 C12.22101571 30.63799864 9.9620817 38.96023108 3.4375 47 C-8.96201192 59.84992154 -26.08547795 66.40450147 -43.15087891 70.18359375 C-45.11543025 70.62869078 -47.06525248 71.13774985 -49.01171875 71.65625 C-58.47451768 73.90483588 -67.89441127 73.97502784 -77.5625 74 C-78.24573334 74.00367584 -78.92896667 74.00735168 -79.63290405 74.01113892 C-105.27305591 74.08308292 -131.76234767 68.06781792 -151.375 50.6875 C-152.00921875 50.14609375 -152.6434375 49.6046875 -153.296875 49.046875 C-159.91955426 42.9902367 -163.62299335 35.44323185 -164.61328125 26.546875 C-164.92870294 17.58225853 -161.13544985 10.74922714 -155.5234375 3.94140625 C-118.9800066 -34.3959749 -39.17985817 -31.37390942 0 0 Z " fill="#FEBF51" transform="translate(492.375,206.3125)"/>
<path d="M0 0 C7.26243116 6.75189119 12.33647673 14.95036607 12.72265625 25.00390625 C12.25261751 36.24210513 7.29675801 43.50332359 -0.77734375 51.06640625 C-24.91963834 71.57082083 -60.54055814 74.74920848 -90.77734375 73.06640625 C-112.0463545 71.3050367 -134.66698066 64.60909426 -150.77734375 50.06640625 C-151.41027344 49.525 -152.04320312 48.98359375 -152.6953125 48.42578125 C-159.32411998 42.37646441 -163.02558063 34.81995038 -164.015625 25.92578125 C-164.33104669 16.96116478 -160.5377936 10.12813339 -154.92578125 3.3203125 C-118.60089074 -34.7877999 -38.77200184 -32.38168775 0 0 Z " fill="#FDBF52" transform="translate(315.77734375,302.93359375)"/>
<path d="M0 0 C72.27 0 144.54 0 219 0 C219 0.33 219 0.66 219 1 C218.06542969 1.08636719 217.13085938 1.17273438 216.16796875 1.26171875 C193.58036721 3.57794704 169.21691439 10.00447163 153.07421875 27.03125 C140.18980517 43.14475979 144.57674201 58.08380375 144 80 C96.48 80 48.96 80 0 80 C0 53.6 0 27.2 0 0 Z " fill="#5B915A" transform="translate(8,280)"/>
<path d="M0 0 C105.6 0 211.2 0 320 0 C320 19.14 320 38.28 320 58 C318.40351132 55.60526698 317.08131712 53.28837798 315.75 50.75 C306.65779675 34.59766186 289.40415074 27.06941716 272.25 21.8125 C255.53716595 17.45235141 239.50079399 16.55459448 222.28271484 16.56762695 C219.84658823 16.55859153 217.41046613 16.54826 214.97434998 16.53674316 C209.76738147 16.51500043 204.56047469 16.50210419 199.35346603 16.49761391 C191.82537322 16.49110618 184.29739891 16.46808885 176.7693543 16.44127061 C164.55035455 16.39817918 152.33135984 16.36811223 140.11230469 16.34643555 C128.25518317 16.32537259 116.39810279 16.29805156 104.54101562 16.26245117 C103.4414273 16.25915293 103.4414273 16.25915293 102.31962506 16.25578807 C98.64143057 16.24471709 94.96323646 16.23352453 91.28504252 16.22227156 C60.85672997 16.12933678 30.4284007 16.0578438 0 16 C0 10.72 0 5.44 0 0 Z " fill="#89C585" transform="translate(8,264)"/>
<path d="M0 0 C105.6 0 211.2 0 320 0 C320 5.28 320 10.56 320 16 C214.4 16 108.8 16 0 16 C0 10.72 0 5.44 0 0 Z " fill="#89C585" transform="translate(8,232)"/>
<path d="M0 0 C5.28 0 10.56 0 16 0 C16 5.28 16 10.56 16 16 C21.28 16 26.56 16 32 16 C32 21.28 32 26.56 32 32 C26.72 32 21.44 32 16 32 C16 37.28 16 42.56 16 48 C17.175625 48.0825 18.35125 48.165 19.5625 48.25 C27.27315534 49.26813231 31.59615638 53.23539282 36.51953125 58.90234375 C40.53655352 64.59400855 40.71487505 70.25046542 40 77 C38.17332847 84.63769372 33.35053106 89.6125554 27 94 C23.31278113 95.73558544 20.09339438 96 16 96 C16 101.28 16 106.56 16 112 C10.72 112 5.44 112 0 112 C0 106.72 0 101.44 0 96 C-5.28 96 -10.56 96 -16 96 C-16 90.72 -16 85.44 -16 80 C-10.72 80 -5.44 80 0 80 C0 74.72 0 69.44 0 64 C-1.32 63.95875 -2.64 63.9175 -4 63.875 C-10.87953214 63.10700191 -15.3216007 59.0153203 -19.875 54.0625 C-24.11816958 47.94734385 -24.88142908 41.26892809 -24 34 C-22.07431169 26.93052679 -16.80524954 22.17038163 -11 18 C-6.82535715 15.87546539 -5.06742722 16 0 16 C0 10.72 0 5.44 0 0 Z " fill="#5B8E63" transform="translate(224,64)"/>
<path d="M0 0 C3.05317451 2.79588453 4.30695323 4.76229031 4.625 8.9375 C-0.3571201 17.6020567 -10.99398819 20.87760098 -20.09863281 23.38525391 C-36.08688978 27.26400093 -51.93798602 27.82462933 -68.1875 25.625 C-69.05955078 25.50753418 -69.93160156 25.39006836 -70.83007812 25.26904297 C-76.60285003 24.40840314 -81.9024035 22.94965344 -87.375 20.9375 C-88.78845703 20.44636719 -88.78845703 20.44636719 -90.23046875 19.9453125 C-96.75837674 17.47411115 -101.41143074 14.88285389 -105.375 8.9375 C-105.20192428 5.85180718 -104.66351915 4.29934825 -102.73046875 1.875 C-79.14662056 -19.2017364 -24.76986499 -20.67406054 0 0 Z " fill="#FEDE74" transform="translate(290.375,325.0625)"/>
<path d="M0 0 C2.59451466 2.41960356 4.46152484 4.22168553 4.625 7.875 C1.16126376 13.88663714 -4.04609734 17.44672311 -10.375 19.875 C-11.179375 20.21144531 -11.98375 20.54789063 -12.8125 20.89453125 C-37.54594921 30.27497292 -69.42105173 29.59517233 -93.62304688 18.77685547 C-98.38789055 16.32404993 -103.04872051 12.86643214 -105.26171875 7.875 C-105.42144404 5.05502248 -104.51439581 4.1207322 -102.6875 2 C-81.25136234 -20.74682853 -23.34465937 -19.74186155 0 0 Z " fill="#FEDE74" transform="translate(466.375,229.125)"/>
<path d="M0 0 C72.27 0 144.54 0 219 0 C219 0.33 219 0.66 219 1 C218.06542969 1.08636719 217.13085938 1.17273438 216.16796875 1.26171875 C208.51027982 2.04697059 201.03362633 3.25741272 193.5625 5.125 C192.86213623 5.28830811 192.16177246 5.45161621 191.44018555 5.61987305 C187.51603738 6.65272813 183.94876328 7.97450977 180.37497044 9.89431 C169.87069662 15.47584391 161.53131346 17.13997074 149.73999023 16.90820312 C148.09218456 16.90593884 146.44437086 16.90722816 144.79656982 16.91174316 C140.38169535 16.91401102 135.9686085 16.86743544 131.55414462 16.8111515 C126.91917238 16.76067251 122.28414577 16.7564052 117.64894104 16.74694824 C108.89783223 16.72221919 100.14753609 16.65675744 91.39678293 16.57615232 C81.42329607 16.4863056 71.44976758 16.44264043 61.47597587 16.40258884 C40.98352038 16.31927675 20.49184043 16.17719458 0 16 C0 10.72 0 5.44 0 0 Z " fill="#5B9159" transform="translate(8,280)"/>
<path d="M0 0 C54.78 0 109.56 0 166 0 C163.525 1.98 163.525 1.98 161 4 C159.63663246 5.13487019 158.28188538 6.28020603 156.9375 7.4375 C155.96103516 8.27087891 155.96103516 8.27087891 154.96484375 9.12109375 C152.87849934 10.98268501 152.87849934 10.98268501 151.26079941 13.5798521 C149 16 149 16 146.18082047 16.61523914 C145.0857304 16.61063018 143.99064034 16.60602121 142.86236572 16.60127258 C140.97355431 16.61158257 140.97355431 16.61158257 139.04658508 16.62210083 C137.65377211 16.6044062 136.26096517 16.58623217 134.86816406 16.56762695 C133.39961292 16.56621639 131.93105825 16.56700862 130.46250916 16.56983948 C126.47702715 16.57127476 122.49229672 16.54186767 118.50698948 16.50696969 C114.34167346 16.47572446 110.17634042 16.47277691 106.01092529 16.46684265 C98.12375631 16.45129876 90.23693363 16.41026309 82.34991717 16.3600952 C73.37060045 16.30421857 64.39126722 16.2767195 55.41181993 16.25161803 C36.94101147 16.19934756 18.47054626 16.11038833 0 16 C0 10.72 0 5.44 0 0 Z " fill="#89C484" transform="translate(8,296)"/>
<path d="M0 0 C49.17 0 98.34 0 149 0 C147.68 3.3 146.36 6.6 145 10 C144.67 11.98 144.34 13.96 144 16 C96.48 16 48.96 16 0 16 C0 10.72 0 5.44 0 0 Z " fill="#5B9159" transform="translate(8,312)"/>
<path d="M0 0 C47.52 0 95.04 0 144 0 C144 5.28 144 10.56 144 16 C96.48 16 48.96 16 0 16 C0 10.72 0 5.44 0 0 Z " fill="#89C585" transform="translate(8,328)"/>
<path d="M0 0 C0.33 0 0.66 0 1 0 C1.75401003 12.26522978 0.53667024 21.7583719 -7.4375 31.6875 C-19.67054825 44.35662314 -37.24960056 50.95618039 -54 55 C-55.20140625 55.30035156 -56.4028125 55.60070312 -57.640625 55.91015625 C-75.80710235 60.00622418 -95.4038281 59.10890752 -113.6875 56.3125 C-114.68330078 56.16417725 -115.67910156 56.01585449 -116.70507812 55.86303711 C-124.38295856 54.52567996 -132.57706349 52.12197593 -137.9375 46.125 C-141.2513863 41.10396015 -143.1960222 37.03542038 -143 31 C-141.86304688 31.39832031 -140.72609375 31.79664063 -139.5546875 32.20703125 C-104.31649507 44.36698607 -63.5454191 45.98137761 -29 30 C-16.73091529 23.8293721 -5.62201234 15.65869956 -0.6875 2.5 C-0.3471875 1.2625 -0.3471875 1.2625 0 0 Z " fill="#FEC950" transform="translate(327,430)"/>
<path d="M0 0 C0.33 0 0.66 0 1 0 C1.75401003 12.26522978 0.53667024 21.7583719 -7.4375 31.6875 C-19.67054825 44.35662314 -37.24960056 50.95618039 -54 55 C-55.20140625 55.30035156 -56.4028125 55.60070312 -57.640625 55.91015625 C-75.80710235 60.00622418 -95.4038281 59.10890752 -113.6875 56.3125 C-114.68330078 56.16417725 -115.67910156 56.01585449 -116.70507812 55.86303711 C-124.38295856 54.52567996 -132.57706349 52.12197593 -137.9375 46.125 C-141.2513863 41.10396015 -143.1960222 37.03542038 -143 31 C-141.86304688 31.39832031 -140.72609375 31.79664063 -139.5546875 32.20703125 C-104.31649507 44.36698607 -63.5454191 45.98137761 -29 30 C-16.73091529 23.8293721 -5.62201234 15.65869956 -0.6875 2.5 C-0.3471875 1.2625 -0.3471875 1.2625 0 0 Z " fill="#FEC950" transform="translate(503,398)"/>
<path d="M0 0 C0.33 0 0.66 0 1 0 C1.75401003 12.26522978 0.53667024 21.7583719 -7.4375 31.6875 C-19.67054825 44.35662314 -37.24960056 50.95618039 -54 55 C-55.20140625 55.30035156 -56.4028125 55.60070312 -57.640625 55.91015625 C-75.80710235 60.00622418 -95.4038281 59.10890752 -113.6875 56.3125 C-114.68330078 56.16417725 -115.67910156 56.01585449 -116.70507812 55.86303711 C-124.38295856 54.52567996 -132.57706349 52.12197593 -137.9375 46.125 C-141.2513863 41.10396015 -143.1960222 37.03542038 -143 31 C-141.86304688 31.39832031 -140.72609375 31.79664063 -139.5546875 32.20703125 C-104.31649507 44.36698607 -63.5454191 45.98137761 -29 30 C-16.73091529 23.8293721 -5.62201234 15.65869956 -0.6875 2.5 C-0.3471875 1.2625 -0.3471875 1.2625 0 0 Z " fill="#FEC950" transform="translate(327,366)"/>
<path d="M0 0 C0.33 0 0.66 0 1 0 C1.75401003 12.26522978 0.53667024 21.7583719 -7.4375 31.6875 C-19.67054825 44.35662314 -37.24960056 50.95618039 -54 55 C-55.20140625 55.30035156 -56.4028125 55.60070312 -57.640625 55.91015625 C-75.80710235 60.00622418 -95.4038281 59.10890752 -113.6875 56.3125 C-114.68330078 56.16417725 -115.67910156 56.01585449 -116.70507812 55.86303711 C-124.38295856 54.52567996 -132.57706349 52.12197593 -137.9375 46.125 C-141.2513863 41.10396015 -143.1960222 37.03542038 -143 31 C-141.86304688 31.39832031 -140.72609375 31.79664063 -139.5546875 32.20703125 C-104.31649507 44.36698607 -63.5454191 45.98137761 -29 30 C-16.73091529 23.8293721 -5.62201234 15.65869956 -0.6875 2.5 C-0.3471875 1.2625 -0.3471875 1.2625 0 0 Z " fill="#FEC950" transform="translate(503,334)"/>
<path d="M0 0 C0.33 0 0.66 0 1 0 C1.75401003 12.26522978 0.53667024 21.7583719 -7.4375 31.6875 C-19.67054825 44.35662314 -37.24960056 50.95618039 -54 55 C-55.20140625 55.30035156 -56.4028125 55.60070312 -57.640625 55.91015625 C-75.80710235 60.00622418 -95.4038281 59.10890752 -113.6875 56.3125 C-114.68330078 56.16417725 -115.67910156 56.01585449 -116.70507812 55.86303711 C-124.38295856 54.52567996 -132.57706349 52.12197593 -137.9375 46.125 C-141.2513863 41.10396015 -143.1960222 37.03542038 -143 31 C-141.86304688 31.39832031 -140.72609375 31.79664063 -139.5546875 32.20703125 C-122.47076033 38.10233314 -106.3209208 41.23521929 -88.1875 41.25 C-87.4473465 41.25067474 -86.70719299 41.25134949 -85.9446106 41.25204468 C-68.66464868 41.22699956 -53.29571087 38.7840249 -37 33 C-35.94167969 32.63132812 -34.88335937 32.26265625 -33.79296875 31.8828125 C-20.24629093 26.73400966 -7.9675282 18.13909305 -1.7265625 4.76171875 C-1.08285018 3.20088943 -0.53390577 1.60171731 0 0 Z " fill="#FEC950" transform="translate(503,270)"/>
<path d="M0 0 C24.09 0 48.18 0 73 0 C73 13.86 73 27.72 73 42 C71.40351132 39.60526698 70.08131712 37.28837798 68.75 34.75 C59.65779675 18.59766186 42.40415074 11.06941716 25.25 5.8125 C16.95397343 3.5542422 8.49245429 2.27097955 0 1 C0 0.67 0 0.34 0 0 Z " fill="#5C9159" transform="translate(255,280)"/>
<path d="M0 0 C1.20785156 0.01675781 2.41570312 0.03351563 3.66015625 0.05078125 C18.43244575 0.70442238 35.39350668 5.48816826 45.72265625 16.44921875 C48.31238816 19.59332752 48.08648735 22.02158186 48 26 C45.06337488 24.66688539 43.57815937 23.58753361 41.1875 21.25 C25.59945461 7.74256236 0.28589351 8.01002554 -19 9 C-23.42021136 9.39544634 -27.66756436 10.05116079 -32 11 C-33.49660156 11.29197266 -33.49660156 11.29197266 -35.0234375 11.58984375 C-45.62122151 13.89193308 -54.6778391 17.90708532 -62 26 C-62.66 26 -63.32 26 -64 26 C-64.34287537 22.39980864 -64.13805933 20.28812381 -62.5625 17 C-47.60160259 -0.51519697 -21.04115804 -0.35310927 0 0 Z " fill="#CA7F13" transform="translate(248,304)"/>
<path d="M0 0 C1.09604526 0.96311528 2.1625596 1.96153796 3.1875 3 C3.70699219 3.495 4.22648437 3.99 4.76171875 4.5 C7.26919532 7.13800275 8.16188056 8.72331007 8.5 12.375 C8.396875 13.24125 8.29375 14.1075 8.1875 15 C5.25087488 13.66688539 3.76565937 12.58753361 1.375 10.25 C-14.21304539 -3.25743764 -39.52660649 -2.98997446 -58.8125 -2 C-63.23271136 -1.60455366 -67.48006436 -0.94883921 -71.8125 0 C-73.30910156 0.29197266 -73.30910156 0.29197266 -74.8359375 0.58984375 C-85.43372151 2.89193308 -94.4903391 6.90708532 -101.8125 15 C-102.4725 15 -103.1325 15 -103.8125 15 C-103.69226186 9.22856948 -102.05541382 6.08426554 -98.06640625 1.91796875 C-89.19242837 -5.63337118 -77.93297476 -7.81841793 -66.8125 -10 C-65.84570312 -10.1959375 -64.87890625 -10.391875 -63.8828125 -10.59375 C-44.05156845 -13.2177314 -16.85934656 -12.01979679 0 0 Z " fill="#CA7E12" transform="translate(463.8125,219)"/>
<path d="M0 0 C7.26 0 14.52 0 22 0 C22 8.58 22 17.16 22 26 C20.40351132 23.60526698 19.08131712 21.28837798 17.75 18.75 C13.59825899 11.30341802 9.02359255 6.64822379 1.7578125 2.1640625 C1.17773438 1.77992188 0.59765625 1.39578125 0 1 C0 0.67 0 0.34 0 0 Z " fill="#8AC484" transform="translate(306,296)"/>
<path d="M0 0 C2.0625 1.5625 2.0625 1.5625 3 4 C3.17821261 6.85140177 2.92914963 9.292848 2 12 C-0.93837168 14.85194898 -2.53597436 15 -6.625 15 C-10 14 -10 14 -12 11.875 C-13.30782688 8.11499772 -13.06090617 5.81926223 -12 2 C-8.81688665 -2.07438508 -4.54417813 -1.38635943 0 0 Z " fill="#C5F4B3" transform="translate(381,113)"/>
<path d="M0 0 C2.0625 1.5625 2.0625 1.5625 3 4 C3.17821261 6.85140177 2.92914963 9.292848 2 12 C-0.93837168 14.85194898 -2.53597436 15 -6.625 15 C-10 14 -10 14 -12 11.875 C-13.30782688 8.11499772 -13.06090617 5.81926223 -12 2 C-8.81688665 -2.07438508 -4.54417813 -1.38635943 0 0 Z " fill="#C5F4B3" transform="translate(101,113)"/>
<path d="M0 0 C0 5.28 0 10.56 0 16 C-5 15 -5 15 -6.875 12.875 C-8.351157 9.10259879 -8.0775967 6.87934812 -7 3 C-4.5091717 0.42614409 -3.61594767 0 0 0 Z " fill="#C4F2B2" transform="translate(224,96)"/>
<path d="M0 0 C6 2 6 2 8 5 C8.21988326 7.79646399 7.87677289 10.33638614 7 13 C4.56990326 14.99392553 3.16090285 16 0 16 C0 10.72 0 5.44 0 0 Z " fill="#C5F3B3" transform="translate(240,128)"/>
<path d="M0 0 C1.65 0 3.3 0 5 0 C5 3.3 5 6.6 5 10 C2.82145293 6.7321794 1.50239966 3.61941735 0 0 Z " fill="#659459" transform="translate(323,312)"/>
</svg>
