<?xml version="1.0" encoding="UTF-8"?>
<svg version="1.1" xmlns="http://www.w3.org/2000/svg" width="512" height="512">
<path d="M0 0 C0.72638672 0.20898926 1.45277344 0.41797852 2.20117188 0.63330078 C36.03887175 10.70763828 64.02998023 34.23057986 81 65 C97.57479993 96.28396318 101.22179676 132.60440262 91.69970703 166.7421875 C86.22362177 184.41240261 77.3026479 201.19702919 65 215 C64.28070313 215.85078125 63.56140625 216.7015625 62.8203125 217.578125 C42.82939972 240.7704295 14.66175109 254.40331473 -15 260 C-15.93875977 260.17724609 -16.87751953 260.35449219 -17.84472656 260.53710938 C-38.95274439 263.63373595 -60.96763037 260.86326403 -81 254 C-79.7934375 255.4540625 -79.7934375 255.4540625 -78.5625 256.9375 C-75.35459323 260.80343893 -74.83077821 265.12153031 -75 270 C-75.82157362 274.76142881 -76.94566799 279.40617456 -78.17773438 284.07617188 C-78.75128481 286.25488052 -79.29918073 288.43888741 -79.84375 290.625 C-82.90945667 302.62963663 -82.90945667 302.62963663 -86 307 C-88.70879335 308.35439668 -91.00933268 308.06501451 -94 308 C-94.01417969 308.85980469 -94.02835937 309.71960938 -94.04296875 310.60546875 C-94.55396103 323.26979098 -97.72935031 334.89883202 -107 344 C-107.6585498 344.36834961 -108.31709961 344.73669922 -108.99560547 345.11621094 C-111.45076162 346.56656465 -113.17221923 347.79814454 -115 350 C-115.99443753 354.49169948 -115.75759183 358.80274497 -115.5 363.375 C-115.46390625 364.58800781 -115.4278125 365.80101562 -115.390625 367.05078125 C-115.29656769 370.03710076 -115.16526792 373.01691402 -115 376 C-114.07058594 375.79890625 -113.14117187 375.5978125 -112.18359375 375.390625 C-109 375 -109 375 -106.0625 376.75 C-101.88332102 380.71799706 -98.28932097 385.72651624 -96 391 C-96.30859375 394.34765625 -96.30859375 394.34765625 -97 397 C-95.49348877 397.14163574 -95.49348877 397.14163574 -93.95654297 397.28613281 C-87.10781154 398.14819517 -80.41026219 399.85743935 -73.6953125 401.421875 C-72.96491634 401.59123817 -72.23452019 401.76060135 -71.48199081 401.93509674 C-67.61794967 402.83111671 -63.75504515 403.73185225 -59.89306641 404.63671875 C-55.93303343 405.56365589 -51.96959053 406.47502025 -48.0051136 407.38273239 C-44.92992496 408.08976667 -41.85747859 408.80820104 -38.78564072 409.5296402 C-37.32677666 409.87025576 -35.86694197 410.20674462 -34.40610123 410.53878021 C-22.37428258 413.28034488 -11.09396256 416.1238452 -4 427 C-1.53989726 432.00103887 -0.62274569 435.60162137 -0.61181641 441.26464844 C-0.60393097 442.29770866 -0.60393097 442.29770866 -0.59588623 443.35163879 C-0.58279275 445.60445523 -0.5913817 447.85655272 -0.6015625 450.109375 C-0.59953961 451.68402237 -0.59662638 453.25866882 -0.59286499 454.83331299 C-0.58845691 458.12155136 -0.59482697 461.4095442 -0.60888672 464.69775391 C-0.62603446 468.91354624 -0.61609297 473.1287679 -0.59816933 477.34453964 C-0.58733838 480.59074217 -0.59077363 483.83680887 -0.5985527 487.08301544 C-0.60055371 488.63796303 -0.5980989 490.19292295 -0.59111404 491.74785614 C-0.58350441 493.91654788 -0.59509293 496.08430751 -0.61181641 498.25292969 C-0.61420319 499.48646179 -0.61658997 500.7199939 -0.61904907 501.99090576 C-1 505 -1 505 -2.16255999 506.66447318 C-4.75253013 508.54696978 -6.59310745 508.37604702 -9.77999115 508.37752342 C-10.99285246 508.38534666 -12.20571378 508.39316991 -13.45532846 508.40123022 C-14.80823301 508.39474348 -16.16113622 508.38797348 -17.51403809 508.38095093 C-18.94579854 508.38440556 -20.37755633 508.38916882 -21.80930853 508.39513266 C-25.75315667 508.40769912 -29.69678806 508.40144679 -33.64063716 508.39217401 C-37.89018548 508.38540685 -42.13969563 508.39585311 -46.38923645 508.40411377 C-54.71782307 508.41747832 -63.04632874 508.41456128 -71.37491858 508.40587585 C-78.14161001 508.39911039 -84.9082787 508.39817764 -91.67497253 508.4014473 C-93.1176391 508.40213684 -93.1176391 508.40213684 -94.58945045 508.40284032 C-96.54306766 508.40379947 -98.49668487 508.4047721 -100.45030206 508.4057581 C-118.7845752 508.41431997 -137.11880339 508.40446538 -155.45306915 508.388357 C-171.19676263 508.3749531 -186.94038975 508.37728097 -202.68408203 508.39111328 C-220.95116917 508.40715504 -239.21821688 508.41349592 -257.48531008 508.40427649 C-259.43188253 508.40332081 -261.378455 508.4023777 -263.32502747 508.4014473 C-264.76178621 508.40075306 -264.76178621 508.40075306 -266.22757038 508.40004479 C-272.98889665 508.39745068 -279.75019798 508.40183494 -286.51152039 508.40888596 C-294.74736316 508.41728558 -302.98312012 508.41505332 -311.21895301 508.39904372 C-315.42384687 508.39114021 -319.62859746 508.38810463 -323.83349037 508.39799118 C-327.67880712 508.4068958 -331.52384709 508.40207576 -335.36913854 508.38605852 C-336.76411041 508.38269265 -338.15910541 508.38444504 -339.55406255 508.39168589 C-341.4426955 508.40074127 -343.33139347 508.38970544 -345.22000885 508.37752342 C-346.27134711 508.37703637 -347.32268537 508.37654931 -348.40588236 508.37604749 C-351 508 -351 508 -352.79874945 506.66390479 C-355.22412133 503.3044159 -355.13534731 500.15605589 -355.16113281 496.15844727 C-355.17074036 494.95611954 -355.1803479 493.75379181 -355.19024658 492.51502991 C-355.19449646 491.2119841 -355.19874634 489.90893829 -355.203125 488.56640625 C-355.20736607 487.56697148 -355.20736607 487.56697148 -355.21169281 486.54734612 C-355.22668748 483.01276122 -355.23591172 479.47821707 -355.24023438 475.94360352 C-355.24568125 472.32274442 -355.26962694 468.7022686 -355.29820633 465.08152866 C-355.31701344 462.27334078 -355.32204806 459.46524126 -355.32357025 456.65699577 C-355.32800326 454.68311555 -355.34657199 452.70928296 -355.36553955 450.73548889 C-355.34157352 440.9074456 -355.02357341 429.98166106 -347.875 422.5 C-347.17117188 421.7265625 -346.46734375 420.953125 -345.7421875 420.15625 C-337.6644244 413.80450466 -327.30236058 412.15681224 -317.51171875 409.890625 C-315.91975377 409.51584639 -314.32794405 409.14040779 -312.73628235 408.76434326 C-309.41847046 407.98239825 -306.09934617 407.20639704 -302.77905273 406.43505859 C-298.52553582 405.44671708 -294.27491383 404.44653649 -290.02511883 403.44232559 C-286.74631572 402.66836653 -283.46643413 401.89906723 -280.18616676 401.13134003 C-278.61783544 400.76400575 -277.0497568 400.3955909 -275.48193932 400.02606964 C-273.29586551 399.51189623 -271.10850197 399.00363493 -268.9206543 398.49707031 C-267.67761032 398.20713196 -266.43456635 397.9171936 -265.15385437 397.61846924 C-262 397 -262 397 -258 397 C-258.23976563 396.13632812 -258.47953125 395.27265625 -258.7265625 394.3828125 C-259.08118508 389.99562464 -257.87985842 388.43645324 -255.375 384.875 C-254.68148437 383.86179687 -253.98796875 382.84859375 -253.2734375 381.8046875 C-250.98346067 378.97959581 -249.11755234 376.88176583 -246 375 C-244.02 375.33 -242.04 375.66 -240 376 C-239.67 367.42 -239.34 358.84 -239 350 C-240.32 349.34 -241.64 348.68 -243 348 C-251.83928506 341.33978323 -257.35410351 333.83494611 -260 323 C-260.67374303 318.0224757 -260.86456033 313.01803981 -261 308 C-261.886875 308.103125 -262.77375 308.20625 -263.6875 308.3125 C-268.14681618 307.89180979 -269.17338259 306.40782555 -272 303 C-273.30200195 299.60595703 -273.30200195 299.60595703 -274.23828125 295.7578125 C-274.40877487 295.07121552 -274.57926849 294.38461853 -274.75492859 293.67721558 C-275.11005397 292.23199346 -275.45667314 290.78465713 -275.79516602 289.33544922 C-276.3104662 287.13368996 -276.85300246 284.94007075 -277.40039062 282.74609375 C-281.57693318 265.56954334 -281.57693318 265.56954334 -277 258 C-276.34 257.34 -275.68 256.68 -275 256 C-274.16592663 248.27774366 -275.31964319 240.25395681 -276.09375 232.5625 C-276.32181193 230.17840429 -276.54966995 227.79428906 -276.77734375 225.41015625 C-277.13619975 221.71564828 -277.49787481 218.02145438 -277.86376953 214.32763672 C-280.2203834 190.3991887 -280.2203834 190.3991887 -280.25 179.296875 C-280.25310181 178.57161621 -280.25620361 177.84635742 -280.25939941 177.09912109 C-280.03998555 158.92523102 -272.63551394 142.43145013 -259.84765625 129.65234375 C-243.69749047 114.6098711 -226.11280241 109.79180467 -204.62109375 109.90234375 C-203.56841812 109.9037587 -202.51574249 109.90517365 -201.4311676 109.90663147 C-198.09991501 109.91218704 -194.76873196 109.92473112 -191.4375 109.9375 C-189.1660166 109.94252075 -186.89453214 109.94708265 -184.62304688 109.95117188 C-179.0820079 109.96214188 -173.54100892 109.97883517 -168 110 C-167.83781982 108.77180542 -167.83781982 108.77180542 -167.67236328 107.51879883 C-166.65348189 100.31206407 -165.24730501 93.56544901 -162.875 86.6875 C-162.56933105 85.79160156 -162.26366211 84.89570312 -161.94873047 83.97265625 C-154.79008879 63.61674149 -143.46910084 47.06201924 -128 32 C-127.53851563 31.49339844 -127.07703125 30.98679688 -126.6015625 30.46484375 C-96.26904812 -2.01314116 -41.48602989 -12.13884955 0 0 Z " fill="#E5AE77" transform="translate(385,4)"/>
<path d="M0 0 C0.72638672 0.20898926 1.45277344 0.41797852 2.20117188 0.63330078 C36.03887175 10.70763828 64.02998023 34.23057986 81 65 C97.57479993 96.28396318 101.22179676 132.60440262 91.69970703 166.7421875 C86.22362177 184.41240261 77.3026479 201.19702919 65 215 C64.28070313 215.85078125 63.56140625 216.7015625 62.8203125 217.578125 C42.82939972 240.7704295 14.66175109 254.40331473 -15 260 C-15.93875977 260.17724609 -16.87751953 260.35449219 -17.84472656 260.53710938 C-35.42230537 263.1158071 -56.06947282 262.29412832 -72.875 256.3125 C-80.46736204 253.76401484 -89.10177992 254.7810555 -97 255 C-99.52283126 244.36099623 -101.81679035 233.67579202 -104.0715332 222.97729492 C-104.48494292 221.02101325 -104.90099391 219.06528802 -105.31958008 217.11010742 C-105.9311552 214.25299783 -106.53480631 211.39431507 -107.13671875 208.53515625 C-107.3241716 207.66633316 -107.51162445 206.79751007 -107.70475769 205.90235901 C-108.61719579 201.52232739 -109.21816573 197.50372738 -109 193 C-109.62229492 193.27150879 -110.24458984 193.54301758 -110.88574219 193.82275391 C-133.31208866 203.54632395 -154.89979793 209.91329593 -179 214 C-179.9192627 214.15597656 -180.83852539 214.31195313 -181.78564453 214.47265625 C-203.03442032 217.98315167 -224.47582502 219.43728572 -246 219 C-246.23460937 220.19496094 -246.46921875 221.38992187 -246.7109375 222.62109375 C-248.18569977 229.25752396 -250.43764079 235.63371458 -252.625 242.0625 C-253.04523438 243.30966797 -253.46546875 244.55683594 -253.8984375 245.84179688 C-254.92818034 248.89592053 -255.96352424 251.94815472 -257 255 C-262.61 255 -268.22 255 -274 255 C-274.7919494 246.85408432 -275.57594631 238.70751347 -276.34690857 230.55958843 C-276.70540072 226.77403494 -277.06703659 222.98884316 -277.43652344 219.2043457 C-280.2640031 190.19881539 -280.2640031 190.19881539 -280.28125 178.94140625 C-280.28306274 177.88598885 -280.28306274 177.88598885 -280.28491211 176.80924988 C-279.98463181 158.74419242 -272.54837668 142.34437249 -259.84765625 129.65234375 C-243.69749047 114.6098711 -226.11280241 109.79180467 -204.62109375 109.90234375 C-203.56841812 109.9037587 -202.51574249 109.90517365 -201.4311676 109.90663147 C-198.09991501 109.91218704 -194.76873196 109.92473112 -191.4375 109.9375 C-189.1660166 109.94252075 -186.89453214 109.94708265 -184.62304688 109.95117188 C-179.0820079 109.96214188 -173.54100892 109.97883517 -168 110 C-167.83781982 108.77180542 -167.83781982 108.77180542 -167.67236328 107.51879883 C-166.65348189 100.31206407 -165.24730501 93.56544901 -162.875 86.6875 C-162.56933105 85.79160156 -162.26366211 84.89570312 -161.94873047 83.97265625 C-154.79008879 63.61674149 -143.46910084 47.06201924 -128 32 C-127.53851563 31.49339844 -127.07703125 30.98679688 -126.6015625 30.46484375 C-96.26904812 -2.01314116 -41.48602989 -12.13884955 0 0 Z " fill="#28AFF0" transform="translate(385,4)"/>
<path d="M0 0 C5.78796564 11.29759865 11.09804391 22.74785872 16.1875 34.375 C21.6135633 50.56228175 21.6135633 50.56228175 31 63 C35.36270144 63.7138966 37.72144388 63.74357115 41.5859375 61.49609375 C45.4334234 58.67938129 49.13562509 55.75539928 52.7265625 52.6171875 C59.48395002 47.02822433 59.48395002 47.02822433 63.9375 46.9453125 C65.95622095 47.31856559 67.96331583 47.76044029 69.953125 48.265625 C77.27070131 50.02934852 84.78834276 49.45545965 91.96484375 47.33984375 C95.74658705 46.70834343 98.2872749 47.55482435 101.5078125 49.56640625 C102.80332031 50.55447266 102.80332031 50.55447266 104.125 51.5625 C105.08148438 52.2740625 106.03796875 52.985625 107.0234375 53.71875 C109.00488232 55.23733763 110.96874449 56.77915106 112.9140625 58.34375 C118.31823129 62.99617189 118.31823129 62.99617189 125 64.1875 C129.18795188 62.52976905 131.00333954 60.43849149 132.85009766 56.39672852 C133.18147232 55.6800853 133.51284698 54.96344208 133.85426331 54.2250824 C134.37886391 53.0637252 134.37886391 53.0637252 134.9140625 51.87890625 C135.28550888 51.07046768 135.65695526 50.26202911 136.03965759 49.42909241 C137.24116656 46.80976868 138.43314767 44.18622985 139.625 41.5625 C140.44207357 39.77692766 141.25970043 37.9916084 142.07788086 36.20654297 C146.64293298 26.23408711 151.19015084 16.25189991 155.62548828 6.22094727 C157.89815507 1.10184493 157.89815507 1.10184493 159 0 C167.30873585 0.51616155 175.32110215 2.53209598 183.40234375 4.421875 C184.89007995 4.76728275 186.37783772 5.11259761 187.86561584 5.45782471 C190.97211854 6.18025618 194.07752992 6.90718993 197.18237305 7.63671875 C201.13435889 8.56441114 205.08995225 9.47559249 209.04669857 10.38273239 C212.1176186 11.08968487 215.18576992 11.80812538 218.25329781 12.5296402 C219.70938457 12.87018874 221.16642775 13.20667755 222.62446404 13.53878021 C234.64363586 16.28385582 245.91344963 19.13520924 253 30 C255.46010274 35.00103887 256.37725431 38.60162137 256.38818359 44.26464844 C256.39606903 45.29770866 256.39606903 45.29770866 256.40411377 46.35163879 C256.41720725 48.60445523 256.4086183 50.85655272 256.3984375 53.109375 C256.40046039 54.68402237 256.40337362 56.25866882 256.40713501 57.83331299 C256.41154309 61.12155136 256.40517303 64.4095442 256.39111328 67.69775391 C256.37396554 71.91354624 256.38390703 76.1287679 256.40183067 80.34453964 C256.41266162 83.59074217 256.40922637 86.83680887 256.4014473 90.08301544 C256.39944629 91.63796303 256.4019011 93.19292295 256.40888596 94.74785614 C256.41649559 96.91654788 256.40490707 99.08430751 256.38818359 101.25292969 C256.38579681 102.48646179 256.38341003 103.7199939 256.38095093 104.99090576 C256 108 256 108 254.83744001 109.66447318 C252.24746987 111.54696978 250.40689255 111.37604702 247.22000885 111.37752342 C245.40071688 111.38925829 245.40071688 111.38925829 243.54467154 111.40123022 C242.19176699 111.39474348 240.83886378 111.38797348 239.48596191 111.38095093 C238.05420146 111.38440556 236.62244367 111.38916882 235.19069147 111.39513266 C231.24684333 111.40769912 227.30321194 111.40144679 223.35936284 111.39217401 C219.10981452 111.38540685 214.86030437 111.39585311 210.61076355 111.40411377 C202.28217693 111.41747832 193.95367126 111.41456128 185.62508142 111.40587585 C178.85838999 111.39911039 172.0917213 111.39817764 165.32502747 111.4014473 C163.8823609 111.40213684 163.8823609 111.40213684 162.41054955 111.40284032 C160.45693234 111.40379947 158.50331513 111.4047721 156.54969794 111.4057581 C138.2154248 111.41431997 119.88119661 111.40446538 101.54693085 111.388357 C85.80323737 111.3749531 70.05961025 111.37728097 54.31591797 111.39111328 C36.04883083 111.40715504 17.78178312 111.41349592 -0.48531008 111.40427649 C-2.43188253 111.40332081 -4.378455 111.4023777 -6.32502747 111.4014473 C-7.76178621 111.40075306 -7.76178621 111.40075306 -9.22757038 111.40004479 C-15.98889665 111.39745068 -22.75019798 111.40183494 -29.51152039 111.40888596 C-37.74736316 111.41728558 -45.98312012 111.41505332 -54.21895301 111.39904372 C-58.42384687 111.39114021 -62.62859746 111.38810463 -66.83349037 111.39799118 C-70.67880712 111.4068958 -74.52384709 111.40207576 -78.36913854 111.38605852 C-79.76411041 111.38269265 -81.15910541 111.38444504 -82.55406255 111.39168589 C-84.4426955 111.40074127 -86.33139347 111.38970544 -88.22000885 111.37752342 C-89.79701624 111.37679284 -89.79701624 111.37679284 -91.40588236 111.37604749 C-94 111 -94 111 -95.79874945 109.66390479 C-98.22412133 106.3044159 -98.13534731 103.15605589 -98.16113281 99.15844727 C-98.17074036 97.95611954 -98.1803479 96.75379181 -98.19024658 95.51502991 C-98.19449646 94.2119841 -98.19874634 92.90893829 -98.203125 91.56640625 C-98.20736607 90.56697148 -98.20736607 90.56697148 -98.21169281 89.54734612 C-98.22668748 86.01276122 -98.23591172 82.47821707 -98.24023438 78.94360352 C-98.24568125 75.32274442 -98.26962694 71.7022686 -98.29820633 68.08152866 C-98.31701344 65.27334078 -98.32204806 62.46524126 -98.32357025 59.65699577 C-98.32800326 57.68311555 -98.34657199 55.70928296 -98.36553955 53.73548889 C-98.34157352 43.9074456 -98.02357341 32.98166106 -90.875 25.5 C-90.17117187 24.7265625 -89.46734375 23.953125 -88.7421875 23.15625 C-80.67457886 16.81248936 -70.32498248 15.15838921 -60.546875 12.890625 C-58.95731324 12.51581323 -57.36789906 12.1403751 -55.77862549 11.76434326 C-52.46502614 10.98233313 -49.15008853 10.20637632 -45.83398438 9.43505859 C-41.58934486 8.44747478 -37.34787035 7.44701134 -33.10725021 6.44232559 C-29.83286588 5.66763858 -26.55717989 4.89858279 -23.28104401 4.13134003 C-21.7162373 3.76439956 -20.15177409 3.39599095 -18.58766937 3.02606964 C-16.40442408 2.51085325 -14.2196009 2.0029658 -12.03417969 1.49707031 C-10.79335632 1.20713196 -9.55253296 0.9171936 -8.27410889 0.61846924 C-5.4074584 0.07696766 -2.90331116 -0.1318475 0 0 Z " fill="#28ACEE" transform="translate(128,401)"/>
<path d="M0 0 C1.45021797 -0.00211487 1.45021797 -0.00211487 2.92973328 -0.00427246 C6.05605799 -0.00639703 9.18227939 -0.00013323 12.30859375 0.0078125 C13.37501099 0.0093634 14.44142822 0.01091431 15.54016113 0.01251221 C29.02844007 0.03553666 42.51273622 0.12912372 55.99609375 0.5078125 C57.8534314 0.55397705 57.8534314 0.55397705 59.74829102 0.60107422 C81.32214967 1.32365082 98.39950981 7.77233995 113.61328125 23.5859375 C125.08636182 37.28639269 130.14873764 52.35741423 130.02734375 69.96875 C130.02295288 71.09654877 130.01856201 72.22434753 130.01403809 73.38632202 C129.86361951 86.24833086 128.59035981 98.9755564 127.24609375 111.7578125 C126.88565576 115.2809124 126.52894708 118.80434363 126.17614746 122.32821655 C125.95869445 124.49021651 125.73644631 126.65174191 125.50842285 128.81265259 C125.40831909 129.78922821 125.30821533 130.76580383 125.20507812 131.77197266 C125.11625366 132.61732574 125.0274292 133.46267883 124.93591309 134.33364868 C124.69232738 137.92567634 124.74609375 141.53253519 124.74609375 145.1328125 C119.46609375 145.1328125 114.18609375 145.1328125 108.74609375 145.1328125 C106.2411799 134.48895526 103.92946964 123.8093933 101.67456055 113.11010742 C101.26115083 111.15382575 100.84509984 109.19810052 100.42651367 107.24291992 C99.81493855 104.38581033 99.21128744 101.52712757 98.609375 98.66796875 C98.32819572 97.36473412 98.32819572 97.36473412 98.04133606 96.03517151 C97.12889796 91.65513989 96.52792802 87.63653988 96.74609375 83.1328125 C96.12379883 83.40432129 95.50150391 83.67583008 94.86035156 83.95556641 C72.43400509 93.67913645 50.84629582 100.04610843 26.74609375 104.1328125 C25.82683105 104.28878906 24.90756836 104.44476563 23.96044922 104.60546875 C2.71167343 108.11596417 -18.72973127 109.57009822 -40.25390625 109.1328125 C-40.48851562 110.32777344 -40.723125 111.52273437 -40.96484375 112.75390625 C-42.43960602 119.39033646 -44.69154704 125.76652708 -46.87890625 132.1953125 C-47.29914063 133.44248047 -47.719375 134.68964844 -48.15234375 135.97460938 C-49.18208659 139.02873303 -50.21743049 142.08096722 -51.25390625 145.1328125 C-56.86390625 145.1328125 -62.47390625 145.1328125 -68.25390625 145.1328125 C-69.04585565 136.98689682 -69.82985256 128.84032597 -70.60081482 120.69240093 C-70.95930697 116.90684744 -71.32094284 113.12165566 -71.69042969 109.3371582 C-74.51790935 80.33162789 -74.51790935 80.33162789 -74.53515625 69.07421875 C-74.53696899 68.01880135 -74.53696899 68.01880135 -74.53881836 66.94206238 C-74.23853806 48.87700492 -66.80228293 32.47718499 -54.1015625 19.78515625 C-38.36684467 5.12963718 -21.01509077 -0.04598822 0 0 Z " fill="#5A4146" transform="translate(179.25390625,113.8671875)"/>
<path d="M0 0 C3.21262227 13.53775846 6.35084624 27.06152182 8.79394531 40.76245117 C9.18168078 44.70480792 9.18168078 44.70480792 11 48 C13.71846878 48.03192832 16.42370823 47.93163148 19.140625 47.83984375 C23.40956726 48.07895117 26.1069075 49.18133188 29.25 52.0625 C33.48827417 59.17674593 31.81464205 66.19896874 29.93560791 73.79527283 C29.56958347 75.22355317 29.19839009 76.65051798 28.82226562 78.07617188 C28.24871519 80.25488052 27.70081927 82.43888741 27.15625 84.625 C24.09054333 96.62963663 24.09054333 96.62963663 21 101 C18.29120665 102.35439668 15.99066732 102.06501451 13 102 C12.98582031 102.85980469 12.97164063 103.71960938 12.95703125 104.60546875 C12.43773975 117.47547711 9.14942964 128.61991247 0 138 C-2.52451148 140.22884797 -5.21963236 142.10429479 -8 144 C-9.59904316 145.13871255 -11.19785176 146.27776541 -12.79321289 147.42163086 C-13.98246548 148.27250359 -15.17441417 149.11961941 -16.36889648 149.96313477 C-19.57083258 152.22917894 -22.72101793 154.53923219 -25.81640625 156.94921875 C-37.39178006 165.91501226 -46.44762904 169.2833435 -61.25 169.6875 C-62.2805249 169.73156982 -63.3110498 169.77563965 -64.37280273 169.82104492 C-69.83361641 169.82678803 -73.25348325 169.37518252 -77.484375 165.76953125 C-86.21855664 156.9047871 -91.59879005 146.49434489 -96.1875 135.0625 C-96.66848145 133.86645142 -96.66848145 133.86645142 -97.15917969 132.64624023 C-98.14885769 130.11153086 -99.07354639 127.55849237 -100 125 C-100.34323303 124.11404648 -100.68646606 123.22809296 -101.0401001 122.31529236 C-104.51307036 112.48403447 -104.60303217 103.2563169 -104.56640625 92.96875 C-104.57165242 91.16084475 -104.5779325 89.35294224 -104.58518982 87.54504395 C-104.59552626 83.78315199 -104.59112343 80.02164004 -104.57641602 76.25976562 C-104.55912353 71.44324476 -104.58288648 66.62790529 -104.61790562 61.81151581 C-104.6398569 58.08996712 -104.63844562 54.36870316 -104.6301403 50.64710999 C-104.62932174 48.87051587 -104.63616704 47.09390067 -104.65091133 45.31736755 C-104.6683426 42.84038916 -104.65383566 40.3655637 -104.63110352 37.88867188 C-104.64279572 37.16031128 -104.65448792 36.43195068 -104.66653442 35.68151855 C-104.59335209 31.76013345 -104.11102237 30.13581965 -101.59532166 27.05822754 C-98.97826941 24.98276649 -97.7467321 24.29707517 -94.5 23.875 C-93.52933594 23.73320312 -92.55867187 23.59140625 -91.55859375 23.4453125 C-89.79708984 23.22488281 -89.79708984 23.22488281 -88 23 C-59.51483716 19.34619583 -31.19186561 14.03227469 -5.328125 1.03125 C-3 0 -3 0 0 0 Z " fill="#EFBF86" transform="translate(278,210)"/>
<path d="M0 0 C0.72638672 0.20898926 1.45277344 0.41797852 2.20117188 0.63330078 C36.03887175 10.70763828 64.02998023 34.23057986 81 65 C97.57479993 96.28396318 101.22179676 132.60440262 91.69970703 166.7421875 C86.22362177 184.41240261 77.3026479 201.19702919 65 215 C64.28070313 215.85078125 63.56140625 216.7015625 62.8203125 217.578125 C42.82939972 240.7704295 14.66175109 254.40331473 -15 260 C-15.93875977 260.17724609 -16.87751953 260.35449219 -17.84472656 260.53710938 C-38.62671807 263.58590664 -61.35182374 261.26982522 -81 254 C-81.33 253.67 -81.66 253.34 -82 253 C-81.90903444 250.13311752 -81.76232012 247.29699485 -81.5625 244.4375 C-81.51029297 243.63119141 -81.45808594 242.82488281 -81.40429688 241.99414062 C-81.27422624 239.99578262 -81.13770944 237.99784614 -81 236 C-77.07243554 234.69081185 -75.18560557 235.61746097 -71.25 236.8125 C-70.05890625 237.16957031 -68.8678125 237.52664062 -67.640625 237.89453125 C-65.27364851 238.61325909 -62.9089125 239.33942202 -60.546875 240.07421875 C-32.61819509 247.36397331 -1.98013083 240.57910471 22.55859375 226.40991211 C28.11219231 223.07393558 33.12438784 219.26616064 38 215 C38.7321875 214.41089844 39.464375 213.82179687 40.21875 213.21484375 C56.4794547 199.73105517 66.40736447 180.71431204 73 161 C73.49306641 159.54207031 73.49306641 159.54207031 73.99609375 158.0546875 C82.86659276 130.29724083 76.84546232 98.87601202 63.9375 73.5 C50.69062659 48.58353406 27.17249063 28.85967232 0.25927734 20.33422852 C-12.03434558 16.645208 -23.88062026 14.62010593 -36.75 14.6875 C-38.45724243 14.69595947 -38.45724243 14.69595947 -40.19897461 14.70458984 C-67.05325386 15.08982984 -90.48642228 25.12500381 -111 42 C-112.01320313 42.78310547 -112.01320313 42.78310547 -113.046875 43.58203125 C-118.53950864 47.95346216 -122.7314929 53.46844089 -127 59 C-127.91458984 60.17369141 -127.91458984 60.17369141 -128.84765625 61.37109375 C-138.93919149 75.00271196 -145.88219319 91.52609076 -148.640625 108.2421875 C-149 110 -149 110 -150 111 C-151.34267413 111.08631874 -152.68974322 111.10706473 -154.03515625 111.09765625 C-154.84404297 111.09443359 -155.65292969 111.09121094 -156.48632812 111.08789062 C-157.33646484 111.07951172 -158.18660156 111.07113281 -159.0625 111.0625 C-159.91650391 111.05798828 -160.77050781 111.05347656 -161.65039062 111.04882812 C-163.76695663 111.03700373 -165.88348685 111.01906769 -168 111 C-165.47218803 80.30514036 -149.71036011 53.13903484 -128 32 C-127.53851563 31.49339844 -127.07703125 30.98679688 -126.6015625 30.46484375 C-96.26904812 -2.01314116 -41.48602989 -12.13884955 0 0 Z " fill="#29AFEF" transform="translate(385,4)"/>
<path d="M0 0 C0.62181152 0.2779541 1.24362305 0.5559082 1.88427734 0.84228516 C28.49890212 13.10093287 49.77196356 37.3317069 59.99804688 64.66796875 C64.5816729 78.09905897 66.18030902 90.19438215 66.1875 104.375 C66.19974609 105.63828125 66.21199219 106.9015625 66.22460938 108.203125 C66.23584211 115.40705391 65.80127833 122.02235437 64 129 C63.80801025 129.78181641 63.61602051 130.56363281 63.41821289 131.36914062 C58.92977285 148.92744351 51.6090498 164.04149965 40 178 C39.24203125 178.92167969 38.4840625 179.84335938 37.703125 180.79296875 C20.32310448 200.92766572 -7.15915593 216.86717009 -34 219 C-49.83126751 219.73320615 -64.55527947 219.14571718 -79.875 215 C-81.10992187 214.67 -82.34484375 214.34 -83.6171875 214 C-86.50393287 213.1466434 -89.23328592 212.17822045 -92 211 C-92.12086218 204.56744599 -91.82351864 198.38226945 -91 192 C-89.783125 192.4125 -88.56625 192.825 -87.3125 193.25 C-83.34142281 194.56741897 -79.36359608 195.86156032 -75.375 197.125 C-74.33085937 197.45757812 -73.28671875 197.79015625 -72.2109375 198.1328125 C-47.2024741 204.88692305 -21.07437307 199.33692558 1.12109375 187.30859375 C13.71654206 179.72207554 23.73369177 170.08490372 32 158 C32.63550781 157.07960937 33.27101563 156.15921875 33.92578125 155.2109375 C46.81069064 134.92649034 51.09039629 109.70891246 46.875 86.1875 C40.61855091 59.53211689 25.83493157 36.93677517 2.47387695 22.1237793 C-3.99457102 18.21606903 -10.82319202 15.35095694 -18 13 C-19.50856567 12.48590576 -19.50856567 12.48590576 -21.04760742 11.96142578 C-29.92980029 9.14571618 -38.02418027 8.36531127 -47.3125 8.5 C-47.99042603 8.50653595 -48.66835205 8.5130719 -49.36682129 8.51980591 C-72.8383882 8.78450466 -92.88984085 15.83529346 -111 31 C-111.62519531 31.4640625 -112.25039063 31.928125 -112.89453125 32.40625 C-129.7268135 45.33596564 -138.96901626 66.84508129 -143 87 C-149.27 87 -155.54 87 -162 87 C-157.58309091 64.56210184 -149.88048536 46.63729107 -135 29 C-134.52175781 28.38769531 -134.04351562 27.77539062 -133.55078125 27.14453125 C-117.54476224 7.10261059 -89.62153267 -6.62557822 -64.47216797 -9.76855469 C-42.06526975 -11.86629708 -20.56277214 -9.21522734 0 0 Z " fill="#E0E8F5" transform="translate(397,28)"/>
<path d="M0 0 C3.72378562 1.19046855 5.29177116 2.7387746 7.9296875 5.6015625 C10.8448815 8.66858952 13.71478831 11.66130507 16.9296875 14.4140625 C20.32710358 17.32515491 23.63863157 20.32136398 26.9296875 23.3515625 C34.1533569 29.99502205 41.42461315 36.5782465 48.83984375 43.0078125 C50.62080527 44.5908894 52.37174791 46.19452579 54.11328125 47.8203125 C54.65033691 48.31998535 55.18739258 48.8196582 55.74072266 49.33447266 C56.80805466 50.33002971 57.87167246 51.32958681 58.93115234 52.33349609 C61.30747401 54.54749431 62.93230011 55.9357667 66.0546875 56.9765625 C66.66054687 56.43128906 67.26640625 55.88601563 67.890625 55.32421875 C111.0546875 16.4765625 111.0546875 16.4765625 113.53125 14.25 C115.27912421 12.6752898 117.02369888 11.0969124 118.765625 9.515625 C119.64476562 8.71898437 120.52390625 7.92234375 121.4296875 7.1015625 C122.22117187 6.38226563 123.01265625 5.66296875 123.828125 4.921875 C129.45876688 0.00247209 129.45876688 0.00247209 132.9296875 -0.1484375 C137.40240503 1.46174081 139.33225778 4.1913661 142.0546875 7.9765625 C142.55742187 8.646875 143.06015625 9.3171875 143.578125 10.0078125 C147.12889201 15.1083618 147.12889201 15.1083618 146.82592773 18.65307617 C145.92820065 22.52162915 144.34569746 25.76247534 142.5 29.2421875 C139.52037846 35.02712554 136.67345983 40.84760338 133.984375 46.7734375 C133.65020569 47.50856567 133.31603638 48.24369385 132.97174072 49.00109863 C131.95540026 51.24187718 130.94212052 53.48401606 129.9296875 55.7265625 C127.32650549 61.48676868 124.70584165 67.23827238 122.0546875 72.9765625 C121.77032837 73.59845459 121.48596924 74.22034668 121.19299316 74.86108398 C120.41297203 76.55688247 119.61331247 78.24360777 118.8125 79.9296875 C118.37309082 80.86458008 117.93368164 81.79947266 117.48095703 82.76269531 C115.88016064 85.24746451 114.80600118 85.99152427 112.0546875 86.9765625 C108.61410013 87.5145045 107.32237487 87.14223721 104.328125 85.2890625 C103.37164062 84.5259375 102.41515625 83.7628125 101.4296875 82.9765625 C100.37122676 82.15607838 99.3126299 81.33576984 98.25390625 80.515625 C96.18126571 78.87936288 94.12641617 77.22469922 92.07421875 75.5625 C86.76147478 71.18202898 86.76147478 71.18202898 80.2421875 69.9140625 C79.1903125 70.2646875 78.1384375 70.6153125 77.0546875 70.9765625 C68.9106744 72.68112338 61.06734066 72.55918224 53.0546875 70.4140625 C49.12351979 69.67504403 47.56246361 69.70781586 43.984375 71.6015625 C40.88857466 73.94518629 37.96806655 76.41057824 35.0546875 78.9765625 C25.83543226 86.37868917 25.83543226 86.37868917 20.6796875 86.6640625 C16.43585122 85.859197 15.7337519 85.26287295 13.0546875 81.9765625 C11.46048434 79.14426759 10.12516458 76.2111727 8.7890625 73.25 C8.39197083 72.38831207 7.99487915 71.52662415 7.58575439 70.63882446 C6.31705825 67.88014217 5.06084304 65.115974 3.8046875 62.3515625 C2.97604964 60.54651249 2.14662951 58.74182137 1.31640625 56.9375 C-1.92037895 49.88749609 -5.13441445 42.82819762 -8.26757812 35.73144531 C-8.6327655 34.90440094 -8.99795288 34.07735657 -9.37420654 33.22525024 C-10.05942241 31.66904193 -10.74191676 30.1116314 -11.42120361 28.55282593 C-12.75980972 25.50649745 -14.09432458 22.75304438 -15.9453125 19.9765625 C-15.70791213 15.05898346 -14.05390501 12.17482007 -11.1328125 8.2890625 C-10.10220703 6.89107422 -10.10220703 6.89107422 -9.05078125 5.46484375 C-4.39707578 -0.03498999 -4.39707578 -0.03498999 0 0 Z " fill="#E3E9F5" transform="translate(141.9453125,379.0234375)"/>
<path d="M0 0 C0.23376694 4.49911447 0.37490714 8.99665691 0.5 13.5 C0.60054687 15.40265625 0.60054687 15.40265625 0.703125 17.34375 C0.89657883 26.62953378 0.89657883 26.62953378 -1.68457031 30.57495117 C-3.69115294 32.59289794 -5.72052145 34.30152861 -8 36 C-9.25706249 37.09611948 -10.50815476 38.19916967 -11.75 39.3125 C-12.40484375 39.87582031 -13.0596875 40.43914062 -13.734375 41.01953125 C-16.53316263 43.46605768 -19.26689817 45.98076721 -22 48.5 C-25.90960866 52.10035014 -29.85867007 55.64418073 -33.875 59.125 C-36.61824133 61.54550706 -39.30853582 64.02233594 -42 66.5 C-55.61837737 79.01148586 -55.61837737 79.01148586 -62 83 C-66.74157633 78.91387687 -71.3956158 74.73988856 -76 70.5 C-79.96128855 66.8533242 -83.95791288 63.25670939 -88.0234375 59.7265625 C-94.67097739 53.91981817 -101.16347272 47.93932082 -107.65893555 41.96386719 C-111.18276718 38.7294379 -114.75286644 35.55667403 -118.37890625 32.4375 C-118.91386719 31.963125 -119.44882813 31.48875 -120 31 C-120.52239258 30.60321045 -121.04478516 30.2064209 -121.58300781 29.79760742 C-123.66286495 27.15908431 -123.33975259 25.12243412 -123.29296875 21.80078125 C-123.28330078 20.59228516 -123.27363281 19.38378906 -123.26367188 18.13867188 C-123.2259668 16.2447168 -123.2259668 16.2447168 -123.1875 14.3125 C-123.17396484 13.03826172 -123.16042969 11.76402344 -123.14648438 10.45117188 C-123.11108199 7.30035943 -123.0616979 4.15038955 -123 1 C-119.99788713 2.39680178 -117.47011274 4.04028424 -114.83984375 6.046875 C-113.65708862 6.93971191 -113.65708862 6.93971191 -112.45043945 7.85058594 C-111.62116943 8.47739258 -110.79189941 9.10419922 -109.9375 9.75 C-98.18901111 18.50164083 -88.02072864 25.28770798 -72.87109375 25.3359375 C-71.74284935 25.3459227 -71.74284935 25.3459227 -70.59181213 25.35610962 C-69.00776587 25.36616966 -67.42367779 25.37092872 -65.83959961 25.37060547 C-63.4671871 25.37494569 -61.09668992 25.41124179 -58.72460938 25.44921875 C-43.38154391 25.56487276 -31.20990705 23.03995236 -18.78759766 13.38720703 C-16.03373838 11.25016409 -13.23667809 9.17132968 -10.44506836 7.08398438 C-8.99771965 5.99835211 -7.55440838 4.90731327 -6.11547852 3.81054688 C-1.10515445 0 -1.10515445 0 0 0 Z " fill="#D29B6E" transform="translate(269,354)"/>
<path d="M0 0 C4.66685359 8.25046479 4.57050568 16.08105579 4.49609375 25.3046875 C4.49624895 26.8764757 4.4977414 28.44826427 4.50050354 30.02005005 C4.50188105 33.29641866 4.48943073 36.572346 4.46655273 39.84863281 C4.43802814 44.04869971 4.44095193 48.24804225 4.45364285 52.44816399 C4.46059006 55.68580328 4.45282417 58.92327464 4.44038582 62.16089249 C4.43587187 63.71025067 4.43553404 65.25962686 4.43945122 66.80898666 C4.44235774 68.96792556 4.42589031 71.12585646 4.40405273 73.28466797 C4.39864975 74.51216766 4.39324677 75.73966736 4.38768005 77.00436401 C4 80 4 80 2.82879639 81.89842224 C0.2522431 83.45041229 -1.6645997 83.36010022 -4.66479492 83.34057617 C-5.82577194 83.34034958 -6.98674896 83.34012299 -8.1829071 83.33988953 C-9.43610245 83.32440567 -10.68929779 83.30892181 -11.98046875 83.29296875 C-13.26359451 83.28872391 -14.54672028 83.28447906 -15.86872864 83.28010559 C-19.27686138 83.26866162 -22.6846094 83.23919896 -26.09259033 83.20599365 C-29.57143957 83.17528272 -33.05035109 83.16159811 -36.52929688 83.14648438 C-43.35302243 83.11432835 -50.17649274 83.06313776 -57 83 C-57.08802152 79.0209757 -57.14073233 75.04220612 -57.1875 71.0625 C-57.21263672 69.94552734 -57.23777344 68.82855469 -57.26367188 67.67773438 C-57.37362455 55.17978087 -54.166985 47.54919345 -45.66796875 38.5234375 C-41.33996131 34.12229937 -36.8828465 29.92397585 -32.1953125 25.91015625 C-29.41577737 23.49166394 -26.70863204 20.99710558 -24 18.5 C-19.98323821 14.80310189 -15.94664751 11.13601473 -11.8125 7.5703125 C-10.54934417 6.47594042 -9.3002836 5.36517666 -8.0625 4.2421875 C-7.44375 3.68789063 -6.825 3.13359375 -6.1875 2.5625 C-5.37345703 1.82193359 -5.37345703 1.82193359 -4.54296875 1.06640625 C-3 0 -3 0 0 0 Z " fill="#23A0EA" transform="translate(380,429)"/>
<path d="M0 0 C1.10859375 0.00322266 2.2171875 0.00644531 3.359375 0.00976562 C4.50148438 0.01814453 5.64359375 0.02652344 6.8203125 0.03515625 C8.56828125 0.04192383 8.56828125 0.04192383 10.3515625 0.04882812 C13.21619895 0.06056844 16.08072883 0.07699055 18.9453125 0.09765625 C15.813959 1.69227689 12.65736877 3.00759967 9.3828125 4.28515625 C-12.10836172 13.24198828 -26.03050832 30.09819058 -35.20263672 51.00488281 C-42.45073486 68.80737486 -43.45578956 87.10090578 -44.0546875 106.09765625 C-48.70552549 101.48609899 -48.70552549 101.48609899 -50.6171875 99.359375 C-61.25408455 87.71081655 -75.7824839 82.09196462 -91.0546875 80.09765625 C-91.0546875 79.76765625 -91.0546875 79.43765625 -91.0546875 79.09765625 C-89.4046875 79.09765625 -87.7546875 79.09765625 -86.0546875 79.09765625 C-86.04050781 78.52660156 -86.02632812 77.95554687 -86.01171875 77.3671875 C-84.80237106 56.80827678 -70.79028443 36.48146546 -55.7734375 23.09765625 C-40.57223158 10.22493967 -20.25551579 -0.10440988 0 0 Z " fill="#24A0EA" transform="translate(340.0546875,35.90234375)"/>
<path d="M0 0 C3.8628585 0.84099133 6.0460865 2.89458882 8.22892761 6.0867157 C9.53531929 9.57855817 9.40354726 13.02005962 9.3918457 16.69848633 C9.3995121 17.94070702 9.3995121 17.94070702 9.40733337 19.20802307 C9.42122874 21.94474525 9.4202723 24.68121549 9.41796875 27.41796875 C9.42185641 29.32362461 9.42619122 31.2292796 9.43095398 33.13493347 C9.43841658 37.13043017 9.43812512 41.12583851 9.43286133 45.12133789 C9.42707413 50.23244757 9.44397938 55.343194 9.467206 60.45424366 C9.48196666 64.39114993 9.48281173 68.32796926 9.47969627 72.2648983 C9.48020856 74.14868577 9.48542885 76.03247822 9.49550819 77.91623878 C9.50789712 80.55613117 9.50106576 83.19532321 9.48950195 85.83520508 C9.50096756 86.99427368 9.50096756 86.99427368 9.51266479 88.17675781 C9.46312845 93.3142071 8.5140507 96.89354446 6.1171875 101.4609375 C3.25418391 103.9263017 1.42310106 104.41644098 -2.3203125 104.9609375 C-7.07478575 104.29364301 -8.55502405 102.86795901 -11.8828125 99.4609375 C-13.16503029 95.61428412 -13.06308061 91.96444439 -13.09155273 87.95385742 C-13.10622841 86.65092491 -13.10622841 86.65092491 -13.12120056 85.32167053 C-13.15113389 82.44493134 -13.17253288 79.56823851 -13.19140625 76.69140625 C-13.19797808 75.70871576 -13.2045499 74.72602528 -13.21132088 73.71355629 C-13.24390362 68.51307235 -13.26835853 63.31260883 -13.2878418 58.11206055 C-13.30566431 53.80804689 -13.34050137 49.50468723 -13.39038086 45.20092773 C-13.45054365 40.00378203 -13.48131184 34.80724337 -13.49101448 29.60976601 C-13.49957585 27.63019052 -13.51841072 25.65063156 -13.5477581 23.67125511 C-13.58665398 20.8988504 -13.58771023 18.12881377 -13.57983398 15.35620117 C-13.59983459 14.54091949 -13.61983521 13.72563782 -13.64044189 12.88565063 C-13.58486508 8.52129701 -13.0738986 6.14751807 -9.9879303 2.95039368 C-6.18858825 -0.09564069 -4.63924883 -0.32802769 0 0 Z " fill="#FBFDFE" transform="translate(350.8828125,103.5390625)"/>
<path d="M0 0 C0.33 0 0.66 0 1 0 C1.23433541 3.83228532 1.37506508 7.66271317 1.5 11.5 C1.60054687 13.11648438 1.60054687 13.11648438 1.703125 14.765625 C1.89655128 22.69610259 1.89655128 22.69610259 -0.68457031 26.44995117 C-2.69719734 28.47397657 -4.7494439 30.2476766 -7 32 C-8.25464827 33.09888204 -9.50537521 34.20227788 -10.75 35.3125 C-11.40484375 35.87582031 -12.0596875 36.43914062 -12.734375 37.01953125 C-15.53316263 39.46605768 -18.26689817 41.98076721 -21 44.5 C-24.90960866 48.10035014 -28.85867007 51.64418073 -32.875 55.125 C-35.61824133 57.54550706 -38.30853582 60.02233594 -41 62.5 C-54.61837737 75.01148586 -54.61837737 75.01148586 -61 79 C-66.27674503 74.45268737 -71.43508178 69.78441839 -76.55761719 65.06494141 C-80.0801455 61.82569334 -83.64853358 58.65005125 -87.28125 55.53515625 C-89.2653846 53.7629633 -91.13357964 51.89507155 -93 50 C-92.41210693 49.9906543 -91.82421387 49.98130859 -91.21850586 49.97167969 C-59.26439974 49.33602511 -34.49637357 38.35040799 -12.13671875 15.41015625 C-8.23300441 11.27534012 -4.89415674 6.80142912 -1.609375 2.16796875 C-1.07828125 1.45253906 -0.5471875 0.73710937 0 0 Z " fill="#E5AF78" transform="translate(268,358)"/>
<path d="M0 0 C0.33 0 0.66 0 1 0 C0.99097656 0.73863281 0.98195313 1.47726563 0.97265625 2.23828125 C1.36654599 15.71616065 9.48871748 25.02007405 19 34 C28.44988426 41.64538375 38.51350866 46.22755881 50 50 C50 50.33 50 50.66 50 51 C46.1875662 51.05872928 42.37525094 51.09383916 38.5625 51.125 C37.49322266 51.14175781 36.42394531 51.15851563 35.32226562 51.17578125 C28.91069415 51.21499575 23.16677894 50.76317257 17 49 C16.29206299 48.80164551 15.58412598 48.60329102 14.85473633 48.39892578 C12.76856317 47.79344017 10.6965677 47.15355386 8.625 46.5 C7.92761719 46.28730469 7.23023438 46.07460937 6.51171875 45.85546875 C3.30871281 44.85337668 0.8127346 43.8751564 -2 42 C-2.26464844 40.07080078 -2.26464844 40.07080078 -2.109375 37.6953125 C-2.05966553 36.81053223 -2.00995605 35.92575195 -1.95874023 35.01416016 C-1.88985596 34.0607373 -1.82097168 33.10731445 -1.75 32.125 C-1.69207275 31.15224121 -1.63414551 30.17948242 -1.57446289 29.17724609 C-1.45327606 27.14255708 -1.32628885 25.1082062 -1.19384766 23.07421875 C-0.89030121 18.26029325 -0.66755045 13.44288869 -0.4375 8.625 C-0.29329178 5.7499153 -0.14655468 2.87496632 0 0 Z " fill="#25A0E9" transform="translate(309,178)"/>
<path d="M0 0 C7.5070823 1.38312304 14.87137906 1.09036929 22.1875 -1.06640625 C26.04352022 -1.71030982 28.59609587 -0.78767435 31.8984375 1.22265625 C33.20361328 2.17978516 33.20361328 2.17978516 34.53515625 3.15625 C35.41816406 3.79691406 36.30117187 4.43757813 37.2109375 5.09765625 C37.87480469 5.59136719 38.53867188 6.08507812 39.22265625 6.59375 C38.89265625 7.58375 38.56265625 8.57375 38.22265625 9.59375 C35.67578125 10.7265625 35.67578125 10.7265625 32.47265625 11.71875 C31.4259375 12.05132812 30.37921875 12.38390625 29.30078125 12.7265625 C14.65744709 16.85196883 -2.59002744 16.08432157 -16.77734375 10.59375 C-17.76734375 9.93375 -18.75734375 9.27375 -19.77734375 8.59375 C-13.69999584 0.72894683 -10.06203385 -2.0946985 0 0 Z " fill="#24A0EB" transform="translate(197.77734375,449.40625)"/>
<path d="M0 0 C3.69061814 1.35200862 6.39463288 3.27746505 8.9375 6.3125 C10.52995188 10.34046653 10.88313994 13.79894353 9.23828125 17.8984375 C7.33655648 21.46135268 5.41612458 23.8934928 2 26 C-2.2684618 26.92233094 -6.34882471 26.97110489 -10.171875 24.72265625 C-13.27240368 22.1025814 -15.74711187 20.00865427 -16.2734375 15.828125 C-16.58138863 8.01090393 -16.58138863 8.01090393 -13.6875 4.5 C-9.22491376 0.34875699 -6.02235765 -0.895066 0 0 Z " fill="#FBFDFE" transform="translate(352,62)"/>
<path d="M0 0 C2.27434653 1.26486115 4.54438745 2.53654703 6.8125 3.8125 C7.45509766 4.16892578 8.09769531 4.52535156 8.75976562 4.89257812 C11.86538435 6.6465286 14.67459095 8.25964807 17 11 C6.78466905 15.50676366 -4.41308516 14.82317729 -15 12 C-15 11.01 -15 10.02 -15 9 C-12.52359763 7.29305123 -10.1091194 5.78629988 -7.5 4.3125 C-6.78457031 3.89677734 -6.06914062 3.48105469 -5.33203125 3.05273438 C-3.56042371 2.025202 -1.78091912 1.01130764 0 0 Z " fill="#D0DAEC" transform="translate(207,437)"/>
</svg>
