<?xml version="1.0" encoding="UTF-8"?>
<svg version="1.1" xmlns="http://www.w3.org/2000/svg" width="512" height="512">
<path d="M0 0 C0.64670749 -0.00581376 1.29341497 -0.01162753 1.95971966 -0.01761746 C4.12395966 -0.0322006 6.28706247 -0.01834158 8.45129395 -0.00457001 C10.01962615 -0.00917963 11.58795404 -0.01553296 13.15627289 -0.02347898 C17.46384875 -0.04018718 21.77107043 -0.03191924 26.07864761 -0.01953411 C30.72494159 -0.01049202 35.37117422 -0.02444917 40.01745605 -0.0354538 C49.11869075 -0.05325259 58.21979359 -0.04939297 67.32103348 -0.03780323 C74.71692234 -0.02877454 82.11277421 -0.02754247 89.50866699 -0.0318985 C90.56075899 -0.03251143 91.61285098 -0.03312436 92.69682455 -0.03375587 C94.83404097 -0.03503475 96.97125738 -0.03633161 99.10847378 -0.03764623 C119.15538478 -0.04905602 139.20222266 -0.03593207 159.24912167 -0.01444477 C176.45522093 0.00342657 193.66121225 0.00032257 210.86730957 -0.01811981 C230.84183785 -0.03951948 250.81630201 -0.04795735 270.79084015 -0.03567076 C272.92025247 -0.03439654 275.04966481 -0.03313906 277.17907715 -0.0318985 C278.22682485 -0.0312814 279.27457255 -0.03066429 280.35407019 -0.03002849 C287.74220664 -0.02657288 295.13030246 -0.03240849 302.51843262 -0.04181671 C311.52049481 -0.05302802 320.52241747 -0.05001491 329.52446365 -0.02869374 C334.1186313 -0.01817164 338.71256618 -0.01408121 343.30673218 -0.02729034 C347.51113079 -0.03919611 351.71508056 -0.03268189 355.91943836 -0.01138014 C357.44155845 -0.00690634 358.96371634 -0.00919779 360.48581219 -0.01888329 C362.55366327 -0.03103375 364.61997363 -0.01858882 366.68774414 0 C367.83656319 0.00064941 368.98538223 0.00129882 370.16901398 0.00196791 C375.39530327 0.82734148 378.2929518 3.28153275 381.68741179 7.22803497 C383.70181319 11.21112384 383.90015323 14.54711008 383.84723663 18.908638 C383.8530504 19.74444334 383.85886416 20.58024868 383.8648541 21.44138145 C383.87947993 24.24879308 383.86555682 27.05533396 383.85180664 29.86273956 C383.85641453 31.89304807 383.86276668 33.92335325 383.87071562 35.95365143 C383.88744739 41.53817645 383.879145 47.12242882 383.86677074 52.70695496 C383.85773836 58.7274894 383.87168098 64.74797623 383.88269043 70.76850128 C383.89946981 81.88274083 383.89798662 92.99690518 383.88704456 104.11114526 C383.87698598 114.3782876 383.87435382 124.645398 383.87913513 134.91254425 C383.87944067 135.59334368 383.87974621 136.27414311 383.88006101 136.97557282 C383.88130635 139.73909559 383.88257995 142.50261833 383.88390007 145.26614106 C383.89613861 171.19499649 383.8850382 197.12379643 383.86351248 223.0526433 C383.84452976 246.09353845 383.84622826 269.13434518 383.86535645 292.17523956 C383.8867707 318.0563874 383.89527069 343.9374862 383.88290739 369.81864166 C383.8816245 372.57715606 383.88037314 375.33567046 383.87913513 378.09418488 C383.87881882 378.77341137 383.87850251 379.45263787 383.87817662 380.15244699 C383.87362495 390.41363869 383.87895112 400.67479496 383.88905334 410.93598175 C383.90048164 422.60234325 383.89726407 434.26862058 383.87593037 445.93497276 C383.8654003 451.89010166 383.86133154 457.84505086 383.87452698 463.80017853 C383.88641602 469.24802426 383.87994581 474.69552314 383.85861677 480.14333725 C383.85413591 482.1176761 383.85645005 484.09204404 383.86611992 486.06636429 C383.87823209 488.74402693 383.8658617 491.42049166 383.84723663 494.09809113 C383.8566013 494.86995192 383.86596596 495.64181271 383.8756144 496.43706322 C383.80317074 501.62533158 382.72140221 504.5765455 379.34387207 508.50336456 C375.07587417 512.03274029 372.18650466 513.00362076 366.68774414 513.00672913 C366.04103665 513.01254289 365.39432917 513.01835665 364.72802448 513.02434659 C362.56378448 513.03892972 360.40068167 513.02507071 358.2364502 513.01129913 C356.66811799 513.01590875 355.0997901 513.02226208 353.53147125 513.03020811 C349.22389539 513.0469163 344.91667371 513.03864837 340.60909653 513.02626324 C335.96280255 513.01722115 331.31656992 513.03117829 326.67028809 513.04218292 C317.56905339 513.05998172 308.46795055 513.0561221 299.36671066 513.04453236 C291.97082181 513.03550367 284.57496993 513.03427159 277.17907715 513.03862762 C276.12698515 513.03924056 275.07489316 513.03985349 273.99091959 513.04048499 C271.85370317 513.04176388 269.71648676 513.04306073 267.57927036 513.04437536 C247.53235936 513.05578515 227.48552149 513.04266119 207.43862247 513.02117389 C190.23252321 513.00330256 173.02653189 513.00640656 155.82043457 513.02484894 C135.84590629 513.0462486 115.87144213 513.05468647 95.89690399 513.04239988 C93.76749167 513.04112567 91.63807934 513.03986819 89.50866699 513.03862762 C88.46091929 513.03801052 87.41317159 513.03739342 86.33367395 513.03675762 C78.94553751 513.03330201 71.55744168 513.03913761 64.16931152 513.04854584 C55.16724933 513.05975715 46.16532667 513.05674404 37.16328049 513.03542286 C32.56911284 513.02490077 27.97517796 513.02081034 23.38101196 513.03401947 C19.17661335 513.04592524 14.97266359 513.03941102 10.76830578 513.01810926 C9.24618569 513.01363547 7.7240278 513.01592692 6.20193195 513.02561241 C4.13408087 513.03776288 2.06777051 513.02531794 0 513.00672913 C-1.14881905 513.00607972 -2.29763809 513.00543031 -3.48126984 513.00476122 C-8.70755913 512.17938764 -11.60520766 509.72519637 -14.99966764 505.77869415 C-17.01406905 501.79560529 -17.21240909 498.45961905 -17.15949249 494.09809113 C-17.16530626 493.26228579 -17.17112002 492.42648045 -17.17710996 491.56534767 C-17.19173579 488.75793605 -17.17781268 485.95139516 -17.1640625 483.14398956 C-17.16867039 481.11368105 -17.17502254 479.08337588 -17.18297148 477.0530777 C-17.19970325 471.46855267 -17.19140086 465.88430031 -17.1790266 460.29977417 C-17.16999422 454.27923972 -17.18393684 448.2587529 -17.19494629 442.23822784 C-17.21172567 431.12398829 -17.21024248 420.00982395 -17.19930042 408.89558387 C-17.18924184 398.62844153 -17.18660968 388.36133113 -17.19139099 378.09418488 C-17.19169653 377.41338545 -17.19200207 376.73258602 -17.19231687 376.0311563 C-17.19356221 373.26763354 -17.1948358 370.5041108 -17.19615593 367.74058807 C-17.20839447 341.81173263 -17.19729405 315.8829327 -17.17576834 289.95408583 C-17.15678562 266.91319067 -17.15848412 243.87238394 -17.1776123 220.83148956 C-17.19902655 194.95034172 -17.20752655 169.06924293 -17.19516325 143.18808746 C-17.19388036 140.42957307 -17.192629 137.67105866 -17.19139099 134.91254425 C-17.19107468 134.23331775 -17.19075837 133.55409126 -17.19043248 132.85428214 C-17.18588081 122.59309044 -17.19120698 112.33193417 -17.2013092 102.07074738 C-17.2127375 90.40438588 -17.20951993 78.73810855 -17.18818623 67.07175636 C-17.17765616 61.11662746 -17.1735874 55.16167827 -17.18678284 49.2065506 C-17.19867188 43.75870486 -17.19220167 38.31120599 -17.17087263 32.86339188 C-17.16639177 30.88905303 -17.16870591 28.91468509 -17.17837578 26.94036484 C-17.19048795 24.26270219 -17.17811756 21.58623747 -17.15949249 18.908638 C-17.16885716 18.13677721 -17.17822182 17.36491642 -17.18787026 16.56966591 C-17.1154266 11.38139755 -16.03365807 8.43018363 -12.65612793 4.50336456 C-8.38813003 0.97398884 -5.49876052 0.00310836 0 0 Z " fill="#F2511E" transform="translate(72.6561279296875,-0.5033645629882813)"/>
<path d="M0 0 C6.01394883 -0.0991017 12.02741915 -0.17157916 18.04199219 -0.21972656 C20.0866728 -0.2398042 22.13129627 -0.26707225 24.17578125 -0.30175781 C27.11993537 -0.35044519 30.06332834 -0.37300744 33.0078125 -0.390625 C33.9174173 -0.41127014 34.82702209 -0.43191528 35.76419067 -0.45318604 C41.34391977 -0.45514523 44.67571762 0.12849259 49 4 C52.84755724 8.72968775 53.57531414 12.4749961 53.50336456 18.40527344 C53.51208521 19.65898145 53.51208521 19.65898145 53.52098203 20.93801689 C53.53560786 23.74542851 53.52168475 26.5519694 53.50793457 29.359375 C53.51254246 31.38968351 53.51889461 33.41998869 53.52684355 35.45028687 C53.54357532 41.03481189 53.53527293 46.61906426 53.52289867 52.20359039 C53.51386629 58.22412484 53.52780891 64.24461167 53.53881836 70.26513672 C53.55559774 81.37937627 53.55411455 92.49354062 53.54317249 103.60778069 C53.53311391 113.87492303 53.53048175 124.14203343 53.53526306 134.40917969 C53.5355686 135.08997912 53.53587414 135.77077855 53.53618894 136.47220826 C53.53743428 139.23573102 53.53870787 141.99925377 53.540028 144.76277649 C53.55226654 170.69163193 53.54116613 196.62043187 53.51964041 222.54927874 C53.50065769 245.59017389 53.50235619 268.63098062 53.52148438 291.671875 C53.54289862 317.55302284 53.55139862 343.43412163 53.53903532 369.3152771 C53.53775243 372.07379149 53.53650107 374.8323059 53.53526306 377.59082031 C53.5347886 378.60966006 53.5347886 378.60966006 53.53430455 379.64908242 C53.52975288 389.91027412 53.53507905 400.17143039 53.54518127 410.43261719 C53.55660957 422.09897868 53.553392 433.76525602 53.5320583 445.4316082 C53.52152823 451.3867371 53.51745947 457.3416863 53.53065491 463.29681396 C53.54254395 468.7446597 53.53607374 474.19215857 53.5147447 479.63997269 C53.51026384 481.61431153 53.51257798 483.58867948 53.52224785 485.56299973 C53.53436002 488.24066237 53.52198963 490.9171271 53.50336456 493.59472656 C53.51272923 494.36658735 53.52209389 495.13844814 53.53174233 495.93369865 C53.45954947 501.10400525 52.24651287 504.00915823 49 508 C43.88849282 512.57630566 39.52744572 512.53859998 33.0078125 512.390625 C31.58890213 512.38213531 31.58890213 512.38213531 30.1413269 512.37347412 C27.13535858 512.35117571 24.13060489 512.30099138 21.125 512.25 C19.08074644 512.22992656 17.03647411 512.21167727 14.9921875 512.1953125 C9.99432735 512.15133228 4.99736925 512.08234985 0 512 C0.59554688 511.71640625 1.19109375 511.4328125 1.8046875 511.140625 C5.89584872 509.01496828 9.28196912 506.63587713 11.16378278 502.34857416 C12.14676428 498.41229258 12.27765788 494.70047049 12.25447559 490.67281342 C12.25928531 489.43176821 12.25928531 489.43176821 12.26419219 488.16565138 C12.27250806 485.38717868 12.26656234 482.60892065 12.26069641 479.83044434 C12.26371636 477.82076294 12.26760505 475.81108269 12.27228898 473.80140448 C12.28259772 468.27395808 12.28037985 462.74657633 12.27610838 457.21912456 C12.27364641 451.25995221 12.28264869 445.30079564 12.29014587 439.34162903 C12.30290915 427.6656411 12.30469042 415.98967132 12.30234561 404.31367838 C12.30051346 394.82635984 12.30227091 385.33904805 12.30657005 375.85173035 C12.30717245 374.48904788 12.30777365 373.1263654 12.30837366 371.76368293 C12.3092809 369.71030295 12.31018957 367.65692298 12.31110601 365.603543 C12.31953608 346.51147474 12.3238708 327.41940903 12.31969929 308.32733917 C12.31954291 307.60753363 12.31938654 306.88772809 12.31922542 306.14611026 C12.31841963 302.49778349 12.31757386 298.84945673 12.31671212 295.20112997 C12.31654103 294.47654958 12.31636994 293.75196918 12.31619367 293.00543181 C12.31584702 291.54015483 12.31549849 290.07487785 12.31514808 288.60960086 C12.30978943 265.80368347 12.31772518 242.99780472 12.33618164 220.19189453 C12.35688911 194.57444403 12.36762685 168.95701747 12.36360615 143.33955812 C12.3632108 140.60912864 12.36284926 137.87869915 12.36250877 135.14826965 C12.36237268 134.13980354 12.36237268 134.13980354 12.36223383 133.11096437 C12.36106705 122.95443392 12.36772222 112.79792762 12.37832069 102.6414032 C12.39035821 91.09399865 12.39166938 79.5466464 12.37953053 67.99924076 C12.37362334 62.10489315 12.37259311 56.21064977 12.38453293 50.31630898 C12.39532908 44.924035 12.3923635 39.53195307 12.37827124 34.13968831 C12.37560697 32.18553437 12.37804462 30.23136568 12.38600711 28.27722615 C12.39605927 25.62697894 12.38773747 22.97740627 12.37473011 20.32718658 C12.38203946 19.56334752 12.3893488 18.79950846 12.39687964 18.01252276 C12.348392 13.26677421 11.50646454 10.03172977 9 6 C6.18357567 3.4002237 3.42575904 1.65832922 0 0 Z " fill="#D74315" transform="translate(403,0)"/>
<path d="M0 0 C0.76183594 -0.00515625 1.52367187 -0.0103125 2.30859375 -0.015625 C4.89410186 0.2890796 6.34340006 0.88810423 8.5625 2.25 C14.00891441 9.27824416 17.47904329 18.04339559 21.1875 26.0625 C21.74695313 27.24392578 22.30640625 28.42535156 22.8828125 29.64257812 C29.19149178 43.21962965 34.51616543 55.99881486 29.6171875 70.7890625 C27.59106986 75.51667033 24.82145164 80.38939028 20.8125 83.69140625 C20.4 84.20574219 19.9875 84.72007812 19.5625 85.25 C20.36451729 91.64712653 23.35079907 97.50966333 25.875 103.375 C26.34228516 104.56738281 26.80957031 105.75976562 27.29101562 106.98828125 C30.02065501 113.53206743 30.02065501 113.53206743 35.48852539 117.6315918 C38.63192185 118.44069447 38.63192185 118.44069447 41.70263672 118.79614258 C47.39526286 119.69955661 51.65387582 122.95689894 55.28955078 127.32495117 C59.92671141 133.88685482 63.35345377 140.67551869 66.625 148 C67.18255171 149.22723627 67.74125609 150.45394942 68.30102539 151.68017578 C69.47034569 154.24312561 70.63540551 156.80794909 71.79785156 159.37402344 C74.36352541 165.02445858 76.99688532 170.64320082 79.62854004 176.26312256 C80.79678967 178.75909223 81.96199988 181.25647599 83.12731934 183.7538147 C85.52147893 188.88426337 87.91915149 194.0130577 90.32015991 199.14030457 C101.53500496 223.09058556 101.53500496 223.09058556 106.875 234.9375 C107.24214111 235.75105957 107.60928223 236.56461914 107.98754883 237.40283203 C112.10698351 246.59844739 113.54128815 256.03729308 109.875 265.75 C105.91754386 274.17510697 100.06673105 278.68135884 91.75 282.5625 C83.06579666 284.43556347 75.32178238 283.66952653 67.5625 279.25 C59.86983608 274.07176668 56.14265891 267.67390332 52.5625 259.25 C52.13839844 259.90226562 51.71429688 260.55453125 51.27734375 261.2265625 C46.46748315 268.39378334 41.61264055 275.00958496 33.0546875 277.7734375 C24.30801004 279.44599965 15.50503516 279.47754992 7.7109375 274.85546875 C0.88643328 269.75570287 -3.33577289 263.506237 -5.4375 255.25 C-6.41944293 246.04995013 -4.91655273 239.33766288 -0.75 231.1875 C-0.26756836 230.1867041 0.21486328 229.1859082 0.71191406 228.15478516 C1.75225158 225.99696224 2.80289638 223.84408408 3.86279297 221.69580078 C6.5992096 216.14828794 9.2812711 210.57619284 11.92593384 204.98440552 C12.79848133 203.15440152 13.69069562 201.33496883 14.5847168 199.51538086 C15.1187915 198.39397705 15.65286621 197.27257324 16.203125 196.1171875 C16.68297852 195.12831543 17.16283203 194.13944336 17.65722656 193.12060547 C19.41060868 187.56066292 17.3036519 183.21818504 14.91015625 178.15234375 C14.38099609 177.02119141 13.85183594 175.89003906 13.30664062 174.72460938 C12.75169922 173.55736328 12.19675781 172.39011719 11.625 171.1875 C10.53154755 168.86375368 9.43906231 166.53955192 8.34765625 164.21484375 C7.86176025 163.1899585 7.37586426 162.16507324 6.87524414 161.10913086 C3.25918639 153.23342836 1.97016533 145.88325945 4.390625 137.3203125 C5.62389093 134.21874071 6.84930806 131.24844046 8.79492188 128.5246582 C9.99027264 124.98232897 8.50342144 123.03304449 6.9140625 119.734375 C6.62268402 119.11854553 6.33130554 118.50271606 6.03109741 117.8682251 C5.09790146 115.9047337 4.14316832 113.95263687 3.1875 112 C2.55063561 110.66996308 1.91520098 109.33924054 1.28125 108.0078125 C-0.27516079 104.74709222 -1.85105659 101.49623374 -3.4375 98.25 C-4.57324463 98.21463135 -5.70898926 98.1792627 -6.87915039 98.14282227 C-14.80051123 97.85969181 -21.5560045 97.56644908 -28.4375 93.25 C-29.13230469 92.81558594 -29.82710937 92.38117188 -30.54296875 91.93359375 C-39.89608916 85.49345268 -44.34256207 75.95421333 -49.07910156 65.95117188 C-50.05911146 63.88215395 -51.05179189 61.81961686 -52.046875 59.7578125 C-62.39350655 38.21519059 -62.39350655 38.21519059 -61.4375 31.25 C-59.64632468 27.10201505 -57.60257424 25.0085869 -53.4375 23.25 C-47.00291951 22.31594799 -47.00291951 22.31594799 -43.65969849 24.31077576 C-38.90432778 28.30356666 -36.45457225 32.3225019 -33.9921875 37.97265625 C-33.61442169 38.7957579 -33.23665588 39.61885956 -32.84744263 40.46690369 C-31.65244334 43.07489864 -30.48069126 45.69240009 -29.3125 48.3125 C-28.1349837 50.93501837 -26.95233193 53.55475454 -25.75613403 56.16880798 C-25.01562333 57.7886119 -24.28588568 59.41339942 -23.56881714 61.04371643 C-21.44713177 65.70362855 -19.2963946 68.86620812 -15.4375 72.25 C-15.9315332 71.20658447 -16.42556641 70.16316895 -16.93457031 69.08813477 C-18.78443149 65.1804353 -20.6328945 61.27207577 -22.48095703 57.36352539 C-23.27778204 55.67877742 -24.07497543 53.99420363 -24.87255859 52.30981445 C-26.02540748 49.87498028 -27.17688674 47.4395023 -28.328125 45.00390625 C-28.67933411 44.26290176 -29.03054321 43.52189728 -29.39239502 42.75843811 C-30.41524988 40.5925128 -31.42838249 38.42235688 -32.4375 36.25 C-32.80895142 35.45810272 -33.18040283 34.66620544 -33.56311035 33.85031128 C-33.92481323 33.06302643 -34.28651611 32.27574158 -34.65917969 31.46459961 C-35.15064484 30.40298866 -35.15064484 30.40298866 -35.65203857 29.31993103 C-37.04741841 25.6426785 -37.01606039 23.17135375 -36.4375 19.25 C-34.663563 16.23888922 -32.61365054 13.83807527 -29.4375 12.25 C-27.23046875 12.01171875 -27.23046875 12.01171875 -24.625 11.9375 C-23.77292969 11.90011719 -22.92085937 11.86273438 -22.04296875 11.82421875 C-18.49661108 12.40375846 -17.05883347 13.80143851 -14.4375 16.25 C-12.58813477 19.32763672 -12.58813477 19.32763672 -10.87890625 22.9296875 C-10.56727036 23.57890167 -10.25563446 24.22811584 -9.93455505 24.89700317 C-8.9445805 26.96762705 -7.97243229 29.04609026 -7 31.125 C-6.35199646 32.48228937 -5.70291607 33.83906518 -5.05273438 35.1953125 C-0.95552884 43.78706597 2.88118342 52.47220245 6.5625 61.25 C6.10897867 54.72703788 4.90605018 49.89775385 2 44.07421875 C1.6486499 43.34177444 1.2972998 42.60933014 0.93530273 41.85469055 C-0.17642817 39.5426427 -1.30597927 37.23991761 -2.4375 34.9375 C-3.56552371 32.61570738 -4.68969321 30.29213095 -5.81030273 27.9667511 C-6.50527382 26.52743705 -7.20509501 25.09045194 -7.91040039 23.65617371 C-10.6736875 17.97883883 -11.99660022 13.62374254 -11.4375 7.25 C-8.4453342 2.60698411 -5.63830888 -0.03803244 0 0 Z " fill="#CED6DA" transform="translate(205.4375,59.75)"/>
<path d="M0 0 C0.82363037 -0.01095703 1.64726074 -0.02191406 2.49584961 -0.03320312 C11.40260879 0.17440947 18.3972494 3.61071415 24.83984375 9.65625 C36.27392022 21.83970569 38.16705328 37.29956612 37.890625 53.3203125 C37.37680252 67.56322104 31.64251942 81.90970779 21.8125 92.3125 C9.70591345 103.34376952 -2.75736906 103.88643077 -18.3125 103.625 C-21.6125 110.885 -24.9125 118.145 -28.3125 125.625 C-30.9525 123.645 -33.5925 121.665 -36.3125 119.625 C-41.02388405 117.5548464 -45.18831616 116.26552298 -50.3125 115.625 C-49.59741176 109.82355829 -46.6411789 104.90908527 -44.01953125 99.77539062 C-43.65988281 99.04384766 -43.30023438 98.31230469 -42.9296875 97.55859375 C-42.42864502 96.5694397 -42.42864502 96.5694397 -41.91748047 95.56030273 C-41.16554133 93.15488646 -41.40466001 91.9564845 -42.3125 89.625 C-43.95552953 87.93502677 -45.62721312 86.27283606 -47.3125 84.625 C-55.15857979 75.99431223 -57.79623434 66.35627848 -57.6484375 54.828125 C-55.80758668 37.27582647 -45.52047222 23.51486964 -32.58984375 12.25390625 C-22.53162475 4.41767966 -12.70342092 0.12225 0 0 Z " fill="#FEFEFE" transform="translate(330.3125,57.375)"/>
<path d="M0 0 C0.74970351 -0.00297112 1.49940703 -0.00594224 2.27182883 -0.0090034 C4.79131244 -0.01769524 7.31074855 -0.01919906 9.83024597 -0.02069092 C11.63373924 -0.02531874 13.43723152 -0.03034335 15.24072266 -0.03573608 C20.14574975 -0.04886538 25.05076314 -0.05530606 29.95580506 -0.05974674 C33.01945509 -0.06267657 36.08310136 -0.0667812 39.1467495 -0.07125092 C48.72983432 -0.08492714 58.31291059 -0.09459323 67.8960045 -0.09845281 C78.96269743 -0.10293424 90.0292669 -0.12048558 101.09592229 -0.1494534 C109.64717609 -0.17106091 118.19839512 -0.18115659 126.74967593 -0.18249393 C131.85834063 -0.18354261 136.96688929 -0.18946385 142.07552528 -0.20731354 C146.881288 -0.22377814 151.68684725 -0.22595755 156.4926281 -0.21717453 C158.25586618 -0.2164033 160.01911514 -0.22075823 161.78232574 -0.23063278 C164.19098263 -0.24333025 166.59891646 -0.23748778 169.00756836 -0.22705078 C169.70397944 -0.23510719 170.40039052 -0.24316359 171.11790496 -0.25146413 C176.36343804 -0.19836878 180.46195604 1.05660504 184.33879089 4.67559814 C188.52790516 10.15367065 189.31578366 13.32669708 188.69425964 20.14044189 C186.86891373 25.41366342 184.08706761 27.93735275 179.69425964 31.14044189 C176.19038792 32.30839914 173.04030959 32.28856962 169.39524841 32.28761292 C168.64625046 32.2912896 167.89725252 32.29496629 167.12555766 32.29875439 C164.60841236 32.30979325 162.09130834 32.31363541 159.57414246 32.31744385 C157.77227141 32.32370833 155.97040166 32.33035512 154.16853333 32.33735657 C149.26757532 32.35476718 144.36662706 32.36531845 139.46564579 32.3735621 C136.40399824 32.37871202 133.34235372 32.38478775 130.28070831 32.39107323 C120.7024292 32.41012529 111.12415781 32.42435653 101.54586339 32.4326852 C90.48763403 32.44245936 79.42960475 32.46878353 68.37144589 32.50918609 C59.82527281 32.53933979 51.2791571 32.55415335 42.73293185 32.55746621 C37.62810566 32.55981748 32.52349321 32.56878804 27.41872406 32.59392738 C22.61537805 32.61720011 17.81238664 32.62144453 13.00899887 32.611166 C11.24778693 32.61067034 9.48655757 32.61699966 7.72539902 32.63072205 C5.3169105 32.64843552 2.90969535 32.64133838 0.50120544 32.62818909 C-0.19229279 32.63915833 -0.88579103 32.65012758 -1.60030437 32.66142923 C-6.97342879 32.59082595 -9.95791816 31.07017627 -14.30574036 28.14044189 C-18.43870775 23.6811876 -19.62878192 20.31601103 -19.51667786 14.19512939 C-19.03082093 9.46252305 -16.7883145 6.36003381 -13.30574036 3.32794189 C-8.83951036 0.07131585 -5.31825291 -0.00655405 0 0 Z " fill="#BE360C" transform="translate(171.3057403564453,419.85955810546875)"/>
<path d="M0 0 C0.75631063 -0.00367669 1.51262126 -0.00735338 2.29185039 -0.01114148 C4.83974073 -0.02220166 7.38759032 -0.02602612 9.9355011 -0.02983093 C11.75692882 -0.03609389 13.57835525 -0.04274053 15.39978027 -0.04974365 C20.35864693 -0.06717046 25.31750394 -0.07771026 30.27639365 -0.08594918 C33.37371536 -0.0910964 36.47103406 -0.0971723 39.56835365 -0.10346031 C49.25662703 -0.12251817 58.94489275 -0.13674732 68.63318127 -0.14507228 C79.82103083 -0.15484404 91.00868251 -0.18115951 102.19646233 -0.22157317 C110.84027897 -0.25172678 119.48403888 -0.26654049 128.1279071 -0.26985329 C133.29199195 -0.27220489 138.45586554 -0.28117942 143.61989403 -0.30631447 C148.4798591 -0.32958654 153.33947371 -0.33383186 158.19948006 -0.32355309 C159.98165426 -0.32305738 161.76384565 -0.32938794 163.5459671 -0.34310913 C165.98296819 -0.36081993 168.41871047 -0.35372663 170.85571289 -0.34057617 C171.55767514 -0.35154542 172.2596374 -0.36251466 172.98287123 -0.37381631 C178.38778383 -0.30361061 181.39319387 1.1595582 185.74531555 4.14717102 C189.30297785 8.37323541 190.41985824 12.43994906 190.12031555 17.94404602 C189.25114169 23.05044248 186.80903481 26.68628813 182.69256592 29.80886841 C175.96572171 33.8217637 167.66605944 32.85083491 160.08930969 32.81001282 C158.28993673 32.81843277 156.49057259 32.82896089 154.69122314 32.84143066 C149.81919 32.86843245 144.94766993 32.86379018 140.07559514 32.85173011 C136.0025552 32.84458708 131.92960943 32.85310607 127.85657686 32.86163551 C118.24526574 32.88157302 108.63420345 32.8760352 99.02290344 32.85395813 C89.11951666 32.83159614 79.2167818 32.84919438 69.31345659 32.88700742 C60.79852501 32.91827292 52.2837949 32.92614775 43.76881307 32.91505367 C38.68854004 32.90857622 33.60864306 32.9105229 28.52841377 32.93437767 C23.75021859 32.95567282 18.97294099 32.94759595 14.19480324 32.91728401 C12.44573353 32.91097145 10.69659213 32.91478152 8.94757462 32.92969513 C-6.983088 33.05447832 -6.983088 33.05447832 -13.70978642 27.70759296 C-17.33704166 24.04388924 -18.40584697 20.67492023 -18.69218445 15.64717102 C-18.52599122 11.15239975 -17.22326501 8.59714303 -14.25468445 5.14717102 C-9.31791991 0.79811654 -6.43279767 -0.00166308 0 0 Z " fill="#BE360C" transform="translate(170.2546844482422,366.8528289794922)"/>
<path d="M0 0 C0.66 0.33 1.32 0.66 2 1 C1.51853516 1.78890625 1.51853516 1.78890625 1.02734375 2.59375 C-0.28514503 5.6678682 -0.37354584 8.15933557 -0.4375 11.5 C-0.47746094 12.6240625 -0.51742187 13.748125 -0.55859375 14.90625 C-0.1270139 20.68368518 2.61276892 25.80677756 5 31 C5.27758148 31.6038855 5.55516296 32.207771 5.84115601 32.82995605 C7.71046555 36.88167813 9.61336505 40.91698264 11.52813721 44.9473877 C13.31512675 48.70948204 15.09269567 52.47602621 16.87109375 56.2421875 C17.22635132 56.9940332 17.58160889 57.74587891 17.94763184 58.52050781 C21.04430981 65.07977947 24.0945197 71.65988326 27.125 78.25 C33.19706299 91.43920645 39.29338272 104.61605116 45.47998047 117.75195312 C46.78942629 120.55003652 48.0737167 123.3575288 49.34765625 126.171875 C53.55259768 135.28898934 58.31938464 142.62150001 67.75 147 C74.7498692 149.19714204 82.93416151 148.62553613 90 147 C86.50389278 154.2835567 81.60135903 158.61716462 74.1875 161.875 C66.49095093 164.39031056 58.72568267 163.71745494 51.4140625 160.375 C42.36913652 155.2231975 38.01283995 148.44197634 34 139 C33.57589844 139.65226563 33.15179688 140.30453125 32.71484375 140.9765625 C27.90498315 148.14378334 23.05014055 154.75958496 14.4921875 157.5234375 C5.74551004 159.19599965 -3.05746484 159.22754992 -10.8515625 154.60546875 C-17.67606672 149.50570287 -21.89827289 143.256237 -24 135 C-24.98194293 125.79995013 -23.47905273 119.08766288 -19.3125 110.9375 C-18.83006836 109.9367041 -18.34763672 108.9359082 -17.85058594 107.90478516 C-16.81024842 105.74696224 -15.75960362 103.59408408 -14.69970703 101.44580078 C-11.9632904 95.89828794 -9.2812289 90.32619284 -6.63656616 84.73440552 C-5.76401867 82.90440152 -4.87180438 81.08496883 -3.9777832 79.26538086 C-3.4437085 78.14397705 -2.90963379 77.02257324 -2.359375 75.8671875 C-1.63959473 74.38387939 -1.63959473 74.38387939 -0.90527344 72.87060547 C0.84810868 67.31066292 -1.2588481 62.96818504 -3.65234375 57.90234375 C-4.18150391 56.77119141 -4.71066406 55.64003906 -5.25585938 54.47460938 C-5.81080078 53.30736328 -6.36574219 52.14011719 -6.9375 50.9375 C-8.03095245 48.61375368 -9.12343769 46.28955192 -10.21484375 43.96484375 C-10.70073975 42.9399585 -11.18663574 41.91507324 -11.68725586 40.85913086 C-15.64087561 32.24822499 -16.70849527 23.8586856 -13.5 14.6875 C-10.61889771 8.3573362 -5.71843992 3.81229328 0 0 Z " fill="#AFBCC3" transform="translate(224,180)"/>
<path d="M0 0 C0.76183594 -0.00515625 1.52367187 -0.0103125 2.30859375 -0.015625 C4.89410186 0.2890796 6.34340006 0.88810423 8.5625 2.25 C14.00891441 9.27824416 17.47904329 18.04339559 21.1875 26.0625 C21.74695313 27.24392578 22.30640625 28.42535156 22.8828125 29.64257812 C29.19149178 43.21962965 34.51616543 55.99881486 29.6171875 70.7890625 C27.59106986 75.51667033 24.82145164 80.38939028 20.8125 83.69140625 C20.4 84.20574219 19.9875 84.72007812 19.5625 85.25 C20.02417622 89.15619708 21.3898165 92.34937366 23.06640625 95.8828125 C23.55947266 96.93597656 24.05253906 97.98914063 24.56054688 99.07421875 C25.60725579 101.28263081 26.65413198 103.4909636 27.70117188 105.69921875 C28.19294922 106.74980469 28.68472656 107.80039063 29.19140625 108.8828125 C29.64588135 109.84074707 30.10035645 110.79868164 30.56860352 111.78564453 C31.5625 114.25 31.5625 114.25 31.5625 117.25 C22.95031886 119.73147592 22.95031886 119.73147592 18.5625 118.25 C16.89331055 115.88916016 16.89331055 115.88916016 15.44921875 112.7890625 C14.92392578 111.67789063 14.39863281 110.56671875 13.85742188 109.421875 C13.32697266 108.25140625 12.79652344 107.0809375 12.25 105.875 C11.70021484 104.71226562 11.15042969 103.54953125 10.58398438 102.3515625 C6.5625 93.71910908 6.5625 93.71910908 6.5625 90.25 C5.37914062 90.30800781 4.19578125 90.36601562 2.9765625 90.42578125 C-6.24445529 90.74485774 -13.69773135 90.91815771 -21.4375 85.25 C-22.15164062 84.74210937 -22.86578125 84.23421875 -23.6015625 83.7109375 C-33.72189641 75.71322044 -38.1422085 62.70503737 -43.25 51.25 C-43.93627014 49.72239609 -44.62311519 48.19505031 -45.31054688 46.66796875 C-46.55805363 43.89613016 -47.80166338 41.12260392 -49.04223633 38.34765625 C-49.81328156 36.6358414 -50.59787856 34.92924288 -51.4375 33.25 C-51.50746014 31.54297265 -51.52190154 29.83331997 -51.5 28.125 C-51.49097656 27.21492188 -51.48195312 26.30484375 -51.47265625 25.3671875 C-51.46105469 24.66851562 -51.44945312 23.96984375 -51.4375 23.25 C-48.50521267 22.82088478 -46.3155728 22.71490897 -43.72683716 24.29246521 C-38.92477683 28.28634411 -36.46840138 32.29076976 -33.9921875 37.97265625 C-33.61442169 38.7957579 -33.23665588 39.61885956 -32.84744263 40.46690369 C-31.65244334 43.07489864 -30.48069126 45.69240009 -29.3125 48.3125 C-28.1349837 50.93501837 -26.95233193 53.55475454 -25.75613403 56.16880798 C-25.01562333 57.7886119 -24.28588568 59.41339942 -23.56881714 61.04371643 C-21.44713177 65.70362855 -19.2963946 68.86620812 -15.4375 72.25 C-15.9315332 71.20658447 -16.42556641 70.16316895 -16.93457031 69.08813477 C-18.78443149 65.1804353 -20.6328945 61.27207577 -22.48095703 57.36352539 C-23.27778204 55.67877742 -24.07497543 53.99420363 -24.87255859 52.30981445 C-26.02540748 49.87498028 -27.17688674 47.4395023 -28.328125 45.00390625 C-28.67933411 44.26290176 -29.03054321 43.52189728 -29.39239502 42.75843811 C-30.41524988 40.5925128 -31.42838249 38.42235688 -32.4375 36.25 C-32.80895142 35.45810272 -33.18040283 34.66620544 -33.56311035 33.85031128 C-33.92481323 33.06302643 -34.28651611 32.27574158 -34.65917969 31.46459961 C-35.15064484 30.40298866 -35.15064484 30.40298866 -35.65203857 29.31993103 C-37.04741841 25.6426785 -37.01606039 23.17135375 -36.4375 19.25 C-34.663563 16.23888922 -32.61365054 13.83807527 -29.4375 12.25 C-27.23046875 12.01171875 -27.23046875 12.01171875 -24.625 11.9375 C-23.77292969 11.90011719 -22.92085937 11.86273438 -22.04296875 11.82421875 C-18.49661108 12.40375846 -17.05883347 13.80143851 -14.4375 16.25 C-12.58813477 19.32763672 -12.58813477 19.32763672 -10.87890625 22.9296875 C-10.56727036 23.57890167 -10.25563446 24.22811584 -9.93455505 24.89700317 C-8.9445805 26.96762705 -7.97243229 29.04609026 -7 31.125 C-6.35199646 32.48228937 -5.70291607 33.83906518 -5.05273438 35.1953125 C-0.95552884 43.78706597 2.88118342 52.47220245 6.5625 61.25 C6.10897867 54.72703788 4.90605018 49.89775385 2 44.07421875 C1.6486499 43.34177444 1.2972998 42.60933014 0.93530273 41.85469055 C-0.17642817 39.5426427 -1.30597927 37.23991761 -2.4375 34.9375 C-3.56552371 32.61570738 -4.68969321 30.29213095 -5.81030273 27.9667511 C-6.50527382 26.52743705 -7.20509501 25.09045194 -7.91040039 23.65617371 C-10.6736875 17.97883883 -11.99660022 13.62374254 -11.4375 7.25 C-8.4453342 2.60698411 -5.63830888 -0.03803244 0 0 Z " fill="#FEFDFC" transform="translate(205.4375,59.75)"/>
<path d="M0 0 C1.80096599 2.70144898 3.1763606 5.29637745 4.58203125 8.21484375 C5.09572266 9.28017334 5.60941406 10.34550293 6.13867188 11.44311523 C6.9672168 13.17283569 6.9672168 13.17283569 7.8125 14.9375 C8.09601318 15.5281424 8.37952637 16.11878479 8.67163086 16.72732544 C13.17137993 26.10405654 17.60840436 35.509665 22 44.9375 C22.52698486 46.06599365 23.05396973 47.1944873 23.59692383 48.35717773 C25.08362805 51.56312867 26.54247291 54.78070353 28 58 C28.51522217 59.08708252 29.03044434 60.17416504 29.5612793 61.29418945 C30.03992432 62.34695068 30.51856934 63.39971191 31.01171875 64.484375 C31.44701904 65.41862305 31.88231934 66.35287109 32.33081055 67.31542969 C33.18891925 70.75788254 32.47342018 72.237512 30.8125 75.3125 C25.76062562 82.12869493 19.62064922 88.45129831 11 90 C1.67500979 90.92936633 -6.30579397 90.74967032 -14 85 C-20.40426871 79.42408265 -24.41561801 72.52152716 -25.31518555 64.02197266 C-25.49881629 55.88330765 -24.05893086 50.26224959 -20.375 43.0625 C-19.37583704 41.00152747 -18.37716469 38.94031705 -17.37890625 36.87890625 C-16.8389502 35.78594238 -16.29899414 34.69297852 -15.74267578 33.56689453 C-12.82833463 27.60184491 -10.05472493 21.57156566 -7.26324463 15.54830933 C-5.74092832 12.26859089 -4.20852467 8.99360524 -2.67578125 5.71875 C-2.15927002 4.61466797 -1.64275879 3.51058594 -1.1105957 2.37304688 C-0.74409912 1.58994141 -0.37760254 0.80683594 0 0 Z " fill="#607C89" transform="translate(225,248)"/>
<path d="M0 0 C10.92515286 3.20471151 18.96508481 8.63145212 24.55078125 18.83203125 C31.44615707 34.35171192 32.63315101 53.87818735 27 70 C21.87321112 83.05060216 14.74317095 94.27356278 1.41015625 100.10546875 C-7.75629915 103.50760536 -16.30195119 103.16299242 -26 103 C-29.3 110.26 -32.6 117.52 -36 125 C-38.64 123.02 -41.28 121.04 -44 119 C-46.6266209 117.54450361 -46.6266209 117.54450361 -49 116.625 C-50.1446875 116.14933594 -50.1446875 116.14933594 -51.3125 115.6640625 C-51.869375 115.44492188 -52.42625 115.22578125 -53 115 C-51.54610631 111.72717539 -50.08612447 108.45710214 -48.625 105.1875 C-48.2125 104.25873047 -47.8 103.32996094 -47.375 102.37304688 C-46.97539062 101.48037109 -46.57578125 100.58769531 -46.1640625 99.66796875 C-45.79748535 98.84578857 -45.4309082 98.0236084 -45.05322266 97.17651367 C-44 95 -44 95 -42 92 C-40.00390625 91.72290039 -40.00390625 91.72290039 -37.5625 91.84765625 C-36.67216064 91.87859375 -35.78182129 91.90953125 -34.86450195 91.94140625 C-33.91921631 91.98136719 -32.97393066 92.02132812 -32 92.0625 C-20.97797324 92.28166917 -20.97797324 92.28166917 -11 88 C-10.154375 87.45214844 -9.30875 86.90429688 -8.4375 86.33984375 C3.43242276 77.73768246 9.54965513 64.23614933 12 50 C13.32635191 29.9766598 11.1496549 16.72448235 0 0 Z " fill="#CFD6D9" transform="translate(338,58)"/>
<path d="M0 0 C5.6180316 5.15284427 8.60163388 10.38706216 9.50390625 17.98828125 C9.86208216 27.21602384 7.91692839 33.11175764 4.08984375 41.5 C3.58316162 42.62124268 3.07647949 43.74248535 2.55444336 44.89770508 C0.97805529 48.3561 -0.61869726 51.80431409 -2.22265625 55.25 C-2.77244141 56.4359375 -3.32222656 57.621875 -3.88867188 58.84375 C-5.22711315 61.7301277 -6.56763468 64.61551849 -7.91015625 67.5 C-8.57015625 67.5 -9.23015625 67.5 -9.91015625 67.5 C-12.02054136 63.03753221 -14.12853715 58.57394556 -16.23440552 54.10934448 C-16.9753401 52.53906038 -17.71677325 50.96901142 -18.45870972 49.39920044 C-22.75933268 40.29735476 -26.96615595 31.17344146 -30.97265625 21.9375 C-33.81822728 15.42338074 -36.93142502 9.6868454 -41.91015625 4.5 C-39.83861621 0.05036915 -37.42623411 -2.45086053 -32.79296875 -4.3828125 C-30.51521525 -5.17274048 -28.23438101 -5.86083819 -25.91015625 -6.5 C-24.45609375 -6.9021875 -24.45609375 -6.9021875 -22.97265625 -7.3125 C-14.6252297 -7.82356693 -6.54704887 -5.14124083 0 0 Z " fill="#607D89" transform="translate(298.91015625,179.5)"/>
<path d="M0 0 C5.14645577 0.90288698 7.79385046 4.07228085 11 8 C15.46516823 14.45691965 16.15413992 22.09370203 15.45239258 29.80224609 C14.42441143 34.79624843 12.10570488 39.38469501 10 44 C9.23997681 45.68186401 9.23997681 45.68186401 8.46459961 47.39770508 C6.88821154 50.8561 5.29145899 54.30431409 3.6875 57.75 C3.13771484 58.9359375 2.58792969 60.121875 2.02148438 61.34375 C0.6830431 64.2301277 -0.65747843 67.11551849 -2 70 C-2.66 70 -3.32 70 -4 70 C-5.34793988 67.29810266 -6.67835674 64.58972669 -8 61.875 C-8.3815625 61.11445313 -8.763125 60.35390625 -9.15625 59.5703125 C-9.5171875 58.82265625 -9.878125 58.075 -10.25 57.3046875 C-10.58515625 56.62390137 -10.9203125 55.94311523 -11.265625 55.24169922 C-12.94112896 50.12717882 -12.01679792 46.2873768 -9.6640625 41.59375 C-9.17679687 40.60246094 -8.68953125 39.61117187 -8.1875 38.58984375 C-7.671875 37.57019531 -7.15625 36.55054688 -6.625 35.5 C-5.614013 33.47032813 -4.60610196 31.43912065 -3.6015625 29.40625 C-3.15119629 28.51228516 -2.70083008 27.61832031 -2.23681641 26.69726562 C1.73239075 18.04116601 2.06402786 9.28812537 0 0 Z " fill="#556E79" transform="translate(293,177)"/>
<path d="M0 0 C5.60968815 5.19049823 9.33210101 13.61048956 11 21 C10.23756918 25.50780264 8.23683522 27.87066115 5 31 C4.04480469 32.01320313 4.04480469 32.01320313 3.0703125 33.046875 C-3.48981416 39.42258043 -9.3228768 41.14519316 -18.375 41.5 C-26.50521481 41.30603861 -32.21412655 39.57402854 -38.1640625 33.95703125 C-43 28.66832669 -43 28.66832669 -43 26 C-42.071875 26.165 -41.14375 26.33 -40.1875 26.5 C-30.80723668 27.76709202 -23.56786462 27.18466115 -15 23 C-14.28714844 22.70867187 -13.57429688 22.41734375 -12.83984375 22.1171875 C-10.51022788 20.70260122 -10.06552366 19.48324969 -9 17 C-8.03147378 15.38938676 -7.05155389 13.78558963 -6.0625 12.1875 C-3.65555713 8.21516152 -1.69080128 4.3209366 0 0 Z " fill="#556E79" transform="translate(247,297)"/>
<path d="M0 0 C3.70818297 -0.08756305 7.41609763 -0.14058015 11.125 -0.1875 C12.17171875 -0.21263672 13.2184375 -0.23777344 14.296875 -0.26367188 C20.80001001 -0.3254105 25.66097758 -0.11694967 30.64453125 4.53515625 C34.83364552 10.01322875 35.62152402 13.18625519 35 20 C33.17465409 25.27322153 30.39280797 27.79691086 26 31 C22.94080612 32.01973129 20.87581975 32.11533602 17.67578125 32.09765625 C16.64775391 32.09443359 15.61972656 32.09121094 14.56054688 32.08789062 C13.48869141 32.07951172 12.41683594 32.07113281 11.3125 32.0625 C10.22904297 32.05798828 9.14558594 32.05347656 8.02929688 32.04882812 C5.35280915 32.03703743 2.67643223 32.02058063 0 32 C0.59554688 31.71640625 1.19109375 31.4328125 1.8046875 31.140625 C6.04174331 28.9391654 9.29550791 26.47302892 11.375 22.125 C12.62553904 15.87230478 12.51091272 11.44796802 9 6 C6.18357567 3.4002237 3.42575904 1.65832922 0 0 Z " fill="#B61C1B" transform="translate(325,420)"/>
<path d="M0 0 C3.68722927 -0.11701204 7.37397542 -0.18752045 11.0625 -0.25 C12.10083984 -0.28351563 13.13917969 -0.31703125 14.20898438 -0.3515625 C20.74045357 -0.43450179 24.72669571 0.03793401 30 4 C33.54001893 8.25702549 34.6652151 12.26729114 34.3828125 17.79296875 C33.5368359 22.67028284 31.26201515 25.86944476 27.5625 29.18359375 C22.53269356 31.74813322 18.17884308 31.43632248 12.625 31.25 C11.60277344 31.23195313 10.58054687 31.21390625 9.52734375 31.1953125 C7.01725251 31.14839491 4.50912236 31.08276729 2 31 C2.77730469 30.40703125 3.55460937 29.8140625 4.35546875 29.203125 C8.06417097 26.11345284 10.52119307 22.75047981 11.3515625 17.98046875 C11.55021876 13.25786761 10.57724328 9.91030015 8 6 C5.45269027 3.70742124 2.85081838 1.90054559 0 0 Z " fill="#B61C1B" transform="translate(326,367)"/>
</svg>
