<?xml version="1.0" encoding="UTF-8"?>
<svg version="1.1" xmlns="http://www.w3.org/2000/svg" width="512" height="512">
<path d="M0 0 C7.875 6.75 7.875 6.75 11.18359375 10.0859375 C11.88291016 10.78847656 12.58222656 11.49101562 13.30273438 12.21484375 C14.00720703 12.92769531 14.71167969 13.64054687 15.4375 14.375 C16.16904297 15.11105469 16.90058594 15.84710938 17.65429688 16.60546875 C19.43852723 18.40136074 21.22036124 20.19955985 23 22 C26.66752005 20.4608199 28.98580573 18.24514548 31.765625 15.4296875 C33.09980469 14.08583984 33.09980469 14.08583984 34.4609375 12.71484375 C35.38132812 11.77769531 36.30171875 10.84054688 37.25 9.875 C38.19484856 8.92011363 39.14015633 7.96568141 40.0859375 7.01171875 C42.39518338 4.67890913 44.69963203 2.34155914 47 0 C50.66752005 1.5391801 52.98580573 3.75485452 55.765625 6.5703125 C56.65507812 7.46621094 57.54453125 8.36210937 58.4609375 9.28515625 C59.38132813 10.22230469 60.30171875 11.15945312 61.25 12.125 C62.19484856 13.07988637 63.14015633 14.03431859 64.0859375 14.98828125 C66.39518338 17.32109087 68.69963203 19.65844086 71 22 C74.66752005 20.4608199 76.98580573 18.24514548 79.765625 15.4296875 C80.65507812 14.53378906 81.54453125 13.63789063 82.4609375 12.71484375 C83.38132813 11.77769531 84.30171875 10.84054688 85.25 9.875 C86.19484856 8.92011363 87.14015633 7.96568141 88.0859375 7.01171875 C90.39518338 4.67890913 92.69963203 2.34155914 95 0 C98.66752005 1.5391801 100.98580573 3.75485452 103.765625 6.5703125 C104.65507812 7.46621094 105.54453125 8.36210937 106.4609375 9.28515625 C107.38132813 10.22230469 108.30171875 11.15945312 109.25 12.125 C110.19484856 13.07988637 111.14015633 14.03431859 112.0859375 14.98828125 C114.39518338 17.32109087 116.69963203 19.65844086 119 22 C122.66752005 20.4608199 124.98580573 18.24514548 127.765625 15.4296875 C128.65507812 14.53378906 129.54453125 13.63789063 130.4609375 12.71484375 C131.38132812 11.77769531 132.30171875 10.84054688 133.25 9.875 C134.19484856 8.92011363 135.14015633 7.96568141 136.0859375 7.01171875 C138.39518338 4.67890913 140.69963203 2.34155914 143 0 C146.66752005 1.5391801 148.98580573 3.75485452 151.765625 6.5703125 C152.65507812 7.46621094 153.54453125 8.36210937 154.4609375 9.28515625 C155.38132812 10.22230469 156.30171875 11.15945312 157.25 12.125 C158.19484856 13.07988637 159.14015633 14.03431859 160.0859375 14.98828125 C162.39518338 17.32109087 164.69963203 19.65844086 167 22 C170.66752005 20.4608199 172.98580573 18.24514548 175.765625 15.4296875 C176.65507812 14.53378906 177.54453125 13.63789063 178.4609375 12.71484375 C179.38132812 11.77769531 180.30171875 10.84054688 181.25 9.875 C182.19484856 8.92011363 183.14015633 7.96568141 184.0859375 7.01171875 C186.39518338 4.67890913 188.69963203 2.34155914 191 0 C194.66752005 1.5391801 196.98580573 3.75485452 199.765625 6.5703125 C201.09980469 7.91416016 201.09980469 7.91416016 202.4609375 9.28515625 C203.38132812 10.22230469 204.30171875 11.15945312 205.25 12.125 C206.19484856 13.07988637 207.14015633 14.03431859 208.0859375 14.98828125 C210.39518338 17.32109087 212.69963203 19.65844086 215 22 C218.666116 20.46339272 220.96353371 18.25410086 223.73046875 15.4296875 C224.61541016 14.53378906 225.50035156 13.63789063 226.41210938 12.71484375 C227.78592773 11.30912109 227.78592773 11.30912109 229.1875 9.875 C231.01116701 8.01506778 232.83882569 6.1592539 234.66796875 4.3046875 C235.87876099 3.0669458 235.87876099 3.0669458 237.11401367 1.80419922 C239 0 239 0 240 0 C240 21.12 240 42.24 240 64 C250.56 64 261.12 64 272 64 C272 106.24 272 148.48 272 192 C284.54 192 297.08 192 310 192 C317.45755231 196.97170154 317.45755231 196.97170154 320 202 C320.37853654 204.93846755 320.54180205 207.49490079 320.50793457 210.42578125 C320.51729451 211.676688 320.51729451 211.676688 320.52684355 212.9528656 C320.54276393 215.73970031 320.53017317 218.52565921 320.51757812 221.3125 C320.52299967 223.31348174 320.53012251 225.31445949 320.53881836 227.31542969 C320.55705072 232.74515575 320.54998443 238.17457772 320.53730202 243.60430908 C320.52717397 249.28699563 320.53656716 254.96965618 320.54284668 260.65234375 C320.55012363 270.19536004 320.54053405 279.73825251 320.52148438 289.28125 C320.49971561 300.31377588 320.50676694 311.34600607 320.52879 322.37852478 C320.54694256 331.85129833 320.549503 341.32398287 320.53903532 350.79676819 C320.53279963 356.45424242 320.53196693 362.11157767 320.54518127 367.76904297 C320.55673697 373.08790934 320.5487189 378.40639453 320.52560425 383.72521973 C320.5203157 385.67711758 320.52183342 387.62904753 320.53065491 389.58093262 C320.54158817 392.24579422 320.52787389 394.90943491 320.50793457 397.57421875 C320.5213189 398.73249428 320.5213189 398.73249428 320.53497362 399.91416931 C320.45986209 405.09053194 319.26330941 408.01139618 316 412 C311.59145728 415.68704369 308.58962824 416.49523197 302.89306641 416.45410156 C302.20944031 416.45468567 301.52581421 416.45526978 300.82147217 416.45587158 C298.58097025 416.45310371 296.34182949 416.42207681 294.1015625 416.390625 C292.54072801 416.38315791 290.97988411 416.37746719 289.41903687 416.37347412 C285.32531522 416.35825441 281.23216778 416.31900507 277.13867188 416.2746582 C272.21945561 416.22640249 267.30004658 416.20815396 262.38066101 416.18484497 C254.92004221 416.14615089 247.46068149 416.0694735 240 416 C240 437.12 240 458.24 240 480 C160.8 480 81.6 480 0 480 C0 458.88 0 437.76 0 416 C-4.98351562 416.04640625 -9.96703125 416.0928125 -15.1015625 416.140625 C-18.26434383 416.1610704 -21.42704334 416.18032655 -24.58984375 416.1953125 C-29.60678085 416.21919659 -34.6234251 416.24740929 -39.64013672 416.30175781 C-43.68612242 416.34531419 -47.73179395 416.3691577 -51.77799606 416.37950897 C-53.31934935 416.38688286 -54.86068602 416.40128257 -56.40190506 416.42292023 C-58.56599936 416.45208611 -60.72880625 416.45595076 -62.89306641 416.45410156 C-64.12328522 416.46298401 -65.35350403 416.47186646 -66.6210022 416.48101807 C-71.90670364 415.72857073 -74.80514072 413.46042549 -78.14361763 409.37994766 C-80.36621485 405.33322625 -80.55987587 402.0692015 -80.50793457 397.57421875 C-80.51417453 396.74028091 -80.5204145 395.90634308 -80.52684355 395.0471344 C-80.54276393 392.26029969 -80.53017317 389.47434079 -80.51757812 386.6875 C-80.52299967 384.68651826 -80.53012251 382.68554051 -80.53881836 380.68457031 C-80.55705072 375.25484425 -80.54998443 369.82542228 -80.53730202 364.39569092 C-80.52717397 358.71300437 -80.53656716 353.03034382 -80.54284668 347.34765625 C-80.55012363 337.80463996 -80.54053405 328.26174749 -80.52148438 318.71875 C-80.49971561 307.68622412 -80.50676694 296.65399393 -80.52879 285.62147522 C-80.54694256 276.14870167 -80.549503 266.67601713 -80.53903532 257.20323181 C-80.53279963 251.54575758 -80.53196693 245.88842233 -80.54518127 240.23095703 C-80.55673697 234.91209066 -80.5487189 229.59360547 -80.52560425 224.27478027 C-80.5203157 222.32288242 -80.52183342 220.37095247 -80.53065491 218.41906738 C-80.54158817 215.75420578 -80.52787389 213.09056509 -80.50793457 210.42578125 C-80.51685746 209.65359756 -80.52578034 208.88141388 -80.53497362 208.08583069 C-80.45958348 202.89026749 -79.38331641 199.93217518 -76 196 C-70 192 -70 192 -32 192 C-32 149.76 -32 107.52 -32 64 C-21.44 64 -10.88 64 0 64 C0 42.88 0 21.76 0 0 Z " fill="#4C6CB4" transform="translate(136,16)"/>
<path d="M0 0 C7.875 6.75 7.875 6.75 11.18359375 10.0859375 C11.88291016 10.78847656 12.58222656 11.49101562 13.30273438 12.21484375 C14.00720703 12.92769531 14.71167969 13.64054687 15.4375 14.375 C16.16904297 15.11105469 16.90058594 15.84710938 17.65429688 16.60546875 C19.43852723 18.40136074 21.22036124 20.19955985 23 22 C26.66752005 20.4608199 28.98580573 18.24514548 31.765625 15.4296875 C32.65507812 14.53378906 33.54453125 13.63789063 34.4609375 12.71484375 C35.38132813 11.77769531 36.30171875 10.84054688 37.25 9.875 C38.19484856 8.92011363 39.14015633 7.96568141 40.0859375 7.01171875 C42.39518338 4.67890913 44.69963203 2.34155914 47 0 C50.66752005 1.5391801 52.98580573 3.75485452 55.765625 6.5703125 C56.65507812 7.46621094 57.54453125 8.36210937 58.4609375 9.28515625 C59.38132813 10.22230469 60.30171875 11.15945312 61.25 12.125 C62.19484856 13.07988637 63.14015633 14.03431859 64.0859375 14.98828125 C66.39518338 17.32109087 68.69963203 19.65844086 71 22 C74.66752005 20.4608199 76.98580573 18.24514548 79.765625 15.4296875 C81.09980469 14.08583984 81.09980469 14.08583984 82.4609375 12.71484375 C83.38132812 11.77769531 84.30171875 10.84054688 85.25 9.875 C86.19484856 8.92011363 87.14015633 7.96568141 88.0859375 7.01171875 C90.39518338 4.67890913 92.69963203 2.34155914 95 0 C98.66752005 1.5391801 100.98580573 3.75485452 103.765625 6.5703125 C104.65507812 7.46621094 105.54453125 8.36210937 106.4609375 9.28515625 C107.38132812 10.22230469 108.30171875 11.15945312 109.25 12.125 C110.19484856 13.07988637 111.14015633 14.03431859 112.0859375 14.98828125 C114.39518338 17.32109087 116.69963203 19.65844086 119 22 C122.66752005 20.4608199 124.98580573 18.24514548 127.765625 15.4296875 C128.65507812 14.53378906 129.54453125 13.63789063 130.4609375 12.71484375 C131.38132812 11.77769531 132.30171875 10.84054688 133.25 9.875 C134.19484856 8.92011363 135.14015633 7.96568141 136.0859375 7.01171875 C138.39518338 4.67890913 140.69963203 2.34155914 143 0 C146.66752005 1.5391801 148.98580573 3.75485452 151.765625 6.5703125 C152.65507812 7.46621094 153.54453125 8.36210937 154.4609375 9.28515625 C155.38132812 10.22230469 156.30171875 11.15945312 157.25 12.125 C158.19484856 13.07988637 159.14015633 14.03431859 160.0859375 14.98828125 C162.39518338 17.32109087 164.69963203 19.65844086 167 22 C170.66752005 20.4608199 172.98580573 18.24514548 175.765625 15.4296875 C176.65507812 14.53378906 177.54453125 13.63789063 178.4609375 12.71484375 C179.38132812 11.77769531 180.30171875 10.84054688 181.25 9.875 C182.19484856 8.92011363 183.14015633 7.96568141 184.0859375 7.01171875 C186.39518338 4.67890913 188.69963203 2.34155914 191 0 C194.66752005 1.5391801 196.98580573 3.75485452 199.765625 6.5703125 C200.65507812 7.46621094 201.54453125 8.36210937 202.4609375 9.28515625 C203.38132812 10.22230469 204.30171875 11.15945312 205.25 12.125 C206.19484856 13.07988637 207.14015633 14.03431859 208.0859375 14.98828125 C210.39518338 17.32109087 212.69963203 19.65844086 215 22 C218.666116 20.46339272 220.96353371 18.25410086 223.73046875 15.4296875 C224.61541016 14.53378906 225.50035156 13.63789063 226.41210938 12.71484375 C227.32798828 11.77769531 228.24386719 10.84054688 229.1875 9.875 C231.01116701 8.01506778 232.83882569 6.1592539 234.66796875 4.3046875 C235.87876099 3.0669458 235.87876099 3.0669458 237.11401367 1.80419922 C239 0 239 0 240 0 C240 63.36 240 126.72 240 192 C160.8 192 81.6 192 0 192 C0 128.64 0 65.28 0 0 Z " fill="#E1E6F5" transform="translate(136,16)"/>
<path d="M0 0 C79.2 0 158.4 0 240 0 C240 52.8 240 105.6 240 160 C160.8 160 81.6 160 0 160 C0 107.2 0 54.4 0 0 Z " fill="#E1E6F5" transform="translate(136,336)"/>
<path d="M0 0 C100.32 0 200.64 0 304 0 C304 15.84 304 31.68 304 48 C293.44 48 282.88 48 272 48 C272 42.72 272 37.44 272 32 C192.8 32 113.6 32 32 32 C32 37.28 32 42.56 32 48 C21.44 48 10.88 48 0 48 C0 32.16 0 16.32 0 0 Z " fill="#213D68" transform="translate(104,304)"/>
<path d="M0 0 C0 63.36 0 126.72 0 192 C-79.2 192 -158.4 192 -240 192 C-240 183.75 -240 175.5 -240 167 C-237.47456543 166.99635437 -234.94913086 166.99270874 -232.34716797 166.98895264 C-208.56828859 166.95273328 -184.78953557 166.89454629 -161.01075745 166.81609726 C-148.78532695 166.7762929 -136.55996096 166.74390745 -124.33447266 166.72900391 C-113.67837382 166.71599469 -103.02241682 166.68904853 -92.36639786 166.64538693 C-86.72442762 166.62275589 -81.08263244 166.60709032 -75.44061279 166.60811615 C-70.12836422 166.60886178 -64.81650287 166.5909497 -59.50435448 166.55883217 C-57.55653843 166.55032516 -55.60867898 166.54858867 -53.66085243 166.55419731 C-50.99635125 166.56084663 -48.33307871 166.54289465 -45.66870117 166.51898193 C-44.9021414 166.52674235 -44.13558163 166.53450277 -43.34579277 166.54249835 C-36.60124832 166.43571742 -31.3231389 164.30305524 -26.51130676 159.53282166 C-24.22207267 154.18152172 -24.61947436 149.22581365 -24.8190918 143.47485352 C-24.85994202 141.53858057 -24.90075372 139.60230645 -24.94013655 137.66600311 C-24.98522311 135.58964611 -25.03940483 133.51366632 -25.09488487 131.43756294 C-25.20659964 127.08341959 -25.26648219 122.72951107 -25.31440735 118.37425232 C-25.32274666 117.63622535 -25.33108597 116.89819838 -25.33967799 116.13780695 C-25.35663023 114.62846317 -25.37346214 113.11911804 -25.39017642 111.60977161 C-25.50439799 101.48064179 -25.65079815 91.35497001 -25.94262695 81.22924805 C-26.13945277 74.38623796 -26.2511432 67.54727531 -26.27038699 60.70139641 C-26.28380245 57.08915658 -26.33669207 53.48850054 -26.49472618 49.87945747 C-27.07339919 36.17194686 -26.82970905 24.763609 -17.22944695 14.28679007 C-3.38353491 -0 -3.38353491 -0 0 0 Z " fill="#C8CDED" transform="translate(376,16)"/>
<path d="M0 0 C7.92 0 15.84 0 24 0 C24 52.8 24 105.6 24 160 C-55.2 160 -134.4 160 -216 160 C-216 152.08 -216 144.16 -216 136 C-212.20851723 135.99120064 -212.20851723 135.99120064 -208.34043884 135.98222351 C-184.54654533 135.92558626 -160.7527429 135.85252179 -136.95894527 135.76428509 C-124.72565001 135.71931512 -112.49238394 135.67990316 -100.2590332 135.65356445 C-89.59673677 135.63059417 -78.93453262 135.59720689 -68.27230936 135.55129844 C-62.62648654 135.52735326 -56.98075519 135.50863292 -51.33488274 135.50238609 C-46.02023052 135.49634118 -40.70581239 135.47636248 -35.3912468 135.44572449 C-33.44139671 135.43693481 -31.49151605 135.4332236 -29.54164696 135.43499184 C-26.87697656 135.43664524 -24.21301918 135.41993961 -21.54844666 135.39872742 C-20.77897404 135.40357499 -20.00950143 135.40842257 -19.21671146 135.41341704 C-13.01675636 135.33210676 -8.10233985 134.15766459 -3.625 129.5625 C-1.15287775 125.66415337 -0.87438219 122.41350659 -0.84178162 117.84942627 C-0.8319928 116.80898666 -0.82220398 115.76854706 -0.81211853 114.69657898 C-0.80636307 113.56081924 -0.8006076 112.42505951 -0.79467773 111.25488281 C-0.78477814 110.05460953 -0.77487854 108.85433624 -0.76467896 107.61769104 C-0.738515 104.33085513 -0.71664311 101.04402423 -0.69667697 97.75714588 C-0.67478685 94.3204724 -0.64741299 90.88384272 -0.62062073 87.44720459 C-0.57073472 80.94144859 -0.52578074 74.43566822 -0.48259836 67.92986465 C-0.43319099 60.52238698 -0.37828586 53.11495325 -0.32291877 45.7075181 C-0.20916154 30.47171781 -0.10303466 15.23587715 0 0 Z " fill="#C8CDED" transform="translate(352,336)"/>
<path d="M0 0 C2.25763867 -0.04394339 4.51552249 -0.07542457 6.7734375 -0.1015625 C8.6594165 -0.12984131 8.6594165 -0.12984131 10.58349609 -0.15869141 C14.89213208 0.04143818 16.95043998 0.95043998 20 4 C23.83450365 8.74958282 24.57659538 12.48389704 24.50793457 18.42578125 C24.51417453 19.25971909 24.5204145 20.09365692 24.52684355 20.9528656 C24.54276393 23.73970031 24.53017317 26.52565921 24.51757812 29.3125 C24.52299967 31.31348174 24.53012251 33.31445949 24.53881836 35.31542969 C24.55705072 40.74515575 24.54998443 46.17457772 24.53730202 51.60430908 C24.52717397 57.28699563 24.53656716 62.96965618 24.54284668 68.65234375 C24.55012363 78.19536004 24.54053405 87.73825251 24.52148438 97.28125 C24.49971561 108.31377588 24.50676694 119.34600607 24.52879 130.37852478 C24.54694256 139.85129833 24.549503 149.32398287 24.53903532 158.79676819 C24.53279963 164.45424242 24.53196693 170.11157767 24.54518127 175.76904297 C24.55673697 181.08790934 24.5487189 186.40639453 24.52560425 191.72521973 C24.5203157 193.67711758 24.52183342 195.62904753 24.53065491 197.58093262 C24.54158817 200.24579422 24.52787389 202.90943491 24.50793457 205.57421875 C24.51685746 206.34640244 24.52578034 207.11858612 24.53497362 207.91416931 C24.45986209 213.09053194 23.26330941 216.01139618 20 220 C15.59145728 223.68704369 12.58962824 224.49523197 6.89306641 224.45410156 C6.20944031 224.45468567 5.52581421 224.45526978 4.82147217 224.45587158 C2.58097025 224.45310371 0.34182949 224.42207681 -1.8984375 224.390625 C-3.45927199 224.38315791 -5.02011589 224.37746719 -6.58096313 224.37347412 C-10.67468478 224.35825441 -14.76783222 224.31900507 -18.86132812 224.2746582 C-23.04419183 224.23362584 -27.22714898 224.21544617 -31.41015625 224.1953125 C-39.60706277 224.15250633 -47.80339364 224.08218734 -56 224 C-56 216.08 -56 208.16 -56 200 C-51.34003906 199.94392578 -51.34003906 199.94392578 -46.5859375 199.88671875 C-43.56747514 199.84046906 -40.54913509 199.78924786 -37.53076172 199.73754883 C-35.43773876 199.70435451 -33.34462747 199.67630555 -31.25146484 199.65356445 C-28.23757388 199.61991769 -25.22448837 199.56759607 -22.2109375 199.51171875 C-20.81371964 199.50213387 -20.81371964 199.50213387 -19.38827515 199.49235535 C-14.19336688 199.37556543 -10.48584683 198.90710491 -6 196 C-1.37540644 191.00043939 -0.85068863 187.08375552 -0.84178162 180.50202942 C-0.83437465 179.34662274 -0.83437465 179.34662274 -0.82681805 178.16787452 C-0.8114234 175.57912233 -0.8030771 172.99039498 -0.79467773 170.40161133 C-0.78510076 168.54897339 -0.77509078 166.69633765 -0.76467896 164.84370422 C-0.7376043 159.80686644 -0.71660859 154.77001925 -0.69667697 149.73314881 C-0.67483321 144.47204001 -0.64743665 139.21096026 -0.62062073 133.94987488 C-0.57067204 123.98393747 -0.52574128 114.01798395 -0.48259836 104.05201501 C-0.43324458 92.707523 -0.37831956 81.36306013 -0.32291877 70.01859629 C-0.20906532 46.67909137 -0.1022336 23.33955851 0 0 Z " fill="#3B5792" transform="translate(432,208)"/>
<path d="M0 0 C5.28 0 10.56 0 16 0 C16 2.64 16 5.28 16 8 C17.794375 8.1546875 17.794375 8.1546875 19.625 8.3125 C27.28978269 9.32279649 32.16596175 13.1771812 37 19 C41.1738516 25.59737833 40.21846734 32.35364293 40 40 C34.72 40 29.44 40 24 40 C23.9175 38.2675 23.835 36.535 23.75 34.75 C23.35504873 30.24597702 23.35504873 30.24597702 21.125 26.375 C18.95770294 24.84707986 18.95770294 24.84707986 16 24 C16 31.92 16 39.84 16 48 C18.64 48.33 21.28 48.66 24 49 C30.68181993 51.93062278 35.68920388 56.72387562 39.17578125 63.17578125 C41.47333616 71.04844569 41.51936618 82.5050486 38.5625 90.1875 C35.27793554 96.01119585 29.66016561 101.50519142 23.1875 103.5 C20 104 20 104 16 104 C16 106.64 16 109.28 16 112 C10.72 112 5.44 112 0 112 C0 109.36 0 106.72 0 104 C-0.556875 103.99742187 -1.11375 103.99484375 -1.6875 103.9921875 C-9.61117509 103.59064991 -13.97353036 100.1900626 -19.3125 94.5625 C-24.40588587 86.82809924 -24.28556016 81.23311191 -24 72 C-18.72 72 -13.44 72 -8 72 C-7.67447917 75.28776042 -7.34895833 78.57552083 -7.0234375 81.86328125 C-6.68570313 82.89839844 -6.34796875 83.93351562 -6 85 C-4.02 85.99 -2.04 86.98 0 88 C0 80.08 0 72.16 0 64 C-2.97 63.67 -5.94 63.34 -9 63 C-15.68280103 59.68482712 -20.51037424 53.87616023 -23.3605957 47.05786133 C-24.53823406 43.26774537 -24.47191215 39.50112746 -24.4375 35.5625 C-24.4674707 34.35110352 -24.4674707 34.35110352 -24.49804688 33.11523438 C-24.49230663 25.99158815 -22.55198748 20.87612185 -17.81640625 15.5390625 C-16.70072266 14.59160156 -16.70072266 14.59160156 -15.5625 13.625 C-14.82128906 12.97789063 -14.08007812 12.33078125 -13.31640625 11.6640625 C-8.90783404 8.49702749 -5.38650391 7.74946493 0 8 C0 5.36 0 2.72 0 0 Z " fill="#569B2E" transform="translate(248,64)"/>
<path d="M0 0 C10.56 0 21.12 0 32 0 C32 42.24 32 84.48 32 128 C21.44 128 10.88 128 0 128 C0 85.76 0 43.52 0 0 Z " fill="#213D68" transform="translate(376,80)"/>
<path d="M0 0 C10.56 0 21.12 0 32 0 C32 42.24 32 84.48 32 128 C21.44 128 10.88 128 0 128 C0 85.76 0 43.52 0 0 Z " fill="#213D68" transform="translate(104,80)"/>
<path d="M0 0 C26.4 0 52.8 0 80 0 C80 7.92 80 15.84 80 24 C70.97677394 24.09047585 61.95385061 24.16381635 52.93027306 24.20724869 C48.73996462 24.22809718 44.54998341 24.25636416 40.35986328 24.30175781 C36.31387758 24.34531419 32.26820605 24.3691577 28.22200394 24.37950897 C26.68065065 24.38688286 25.13931398 24.40128257 23.59809494 24.42292023 C21.43400064 24.45208611 19.27119375 24.45595076 17.10693359 24.45410156 C15.87671478 24.46298401 14.64649597 24.47186646 13.3789978 24.48101807 C8.2534721 23.75137259 5.21537976 21.21537976 1.625 17.625 C0 14 0 14 0 0 Z " fill="#3B5792" transform="translate(56,408)"/>
<path d="M0 0 C5.67476113 1.96434039 9.31400331 5.62800662 12 11 C12.54360446 15.95482094 12.56437074 19.87125852 10.3125 24.375 C6.72054254 28.45235712 3.52833982 31.59004052 -2.05078125 32.23828125 C-7.58896758 32.42001793 -10.64755155 31.74513006 -15 28 C-19.3022759 23.23261319 -20.36282503 19.56252705 -20.28125 13.28125 C-19.69180611 8.50020514 -16.85179203 5.75038822 -13.375 2.6875 C-8.92314854 -0.47565762 -5.3540278 -0.48837416 0 0 Z " fill="#C8C9CB" transform="translate(420,232)"/>
<path d="M0 0 C5.67476113 1.96434039 9.31400331 5.62800662 12 11 C12.54360446 15.95482094 12.56437074 19.87125852 10.3125 24.375 C6.72054254 28.45235712 3.52833982 31.59004052 -2.05078125 32.23828125 C-7.58896758 32.42001793 -10.64755155 31.74513006 -15 28 C-19.3022759 23.23261319 -20.36282503 19.56252705 -20.28125 13.28125 C-19.69180611 8.50020514 -16.85179203 5.75038822 -13.375 2.6875 C-8.92314854 -0.47565762 -5.3540278 -0.48837416 0 0 Z " fill="#C8C9CB" transform="translate(372,232)"/>
<path d="M0 0 C5 1 5 1 6.7890625 2.625 C8.43391241 5.85102821 8.39792849 8.3925835 8.375 12 C8.38273437 13.216875 8.39046875 14.43375 8.3984375 15.6875 C7.97487026 19.20892175 7.60860984 20.63060765 5 23 C3.35 23.33 1.7 23.66 0 24 C0 16.08 0 8.16 0 0 Z " fill="#DEE5F1" transform="translate(264,128)"/>
<path d="M0 0 C0 7.92 0 15.84 0 24 C-5 23 -5 23 -6.78125 20.84375 C-8.98092812 15.71116772 -8.76307121 10.46751024 -8 5 C-6.14216568 1.43381227 -4.11623156 0 0 0 Z " fill="#DDE4EF" transform="translate(248,88)"/>
</svg>
