<?xml version="1.0" encoding="UTF-8"?>
<svg version="1.1" xmlns="http://www.w3.org/2000/svg" width="512" height="512">
<path d="M0 0 C0.7178297 -0.00350607 1.43565939 -0.00701215 2.1752415 -0.01062447 C4.56914279 -0.01989305 6.96279837 -0.01502699 9.35670948 -0.01015663 C11.09501668 -0.01389519 12.83332219 -0.01849753 14.57162505 -0.02388728 C19.33993577 -0.03610737 24.10817626 -0.03585797 28.87649906 -0.03349853 C34.02254208 -0.03309011 39.16856267 -0.04413193 44.31459522 -0.05361366 C54.39377349 -0.07021942 64.47292836 -0.07572303 74.55211916 -0.07683842 C82.74642418 -0.07778913 90.94072149 -0.0819006 99.13502407 -0.08823967 C122.37434616 -0.10585123 145.61364979 -0.11507872 168.85297861 -0.11357872 C170.73183886 -0.11345885 170.73183886 -0.11345885 172.64865589 -0.11333656 C173.90276128 -0.1132548 175.15686666 -0.11317304 176.44897524 -0.1130888 C196.77047533 -0.11227602 217.09190128 -0.13141205 237.41337993 -0.1596133 C258.28616031 -0.18835071 279.15890454 -0.2021531 300.0317052 -0.20042574 C311.7474193 -0.19976212 323.46305568 -0.2052423 335.17875195 -0.22678185 C345.15441566 -0.24500493 355.12996643 -0.24933169 365.1056396 -0.235763 C370.19282917 -0.22923899 375.27980213 -0.22909577 380.36697102 -0.2464695 C385.02991339 -0.26223024 389.69246793 -0.25930593 394.35540102 -0.24190123 C396.03640669 -0.23883794 397.71744152 -0.24243828 399.39841279 -0.25362138 C413.13240768 -0.33889156 425.46917569 1.33823422 436.46140003 10.25726891 C437.08659534 10.75871422 437.71179066 11.26015953 438.35593128 11.77680016 C446.26284621 18.85684817 450.86312165 29.5449167 451.67624378 40.02680016 C452.09320816 53.01941006 448.09296331 64.86087505 439.31686878 74.56195641 C422.99259001 89.47719216 406.07527485 86.25726891 383.46140003 86.25726891 C383.46140003 220.23726891 383.46140003 354.21726891 383.46140003 492.25726891 C382.14140003 492.91726891 380.82140003 493.57726891 379.46140003 494.25726891 C371.62625087 487.78475438 364.59351228 480.47953426 357.46140003 473.25726891 C353.49382828 476.52868361 349.78874937 479.87826161 346.23483753 483.59711266 C345.51296253 484.34928062 344.79108753 485.10144859 344.04733753 485.87640953 C342.55597373 487.44023358 341.07437104 489.01341718 339.60202503 490.59515953 C338.88272816 491.33830406 338.16343128 492.08144859 337.42233753 492.84711266 C336.78086781 493.52636803 336.13939808 494.2056234 335.47848988 494.90546227 C333.46140003 496.25726891 333.46140003 496.25726891 331.04514027 496.27728844 C327.6107384 494.92144123 325.7390871 492.98589602 323.16061878 490.34711266 C322.67938053 489.86021461 322.19814228 489.37331657 321.70232105 488.87166405 C320.17482983 487.32186982 318.66187255 485.75872699 317.14890003 484.19476891 C316.11272093 483.13851697 315.07562093 482.08316758 314.03757191 481.02875328 C311.50143108 478.4486267 308.97813544 475.85634371 306.46140003 473.25726891 C302.49382828 476.52868361 298.78874937 479.87826161 295.23483753 483.59711266 C294.51296253 484.34928062 293.79108753 485.10144859 293.04733753 485.87640953 C291.55597373 487.44023358 290.07437104 489.01341718 288.60202503 490.59515953 C287.88272816 491.33830406 287.16343128 492.08144859 286.42233753 492.84711266 C285.78086781 493.52636803 285.13939808 494.2056234 284.47848988 494.90546227 C282.46140003 496.25726891 282.46140003 496.25726891 280.04514027 496.27728844 C276.6107384 494.92144123 274.7390871 492.98589602 272.16061878 490.34711266 C271.67938053 489.86021461 271.19814228 489.37331657 270.70232105 488.87166405 C269.17482983 487.32186982 267.66187255 485.75872699 266.14890003 484.19476891 C265.11272093 483.13851697 264.07562093 482.08316758 263.03757191 481.02875328 C260.50143108 478.4486267 257.97813544 475.85634371 255.46140003 473.25726891 C251.58316957 475.37867944 248.77615163 477.75958416 245.73874378 480.96039391 C244.87056019 481.85758141 244.00237659 482.75476891 243.10788441 483.67914391 C241.29221203 485.57466921 239.48236104 487.47578677 237.67819691 489.38226891 C236.37785511 490.72031578 236.37785511 490.72031578 235.05124378 492.08539391 C234.26612415 492.90942711 233.48100452 493.73346031 232.67209339 494.58246422 C230.46140003 496.25726891 230.46140003 496.25726891 228.47946644 496.30902672 C225.65368372 494.83631054 223.79727095 492.89080483 221.58249378 490.60101891 C220.66145863 489.66129234 219.74042347 488.72156578 218.79147816 487.75336266 C217.82663446 486.75529364 216.86244856 485.75658834 215.89890003 484.75726891 C214.00782678 482.80321263 212.10958742 480.85693343 210.20749378 478.91351891 C209.36887806 478.04533531 208.53026234 477.17715172 207.66623402 476.28265953 C205.54664114 474.05851325 205.54664114 474.05851325 202.46140003 473.25726891 C201.79084583 473.959244 201.12029163 474.6612191 200.42941761 475.38446617 C197.93809248 477.9843737 195.42697428 480.56438584 192.90939808 483.1388607 C191.82251142 484.25592514 190.74106992 485.3783146 189.66525745 486.5060482 C188.11783279 488.12624249 186.55183681 489.7262786 184.98093128 491.32367516 C184.50364079 491.83193336 184.02635029 492.34019157 183.53459644 492.86385155 C181.35883335 495.04175771 180.0834512 496.22875219 176.94772816 496.37250328 C173.65157817 494.89402595 171.68545344 492.93100777 169.16061878 490.34711266 C168.67938053 489.86021461 168.19814228 489.37331657 167.70232105 488.87166405 C166.17482983 487.32186982 164.66187255 485.75872699 163.14890003 484.19476891 C162.11272093 483.13851697 161.07562093 482.08316758 160.03757191 481.02875328 C157.50143108 478.4486267 154.97813544 475.85634371 152.46140003 473.25726891 C148.49382828 476.52868361 144.78874937 479.87826161 141.23483753 483.59711266 C140.51296253 484.34928062 139.79108753 485.10144859 139.04733753 485.87640953 C137.55597373 487.44023358 136.07437104 489.01341718 134.60202503 490.59515953 C133.88272816 491.33830406 133.16343128 492.08144859 132.42233753 492.84711266 C131.78086781 493.52636803 131.13939808 494.2056234 130.47848988 494.90546227 C128.46140003 496.25726891 128.46140003 496.25726891 126.04514027 496.27728844 C122.6107384 494.92144123 120.7390871 492.98589602 118.16061878 490.34711266 C117.67938053 489.86021461 117.19814228 489.37331657 116.70232105 488.87166405 C115.17482983 487.32186982 113.66187255 485.75872699 112.14890003 484.19476891 C111.11272093 483.13851697 110.07562093 482.08316758 109.03757191 481.02875328 C106.50143108 478.4486267 103.97813544 475.85634371 101.46140003 473.25726891 C97.49382828 476.52868361 93.78874937 479.87826161 90.23483753 483.59711266 C89.51296253 484.34928062 88.79108753 485.10144859 88.04733753 485.87640953 C86.55597373 487.44023358 85.07437104 489.01341718 83.60202503 490.59515953 C82.88272816 491.33830406 82.16343128 492.08144859 81.42233753 492.84711266 C80.78086781 493.52636803 80.13939808 494.2056234 79.47848988 494.90546227 C77.46140003 496.25726891 77.46140003 496.25726891 75.03854847 496.27728844 C71.61835329 494.92359618 69.80610187 493.00317655 67.26608753 490.34711266 C66.7919643 489.86021461 66.31784107 489.37331657 65.82935047 488.87166405 C64.32175191 487.32196256 62.82804724 485.75981921 61.33640003 484.19476891 C59.83673304 482.62710996 58.33425569 481.06271084 56.82202625 479.50716209 C55.45409838 478.09945581 54.09783035 476.68044723 52.74216175 475.26093102 C50.59174416 472.92727142 50.59174416 472.92727142 47.46140003 473.25726891 C47.20471546 473.83774986 46.94803089 474.41823082 46.683568 475.01630211 C44.44146737 479.1274171 40.88198845 482.16376274 37.58640003 485.44476891 C36.86581409 486.18146812 36.14522816 486.91816734 35.40280628 487.67719078 C34.70284534 488.37779625 34.00288441 489.07840172 33.28171253 489.80023766 C32.64507679 490.43985435 32.00844105 491.07947105 31.35251331 491.73847008 C29.32431271 493.36736705 28.05030724 494.03912516 25.46140003 494.25726891 C23.46140003 492.25726891 23.46140003 492.25726891 23.21300304 489.40558803 C23.21376248 488.17301584 23.21452192 486.94044365 23.21530437 485.67052078 C23.21299669 484.98273338 23.210689 484.29494597 23.20831138 483.58631653 C23.20297557 481.25859263 23.21202486 478.9311399 23.220891 476.60342979 C23.22001966 474.92703407 23.21827001 473.25063862 23.21571267 471.57424462 C23.21122099 466.94968982 23.21926768 462.32522691 23.22926879 457.70068383 C23.2378749 452.72044064 23.23498515 447.74020298 23.23346424 442.75995445 C23.23241358 434.12537843 23.23870901 425.49083255 23.24993992 416.85626411 C23.26616755 404.37200389 23.27140011 391.88775828 23.2739159 379.40348865 C23.27829731 359.15047614 23.2916185 338.89747971 23.31052113 318.64447594 C23.3288684 298.96609134 23.34303054 279.2877111 23.35153675 259.60931969 C23.3520622 258.39712493 23.35258764 257.18493017 23.35312901 255.93600224 C23.35573902 249.85501061 23.35826645 243.77401894 23.36075282 237.69302726 C23.38149921 187.21443003 23.41673686 136.73585025 23.46140003 86.25726891 C22.49951771 86.28345299 21.53763538 86.30963707 20.54660511 86.33661461 C16.91436294 86.42838634 13.28221869 86.48496875 9.64914417 86.53192711 C8.0887465 86.55678698 6.52846165 86.59068823 4.96848011 86.63446617 C-8.50343012 87.00255115 -19.9284153 85.17742516 -30.60891247 76.14008141 C-39.86805997 67.10585247 -44.40696892 56.34192205 -44.91359997 43.50726891 C-44.69780695 32.91992383 -41.18943009 23.45405469 -34.53859997 15.25726891 C-34.03715466 14.63207359 -33.53570934 14.00687828 -33.01906872 13.36273766 C-24.68156004 4.05150534 -12.21399102 0.01352963 0 0 Z " fill="#E7ECF3" transform="translate(52.53859996795654,7.742731094360352)"/>
<path d="M0 0 C0.7178297 -0.00350607 1.43565939 -0.00701215 2.1752415 -0.01062447 C4.56914279 -0.01989305 6.96279837 -0.01502699 9.35670948 -0.01015663 C11.09501668 -0.01389519 12.83332219 -0.01849753 14.57162505 -0.02388728 C19.33993577 -0.03610737 24.10817626 -0.03585797 28.87649906 -0.03349853 C34.02254208 -0.03309011 39.16856267 -0.04413193 44.31459522 -0.05361366 C54.39377349 -0.07021942 64.47292836 -0.07572303 74.55211916 -0.07683842 C82.74642418 -0.07778913 90.94072149 -0.0819006 99.13502407 -0.08823967 C122.37434616 -0.10585123 145.61364979 -0.11507872 168.85297861 -0.11357872 C170.73183886 -0.11345885 170.73183886 -0.11345885 172.64865589 -0.11333656 C173.90276128 -0.1132548 175.15686666 -0.11317304 176.44897524 -0.1130888 C196.77047533 -0.11227602 217.09190128 -0.13141205 237.41337993 -0.1596133 C258.28616031 -0.18835071 279.15890454 -0.2021531 300.0317052 -0.20042574 C311.7474193 -0.19976212 323.46305568 -0.2052423 335.17875195 -0.22678185 C345.15441566 -0.24500493 355.12996643 -0.24933169 365.1056396 -0.235763 C370.19282917 -0.22923899 375.27980213 -0.22909577 380.36697102 -0.2464695 C385.02991339 -0.26223024 389.69246793 -0.25930593 394.35540102 -0.24190123 C396.03640669 -0.23883794 397.71744152 -0.24243828 399.39841279 -0.25362138 C413.13240768 -0.33889156 425.46917569 1.33823422 436.46140003 10.25726891 C437.08659534 10.75871422 437.71179066 11.26015953 438.35593128 11.77680016 C446.26284621 18.85684817 450.86312165 29.5449167 451.67624378 40.02680016 C452.09320816 53.01941006 448.09296331 64.86087505 439.31686878 74.56195641 C427.07295405 85.74902797 415.10213592 86.69050574 399.39890003 86.44476891 C393.80952503 86.38289391 388.22015003 86.32101891 382.46140003 86.25726891 C382.46140003 75.03726891 382.46140003 63.81726891 382.46140003 52.25726891 C264.32140003 52.25726891 146.18140003 52.25726891 24.46140003 52.25726891 C24.46140003 63.47726891 24.46140003 74.69726891 24.46140003 86.25726891 C18.95452503 86.36039391 13.44765003 86.46351891 7.77390003 86.56976891 C6.06500599 86.61528893 4.35611195 86.66080894 2.59543324 86.70770836 C-10.10551943 86.90396832 -20.60342721 84.60626124 -30.60891247 76.14008141 C-39.86805997 67.10585247 -44.40696892 56.34192205 -44.91359997 43.50726891 C-44.69780695 32.91992383 -41.18943009 23.45405469 -34.53859997 15.25726891 C-34.03715466 14.63207359 -33.53570934 14.00687828 -33.01906872 13.36273766 C-24.68156004 4.05150534 -12.21399102 0.01352963 0 0 Z " fill="#282D60" transform="translate(52.53859996795654,7.742731094360352)"/>
<path d="M0 0 C0.70663469 -0.0072672 1.41326938 -0.01453441 2.14131725 -0.02202183 C4.5155835 -0.04030905 6.88824178 -0.02290107 9.26249695 -0.00571251 C10.97917413 -0.01147228 12.69584515 -0.01941242 14.41250324 -0.02934873 C19.13477534 -0.0502653 23.85654369 -0.0398851 28.57881784 -0.02441764 C33.66956949 -0.0131277 38.76023312 -0.03055512 43.85096741 -0.04431725 C53.82565909 -0.06657939 63.80016293 -0.0617352 73.77486205 -0.04725404 C81.87969365 -0.03597351 89.9844725 -0.03442576 98.08930969 -0.03987312 C99.81795351 -0.04102237 99.81795351 -0.04102237 101.58151942 -0.04219484 C103.92247511 -0.04379342 106.26343079 -0.04541449 108.60438645 -0.04705779 C130.56838468 -0.06132402 152.53227867 -0.04490885 174.49625981 -0.01805596 C193.35255449 0.00428358 212.20869528 0.0004037 231.06498718 -0.02264977 C252.94905095 -0.04939232 274.83302328 -0.05995064 296.7171011 -0.04458845 C299.04956498 -0.04299566 301.38202888 -0.04142381 303.7144928 -0.03987312 C304.86218417 -0.03910175 306.00987554 -0.03833037 307.19234544 -0.03753562 C315.28977703 -0.03321399 323.38715074 -0.04051514 331.48457336 -0.05227089 C341.34932069 -0.06627726 351.21386903 -0.06253515 361.07859349 -0.03586717 C366.11417169 -0.02270393 371.14941782 -0.01761927 376.18499374 -0.03411293 C380.79160841 -0.04897363 385.39758213 -0.04088871 390.00413835 -0.01422517 C391.67364312 -0.00862368 393.34320165 -0.01151788 395.01267207 -0.02360411 C397.27715903 -0.03874488 399.53943236 -0.02328734 401.80380249 0 C403.06290278 0.00081176 404.32200308 0.00162352 405.61925793 0.00245988 C409.81447477 0.80344079 411.29833777 2.30622792 413.90190125 5.6292057 C414.58940125 9.1292057 414.58940125 9.1292057 413.90190125 12.6292057 C410.69725537 15.93967441 409.0608365 17.41512192 404.50903416 18.25595152 C403.25693118 18.25676329 402.00482821 18.25757505 400.71478271 18.25841141 C400.01067052 18.26567861 399.30655833 18.27294582 398.5811094 18.28043324 C396.22142976 18.29868287 393.86337568 18.28133008 391.50370789 18.26412392 C389.79512991 18.26988517 388.08655812 18.27782632 386.37799931 18.28776014 C381.6827191 18.30865628 376.98794622 18.29830575 372.29266405 18.28282905 C367.22917758 18.27153079 362.16577923 18.28897068 357.10231018 18.30272865 C347.18289929 18.32498187 337.26367737 18.32015057 327.34425902 18.30566545 C319.28379625 18.29438142 311.2233865 18.29283869 303.16291809 18.29828453 C301.44323668 18.29943378 301.44323668 18.29943378 299.68881422 18.30060624 C297.3599398 18.30220484 295.03106539 18.30382591 292.702191 18.3054692 C270.85547349 18.31973281 249.00886083 18.30332435 227.16216052 18.27646737 C208.40966481 18.25412806 189.65732385 18.25800802 170.90483093 18.28106117 C149.13721257 18.30780834 127.36968614 18.31835946 105.60205364 18.30299985 C103.28166391 18.30140708 100.96127416 18.29983523 98.6408844 18.29828453 C96.92829322 18.29712746 96.92829322 18.29712746 95.18110424 18.29594702 C87.12871444 18.29162678 79.07638286 18.29892358 71.02400208 18.3106823 C61.21310596 18.32469378 51.4024099 18.32093575 41.59153676 18.29427858 C36.58418085 18.28112226 31.57715871 18.27601898 26.56980515 18.29252434 C21.98784934 18.30739926 17.40653736 18.29927643 12.82464015 18.27263658 C11.16524165 18.26704116 9.505789 18.26991581 7.84642518 18.28201552 C5.59317982 18.29718813 3.34214894 18.28166615 1.08901978 18.25841141 C-0.1630832 18.25759965 -1.41518618 18.25678788 -2.70523167 18.25595152 C-7.25703401 17.41512192 -8.89345288 15.93967441 -12.09809875 12.6292057 C-12.78559875 9.1292057 -12.78559875 9.1292057 -12.09809875 5.6292057 C-8.37919308 0.88269537 -5.95154897 0.00383706 0 0 Z " fill="#1D2449" transform="translate(55.09809875488281,42.37079429626465)"/>
<path d="M0 0 C2.9375 2.25 2.9375 2.25 5 5 C5 6.32 5 7.64 5 9 C5.66644531 9.07476562 6.33289063 9.14953125 7.01953125 9.2265625 C17.15680147 10.67271853 25.56997456 14.96102853 33 22 C34.56935594 25.13871188 34.35201103 27.53855822 34 31 C31.48381331 34.58365982 29.98692201 35.79516713 25.6875 36.6875 C21.43375069 35.89442809 19.52758259 34.46114562 16.3828125 31.60546875 C13.14302213 29.26793501 13.14302213 29.26793501 5 27 C5 35.58 5 44.16 5 53 C7.97 53.66 10.94 54.32 14 55 C23.14220153 58.05848197 31.66374282 61.84866914 37 70.1875 C40.01405009 76.29761515 40.20658167 82.20867685 38.1484375 88.67578125 C33.70569881 98.63416491 25.81819937 103.89974056 16 108 C12.23083426 109.37843776 9.06550315 110 5 110 C4.9175 110.7425 4.835 111.485 4.75 112.25 C3.81588125 115.6751021 2.8942612 116.94355125 0 119 C-3.4375 119.5625 -3.4375 119.5625 -7 119 C-9.9375 116.75 -9.9375 116.75 -12 114 C-12 112.68 -12 111.36 -12 110 C-13.19625 109.979375 -14.3925 109.95875 -15.625 109.9375 C-24.29545506 108.94972664 -33.37517406 104.23241124 -39.4375 98 C-41.71464219 95.03281472 -41.99239926 94.15201485 -42.1875 90.25 C-40.25123153 84.95073892 -40.25123153 84.95073892 -37 83 C-31.78797534 82.40492632 -28.01463104 83.65832857 -23.9375 86.875 C-23.36902344 87.38804687 -22.80054688 87.90109375 -22.21484375 88.4296875 C-19.26203752 90.66472318 -19.26203752 90.66472318 -12 93 C-12 84.09 -12 75.18 -12 66 C-15.465 65.505 -15.465 65.505 -19 65 C-29.88885184 61.71106882 -38.99682365 57.15735274 -45.078125 47.2421875 C-47.25424414 41.94942315 -46.84057784 35.07037415 -45.34765625 29.6171875 C-40.88300419 19.84477312 -32.55608532 15.06668716 -23 11 C-19.12386904 9.59092914 -16.13573062 8.75672173 -12 9 C-11.9175 8.071875 -11.835 7.14375 -11.75 6.1875 C-11 3 -11 3 -9.375 1.125 C-5.97792899 -0.4841389 -3.71564293 -0.52149375 0 0 Z " fill="#3BB54C" transform="translate(345,333)"/>
<path d="M0 0 C1.06670032 -0.00779995 2.13340064 -0.01559991 3.23242521 -0.02363622 C6.80703478 -0.04358099 10.38058271 -0.02778081 13.9552002 -0.01205444 C16.5177523 -0.0188294 19.08029953 -0.02773184 21.64283752 -0.03860474 C27.88060663 -0.05904924 34.11798255 -0.05604053 40.35575688 -0.04154153 C45.42566783 -0.03024539 50.4954945 -0.02871999 55.56541443 -0.03416061 C56.28723844 -0.03492678 57.00906244 -0.03569294 57.7527599 -0.03648233 C59.21917334 -0.03808097 60.68558675 -0.03970203 62.15200013 -0.04134528 C75.89966777 -0.05559993 89.64716866 -0.03921459 103.39480895 -0.01234345 C115.18862313 0.00999513 126.98219124 0.00611492 138.77600098 -0.01693726 C152.47476455 -0.04370035 166.173382 -0.05422667 179.87216806 -0.03887594 C181.33315942 -0.03728321 182.79415081 -0.03571135 184.25514221 -0.03416061 C185.33337008 -0.03300355 185.33337008 -0.03300355 186.43338034 -0.03182311 C191.49667383 -0.02750762 196.55987456 -0.03478936 201.62315369 -0.04655838 C208.43916036 -0.06205329 215.2546305 -0.05100746 222.07061577 -0.0220871 C224.5740068 -0.01546855 227.0774369 -0.01738694 229.58081245 -0.02840042 C232.9945914 -0.04203594 236.40687344 -0.02496162 239.82055664 0 C241.31150825 -0.01673041 241.31150825 -0.01673041 242.83258009 -0.03379881 C247.28563823 0.02949034 250.4543444 0.17925299 254.04088593 2.98319435 C256.41027832 5.63491821 256.41027832 5.63491821 256.91027832 8.69741821 C256.4345455 11.49234856 255.99376622 13.30135709 254.41027832 15.63491821 C251.25899972 17.73577061 250.53678882 17.88548074 246.94493961 17.88939381 C245.56548053 17.8981421 245.56548053 17.8981421 244.15815359 17.90706712 C242.640375 17.90139813 242.640375 17.90139813 241.0919342 17.89561462 C240.01821892 17.89944017 238.94450364 17.90326572 237.83825153 17.90720719 C234.2223188 17.91756741 230.60654396 17.91353929 226.99060059 17.90957642 C224.40554659 17.91392121 221.82049389 17.91910357 219.23544312 17.92506409 C212.93187812 17.93782965 206.62835568 17.93960248 200.32477994 17.93726382 C195.20235942 17.93548258 190.07995185 17.93722613 184.95753288 17.94148827 C184.22917424 17.94208345 183.50081559 17.94267864 182.75038547 17.94329187 C181.270842 17.94450359 179.79129853 17.94571772 178.31175505 17.94693425 C164.42878072 17.95781693 150.54583067 17.95564384 136.66285496 17.9495494 C123.9557596 17.94437952 111.24874088 17.95563624 98.54166067 17.97464762 C85.50119601 17.99400856 72.46076764 18.00228509 59.4202885 17.99852437 C52.09617684 17.99660967 44.77213043 17.99912588 37.44803047 18.01323891 C30.56243757 18.02637241 23.67700088 18.02391641 16.79140854 18.01082802 C14.25975811 18.00845275 11.72809701 18.01123067 9.19645882 18.01945114 C5.74932677 18.02983987 2.30271871 18.02188115 -1.14439392 18.00914001 C-2.1540156 18.0165143 -3.16363727 18.02388858 -4.20385355 18.03148633 C-5.12610068 18.02427979 -6.04834782 18.01707325 -6.99854183 18.00964832 C-7.79432831 18.00970334 -8.59011478 18.00975835 -9.410016 18.00981504 C-12.1598391 17.5368613 -13.54324409 16.49885822 -15.58972168 14.63491821 C-16.41003418 12.54898071 -16.41003418 12.54898071 -16.71472168 10.25991821 C-16.8410498 9.50968384 -16.96737793 8.75944946 -17.09753418 7.98648071 C-16.44350598 4.95782703 -14.94286042 3.60140385 -12.5565176 1.70764279 C-8.63230625 -0.43269009 -4.36794003 -0.04901396 0 0 Z " fill="#AEC5D3" transform="translate(127.5897216796875,289.3650817871094)"/>
<path d="M0 0 C1.36509727 -0.00668677 1.36509727 -0.00668677 2.75777227 -0.01350862 C4.2672241 -0.01323207 4.2672241 -0.01323207 5.80716991 -0.01294994 C7.40315219 -0.01846498 7.40315219 -0.01846498 9.03137654 -0.02409142 C12.62039802 -0.03516317 16.20939059 -0.03897799 19.79842663 -0.04278088 C22.36200586 -0.04904282 24.92558418 -0.05568938 27.48916149 -0.0626936 C35.19920574 -0.08194628 42.90924491 -0.09252511 50.61930707 -0.10142139 C54.24830653 -0.10580264 57.87730453 -0.11116985 61.50630283 -0.11641026 C73.56668609 -0.13342305 85.62706843 -0.14791801 97.68746185 -0.155159 C100.81803736 -0.15706895 103.94861287 -0.15898928 107.07918835 -0.16094494 C108.2463502 -0.16167055 108.2463502 -0.16167055 109.43709107 -0.16241082 C122.04659134 -0.17071406 134.65599683 -0.19605566 147.2654557 -0.22852562 C160.20531708 -0.26157529 173.14513026 -0.27960584 186.08503407 -0.28280324 C193.35277633 -0.28497023 200.62038037 -0.29374642 207.88808155 -0.31926441 C214.72279718 -0.34320643 221.55725993 -0.34681025 228.39200878 -0.33650303 C230.90389552 -0.33600565 233.4157942 -0.34238518 235.92764378 -0.35605907 C239.35051613 -0.37365335 242.77248184 -0.36673265 246.19535351 -0.35352612 C247.19496257 -0.36449536 248.19457162 -0.37546461 249.22447187 -0.38676625 C253.51743821 -0.34663338 256.02451011 -0.25738554 259.78526115 1.94986153 C262.44336748 4.99540728 262.69173717 7.12980487 262.69173717 11.13422108 C261.34611318 14.0817784 260.60619173 15.6769938 257.69173717 17.13422108 C256.24680054 17.22978159 254.79753765 17.26338121 253.3494463 17.26564884 C251.97297379 17.27141056 251.97297379 17.27141056 250.56869376 17.27728868 C249.55392852 17.27642219 248.53916328 17.27555571 247.49364758 17.27466297 C246.42078672 17.27763409 245.34792586 17.28060522 244.24255407 17.28366637 C240.62355657 17.29238427 237.00459202 17.29386422 233.38558483 17.29535389 C230.80067912 17.29997984 228.21577409 17.30500419 225.63086987 17.31039906 C218.59168975 17.32399298 211.55251532 17.33000867 204.51332426 17.33440971 C200.12017127 17.33717021 195.72702048 17.34140719 191.33386898 17.34591389 C179.17654655 17.35810767 167.01922589 17.36840694 154.86189747 17.37178898 C153.69428956 17.37211833 153.69428956 17.37211833 152.50309362 17.37245433 C151.72280034 17.37267261 150.94250706 17.37289089 150.13856852 17.37311578 C148.55733307 17.37355925 146.97609762 17.37400581 145.39486217 17.37445545 C144.61051073 17.37467688 143.82615929 17.37489831 143.01803963 17.37512645 C130.3044183 17.37907574 117.59085424 17.39653325 104.87725504 17.41981497 C91.83230696 17.44351118 78.78738765 17.45599003 65.74241769 17.4571569 C58.41493161 17.45807461 51.08752015 17.46385099 43.76005459 17.48197651 C36.87038022 17.49895874 29.98084991 17.5006431 23.09116077 17.4918375 C20.5578953 17.4910638 18.02462239 17.49545331 15.49137592 17.50529575 C12.04201033 17.51791504 8.59315532 17.51219295 5.14379406 17.50171375 C4.13349026 17.50977016 3.12318647 17.51782656 2.0822674 17.5261271 C1.15940357 17.51953726 0.23653974 17.51294741 -0.71428967 17.50615788 C-1.51061821 17.50675496 -2.30694676 17.50735205 -3.12740648 17.50796723 C-5.8735503 17.03734444 -7.26018163 15.9887563 -9.30826283 14.13422108 C-10.37205185 11.48582965 -10.55704318 8.97031708 -10.30826283 6.13422108 C-7.42341909 1.45878468 -5.3582756 0.01214064 0 0 Z " fill="#AFC5D3" transform="translate(121.3082628250122,84.86577892303467)"/>
<path d="M0 0 C1.59816811 -0.01292336 1.59816811 -0.01292336 3.22862244 -0.02610779 C6.75430522 -0.04883021 10.27919718 -0.04201677 13.80493164 -0.03295898 C16.25346616 -0.03819193 18.70199865 -0.0444672 21.15052795 -0.05174255 C26.28436767 -0.06215854 31.41793042 -0.05756807 36.55175781 -0.04296875 C43.13400291 -0.02578379 49.7153749 -0.0492676 56.29752254 -0.08445835 C61.354719 -0.10640903 66.41170582 -0.10499634 71.46893501 -0.09669304 C73.89584879 -0.09587217 76.32277776 -0.10276134 78.74964714 -0.11746407 C82.14223913 -0.13486486 85.53325304 -0.12040234 88.92578125 -0.09765625 C89.93010193 -0.10934845 90.93442261 -0.12104065 91.96917725 -0.13308716 C96.64509671 -0.06923465 98.82546055 0.00542583 102.65504456 2.88539124 C104.52758789 5.53344727 104.52758789 5.53344727 105.09008789 8.53344727 C104.39964932 12.2157863 103.15944861 13.90158654 100.52758789 16.53344727 C97.73617781 17.46391729 96.02478421 17.66672129 93.13833618 17.68734741 C91.79251717 17.70024811 91.79251717 17.70024811 90.41950989 17.71340942 C88.94667793 17.71979935 88.94667793 17.71979935 87.4440918 17.72631836 C86.40805313 17.73449585 85.37201447 17.74267334 84.30458069 17.75109863 C80.87110982 17.77594173 77.4376802 17.79246387 74.00415039 17.80688477 C72.8326582 17.81220844 71.661166 17.81753212 70.45417404 17.82301712 C64.25632125 17.84974098 58.05848857 17.8691204 51.8605957 17.88354492 C45.45216539 17.90021211 39.0442474 17.94501003 32.63601112 17.99591637 C27.71354565 18.02952732 22.79120287 18.0411155 17.86863327 18.046772 C15.50588428 18.05349893 13.14314377 18.06875809 10.78050613 18.09266281 C7.47653283 18.12419075 4.17395653 18.12436945 0.86987305 18.11694336 C-0.10796646 18.13334869 -1.08580597 18.14975403 -2.09327698 18.16665649 C-6.79368572 18.12334901 -8.78210475 18.08722743 -12.55630493 15.05947876 C-13.1886203 14.22588837 -13.82093567 13.39229797 -14.47241211 12.53344727 C-14.80241211 12.20344727 -15.13241211 11.87344727 -15.47241211 11.53344727 C-15.27236169 7.99922317 -14.99398985 5.35419477 -13.07615662 2.33631897 C-8.96414015 -0.51090283 -4.8880626 -0.03169779 0 0 Z " fill="#AFC5D3" transform="translate(228.472412109375,170.466552734375)"/>
<path d="M0 0 C0.89301819 -0.0071553 1.78603638 -0.01431061 2.70611572 -0.02168274 C4.18737694 -0.02571609 4.18737694 -0.02571609 5.69856262 -0.02983093 C6.73270294 -0.03640213 7.76684326 -0.04297333 8.83232117 -0.04974365 C12.27186649 -0.06953484 15.711368 -0.08115322 19.1509552 -0.09111023 C20.32303339 -0.09518576 21.49511158 -0.09926128 22.70270729 -0.10346031 C28.90819245 -0.12434758 35.11365534 -0.13863681 41.31916809 -0.147995 C47.73420458 -0.1590547 54.14889374 -0.19344237 60.56380749 -0.23316669 C65.4906072 -0.25929987 70.41732385 -0.26768401 75.34418678 -0.27127647 C77.70888421 -0.27615228 80.07357769 -0.28779437 82.43820763 -0.30631447 C85.74923113 -0.3306311 89.05935237 -0.32975393 92.37043762 -0.32279968 C93.34782394 -0.33560974 94.32521027 -0.3484198 95.33221436 -0.36161804 C101.11263323 -0.31736999 104.50809596 0.20407016 108.85798645 4.14717102 C110.10139351 8.16995855 110.3022369 10.174051 108.54548645 14.02217102 C106.85798645 16.14717102 106.85798645 16.14717102 104.85798645 17.14717102 C103.39978557 17.25171643 101.93698787 17.29528869 100.47509766 17.30780029 C99.55401718 17.31784592 98.63293671 17.32789154 97.6839447 17.33824158 C96.67040924 17.34407257 95.65687378 17.34990356 94.61262512 17.35591125 C93.54747177 17.36569504 92.48231842 17.37547882 91.3848877 17.38555908 C87.84858968 17.41555356 84.31232953 17.43690836 80.7759552 17.45576477 C79.57044825 17.4623366 78.36494129 17.46890842 77.12290382 17.4756794 C70.74351296 17.50828889 64.36413894 17.53273733 57.98469543 17.55220032 C52.69701438 17.57002863 47.40986507 17.60487218 42.12239075 17.65473938 C35.74635781 17.71480939 29.37081883 17.74565812 22.99451637 17.755373 C20.56197174 17.76395048 18.12944111 17.78282443 15.69705772 17.81211662 C12.29462577 17.85088834 8.89413053 17.85208368 5.49153137 17.8441925 C3.98033722 17.87419342 3.98033722 17.87419342 2.43861389 17.90480042 C-4.21362406 17.83543157 -4.21362406 17.83543157 -6.88536644 15.85473824 C-8.86738956 13.57330877 -10.05066913 11.52168316 -10.76701355 8.58467102 C-9.86865206 5.08106122 -7.81185772 3.49142444 -5.14201355 1.14717102 C-3.59673895 -0.39810358 -2.15254708 0.01178828 0 0 Z " fill="#AFC5D3" transform="translate(223.1420135498047,212.8528289794922)"/>
<path d="M0 0 C1.35637825 -0.01073296 1.35637825 -0.01073296 2.74015808 -0.02168274 C3.73499207 -0.02437164 4.72982605 -0.02706055 5.75480652 -0.02983093 C7.32327583 -0.03968773 7.32327583 -0.03968773 8.9234314 -0.04974365 C12.39481166 -0.06950622 15.86614862 -0.08114536 19.33757019 -0.09111023 C20.52101202 -0.09518576 21.70445385 -0.09926128 22.92375755 -0.10346031 C29.1864492 -0.12433287 35.44911884 -0.13862992 41.71183777 -0.147995 C48.18859729 -0.15906673 54.66501392 -0.19347245 61.14165211 -0.23316669 C66.11473236 -0.25927972 71.08773024 -0.26768208 76.06087303 -0.27127647 C78.44872544 -0.27615554 80.83657385 -0.28780679 83.22435951 -0.30631447 C86.56421407 -0.33059398 89.90317247 -0.32976107 93.24308777 -0.32279968 C94.23184906 -0.33560974 95.22061035 -0.3484198 96.23933411 -0.36161804 C100.52547165 -0.32900954 103.02579423 -0.24506956 106.77975464 1.96170044 C109.46312283 5.02680803 109.76393173 7.10628211 109.69303894 11.14717102 C107.92662722 13.94906548 106.66254072 15.66242013 103.69303894 17.14717102 C102.26004892 17.24740916 100.82254836 17.28655268 99.38607788 17.29434204 C98.02969963 17.305075 98.02969963 17.305075 96.6459198 17.31602478 C95.65108582 17.31871368 94.65625183 17.32140259 93.63127136 17.32417297 C92.06280205 17.33402977 92.06280205 17.33402977 90.46264648 17.34408569 C86.99126622 17.36384826 83.51992926 17.3754874 80.04850769 17.38545227 C78.86506586 17.3895278 77.68162403 17.39360332 76.46232033 17.39780235 C70.19962868 17.41867491 63.93695904 17.43297197 57.67424011 17.44233704 C51.19748059 17.45340877 44.72106396 17.48781449 38.24442577 17.52750874 C33.27134552 17.55362176 28.29834764 17.56202412 23.32520485 17.56561852 C20.93735244 17.57049758 18.54950403 17.58214883 16.16171837 17.60065651 C12.82186382 17.62493602 9.48290541 17.62410311 6.14299011 17.61714172 C5.15422882 17.62995178 4.16546753 17.64276184 3.14674377 17.65596008 C-1.13939377 17.62335159 -3.63971635 17.5394116 -7.39367676 15.3326416 C-10.07704495 12.26753401 -10.37785385 10.18805993 -10.30696106 6.14717102 C-7.37853673 1.50208416 -5.36586561 0.02909678 0 0 Z " fill="#AEC5D3" transform="translate(223.3069610595703,127.85282897949219)"/>
<path d="M0 0 C1.30485352 -0.01253311 2.60970703 -0.02506622 3.95410156 -0.03797913 C5.37045289 -0.02571045 6.78679464 -0.01229037 8.203125 0.00219727 C9.66373878 0.00136805 11.12435245 -0.00109334 12.58496094 -0.00511169 C15.64156283 -0.00796597 18.69743044 0.00669358 21.75390625 0.03417969 C25.66486559 0.06826323 29.57451249 0.06224153 33.48553467 0.04351711 C36.50027333 0.03293027 39.51470848 0.04189994 42.52941895 0.05690193 C43.97106016 0.06207194 45.41273322 0.06161629 46.85437012 0.05535698 C48.87170527 0.04988554 50.88905599 0.07317461 52.90625 0.09765625 C54.05254883 0.10385483 55.19884766 0.11005341 56.37988281 0.11643982 C60.13408368 0.74514097 61.79577936 1.94385296 64.453125 4.63110352 C65.515625 8.06860352 65.515625 8.06860352 65.453125 11.63110352 C63.68671328 14.43299797 62.42262678 16.14635262 59.453125 17.63110352 C57.38126229 17.74323844 55.30577681 17.79043647 53.23095703 17.80810547 C51.92264923 17.8209407 50.61434143 17.83377594 49.26638794 17.84700012 C47.83124163 17.85516679 46.39609106 17.86261066 44.9609375 17.86938477 C43.87895395 17.87549806 43.87895395 17.87549806 42.77511215 17.88173485 C38.95798783 17.90259368 35.14089946 17.91689674 31.32373047 17.92626953 C27.38023958 17.93733991 23.43731205 17.97174672 19.49402046 18.01144123 C16.46225938 18.03757807 13.43063322 18.04595865 10.39876938 18.04955101 C8.94508937 18.05442384 7.49141567 18.06605778 6.03784561 18.084589 C4.00339577 18.10891554 1.96867227 18.10560204 -0.06591797 18.10107422 C-1.22348602 18.10694046 -2.38105408 18.1128067 -3.57369995 18.11885071 C-7.1798667 17.52726169 -8.31177284 16.45711202 -10.546875 13.63110352 C-11.99118355 10.74248642 -11.92376006 8.8346265 -11.546875 5.63110352 C-7.96652011 1.12695195 -5.70693429 0.0047882 0 0 Z " fill="#AEC5D3" transform="translate(267.546875,255.368896484375)"/>
<path d="M0 0 C2.06566434 0.04196224 4.12807164 0.04105415 6.1940918 0.03417969 C17.4595581 0.14500572 17.4595581 0.14500572 22.00463867 3.54199219 C23.569351 6.67141684 23.70165825 10.15281442 23.00463867 13.54199219 C20.68680392 16.64922393 19.48066084 17.46739501 15.60058594 18.07543945 C14.2577663 18.10844765 12.91423503 18.1181169 11.57104492 18.10839844 C10.49861794 18.1176963 10.49861794 18.1176963 9.40452576 18.12718201 C7.89583698 18.13426998 6.38706981 18.13112382 4.87841797 18.1184082 C2.57722036 18.10455289 0.28010152 18.13860308 -2.02075195 18.17675781 C-3.49015398 18.17770923 -4.95956108 18.17584895 -6.42895508 18.17089844 C-7.11243515 18.18415665 -7.79591522 18.19741486 -8.50010681 18.21107483 C-12.29826175 18.13754538 -13.91334531 17.6069503 -16.92529297 15.22143555 C-18.99536133 12.54199219 -18.99536133 12.54199219 -19.68286133 9.04199219 C-18.9678701 5.40203685 -18.16292507 3.84763952 -15.24902344 1.56738281 C-10.49447678 -0.59588184 -5.13074098 -0.11008861 0 0 Z " fill="#AFC5D3" transform="translate(368.995361328125,212.4580078125)"/>
<path d="M0 0 C0.71590805 -0.00241196 1.4318161 -0.00482391 2.16941833 -0.00730896 C3.67639734 -0.00633321 5.18341339 0.00699583 6.69018555 0.03198242 C8.99326432 0.06636401 11.29251711 0.05261545 13.59570312 0.03320312 C15.06381836 0.04010048 16.53192374 0.04977188 18 0.0625 C18.6855043 0.05754013 19.37100861 0.05258026 20.07728577 0.04747009 C23.45800855 0.13057251 25.17357386 0.42460305 27.86499023 2.53930664 C30.03479736 5.42979367 30.001562 7.22510056 29.83203125 10.7265625 C29.22463798 13.62656764 27.76859583 14.91199296 25.43359375 16.62890625 C21.15223305 18.7695866 15.49222911 17.8969735 10.73999023 17.92407227 C8.63914323 17.94125859 6.53988174 17.98514224 4.43945312 18.02929688 C3.0976678 18.03942677 1.75586911 18.04794195 0.4140625 18.0546875 C-1.41282104 18.07656128 -1.41282104 18.07656128 -3.27661133 18.09887695 C-7.17450378 17.54203517 -8.79315327 16.3658576 -11.56640625 13.62890625 C-13.0107148 10.74028916 -12.94329131 8.83242924 -12.56640625 5.62890625 C-8.86649204 0.82945807 -5.83643174 -0.11321564 0 0 Z " fill="#AFC5D3" transform="translate(362.56640625,170.37109375)"/>
<path d="M0 0 C0.66914429 -0.00004028 1.33828857 -0.00008057 2.02770996 -0.00012207 C3.43637533 0.00521721 4.84504154 0.02273242 6.25341797 0.05175781 C8.40034748 0.09363487 10.5441368 0.09282135 12.69140625 0.0859375 C24.3662096 0.1751205 24.3662096 0.1751205 28.90625 3.59375 C30.43471661 6.65068322 30.13867445 9.22359547 29.90625 12.59375 C28.14609869 15.7787857 27.40734084 16.42671972 23.90625 17.59375 C19.51052128 17.86662645 15.11296314 17.90697326 10.70996094 17.94384766 C9.26090436 17.96041016 7.8119296 17.98770506 6.36328125 18.02587891 C4.26519784 18.08081506 2.16901937 18.10254062 0.0703125 18.1171875 C-1.18313965 18.13700684 -2.4365918 18.15682617 -3.72802734 18.17724609 C-8.00778597 17.43528881 -9.4575441 15.97964042 -12.09375 12.59375 C-12.71875 9.09375 -12.71875 9.09375 -12.09375 5.59375 C-8.38465694 0.84763186 -5.9467394 -0.03398137 0 0 Z " fill="#AEC5D3" transform="translate(362.09375,255.40625)"/>
<path d="M0 0 C0.66914429 -0.00004028 1.33828857 -0.00008057 2.02770996 -0.00012207 C3.43637533 0.00521721 4.84504154 0.02273242 6.25341797 0.05175781 C8.40034748 0.09363487 10.5441368 0.09282135 12.69140625 0.0859375 C24.3662096 0.1751205 24.3662096 0.1751205 28.90625 3.59375 C30.43471661 6.65068322 30.13867445 9.22359547 29.90625 12.59375 C28.14609869 15.7787857 27.40734084 16.42671972 23.90625 17.59375 C19.51052128 17.86662645 15.11296314 17.90697326 10.70996094 17.94384766 C9.26090436 17.96041016 7.8119296 17.98770506 6.36328125 18.02587891 C4.26519784 18.08081506 2.16901937 18.10254062 0.0703125 18.1171875 C-1.18313965 18.13700684 -2.4365918 18.15682617 -3.72802734 18.17724609 C-8.00778597 17.43528881 -9.4575441 15.97964042 -12.09375 12.59375 C-12.71875 9.09375 -12.71875 9.09375 -12.09375 5.59375 C-8.38465694 0.84763186 -5.9467394 -0.03398137 0 0 Z " fill="#AEC5D3" transform="translate(362.09375,127.40625)"/>
<path d="M0 0 C0 7.26 0 14.52 0 22 C-7.90855457 20.87020649 -7.90855457 20.87020649 -11.3125 19.0625 C-11.96863281 18.72347656 -12.62476563 18.38445312 -13.30078125 18.03515625 C-15 17 -15 17 -17 15 C-17.5625 12.25 -17.5625 12.25 -17 9 C-13.07141269 4.04448713 -6.44719787 0 0 0 Z " fill="#E1EAED" transform="translate(333,359)"/>
<path d="M0 0 C7.76121944 1.72471543 11.62209213 2.62209213 17 8 C16.91839867 11.7536612 16.51603162 13.46879098 13.875 16.1875 C9.2566173 19.09908909 5.5104481 21 0 21 C0 14.07 0 7.14 0 0 Z " fill="#E5ECF1" transform="translate(350,404)"/>
</svg>
