<?xml version="1.0" encoding="UTF-8"?>
<svg version="1.1" xmlns="http://www.w3.org/2000/svg" width="512" height="512">
<path d="M0 0 C3.05096466 1.40929185 5.56111201 3.08875377 8.203125 5.16015625 C31.62406623 24.27907389 31.62406623 24.27907389 60 31 C73.61737809 26.51028903 85.87758706 13.37628407 96.01513672 3.60693359 C99.79586895 0 99.79586895 0 102 0 C102.83963669 4.08206348 103.67061559 8.1658422 104.5 12.25 C104.73847656 13.40886719 104.97695312 14.56773438 105.22265625 15.76171875 C105.44824219 16.87675781 105.67382812 17.99179687 105.90625 19.140625 C106.11572266 20.16704102 106.32519531 21.19345703 106.54101562 22.25097656 C107 25 107 25 107 29 C107.99080566 28.69489502 108.98161133 28.38979004 110.00244141 28.07543945 C121.35865879 24.62845787 132.79940184 21.79280659 144.375 19.1875 C145.31698242 18.97445221 146.25896484 18.76140442 147.22949219 18.54190063 C180.24766142 11.10031614 213.42844099 5.26991507 247 1 C248.25804443 0.8287561 248.25804443 0.8287561 249.54150391 0.65405273 C253.38668945 0.13613533 257.12033389 -0.11099583 261 -0.0625 C261.94875 -0.05347656 262.8975 -0.04445312 263.875 -0.03515625 C264.57625 -0.02355469 265.2775 -0.01195312 266 0 C265.34401103 6.06079614 264.22280522 11.8890554 262.86328125 17.828125 C262.44666655 19.69778328 262.03066881 21.56757912 261.61523438 23.4375 C260.96289514 26.35761211 260.30642542 29.27656335 259.6394043 32.19335938 C258.99331275 35.02733567 258.36445807 37.86469192 257.73828125 40.703125 C257.53423172 41.57608215 257.33018219 42.44903931 257.11994934 43.34844971 C256.85428413 44.57057159 256.85428413 44.57057159 256.58325195 45.81738281 C256.34128838 46.88705292 256.34128838 46.88705292 256.09443665 47.97833252 C255.9754106 50.52640155 256.74923261 51.80783568 258 54 C258.33 54.99 258.66 55.98 259 57 C260.3173426 57.69773254 261.65311537 58.36115416 263 59 C264.66479492 60.52441406 264.66479492 60.52441406 266.29296875 62.265625 C269.73115593 65.79974884 273.3560344 68.81638635 277.3125 71.75 C278.0027124 72.26240234 278.6929248 72.77480469 279.40405273 73.30273438 C294.28796603 84.17359031 310.49987074 92.8567173 327 101 C327.72880371 101.36593262 328.45760742 101.73186523 329.20849609 102.10888672 C329.86543457 102.43260254 330.52237305 102.75631836 331.19921875 103.08984375 C331.74537842 103.36046631 332.29153809 103.63108887 332.85424805 103.90991211 C339.11906403 106.51438617 344.20864938 107.30970997 350.9453125 107.140625 C352.11332397 107.12539795 352.11332397 107.12539795 353.30493164 107.10986328 C355.20345981 107.08363649 357.10178432 107.04329311 359 107 C354.60770738 134.49493131 349.97638536 161.94617112 345.27199554 189.38924384 C344.27322424 195.21769609 343.27632651 201.04646885 342.2791748 206.87519836 C340.36571884 218.05832705 338.45055879 229.2411632 336.53475249 240.42388946 C334.99652199 249.40296073 333.45905003 258.38216161 331.92208862 267.3614502 C331.70364735 268.63763423 331.48520607 269.91381826 331.26014537 271.22867453 C330.81857198 273.80846402 330.37699969 276.3882537 329.9354285 278.96804357 C316.98102429 354.64948836 304.00777952 430.3277098 291 506 C268.18721152 506.63499733 245.37441376 507.26966016 222.56160545 507.90394497 C211.9647314 508.19858675 201.36786019 508.49333035 190.77099609 508.78833008 C181.51443495 509.04601764 172.25786806 509.30349744 163.00129473 509.56074673 C158.11852855 509.69645037 153.23576495 509.83224508 148.35300827 509.96829033 C142.84781487 510.12166621 137.34261086 510.27465801 131.83740234 510.42749023 C130.96139118 510.45184662 130.08538002 510.47620301 129.18282306 510.50129747 C119.54952136 510.7688827 109.91610067 511.0301962 100.28227234 511.27815247 C99.41365751 511.30059806 98.54504268 511.32304365 97.65010619 511.34616941 C93.54901365 511.45205676 89.44789971 511.55686284 85.34672356 511.65946102 C78.13210706 511.84285576 70.92220344 512.05977606 63.71317959 512.40691757 C60.57448879 512.55249258 57.43550394 512.64917549 54.29467773 512.73461914 C52.7644644 512.78800841 51.23493062 512.86438926 49.70678711 512.96020508 C38.69699818 513.62298286 32.34757454 512.05009914 23.97763062 504.65348816 C22.81507603 503.58337497 21.66043019 502.50458428 20.51516724 501.41598511 C18.66851875 499.69021736 16.71274848 498.17878015 14.66796875 496.6953125 C14.08700439 496.26460449 13.50604004 495.83389648 12.9074707 495.39013672 C12.05608521 494.76389404 12.05608521 494.76389404 11.1875 494.125 C3.05533844 488.08234514 -4.92939904 481.85775079 -12.91503906 475.62353516 C-15.41125472 473.67976067 -17.91545339 471.74672201 -20.42602539 469.8215332 C-22.00579407 468.6061271 -23.57537314 467.37751191 -25.14453125 466.1484375 C-27.92638078 463.98811762 -27.92638078 463.98811762 -30.76171875 462.2890625 C-33.28247091 460.66660036 -35.07357596 459.29660606 -37 457 C-37.56706524 454.35468578 -37.56706524 454.35468578 -37.70256042 451.26249695 C-37.76028814 450.10046438 -37.81801586 448.93843182 -37.8774929 447.74118614 C-37.91792025 446.50659472 -37.95834759 445.27200329 -38 444 C-38.04819696 442.7863508 -38.09639393 441.57270161 -38.14605141 440.32227516 C-38.29216041 436.25273409 -38.40413762 432.1833037 -38.5090332 428.11254883 C-38.55175779 426.54763053 -38.59476183 424.98271984 -38.63801861 423.41781616 C-38.75485786 419.16053946 -38.86764471 414.90316407 -38.97965431 410.64575791 C-39.1009741 406.05965102 -39.22592833 401.47364283 -39.3503418 396.88761902 C-39.59185512 387.96126856 -39.82964206 379.03482254 -40.06600058 370.10833424 C-40.25748135 362.87874886 -40.4503736 355.64920235 -40.64413452 348.41967773 C-42.24052435 288.83428669 -43.77447854 229.24738235 -45.2467761 169.65879774 C-45.31266372 166.99337668 -45.37865486 164.3279582 -45.44467545 161.66254044 C-45.69430782 151.58172871 -45.94249993 141.50088328 -46.18829346 131.41997719 C-46.2622459 128.38716925 -46.3366295 125.3543724 -46.41140747 122.3215847 C-46.51296157 118.20009787 -46.61267922 114.07856869 -46.7121582 109.95703125 C-46.74171758 108.76479352 -46.77127695 107.57255579 -46.80173206 106.34418964 C-46.947626 100.22721258 -47.0298295 94.11871567 -47 88 C-29.02487637 78.22814623 -10.59502729 69.62727685 8.3125 61.8125 C9.24360596 61.42570068 10.17471191 61.03890137 11.1340332 60.64038086 C11.99343506 60.29112549 12.85283691 59.94187012 13.73828125 59.58203125 C14.49149658 59.27499268 15.24471191 58.9679541 16.02075195 58.65161133 C18 58 18 58 21 58 C16.34017006 44.50055397 11.26579072 31.18415015 6.07910156 17.87963867 C5.07338997 15.29713183 4.07166714 12.71310493 3.0703125 10.12890625 C2.76102814 9.33948135 2.45174377 8.55005646 2.13308716 7.73670959 C0 2.22613886 0 2.22613886 0 0 Z " fill="#FED44F" transform="translate(100,0)"/>
<path d="M0 0 C3.05096466 1.40929185 5.56111201 3.08875377 8.203125 5.16015625 C31.62406623 24.27907389 31.62406623 24.27907389 60 31 C73.61737809 26.51028903 85.87758706 13.37628407 96.01513672 3.60693359 C99.79586895 0 99.79586895 0 102 0 C102.83963669 4.08206348 103.67061559 8.1658422 104.5 12.25 C104.73847656 13.40886719 104.97695312 14.56773438 105.22265625 15.76171875 C105.44824219 16.87675781 105.67382812 17.99179687 105.90625 19.140625 C106.11572266 20.16704102 106.32519531 21.19345703 106.54101562 22.25097656 C107 25 107 25 107 29 C107.99080566 28.69489502 108.98161133 28.38979004 110.00244141 28.07543945 C121.35865879 24.62845787 132.79940184 21.79280659 144.375 19.1875 C145.31698242 18.97445221 146.25896484 18.76140442 147.22949219 18.54190063 C180.24766142 11.10031614 213.42844099 5.26991507 247 1 C248.25804443 0.8287561 248.25804443 0.8287561 249.54150391 0.65405273 C253.38668945 0.13613533 257.12033389 -0.11099583 261 -0.0625 C261.94875 -0.05347656 262.8975 -0.04445312 263.875 -0.03515625 C264.57625 -0.02355469 265.2775 -0.01195312 266 0 C265.34401103 6.06079614 264.22280522 11.8890554 262.86328125 17.828125 C262.44666655 19.69778328 262.03066881 21.56757912 261.61523438 23.4375 C260.96289514 26.35761211 260.30642542 29.27656335 259.6394043 32.19335938 C258.99331275 35.02733567 258.36445807 37.86469192 257.73828125 40.703125 C257.53423172 41.57608215 257.33018219 42.44903931 257.11994934 43.34844971 C256.85428413 44.57057159 256.85428413 44.57057159 256.58325195 45.81738281 C256.34128838 46.88705292 256.34128838 46.88705292 256.09443665 47.97833252 C255.9754106 50.52640155 256.74923261 51.80783568 258 54 C258.33 54.99 258.66 55.98 259 57 C260.3173426 57.69773254 261.65311537 58.36115416 263 59 C264.66479492 60.52441406 264.66479492 60.52441406 266.29296875 62.265625 C269.73115593 65.79974884 273.3560344 68.81638635 277.3125 71.75 C278.0027124 72.26240234 278.6929248 72.77480469 279.40405273 73.30273438 C298.42927749 87.19830561 319.82560715 99.0130149 342 107 C342 107.66 342 108.32 342 109 C307.80951581 112.65439459 273.6121651 116.18544213 239.375 119.375 C212.48131522 121.88054317 185.60498776 124.53058163 158.7342186 127.27099228 C131.53854042 130.04369045 104.34138835 132.79347886 77.12601471 135.3667717 C75.08751773 135.56012702 73.04919979 135.75527279 71.01092529 135.95095825 C67.29028474 136.30692123 63.56910678 136.65652681 59.84765625 137.00390625 C58.78218063 137.10654785 57.71670502 137.20918945 56.61894226 137.31494141 C39.39304248 138.89495595 39.39304248 138.89495595 33.02734375 136.75 C32.19952393 136.47583252 31.3717041 136.20166504 30.51879883 135.91918945 C29.66697021 135.61585693 28.8151416 135.31252441 27.9375 135 C26.57177856 134.52469849 26.57177856 134.52469849 25.1784668 134.03979492 C0.46838127 125.22909898 -19.76537607 110.43166269 -40 94 C-40.96679688 93.23816406 -40.96679688 93.23816406 -41.953125 92.4609375 C-43.33979079 91.35290082 -44.67720458 90.18355379 -46 89 C-46 88.34 -46 87.68 -46 87 C-26.73857169 76.95911914 -7.0889301 68.23857143 13 60 C13.90322998 59.61223389 14.80645996 59.22446777 15.73706055 58.82495117 C18 58 18 58 21 58 C16.34017006 44.50055397 11.26579072 31.18415015 6.07910156 17.87963867 C5.07338997 15.29713183 4.07166714 12.71310493 3.0703125 10.12890625 C2.76102814 9.33948135 2.45174377 8.55005646 2.13308716 7.73670959 C0 2.22613886 0 2.22613886 0 0 Z " fill="#ECE2E6" transform="translate(100,0)"/>
<path d="M0 0 C3.78195631 2.77858015 7.51823575 5.58449724 11.1328125 8.578125 C32.78268943 26.44126166 56.26435715 40.57894192 83.27197266 48.59643555 C84.60526108 48.99320747 84.60526108 48.99320747 85.96548462 49.397995 C86.63687469 49.59665665 87.30826477 49.7953183 88 50 C88.08068654 81.42059426 87.91780618 112.82643647 87.42714429 144.24317312 C87.34321812 149.67843884 87.26403412 155.11377408 87.18431091 160.54910278 C87.03246199 170.86079934 86.87723318 181.1724415 86.72039407 191.48406327 C86.42711985 210.76702375 86.13872552 230.05005686 85.85346603 249.33313751 C85.78729604 253.80597747 85.72072083 258.27881112 85.65382767 262.75164032 C85.29232866 286.96452332 84.96164074 311.17725938 84.71435547 335.39160156 C84.70341303 336.45362077 84.6924706 337.51563998 84.68119657 338.60984159 C84.57727114 348.7142231 84.47655241 358.81861274 84.38854688 368.92314637 C84.22651752 387.30002387 84.03223957 405.64629028 83 424 C79.99032027 422.5349285 77.40453977 420.92619825 74.7265625 418.91015625 C73.90873291 418.29615967 73.09090332 417.68216309 72.24829102 417.04956055 C71.38260498 416.39383057 70.51691895 415.73810059 69.625 415.0625 C68.73031006 414.38807861 67.83562012 413.71365723 66.91381836 413.01879883 C60.62699172 408.26660963 54.40455806 403.43927084 48.2265625 398.546875 C43.40091277 394.72717642 38.51090199 390.99106201 33.62646484 387.24707031 C31.95462216 385.96520715 30.28375215 384.68208774 28.61328125 383.3984375 C28.05487549 382.97014648 27.49646973 382.54185547 26.92114258 382.10058594 C25.816872 381.2494345 24.71635687 380.39338594 23.61987305 379.53222656 C21.21292442 377.64868846 18.81694474 375.88636176 16.21875 374.2734375 C13.70427376 372.65812523 11.92119571 371.28985186 10 369 C9.43293476 366.35468578 9.43293476 366.35468578 9.29743958 363.26249695 C9.23971186 362.10046438 9.18198414 360.93843182 9.1225071 359.74118614 C9.08207975 358.50659472 9.04165241 357.27200329 9 356 C8.95180304 354.7863508 8.90360607 353.57270161 8.85394859 352.32227516 C8.70783959 348.25273409 8.59586238 344.1833037 8.4909668 340.11254883 C8.44824221 338.54763053 8.40523817 336.98271984 8.36198139 335.41781616 C8.24514214 331.16053946 8.13235529 326.90316407 8.02034569 322.64575791 C7.8990259 318.05965102 7.77407167 313.47364283 7.6496582 308.88761902 C7.40814488 299.96126856 7.17035794 291.03482254 6.93399942 282.10833424 C6.74251865 274.87874886 6.5496264 267.64920235 6.35586548 260.41967773 C4.75947565 200.83428669 3.22552146 141.24738235 1.7532239 81.65879774 C1.68733628 78.99337668 1.62134514 76.3279582 1.55532455 73.66254044 C1.30569218 63.58172871 1.05750007 53.50088328 0.81170654 43.41997719 C0.7377541 40.38716925 0.6633705 37.3543724 0.58859253 34.3215847 C0.48703843 30.20009787 0.38732078 26.07856869 0.2878418 21.95703125 C0.25828242 20.76479352 0.22872305 19.57255579 0.19826794 18.34418964 C0.052374 12.22721258 -0.0298295 6.11871567 0 0 Z " fill="#FEC107" transform="translate(53,88)"/>
<path d="M0 0 C5.75 0.875 5.75 0.875 8 2 C7.67 4.31 7.34 6.62 7 9 C7.62753174 9.06993164 8.25506348 9.13986328 8.90161133 9.21191406 C66.34437071 15.7205936 66.34437071 15.7205936 81 32 C86.70652171 41.47282604 81.69315192 57.53276371 79.375 67.6875 C70.87808587 101.12989999 49.97321894 131.26670584 20.21972656 149.06494141 C11.1758703 154.38019026 2.11566967 158.13461717 -8 161 C-9.03640625 161.3196875 -10.0728125 161.639375 -11.140625 161.96875 C-28.26923954 166.52513022 -48.25552869 165.73943123 -65 160 C-66.04027344 159.64591064 -66.04027344 159.64591064 -67.1015625 159.28466797 C-101.77432438 147.06251941 -125.31015665 120.44647994 -141 88 C-147.33917762 74.53311292 -149.68791081 59.72510046 -151 45 C-151.1134375 44.04867187 -151.226875 43.09734375 -151.34375 42.1171875 C-151.65790211 37.60910471 -151.24753319 34.53837759 -148.5 30.875 C-138.44207374 20.8976984 -123.38066681 17.11286346 -110 14 C-108.22109375 13.57267578 -108.22109375 13.57267578 -106.40625 13.13671875 C-98.51951326 11.40483399 -90.57184442 10.35930833 -82.5625 9.375 C-81.0628772 9.1901001 -81.0628772 9.1901001 -79.53295898 9.00146484 C-62.17037689 6.97790607 -44.95833218 6.87301975 -27.5 6.9375 C-25.11588636 6.94252704 -22.73177169 6.94708781 -20.34765625 6.95117188 C-14.56508129 6.96207746 -8.78254561 6.97871935 -3 7 C-2.01 4.69 -1.02 2.38 0 0 Z " fill="#81D3F9" transform="translate(318,239)"/>
<path d="M0 0 C2.12036133 0.97973633 2.12036133 0.97973633 4.76953125 2.51953125 C11.27980533 6.19343612 17.94927793 9.45510109 24.6875 12.6875 C25.85861328 13.25533203 27.02972656 13.82316406 28.23632812 14.40820312 C34.08161944 17.22040475 39.8740332 19.86233218 46 22 C46 22.66 46 23.32 46 24 C11.80951581 27.65439459 -22.3878349 31.18544213 -56.625 34.375 C-83.51868478 36.88054317 -110.39501224 39.53058163 -137.2657814 42.27099228 C-164.46145958 45.04369045 -191.65861165 47.79347886 -218.87398529 50.3667717 C-220.91248227 50.56012702 -222.95080021 50.75527279 -224.98907471 50.95095825 C-228.70971526 51.30692123 -232.43089322 51.65652681 -236.15234375 52.00390625 C-237.21781937 52.10654785 -238.28329498 52.20918945 -239.38105774 52.31494141 C-256.60695752 53.89495595 -256.60695752 53.89495595 -262.97265625 51.75 C-263.80047607 51.47583252 -264.6282959 51.20166504 -265.48120117 50.91918945 C-266.33302979 50.61585693 -267.1848584 50.31252441 -268.0625 50 C-268.97298096 49.68313232 -269.88346191 49.36626465 -270.8215332 49.03979492 C-307.31492636 36.02761046 -307.31492636 36.02761046 -316 23 C-314.47874512 22.91081299 -314.47874512 22.91081299 -312.92675781 22.81982422 C-284.62191449 21.14824193 -256.33737263 19.21344383 -228.0554657 17.19553375 C-225.3572853 17.00319254 -222.65905673 16.8115408 -219.96081543 16.62005615 C-201.67717188 15.32129387 -183.40022806 13.97185612 -165.1328125 12.4609375 C-148.81338537 11.11222608 -132.48493795 9.9786217 -116.14425659 8.92199707 C-108.10861469 8.40210968 -100.07387324 7.86848796 -92.0390625 7.3359375 C-91.21903936 7.28164581 -90.39901623 7.22735413 -89.55414391 7.17141724 C-72.07192777 6.0132795 -54.59265198 4.81467519 -37.11569214 3.57977295 C-34.00476538 3.36003072 -30.89370387 3.14237493 -27.78250122 2.92657471 C-24.15019077 2.67450786 -20.51819675 2.41830664 -16.88641739 2.15870285 C-14.91917159 2.01903828 -12.95163804 1.88344569 -10.98410034 1.74795532 C-9.82202057 1.66387421 -8.6599408 1.57979309 -7.46264648 1.49316406 C-6.44976059 1.42164124 -5.43687469 1.35011841 -4.39329529 1.27642822 C-1.98892653 1.1368112 -1.98892653 1.1368112 0 0 Z " fill="#FAF4F6" transform="translate(396,85)"/>
<path d="M0 0 C1.18470585 1.02110362 2.34908039 2.06596053 3.5 3.125 C24.79961063 22.38273067 52.74971733 29.34384953 80.68505859 28.23828125 C104.45212188 26.52988136 129.19961767 14.80038233 146 -2 C159.32514624 -1.19770062 177.63513751 4.84250657 186.7421875 14.9296875 C188.90807724 18.49466129 188.74588532 21.9736676 188 26 C186.0625 28.6875 186.0625 28.6875 183 31 C182.41476562 31.46921875 181.82953125 31.9384375 181.2265625 32.421875 C154.10220384 52.58327569 108.81829096 52.37096027 76.82177734 52.31567383 C73.03323165 52.3125276 69.24548044 52.33601938 65.45703125 52.36132812 C43.38301043 52.41958533 21.35746222 50.92320632 -0.25 46.1875 C-1.45180908 45.93033203 -2.65361816 45.67316406 -3.8918457 45.40820312 C-36.18553042 38.23134369 -36.18553042 38.23134369 -44 26 C-45.47896861 23.04206277 -45.4355582 21.29779776 -45 18 C-38.53165499 7.08466779 -23.52761249 2.70890417 -11.890625 -0.30859375 C-10.93671875 -0.53675781 -9.9828125 -0.76492188 -9 -1 C-8.2575 -1.20753906 -7.515 -1.41507812 -6.75 -1.62890625 C-3.89000053 -2.23537935 -2.56634432 -1.39982417 0 0 Z " fill="#FEC108" transform="translate(212,374)"/>
<path d="M0 0 C3.05096466 1.40929185 5.56111201 3.08875377 8.203125 5.16015625 C31.62406623 24.27907389 31.62406623 24.27907389 60 31 C73.61737809 26.51028903 85.87758706 13.37628407 96.01513672 3.60693359 C99.79586895 0 99.79586895 0 102 0 C104.93083674 13.9486119 107.5362692 27.89019198 109.61132812 41.99267578 C110.62912459 48.83557689 111.84671861 55.54078068 113.484375 62.265625 C114.04404373 65.23356523 114.03433032 67.98621446 114 71 C104.68705797 73.54683288 95.29565933 75.28457267 85.79415894 76.93331909 C72.50164348 79.24097771 59.24868781 81.62673637 46.08105469 84.57763672 C45.21770508 84.76729004 44.35435547 84.95694336 43.46484375 85.15234375 C42.739021 85.31726318 42.01319824 85.48218262 41.26538086 85.65209961 C38.49017363 86.07829535 35.8031443 86.05457894 33 86 C32.69296143 85.20940186 32.38592285 84.41880371 32.06958008 83.60424805 C30.90718725 80.61564332 29.74196952 77.62815865 28.57495117 74.64135742 C28.07450277 73.35890831 27.57511837 72.07604338 27.0769043 70.79272461 C24.72764897 64.74333299 22.3845515 58.72075191 19.6171875 52.84765625 C16.08787172 45.22902773 13.25219925 37.32860708 10.32397461 29.46484375 C9.30888072 26.74028569 8.2867113 24.01845824 7.26367188 21.296875 C6.60895637 19.54703158 5.95464522 17.79703679 5.30078125 16.046875 C4.9986824 15.24256042 4.69658356 14.43824585 4.3853302 13.60955811 C2.71584112 9.11405806 1.25215604 4.62962645 0 0 Z " fill="#52528C" transform="translate(100,0)"/>
<path d="M0 0 C1.16872147 -0.00149551 1.16872147 -0.00149551 2.36105347 -0.00302124 C12.18383079 -0.00159413 21.89633489 0.33639242 31.6875 1.1875 C31.3575 2.5075 31.0275 3.8275 30.6875 5.1875 C29.30691406 5.20876953 29.30691406 5.20876953 27.8984375 5.23046875 C0.99224135 6.244246 -19.14577753 22.93776715 -36.93554688 41.68798828 C-41.31379746 46.45593422 -45.71665433 51.46604625 -48.99609375 57.05859375 C-51.3125 59.1875 -51.3125 59.1875 -53.19580078 59.37963867 C-55.63585202 59.17652526 -57.97207795 58.78329337 -60.375 58.3125 C-61.25607422 58.1582959 -62.13714844 58.0040918 -63.04492188 57.84521484 C-105.42677113 50.08930622 -105.42677113 50.08930622 -115.3125 36.1875 C-116.29259977 32.60207174 -116.31017641 29.772557 -115.3125 26.1875 C-105.37068322 11.35452203 -79.73475302 7.855277 -63.71826172 4.671875 C-42.71059486 0.77207207 -21.31443027 0.00720668 0 0 Z " fill="#50C3F5" transform="translate(283.3125,245.8125)"/>
<path d="M0 0 C5.03337583 2.56084033 7.38727118 6.21358478 9.4375 11.375 C12.58766177 21.55139215 10.57780846 27.64350928 6 37 C5.71495605 37.58346191 5.42991211 38.16692383 5.13623047 38.76806641 C-6.7235374 62.51902708 -23.17367891 84.76884095 -39 106 C-44.09881195 105.13963209 -48.34307184 103.1546981 -53 101 C-52.43694711 93.25639224 -51.07269483 85.81979867 -49.375 78.25 C-49.11138672 77.07276367 -48.84777344 75.89552734 -48.57617188 74.68261719 C-42.57545373 48.63500341 -34.49376056 16.63373556 -12 0 C-7.76213728 -1.41262091 -4.30463371 -1.12450498 0 0 Z " fill="#CB8B6D" transform="translate(370,137)"/>
<path d="M0 0 C1.84375 2.51171875 1.84375 2.51171875 3.5 5.6875 C5.43459701 9.25189975 7.22687564 12.53704391 9.9375 15.5625 C12 18 12 18 12 21 C11.18125145 21.15247444 11.18125145 21.15247444 10.34596252 21.30802917 C-25.36648725 27.95028091 -25.36648725 27.95028091 -61 35 C-66.85291765 36.19370171 -72.70690937 37.38197624 -78.5625 38.5625 C-79.30937073 38.71310883 -80.05624146 38.86371765 -80.82574463 39.01889038 C-93.83786506 41.63502859 -106.88388087 43.96135591 -120 46 C-121.32553425 42.20718981 -122.40225061 38.5146772 -123.125 34.5625 C-123.29257813 33.67691406 -123.46015625 32.79132812 -123.6328125 31.87890625 C-124.05559694 28.56409633 -124.02307807 25.33870908 -124 22 C-122.31527756 21.63597404 -120.63055488 21.27194914 -118.9458313 20.90792847 C-117.4363504 20.5817088 -115.92689053 20.25539177 -114.41744995 19.9289856 C-110.19820472 19.01667432 -105.97865594 18.10580835 -101.75854492 17.19750977 C-91.31652225 14.95349607 -91.31652225 14.95349607 -80.8984375 12.6015625 C-63.9041887 8.68915994 -46.6882075 6.0051442 -29.47789001 3.23640442 C-25.34345702 2.56700339 -21.21990685 1.86532684 -17.10449219 1.08691406 C-16.33100433 0.94234772 -15.55751648 0.79778137 -14.7605896 0.64883423 C-13.31683647 0.37631984 -11.87448045 0.09624409 -10.43399048 -0.19302368 C-6.68615005 -0.89771026 -3.64607515 -1.24703572 0 0 Z " fill="#FAF4F6" transform="translate(335,25)"/>
<path d="M0 0 C19.55883188 1.5619091 39.86861639 4.14142477 58 12 C59.3921875 12.60134766 59.3921875 12.60134766 60.8125 13.21484375 C66.44943977 15.84038266 73.10532046 19.21064093 76 25 C76.54711674 29.61141254 76.69555038 32.75001295 73.875 36.5625 C61.50836726 49.07095192 36.07748546 55.06647974 19.0546875 56.1953125 C17.03645833 56.13020833 15.01822917 56.06510417 13 56 C12.96132813 54.52853516 12.96132813 54.52853516 12.921875 53.02734375 C12.36230997 38.04821834 9.70219751 22.23442863 -0.19921875 10.36328125 C-2 8 -2 8 -1.8125 4.8125 C-1 2 -1 2 0 0 Z " fill="#50C3F6" transform="translate(324,248)"/>
<path d="M0 0 C2.64 6.6 5.28 13.2 8 20 C-0.859375 21.57421875 -0.859375 21.57421875 -3.88438416 22.11154175 C-8.93569623 23.00892232 -13.98673246 23.90781994 -19.03735352 24.80908203 C-36.8396745 27.98390584 -36.8396745 27.98390584 -44.60546875 29.29296875 C-61.76632696 32.20995293 -78.73208146 35.90778183 -95.71850586 39.69873047 C-96.69786606 39.91590225 -97.67722626 40.13307404 -98.68626404 40.35682678 C-100.54106598 40.76850648 -102.39508559 41.18373183 -104.2481842 41.60301208 C-105.49528419 41.87940269 -105.49528419 41.87940269 -106.76757812 42.16137695 C-107.491427 42.32394485 -108.21527588 42.48651276 -108.96105957 42.65400696 C-111 43 -111 43 -115 43 C-115.33 44.32 -115.66 45.64 -116 47 C-116.99 39.74 -117.98 32.48 -119 25 C-106.6276349 21.23478835 -94.23883292 18.02923126 -81.625 15.1875 C-80.69066132 14.97544922 -79.75632263 14.76339844 -78.79367065 14.54492188 C-14.5144779 -0 -14.5144779 -0 0 0 Z " fill="#EDE3E7" transform="translate(326,4)"/>
<path d="M0 0 C5.75 0.875 5.75 0.875 8 2 C7.59517808 5.4409863 7.21808913 8.4790093 5.875 11.6875 C4.82112191 14.47274924 5.02901323 15.22575208 6 18 C7.07574343 19.80118066 8.2067096 21.56992339 9.375 23.3125 C16.24055592 33.9126937 18.35232352 43.49850397 18.125 56.0625 C18.11597656 57.02349609 18.10695313 57.98449219 18.09765625 58.97460938 C18.07435208 61.31667805 18.04164058 63.65819792 18 66 C15.36 66 12.72 66 10 66 C9.94392578 64.36804688 9.94392578 64.36804688 9.88671875 62.703125 C9.33259334 49.33389531 7.80157715 37.3366668 0 26 C-0.99 25.34 -1.98 24.68 -3 24 C-17.93642598 36.35433107 -27.1237738 51.99659622 -36 69 C-38.97 69 -41.94 69 -45 69 C-43.04410308 62.62125229 -40.65931796 56.98664174 -37.375 51.1875 C-36.93696045 50.40777832 -36.4989209 49.62805664 -36.04760742 48.82470703 C-30.43680634 39.02928868 -23.61550507 30.32563256 -16 22 C-37.36593408 25.84586813 -58.35501794 44.23196151 -70.6640625 61.30859375 C-72.34172032 63.51865896 -73.77864054 65.33284474 -76 67 C-79.2072091 67.36433895 -81.91553918 66.895263 -85 66 C-83.47125968 61.04800682 -80.56166725 57.79974675 -77.1875 54 C-76.6085498 53.34354492 -76.02959961 52.68708984 -75.43310547 52.01074219 C-60.18955133 34.89010628 -42.19289765 17.21390722 -19 12 C-16.35704343 11.8698051 -13.70824703 11.82817262 -11.0625 11.875 C-10.37865234 11.88402344 -9.69480469 11.89304688 -8.99023438 11.90234375 C-7.32666713 11.92561042 -5.66328369 11.96146833 -4 12 C-3.79503906 11.30132812 -3.59007812 10.60265625 -3.37890625 9.8828125 C-3.10949219 8.97273437 -2.84007812 8.06265625 -2.5625 7.125 C-2.29566406 6.22007812 -2.02882813 5.31515625 -1.75390625 4.3828125 C-1 2 -1 2 0 0 Z " fill="#F6F3F6" transform="translate(318,239)"/>
<path d="M0 0 C2.8834334 2.46218787 3.94920123 4.91170044 5.26171875 8.4375 C5.65810547 9.49710938 6.05449219 10.55671875 6.46289062 11.6484375 C6.86701172 12.75445312 7.27113281 13.86046875 7.6875 15 C8.10322266 16.10601562 8.51894531 17.21203125 8.94726562 18.3515625 C12 26.5924415 12 26.5924415 12 30 C9.67969805 30.45187714 7.35938513 30.90369783 5.0390625 31.35546875 C4.30968979 31.49748718 3.58031708 31.63950562 2.82884216 31.78582764 C-1.21618489 32.57325537 -5.26138523 33.3597785 -9.30688477 34.14477539 C-10.96370589 34.46630105 -12.62052555 34.78783427 -14.27734375 35.109375 C-15.10373856 35.2697374 -15.93013336 35.43009979 -16.78157043 35.59532166 C-21.85737506 36.58116354 -26.93121301 37.57639913 -32.00390625 38.578125 C-34.31510211 39.03126051 -36.62629988 39.48438624 -38.9375 39.9375 C-39.99437012 40.14850342 -41.05124023 40.35950684 -42.14013672 40.5769043 C-43.6002417 40.86174683 -43.6002417 40.86174683 -45.08984375 41.15234375 C-45.92378662 41.31726318 -46.75772949 41.48218262 -47.61694336 41.65209961 C-52.13806785 42.31213469 -54.22943886 42.52402025 -58.11328125 39.8828125 C-59.19043216 38.97615541 -60.25666468 38.05639301 -61.3125 37.125 C-61.86228516 36.66480469 -62.41207031 36.20460937 -62.97851562 35.73046875 C-64.36677072 34.54053581 -65.68945321 33.27501362 -67 32 C-67 31.34 -67 30.68 -67 30 C-52.68622613 22.53830527 -38.24901608 15.63991334 -23.375 9.375 C-22.66594513 9.07599792 -21.95689026 8.77699585 -21.22634888 8.46893311 C-14.20017405 5.51349236 -7.16789719 2.5981324 0 0 Z " fill="#EDE3E6" transform="translate(121,57)"/>
<path d="M0 0 C0.66 0.33 1.32 0.66 2 1 C0.11632843 6.95375636 -2.04624708 12.67367208 -4.59765625 18.37109375 C-4.94431335 19.15487396 -5.29097046 19.93865417 -5.64813232 20.7461853 C-6.3944339 22.4330548 -7.14243756 24.11917212 -7.89199829 25.80459595 C-9.91152378 30.34727777 -11.91663953 34.89630865 -13.921875 39.4453125 C-14.33754227 40.38778336 -14.75320953 41.33025421 -15.18147278 42.30128479 C-19.79395227 52.77549509 -24.31029965 63.29051556 -28.8125 73.8125 C-29.19004425 74.69396698 -29.5675885 75.57543396 -29.95657349 76.48361206 C-34.01863081 85.96952179 -38.05932835 95.46288222 -42 105 C-44.64 104.01 -47.28 103.02 -50 102 C-49.38030789 94.24664296 -48.07630861 86.83591202 -46.375 79.25 C-46.11138672 78.07276367 -45.84777344 76.89552734 -45.57617188 75.68261719 C-39.57545373 49.63500341 -31.49376056 17.63373556 -9 1 C-5.77390955 -0.07536348 -3.37822416 -0.14375422 0 0 Z " fill="#D89D7B" transform="translate(367,136)"/>
<path d="M0 0 C6.18371881 5.09247432 10.4432473 13.15598655 12 21 C12.07991104 22.80581755 12.10769823 24.61431809 12.09765625 26.421875 C12.09443359 27.44667969 12.09121094 28.47148437 12.08789062 29.52734375 C12.07532227 31.12255859 12.07532227 31.12255859 12.0625 32.75 C12.05798828 33.82894531 12.05347656 34.90789062 12.04882812 36.01953125 C12.03705727 38.67974383 12.02061399 41.33984365 12 44 C-2.71563731 45.51945067 -17.20723603 46.27478819 -32 46 C-31.38760144 41.56220768 -29.66918578 37.95847438 -27.5625 34.0625 C-27.20905518 33.40862305 -26.85561035 32.75474609 -26.49145508 32.08105469 C-20.44396608 21.1601169 -11.55041922 5.77520961 0 0 Z " fill="#50C3F7" transform="translate(315,262)"/>
<path d="M0 0 C-0.67192288 6.05473768 -1.72821126 11.94198924 -2.99609375 17.8984375 C-3.28650291 19.27269394 -3.28650291 19.27269394 -3.58277893 20.67471313 C-3.99030675 22.59618953 -4.3996716 24.51727714 -4.81079102 26.43798828 C-5.43972514 29.38542792 -6.05694252 32.33517451 -6.67382812 35.28515625 C-7.07220285 37.15640211 -7.47126686 39.02750139 -7.87109375 40.8984375 C-8.05449814 41.78171722 -8.23790253 42.66499695 -8.42686462 43.57504272 C-8.60367264 44.38994171 -8.78048065 45.2048407 -8.96264648 46.04443359 C-9.11507309 46.76198822 -9.26749969 47.47954285 -9.42454529 48.21884155 C-10 50 -10 50 -12 52 C-21.83572297 43.25713513 -28.97116131 31.82273679 -34.5625 20 C-34.88468506 19.3188916 -35.20687012 18.6377832 -35.53881836 17.93603516 C-37.59993623 13.37225077 -38.90402477 8.88554131 -40 4 C-36.07277755 3.42030204 -32.14417154 2.85115995 -28.21411133 2.29101562 C-26.23376342 2.0066433 -24.25455764 1.714353 -22.27539062 1.421875 C-14.79086878 0.36077823 -7.55977107 -0.28389804 0 0 Z " fill="#FED553" transform="translate(366,0)"/>
<path d="M0 0 C1.04321411 -0.00563965 2.08642822 -0.0112793 3.16125488 -0.01708984 C4.31041382 -0.01304138 5.45957275 -0.00899292 6.64355469 -0.00482178 C7.8500769 -0.00832642 9.05659912 -0.01183105 10.29968262 -0.01544189 C13.61372989 -0.02275082 16.9275284 -0.02101698 20.24156189 -0.01468372 C23.70531557 -0.00962971 27.16905842 -0.0143135 30.6328125 -0.01745605 C36.45021479 -0.02109746 42.26756634 -0.01629206 48.08496094 -0.0067749 C54.81624543 0.00411001 61.54740878 0.00058455 68.27869034 -0.01042771 C74.0519731 -0.01949566 79.82521934 -0.02078829 85.59850693 -0.01555037 C89.04929338 -0.01242795 92.50002284 -0.01202876 95.95080566 -0.01862335 C99.79635347 -0.02545866 103.64176493 -0.01599209 107.48730469 -0.00482178 C109.21104309 -0.01089447 109.21104309 -0.01089447 110.96960449 -0.01708984 C112.53442566 -0.00863037 112.53442566 -0.00863037 114.13085938 0 C115.04083679 0.00075405 115.95081421 0.0015081 116.8883667 0.002285 C119.06542969 0.25396729 119.06542969 0.25396729 121.06542969 2.25396729 C121.31542969 4.75396729 121.31542969 4.75396729 121.06542969 7.25396729 C118.52605825 9.79333872 117.65009941 9.50501836 114.13085938 9.50793457 C112.56603821 9.51639404 112.56603821 9.51639404 110.96960449 9.52502441 C109.82044556 9.52097595 108.67128662 9.51692749 107.48730469 9.51275635 C106.28078247 9.51626099 105.07426025 9.51976562 103.83117676 9.52337646 C100.51712948 9.53068539 97.20333098 9.52895155 93.88929749 9.52261829 C90.42554381 9.51756428 86.96180096 9.52224807 83.49804688 9.52539062 C77.68064458 9.52903203 71.86329303 9.52422664 66.04589844 9.51470947 C59.31461394 9.50382456 52.58345059 9.50735002 45.85216904 9.51836228 C40.07888627 9.52743023 34.30564003 9.52872286 28.53235245 9.52348495 C25.08156599 9.52036252 21.63083653 9.51996333 18.18005371 9.52655792 C14.33450591 9.53339323 10.48909445 9.52392666 6.64355469 9.51275635 C4.91981628 9.51882904 4.91981628 9.51882904 3.16125488 9.52502441 C2.11804077 9.51938477 1.07482666 9.51374512 0 9.50793457 C-0.90997742 9.50718052 -1.81995483 9.50642647 -2.75750732 9.50564957 C-4.93457031 9.25396729 -4.93457031 9.25396729 -6.93457031 7.25396729 C-7.18457031 4.75396729 -7.18457031 4.75396729 -6.93457031 2.25396729 C-4.39519888 -0.28540415 -3.51924003 0.00291621 0 0 Z " fill="#FFC108" transform="translate(244.9345703125,438.74603271484375)"/>
<path d="M0 0 C-0.53367187 0.54785156 -1.06734375 1.09570312 -1.6171875 1.66015625 C-13.92763483 14.7586426 -23.09840274 30.45305123 -30 47 C-34.25025618 46.86109398 -38.50012842 46.71268006 -42.75 46.5625 C-44.55984375 46.50352539 -44.55984375 46.50352539 -46.40625 46.44335938 C-47.56640625 46.40146484 -48.7265625 46.35957031 -49.921875 46.31640625 C-50.99018555 46.27974854 -52.05849609 46.24309082 -53.15917969 46.20532227 C-55.58311152 46.03013091 -57.67886712 45.68801513 -60 45 C-58.47920927 41.49172085 -56.4004327 39.04728354 -53.8125 36.25 C-51.00388136 33.20025989 -48.26800757 30.1308675 -45.625 26.9375 C-41.29267154 21.97628515 -36.19424996 18.01885735 -31 14 C-30.11054688 13.29488281 -29.22109375 12.58976562 -28.3046875 11.86328125 C-8.91873065 -2.97291022 -8.91873065 -2.97291022 0 0 Z " fill="#52C3F7" transform="translate(303,261)"/>
<path d="M0 0 C1.16796875 2.3984375 1.16796875 2.3984375 2.1875 5.375 C2.53167969 6.35210937 2.87585938 7.32921875 3.23046875 8.3359375 C4 11 4 11 4 14 C1.67969805 14.45187714 -0.64061737 14.90368497 -2.9609375 15.35546875 C-4.05506454 15.56856438 -4.05506454 15.56856438 -5.17129517 15.78596497 C-9.21540043 16.57336365 -13.25978806 17.35926871 -17.3046875 18.14257812 C-24.88721224 19.6116888 -32.46760556 21.08803345 -40.0390625 22.61328125 C-41.22580566 22.84958252 -42.41254883 23.08588379 -43.63525391 23.3293457 C-45.83422265 23.76763965 -48.031893 24.21251283 -50.22802734 24.66479492 C-51.20465332 24.8579126 -52.1812793 25.05103027 -53.1875 25.25 C-54.02667969 25.42015625 -54.86585937 25.5903125 -55.73046875 25.765625 C-58.10396135 26.01073611 -59.74323886 25.72631393 -62 25 C-46.27113982 16.78394799 -30.33082035 9.52927111 -13.79296875 3.08935547 C-12.03963545 2.40549417 -10.29130025 1.70852321 -8.55078125 0.99267578 C-3.33018868 -1.11006289 -3.33018868 -1.11006289 0 0 Z " fill="#F9F3F5" transform="translate(129,73)"/>
<path d="M0 0 C0.70210098 0.00091141 1.40420197 0.00182281 2.12757874 0.00276184 C2.8501033 -0.00152328 3.57262787 -0.00580841 4.31704712 -0.01022339 C5.8460841 -0.01596928 7.37514843 -0.01646503 8.90419006 -0.01213074 C11.24410172 -0.00897362 13.58274565 -0.03241449 15.92250061 -0.05778503 C17.40752505 -0.0600583 18.8925529 -0.0607614 20.37757874 -0.05973816 C21.07765549 -0.06894791 21.77773224 -0.07815765 22.49902344 -0.08764648 C25.42672336 -0.05976277 27.36341717 -0.01766682 29.79579163 1.69734192 C30.81898499 3.30354309 30.81898499 3.30354309 30.63148499 5.36604309 C29.81898499 7.30354309 29.81898499 7.30354309 27.81898499 9.30354309 C25.33331955 9.50302866 22.96147749 9.58344052 20.47523499 9.56916809 C19.75033875 9.57108154 19.0254425 9.572995 18.27857971 9.57496643 C16.74533237 9.57632796 15.21207349 9.57263373 13.67884827 9.56428528 C11.3281624 9.55358487 8.97824076 9.56418117 6.62757874 9.57698059 C5.13929579 9.57565899 3.65101333 9.57309658 2.16273499 9.56916809 C1.45749695 9.57321655 0.75225891 9.57726501 0.02565002 9.58143616 C-4.95109016 9.53346795 -4.95109016 9.53346795 -7.18101501 7.30354309 C-7.43101501 4.80354309 -7.43101501 4.80354309 -7.18101501 2.30354309 C-4.73006348 -0.14740844 -3.3477132 0.04902883 0 0 Z " fill="#FFC109" transform="translate(183.18101501464844,438.6964569091797)"/>
</svg>
