<?xml version="1.0" encoding="UTF-8"?>
<svg version="1.1" xmlns="http://www.w3.org/2000/svg" width="512" height="512">
<path d="M0 0 C1.86741348 -0.02870934 1.86741348 -0.02870934 3.77255249 -0.05799866 C5.13303274 -0.06258514 6.49351768 -0.06592678 7.85400391 -0.06811523 C9.25021676 -0.07775698 10.64642657 -0.08784951 12.04263306 -0.09837341 C14.96973697 -0.1163363 17.89657532 -0.12189442 20.82373047 -0.12011719 C24.56912682 -0.11981249 28.31281449 -0.16074726 32.05780602 -0.21243382 C34.94212614 -0.24584531 37.82603552 -0.25187336 40.71052933 -0.25028801 C42.09083567 -0.25382155 43.47115339 -0.26705507 44.85126877 -0.29028511 C55.56159668 -0.45366754 55.56159668 -0.45366754 58.81639099 1.62313843 C60.11889648 3.13232422 60.11889648 3.13232422 61.95556641 6.43579102 C62.56698486 7.34683594 63.17840332 8.25788086 63.80834961 9.1965332 C64.36868896 10.11595703 64.92902832 11.03538086 65.50634766 11.98266602 C66.42963867 13.49666992 66.42963867 13.49666992 67.37158203 15.04125977 C68.3103418 16.59780273 68.3103418 16.59780273 69.26806641 18.18579102 C69.91324219 19.23895508 70.55841797 20.29211914 71.22314453 21.37719727 C75.95556641 29.17943354 75.95556641 29.17943354 75.95556641 31.43579102 C76.72513672 31.6257666 76.72513672 31.6257666 77.51025391 31.81958008 C83.38777266 33.42006603 88.88671894 35.61126477 94.45556641 38.04516602 C95.60484619 38.54373108 95.60484619 38.54373108 96.77734375 39.05236816 C99.98073394 40.44430567 103.18214284 41.83928349 106.36962891 43.26733398 C118.70743917 49.1324276 118.70743917 49.1324276 131.95556641 48.43579102 C132.77557129 48.24452637 133.59557617 48.05326172 134.44042969 47.85620117 C137.83236605 47.04247415 141.18543863 46.10704498 144.54345703 45.16430664 C145.37167969 44.94323242 146.19990234 44.7221582 147.05322266 44.49438477 C148.14389038 44.1897229 148.14389038 44.1897229 149.2565918 43.87890625 C150.14725342 43.73267822 151.03791504 43.5864502 151.95556641 43.43579102 C152.92373039 43.2492823 152.92373039 43.2492823 153.91145325 43.05900574 C157.73704016 42.63910278 160.09952094 42.87847333 163.3712616 45.00849915 C166.04827646 47.3357963 168.53971099 49.77277766 171.02197266 52.30688477 C171.94147202 53.21777359 172.86097137 54.12866241 173.80833435 55.06715393 C175.74681522 56.99241017 177.66819848 58.93288376 179.57885742 60.88574219 C182.02016933 63.37834088 184.49969679 65.82831854 186.99351597 68.26824856 C189.37928099 70.61352713 191.73001662 72.9926723 194.08447266 75.36938477 C194.9749379 76.24163193 195.86540314 77.11387909 196.78285217 78.01255798 C203.48808741 84.95211026 203.48808741 84.95211026 203.59423828 90.16772461 C203.35023499 92.39042664 203.35023499 92.39042664 202.95556641 94.43579102 C202.76857178 95.52915771 202.58157715 96.62252441 202.38891602 97.74902344 C202.13118408 98.75296143 201.87345215 99.75689941 201.60791016 100.79125977 C201.19508789 102.46671875 201.19508789 102.46671875 200.77392578 104.17602539 C200.18363585 106.4861401 199.59248113 108.79603399 199.00048828 111.10571289 C198.7265625 112.21881836 198.45263672 113.33192383 198.17041016 114.47875977 C197.78550415 115.97959106 197.78550415 115.97959106 197.39282227 117.51074219 C196.38435836 124.25692088 199.17371453 129.81653232 201.77197266 135.88500977 C202.14789047 136.7794429 202.52380829 137.67387604 202.91111755 138.59541321 C204.10735493 141.44064885 205.31183374 144.28227982 206.51806641 147.12329102 C207.72746797 149.97517279 208.93490292 152.82779899 210.13572693 155.68330383 C210.88179529 157.45726633 211.63283272 159.22914882 212.38929749 160.998703 C212.72642258 161.79996109 213.06354767 162.60121918 213.41088867 163.42675781 C213.85936913 164.48216011 213.85936913 164.48216011 214.31690979 165.55888367 C214.95556641 167.43579102 214.95556641 167.43579102 214.95556641 170.43579102 C215.68461182 170.71124756 216.41365723 170.9867041 217.16479492 171.27050781 C221.6651253 173.14961523 225.72239712 175.73616902 229.89306641 178.24829102 C230.77414062 178.7697168 231.65521484 179.29114258 232.56298828 179.82836914 C244.83279855 187.1902553 244.83279855 187.1902553 246.95556641 191.43579102 C247.05681242 193.29352762 247.09395569 195.15490007 247.10083008 197.01538086 C247.11039986 198.76762466 247.11039986 198.76762466 247.12016296 200.55526733 C247.1218322 202.45679062 247.1218322 202.45679062 247.12353516 204.39672852 C247.12686356 205.69397858 247.13019196 206.99122864 247.13362122 208.32778931 C247.13961343 211.07668896 247.14146106 213.82555717 247.14086914 216.57446289 C247.1407676 220.09404378 247.15441048 223.61342254 247.17164135 227.13295555 C247.18544739 230.49171632 247.18485049 233.85043972 247.18603516 237.20922852 C247.19322067 238.47286224 247.20040619 239.73649597 247.20780945 241.03842163 C247.20473282 242.21288849 247.20165619 243.38735535 247.19848633 244.59741211 C247.19991135 245.63062592 247.20133636 246.66383972 247.20280457 247.72836304 C246.94900653 250.50762622 246.46384389 252.10806452 244.95556641 254.43579102 C242.66479492 256.12744141 242.66479492 256.12744141 239.83447266 257.78344727 C238.30790039 258.69126953 238.30790039 258.69126953 236.75048828 259.61743164 C235.68378906 260.23811523 234.61708984 260.85879883 233.51806641 261.49829102 C231.41293503 262.73532698 229.30997068 263.97606007 227.20947266 265.22094727 C225.80677124 266.03897827 225.80677124 266.03897827 224.37573242 266.87353516 C222.25118555 268.24496413 220.64054988 269.56752741 218.95556641 271.43579102 C226.27636403 274.73530544 231.85902224 276.60128923 239.83056641 274.43579102 C250.04419833 271.77393714 250.04419833 271.77393714 254.77587891 274.47485352 C256.98535464 276.33999537 258.94675309 278.35340651 260.95556641 280.43579102 C262.20814935 281.67153077 263.46362682 282.90434 264.72119141 284.13500977 C267.41155831 286.78200438 270.09710186 289.43326697 272.76025391 292.10766602 C273.32728027 292.67582031 273.89430664 293.24397461 274.47851562 293.8293457 C277.31003995 296.90892091 278.31788419 299.03683704 278.22900391 303.20532227 C277.75244717 307.09266366 276.61064403 310.81619204 275.51416016 314.56860352 C273.84373349 323.14268163 279.52083632 335.26178339 283.95556641 342.43579102 C287.13280276 345.72526173 290.82892216 347.83218432 294.88134766 349.87719727 C299.37809452 352.1569965 299.37809452 352.1569965 300.95556641 354.43579102 C301.2782976 357.32967664 301.42359002 360.0040637 301.42431641 362.90063477 C301.43192993 363.73035294 301.43954346 364.56007111 301.4473877 365.41493225 C301.4581894 367.16916902 301.46104149 368.92347011 301.45654297 370.67773438 C301.45557102 373.36054885 301.49717891 376.04049935 301.54150391 378.72290039 C301.5467113 380.42797255 301.54939909 382.13305465 301.54931641 383.83813477 C301.56571167 384.63928207 301.58210693 385.44042938 301.59899902 386.26585388 C301.5502624 390.19814494 301.37655975 392.00198898 298.58837891 394.875 C295.89522581 396.47156229 293.18843447 398.03314847 290.45556641 399.56079102 C284.50260411 403.32727654 282.43064553 406.99516541 279.95556641 413.43579102 C279.45798828 414.42708008 278.96041016 415.41836914 278.44775391 416.43969727 C274.7507437 424.32729758 274.92428933 429.83322501 277.12353516 438.02563477 C278.5772132 443.98366732 278.5772132 443.98366732 277.95556641 447.43579102 C275.92816327 450.40279934 273.47916923 452.88768153 270.95556641 455.43579102 C270.24964355 456.16652832 269.5437207 456.89726562 268.81640625 457.65014648 C266.61217767 459.91229067 264.38224099 462.14576868 262.14306641 464.37329102 C261.38058594 465.13963867 260.61810547 465.90598633 259.83251953 466.69555664 C259.10355469 467.42323242 258.37458984 468.1509082 257.62353516 468.90063477 C256.63776489 469.88471313 256.63776489 469.88471313 255.63208008 470.88867188 C253.66502626 472.70390706 252.66247247 473.45377493 249.95947266 473.38500977 C248.75097656 473.25545898 248.75097656 473.25545898 247.51806641 473.12329102 C246.73560547 473.0446582 245.95314453 472.96602539 245.14697266 472.88500977 C241.95556641 472.43579102 241.95556641 472.43579102 239.54980469 471.81420898 C231.86684587 469.97462729 226.86954851 471.04510027 219.70556641 474.18579102 C218.2527124 474.80127808 218.2527124 474.80127808 216.77050781 475.42919922 C209.53927709 478.70211981 205.28844883 482.09847523 201.95556641 489.43579102 C201.18650665 490.63805532 200.39788286 491.82829692 199.58056641 492.99829102 C198.77619141 494.20485352 198.77619141 494.20485352 197.95556641 495.43579102 C195.09760732 498.2937501 184.96054019 496.80443712 180.91943359 496.84082031 C179.11715515 496.8623841 177.31498098 496.8964682 175.51318359 496.94335938 C172.91537697 497.01037954 170.31974074 497.03782255 167.72119141 497.05688477 C166.51780121 497.09863075 166.51780121 497.09863075 165.2901001 497.14122009 C159.81538656 497.1211594 159.81538656 497.1211594 157.34495544 495.15196228 C154.72397469 492.09061604 153.1613909 488.7601567 151.51806641 485.12329102 C147.7414422 479.02709939 142.60069127 476.81348526 136.20556641 474.12329102 C135.27687744 473.72005615 134.34818848 473.31682129 133.39135742 472.90136719 C126.29782193 470.16345703 121.21922295 470.45633755 113.95556641 472.43579102 C104.83693249 474.56461067 104.83693249 474.56461067 100.53369141 471.98266602 C98.37539947 470.07829078 96.37330458 468.10114762 94.41845703 465.98950195 C92.7405906 464.20746892 91.00307255 462.49791426 89.25244141 460.78735352 C86.74456267 458.32885368 84.24126193 455.86674852 81.76416016 453.37719727 C81.246521 452.85843018 80.72888184 452.33966309 80.19555664 451.80517578 C77.41174494 448.73086985 77.75595364 445.82246389 77.78759766 441.87329102 C77.94756653 439.55188227 78.33926931 437.54869252 78.95556641 435.31079102 C81.12106463 427.33924685 79.25508083 421.75658864 75.95556641 414.43579102 C71.05983739 420.06347952 67.51290753 426.64073965 63.73291016 433.03930664 C63.17732422 433.95776367 62.62173828 434.8762207 62.04931641 435.82250977 C61.55109375 436.65999756 61.05287109 437.49748535 60.53955078 438.36035156 C58.74516909 440.71146728 57.68624733 441.36217766 54.95556641 442.43579102 C52.30628967 442.69648743 52.30628967 442.69648743 49.2565918 442.71044922 C48.11182877 442.71998123 46.96706573 442.72951324 45.78761292 442.73933411 C44.55526413 442.7384227 43.32291534 442.73751129 42.05322266 442.73657227 C40.78337021 442.74085739 39.51351776 442.74514252 38.20518494 442.7495575 C35.51938034 442.75530126 32.83396001 442.75673583 30.14819336 442.75146484 C26.71383849 442.74567164 23.28002318 442.76260159 19.84575748 442.78580952 C16.56075003 442.80412135 13.27577195 442.8003609 9.99072266 442.79907227 C8.7603981 442.80828201 7.53007355 442.81749176 6.26246643 442.82698059 C5.11455124 442.8207518 3.96663605 442.81452301 2.78393555 442.80810547 C1.77673965 442.80873489 0.76954376 442.80936432 -0.26817322 442.81001282 C-4.3421142 442.26087213 -7.05198086 440.65791609 -9.63427734 437.47802734 C-10.30136719 436.38397583 -10.30136719 436.38397583 -10.98193359 435.26782227 C-11.48466797 434.45635742 -11.98740234 433.64489258 -12.50537109 432.80883789 C-13.01326172 431.96385742 -13.52115234 431.11887695 -14.04443359 430.24829102 C-14.55232422 429.42264648 -15.06021484 428.59700195 -15.58349609 427.74633789 C-16.59048006 426.10805243 -17.59189276 424.46632807 -18.58740234 422.82104492 C-20.39585551 419.86049072 -22.27121895 416.94492966 -24.16162109 414.03613281 C-25.04443359 412.43579102 -25.04443359 412.43579102 -25.04443359 410.43579102 C-25.6809082 410.35022949 -26.31738281 410.26466797 -26.97314453 410.17651367 C-31.27033963 409.14013132 -35.1452157 407.35698801 -39.18505859 405.58422852 C-40.99585198 404.80724339 -42.80706344 404.03123202 -44.61865234 403.25610352 C-47.45779273 402.03645551 -50.29380886 400.81106537 -53.12304688 399.56860352 C-55.8651982 398.36750776 -58.61748709 397.19282662 -61.37255859 396.02172852 C-62.2072467 395.64785004 -63.04193481 395.27397156 -63.9019165 394.88876343 C-69.6961236 392.4587497 -73.91463185 392.12634558 -80.04443359 393.43579102 C-81.14303711 393.66548584 -82.24164063 393.89518066 -83.37353516 394.13183594 C-84.38383789 394.3906958 -85.39414063 394.64955566 -86.43505859 394.91625977 C-87.55654297 395.19276367 -88.67802734 395.46926758 -89.83349609 395.75415039 C-92.15826571 396.33796669 -94.4811773 396.92922773 -96.80224609 397.52758789 C-98.47673828 397.93654297 -98.47673828 397.93654297 -100.18505859 398.35375977 C-101.19084961 398.60923584 -102.19664063 398.86471191 -103.23291016 399.12792969 C-106.58955813 399.49548206 -108.02541238 398.9013739 -111.04443359 397.43579102 C-113.20222473 395.69932556 -113.20222473 395.69932556 -115.37573242 393.58789062 C-116.1962056 392.79624008 -117.01667877 392.00458954 -117.86201477 391.18894958 C-118.73303329 390.33068069 -119.60405182 389.4724118 -120.50146484 388.58813477 C-121.8559095 387.25934044 -121.8559095 387.25934044 -123.23771667 385.90370178 C-125.14240814 384.02732766 -127.04293842 382.14750471 -128.9387207 380.26220703 C-131.36104186 377.85634628 -133.80992583 375.47958421 -136.2662859 373.1085577 C-138.61438904 370.82998785 -140.93064356 368.51943571 -143.25146484 366.21313477 C-144.57317436 364.94698586 -144.57317436 364.94698586 -145.92158508 363.65525818 C-152.57304095 356.92938439 -152.57304095 356.92938439 -152.67822266 351.70385742 C-152.43635559 349.47343445 -152.43635559 349.47343445 -152.04443359 347.43579102 C-151.85743896 346.38319092 -151.67044434 345.33059082 -151.4777832 344.24609375 C-151.22005127 343.29677979 -150.96231934 342.34746582 -150.69677734 341.36938477 C-150.4215625 340.30655273 -150.14634766 339.2437207 -149.86279297 338.14868164 C-149.27430982 335.96046382 -148.68315188 333.77296363 -148.08935547 331.58618164 C-147.81542969 330.52463867 -147.54150391 329.4630957 -147.25927734 328.36938477 C-147.00267334 327.42119873 -146.74606934 326.4730127 -146.48168945 325.49609375 C-145.42127791 318.07439713 -147.6660606 312.18163694 -150.60693359 305.51782227 C-150.95828369 304.69755051 -151.30963379 303.87727875 -151.67163086 303.03215027 C-152.78631615 300.43327563 -153.91441486 297.84053082 -155.04443359 295.24829102 C-156.1725243 292.64457868 -157.29759333 290.03965327 -158.41723633 287.43229675 C-159.11191904 285.81614594 -159.81172187 284.20218356 -160.51733398 282.59077454 C-162.98168177 276.88061924 -162.98168177 276.88061924 -163.45458984 273.52832031 C-163.64923828 272.83778564 -163.84388672 272.14725098 -164.04443359 271.43579102 C-166.33657544 270.20036341 -166.33657544 270.20036341 -169.04443359 269.43579102 C-172.42148226 267.60814871 -175.69293823 265.60435377 -178.98193359 263.62329102 C-179.86300781 263.10186523 -180.74408203 262.58043945 -181.65185547 262.04321289 C-182.51230469 261.52694336 -183.37275391 261.01067383 -184.25927734 260.47875977 C-185.03392334 260.01493896 -185.80856934 259.55111816 -186.60668945 259.07324219 C-187.8133728 258.26270386 -187.8133728 258.26270386 -189.04443359 257.43579102 C-190.1152417 256.83798828 -191.1860498 256.24018555 -192.28930664 255.62426758 C-194.55109836 253.67794145 -195.01842813 252.56475659 -195.61698914 249.59638977 C-195.87529479 245.85014621 -195.93310666 242.12961186 -195.91162109 238.37719727 C-195.92075079 236.98623131 -195.93136375 235.59527437 -195.94338989 234.20433044 C-195.96123085 231.29307344 -195.95643474 228.38291421 -195.93652344 225.47167969 C-195.91354488 221.75037413 -195.95395334 218.03286505 -196.01235771 214.31205845 C-196.04915197 211.44040587 -196.04848467 208.56965757 -196.03708267 205.69782829 C-196.03677703 204.3267274 -196.04880236 202.95556367 -196.07366562 201.58468819 C-196.23954308 190.93941005 -196.23954308 190.93941005 -193.3833313 187.34588623 C-191.34220068 185.78477906 -189.3339488 184.5947456 -187.04443359 183.43579102 C-185.65635498 182.50790771 -185.65635498 182.50790771 -184.24023438 181.5612793 C-181.55275891 179.88980705 -178.86456072 178.21990827 -176.16943359 176.56079102 C-175.22068359 175.96782227 -174.27193359 175.37485352 -173.29443359 174.76391602 C-172.38951172 174.20446289 -171.48458984 173.64500977 -170.55224609 173.06860352 C-169.73385254 172.56216309 -168.91545898 172.05572266 -168.07226562 171.53393555 C-166.04443359 170.43579102 -166.04443359 170.43579102 -164.04443359 170.43579102 C-163.78240143 169.6118988 -163.78240143 169.6118988 -163.51507568 168.7713623 C-161.74293214 163.313677 -159.6999567 158.04903732 -157.43505859 152.77954102 C-156.75563706 151.16409097 -156.07728321 149.54819155 -155.39990234 147.93188477 C-154.34742334 145.42628669 -153.28929918 142.92388799 -152.21289062 140.4284668 C-151.16393939 137.99048027 -150.14135815 135.5427534 -149.12255859 133.09204102 C-148.79870178 132.35739624 -148.47484497 131.62275146 -148.14117432 130.86584473 C-145.21720023 123.7140306 -146.30576882 117.60695858 -148.23583984 110.27954102 C-148.45820313 109.40168945 -148.68056641 108.52383789 -148.90966797 107.61938477 C-149.37475972 105.82936777 -149.84351559 104.04029882 -150.31591797 102.25219727 C-150.53699219 101.3743457 -150.75806641 100.49649414 -150.98583984 99.59204102 C-151.29050171 98.42898437 -151.29050171 98.42898437 -151.60131836 97.24243164 C-151.74754639 96.31624023 -151.89377441 95.39004883 -152.04443359 94.43579102 C-152.16877274 93.78518204 -152.29311188 93.13457306 -152.42121887 92.46424866 C-152.84070418 88.64209934 -152.60044357 86.28947717 -150.47172546 83.02108765 C-148.14472699 80.34333782 -145.70770169 77.85189596 -143.17333984 75.36938477 C-142.26245102 74.44988541 -141.35156219 73.53038605 -140.41307068 72.58302307 C-138.48781444 70.6445422 -136.54734085 68.72315894 -134.59448242 66.8125 C-132.10188373 64.37118809 -129.65190607 61.89166063 -127.21197605 59.39784145 C-124.86669748 57.01207643 -122.4875523 54.66134081 -120.11083984 52.30688477 C-118.8024691 50.9711869 -118.8024691 50.9711869 -117.46766663 49.60850525 C-110.52812202 42.90327742 -110.52812202 42.90327742 -105.29443359 42.79711914 C-103.07191467 43.04112244 -103.07191467 43.04112244 -101.04443359 43.43579102 C-99.9918335 43.62278564 -98.9392334 43.80978027 -97.85473633 44.00244141 C-96.90542236 44.26017334 -95.9561084 44.51790527 -94.97802734 44.78344727 C-93.91519531 45.05866211 -92.85236328 45.33387695 -91.75732422 45.61743164 C-89.5691064 46.20591479 -87.38160621 46.79707272 -85.19482422 47.39086914 C-84.13328125 47.66479492 -83.07173828 47.9387207 -81.97802734 48.22094727 C-81.02984131 48.47755127 -80.08165527 48.73415527 -79.10473633 48.99853516 C-71.42081565 50.09641325 -65.28894623 47.60910969 -58.36474609 44.61938477 C-57.47077118 44.24346695 -56.57679626 43.86754913 -55.6557312 43.48023987 C-52.82288956 42.28730549 -49.9959808 41.08105449 -47.16943359 39.87329102 C-44.32056232 38.66424964 -41.47053164 37.45806613 -38.61886597 36.25563049 C-36.84970788 35.5087946 -35.08232964 34.75772575 -33.31692505 34.00205994 C-32.52204681 33.66493484 -31.72716858 33.32780975 -30.90820312 32.98046875 C-30.20841339 32.68148178 -29.50862366 32.38249481 -28.78762817 32.07444763 C-27.04443359 31.43579102 -27.04443359 31.43579102 -25.04443359 31.43579102 C-24.77945068 30.72245605 -24.51446777 30.00912109 -24.24145508 29.27416992 C-22.08241332 24.15464729 -19.00190175 19.54109287 -16.10693359 14.81079102 C-15.47335938 13.76149414 -14.83978516 12.71219727 -14.18701172 11.63110352 C-13.26758789 10.12290039 -13.26758789 10.12290039 -12.32958984 8.58422852 C-11.77150635 7.66818848 -11.21342285 6.75214844 -10.63842773 5.80834961 C-7.44369619 1.05319551 -5.87448512 0.06121221 0 0 Z M-28.35693359 173.68579102 C-40.93342664 188.7616294 -47.18583528 207.68361972 -45.84326172 227.27148438 C-43.98531479 246.47870057 -34.29133755 264.02334178 -19.65380859 276.49047852 C-3.72143933 288.3682029 14.8911779 294.53614008 34.77978516 291.93579102 C54.41076452 288.83219977 71.35161414 279.3253059 83.33056641 263.24829102 C94.76223331 246.78566395 99.30927189 227.75660797 95.76806641 207.99829102 C91.43914751 188.12553309 80.34765246 171.46388691 63.22119141 160.40844727 C32.5320055 141.87012325 -3.95323337 148.1922168 -28.35693359 173.68579102 Z M151.95556641 351.43579102 C146.44736761 358.72176825 143.43053504 366.86317608 144.16650391 376.07641602 C145.63879399 386.02131882 149.92663264 394.2288076 157.95556641 400.43579102 C167.05414887 405.85562563 176.11075017 408.40261457 186.68212891 405.75219727 C197.38761683 401.75835425 203.66175782 395.45630139 208.99072266 385.50219727 C212.34794685 377.99138407 211.90369973 369.54768441 209.51806641 361.81079102 C205.47266082 352.04261655 198.40958765 345.75717646 188.86962891 341.49438477 C175.59522357 336.67218122 161.47086218 341.31708624 151.95556641 351.43579102 Z " fill="#FED05A" transform="translate(203.04443359375,7.564208984375)"/>
<path d="M0 0 C0.71636627 -0.00428513 1.43273254 -0.00857025 2.17080688 -0.01298523 C3.6854751 -0.01872394 5.20017088 -0.01923215 6.71484375 -0.01489258 C9.02392057 -0.01173943 11.3317072 -0.03517144 13.640625 -0.06054688 C15.11458172 -0.06282073 16.58854188 -0.06352296 18.0625 -0.0625 C18.74911713 -0.07170975 19.43573425 -0.08091949 20.14315796 -0.09040833 C24.4882759 -0.04881007 27.22687648 0.61434388 30.6640625 3.30078125 C32.06966386 5.60978309 33.28679466 7.82805588 34.4765625 10.23828125 C37.71725726 16.26487652 40.09112041 19.30217935 46.6640625 21.30078125 C47.77652344 21.73777344 48.88898438 22.17476563 50.03515625 22.625 C57.33253219 25.4435632 63.77329579 27.7858266 71.5390625 25.30078125 C81.75269442 22.63892737 81.75269442 22.63892737 86.484375 25.33984375 C88.69385074 27.2049856 90.65524918 29.21839674 92.6640625 31.30078125 C93.91664544 32.53652101 95.17212291 33.76933023 96.4296875 35 C99.1200544 37.64699461 101.80559795 40.29825721 104.46875 42.97265625 C105.03577637 43.54081055 105.60280273 44.10896484 106.18701172 44.69433594 C109.01853604 47.77391115 110.02638028 49.90182728 109.9375 54.0703125 C109.46094326 57.95765389 108.31914012 61.68118228 107.22265625 65.43359375 C105.55222959 74.00767187 111.22933241 86.12677363 115.6640625 93.30078125 C118.84129885 96.59025197 122.53741826 98.69717455 126.58984375 100.7421875 C131.08659062 103.02198674 131.08659062 103.02198674 132.6640625 105.30078125 C132.9867937 108.19466687 133.13208611 110.86905393 133.1328125 113.765625 C133.14042603 114.59534317 133.14803955 115.42506134 133.15588379 116.27992249 C133.1666855 118.03415926 133.16953759 119.78846035 133.16503906 121.54272461 C133.16406712 124.22553909 133.205675 126.90548958 133.25 129.58789062 C133.2552074 131.29296279 133.25789519 132.99804489 133.2578125 134.703125 C133.27420776 135.50427231 133.29060303 136.30541962 133.30749512 137.13084412 C133.2587585 141.06313518 133.08505585 142.86697921 130.296875 145.73999023 C127.6037219 147.33655253 124.89693056 148.89813871 122.1640625 150.42578125 C116.21110021 154.19226678 114.13914162 157.86015565 111.6640625 164.30078125 C111.16648437 165.29207031 110.66890625 166.28335938 110.15625 167.3046875 C106.45923979 175.19228782 106.63278542 180.69821524 108.83203125 188.890625 C110.2857093 194.84865755 110.2857093 194.84865755 109.6640625 198.30078125 C107.63665936 201.26778958 105.18766532 203.75267177 102.6640625 206.30078125 C101.95813965 207.03151855 101.2522168 207.76225586 100.52490234 208.51513672 C98.32067376 210.7772809 96.09073709 213.01075892 93.8515625 215.23828125 C93.08908203 216.00462891 92.32660156 216.77097656 91.54101562 217.56054688 C90.81205078 218.28822266 90.08308594 219.01589844 89.33203125 219.765625 C88.67485107 220.42167725 88.0176709 221.07772949 87.34057617 221.75366211 C85.37352236 223.5688973 84.37096856 224.31876516 81.66796875 224.25 C80.45947266 224.12044922 80.45947266 224.12044922 79.2265625 223.98828125 C78.44410156 223.90964844 77.66164063 223.83101562 76.85546875 223.75 C73.6640625 223.30078125 73.6640625 223.30078125 71.25830078 222.67919922 C63.57534196 220.83961753 58.57804461 221.9100905 51.4140625 225.05078125 C50.44549316 225.46110596 49.47692383 225.87143066 48.47900391 226.29418945 C41.24777318 229.56711005 36.99694493 232.96346546 33.6640625 240.30078125 C32.89500274 241.50304555 32.10637895 242.69328715 31.2890625 243.86328125 C30.4846875 245.06984375 30.4846875 245.06984375 29.6640625 246.30078125 C26.80610342 249.15874033 16.66903629 247.66942736 12.62792969 247.70581055 C10.82565124 247.72737433 9.02347707 247.76145844 7.22167969 247.80834961 C4.62387306 247.87536978 2.02823684 247.90281278 -0.5703125 247.921875 C-1.37257263 247.94970566 -2.17483276 247.97753632 -3.00140381 248.00621033 C-8.47611734 247.98614963 -8.47611734 247.98614963 -10.94654846 246.01695251 C-13.56752921 242.95560628 -15.13011301 239.62514693 -16.7734375 235.98828125 C-20.55006171 229.89208962 -25.69081264 227.67847549 -32.0859375 224.98828125 C-33.01462646 224.58504639 -33.94331543 224.18181152 -34.90014648 223.76635742 C-41.99368198 221.02844727 -47.07228095 221.32132778 -54.3359375 223.30078125 C-63.45457141 225.4296009 -63.45457141 225.4296009 -67.7578125 222.84765625 C-69.91610443 220.94328102 -71.91819933 218.96613785 -73.87304688 216.85449219 C-75.5509133 215.07245915 -77.28843136 213.36290449 -79.0390625 211.65234375 C-81.54694124 209.19384392 -84.05024198 206.73173876 -86.52734375 204.2421875 C-87.04498291 203.72342041 -87.56262207 203.20465332 -88.09594727 202.67016602 C-90.87975896 199.59586009 -90.53555026 196.68745413 -90.50390625 192.73828125 C-90.30217327 189.8108073 -89.66541437 187.20539646 -88.7734375 184.41796875 C-87.02421719 175.95299189 -90.28838913 169.03617609 -93.3359375 161.30078125 C-93.58859375 160.50800781 -93.84125 159.71523438 -94.1015625 158.8984375 C-96.42805465 152.64908359 -101.79348056 150.166197 -107.33984375 147.0625 C-111.81991089 144.42819716 -111.81991089 144.42819716 -113.3359375 142.30078125 C-113.7195403 139.51483072 -113.92293202 136.9556937 -113.98046875 134.16015625 C-113.99994064 133.35974915 -114.01941254 132.55934204 -114.03947449 131.73468018 C-114.07218387 130.04022503 -114.09599067 128.3455781 -114.11157227 126.65087891 C-114.14815114 124.07097806 -114.25398188 121.49966563 -114.36132812 118.921875 C-114.62949378 106.91285741 -114.62949378 106.91285741 -111.22802734 102.67382812 C-108.65821372 100.85916857 -106.20999513 99.56565287 -103.3359375 98.30078125 C-102.44366455 97.75389648 -101.5513916 97.20701172 -100.63208008 96.64355469 C-98.3359375 95.30078125 -98.3359375 95.30078125 -96.3359375 95.30078125 C-95.9646875 94.10453125 -95.5934375 92.90828125 -95.2109375 91.67578125 C-93.82196319 87.39423423 -91.99928466 83.43470602 -90.0859375 79.36328125 C-86.6005791 71.34868235 -87.27462233 66.21097168 -89.4609375 58.05078125 C-90.38695588 54.08213107 -90.4119243 52.18816828 -89.3359375 48.30078125 C-87.20629883 45.52416992 -87.20629883 45.52416992 -84.41796875 42.71875 C-83.92310471 42.21910233 -83.42824066 41.71945465 -82.91838074 41.20466614 C-81.87286694 40.15576272 -80.82106331 39.11309555 -79.76342773 38.07641602 C-78.15308069 36.49284723 -76.57115919 34.88436693 -74.99023438 33.27148438 C-73.96774506 32.25229932 -72.94370567 31.23466651 -71.91796875 30.21875 C-70.99218018 29.29860107 -70.0663916 28.37845215 -69.11254883 27.43041992 C-66.02595581 25.06302777 -64.18224465 24.51448336 -60.3359375 24.30078125 C-57.3359375 24.859375 -57.3359375 24.859375 -54.3359375 25.73828125 C-42.78214071 29.09309464 -34.0079397 24.81278485 -23.61425781 19.63134766 C-18.90127943 16.87891172 -16.58784224 13.12395177 -14.3359375 8.30078125 C-10.39487912 1.90809458 -7.57402448 -0.00999474 0 0 Z M-16.3359375 102.30078125 C-21.84413629 109.58675849 -24.86096887 117.72816631 -24.125 126.94140625 C-22.65270992 136.88630906 -18.36487127 145.09379784 -10.3359375 151.30078125 C-1.23735504 156.72061586 7.81924626 159.26760481 18.390625 156.6171875 C29.09611293 152.62334448 35.37025392 146.32129162 40.69921875 136.3671875 C44.05644294 128.85637431 43.61219582 120.41267464 41.2265625 112.67578125 C37.18115691 102.90760678 30.11808375 96.62216669 20.578125 92.359375 C7.30371966 87.53717145 -6.82064173 92.18207648 -16.3359375 102.30078125 Z " fill="#918290" transform="translate(371.3359375,256.69921875)"/>
<path d="M0 0 C0.85078125 0.68578125 1.7015625 1.3715625 2.578125 2.078125 C22.58233404 19.06283079 37.27925846 46.06723953 40.24658203 72.16903687 C40.64043661 77.17467878 40.67264261 82.16916832 40.625 87.1875 C40.62301605 87.94225616 40.6210321 88.69701233 40.61898804 89.47463989 C40.5460681 102.68567937 38.7104461 114.58412465 34 127 C33.76023437 127.65516602 33.52046875 128.31033203 33.2734375 128.98535156 C31.299119 134.31544419 28.98929646 139.16716047 26 144 C21.49315475 143.60356454 17.17128218 143.12277517 12.8125 141.875 C8.82360327 140.9595155 6.90191335 140.93108799 3 142 C0.21241729 144.0223597 0.21241729 144.0223597 -2.36328125 146.69921875 C-2.84073288 147.17188675 -3.31818451 147.64455475 -3.81010437 148.13154602 C-4.81192917 149.12998229 -5.80752339 150.13470532 -6.79711914 151.14526367 C-8.3082869 152.68321223 -9.8442867 154.19264799 -11.38476562 155.70117188 C-12.35837793 156.67808847 -13.33043793 157.65655509 -14.30078125 158.63671875 C-15.17903564 159.52061279 -16.05729004 160.40450684 -16.9621582 161.31518555 C-19.26388051 164.34765711 -19.77370113 166.23383242 -20 170 C-19.48902513 173.02413389 -19.48902513 173.02413389 -18.5625 176 C-17.35601644 180.15506446 -16.83879835 183.66689975 -17 188 C-17.64839844 188.25910156 -18.29679688 188.51820313 -18.96484375 188.78515625 C-20.61326703 189.44494987 -22.26123769 190.10589994 -23.90673828 190.77294922 C-53.51872555 202.74874011 -86.3150312 206.39194121 -116.38671875 193.79296875 C-145.68597651 180.87332444 -168.12869794 158.87527965 -179.91015625 128.92578125 C-180.44962891 127.47751953 -180.44962891 127.47751953 -181 126 C-181.36996094 125.02417969 -181.73992187 124.04835938 -182.12109375 123.04296875 C-186.38855255 111.11596853 -187.37097323 99.22431044 -187.3125 86.625 C-187.30686035 85.34858643 -187.3012207 84.07217285 -187.29541016 82.75708008 C-186.89768516 51.92157947 -172.99977136 25.36937298 -151.38208008 3.9621582 C-138.17600637 -8.68869451 -121.48618024 -17.80725356 -104 -23 C-102.42025391 -23.47953125 -102.42025391 -23.47953125 -100.80859375 -23.96875 C-65.60030138 -32.78102248 -27.65977544 -22.65913808 0 0 Z M-127.3125 40.25 C-139.88899304 55.32583838 -146.14140169 74.2478287 -144.79882812 93.83569336 C-142.9408812 113.04290956 -133.24690396 130.58755077 -118.609375 143.0546875 C-102.67700574 154.93241189 -84.06438851 161.10034906 -64.17578125 158.5 C-44.54480188 155.39640875 -27.60395227 145.88951489 -15.625 129.8125 C-4.1933331 113.34987294 0.35370548 94.32081695 -3.1875 74.5625 C-7.5164189 54.68974208 -18.60791395 38.02809589 -35.734375 26.97265625 C-66.4235609 8.43433223 -102.90879977 14.75642578 -127.3125 40.25 Z " fill="#E0A632" transform="translate(302,141)"/>
<path d="M0 0 C13.00860604 10.1214501 22.272019 24.42832408 24.91015625 40.84765625 C26.62362875 59.86667265 24.01665244 76.20020733 11.84375 91.43359375 C1.46092803 103.45961015 -12.62010086 113.45821355 -28.85424805 115.1328125 C-31.73148317 115.24833012 -34.58566249 115.26467933 -37.46484375 115.22265625 C-38.47853027 115.21177979 -39.4922168 115.20090332 -40.53662109 115.18969727 C-58.05851634 114.81650146 -72.48541011 108.15667347 -85.08984375 95.84765625 C-98.19107822 80.72209909 -103.41556405 63.84588975 -102.296875 44.125 C-100.80223759 27.68398847 -91.82214572 13.88315023 -80.08984375 2.84765625 C-56.61480788 -16.53703246 -24.88647878 -17.33558762 0 0 Z M-64.08984375 29.84765625 C-69.59804254 37.13363349 -72.61487512 45.27504131 -71.87890625 54.48828125 C-70.40661617 64.43318406 -66.11877752 72.64067284 -58.08984375 78.84765625 C-48.99126129 84.26749086 -39.93465999 86.81447981 -29.36328125 84.1640625 C-18.65779332 80.17021948 -12.38365233 73.86816662 -7.0546875 63.9140625 C-3.69746331 56.40324931 -4.14171043 47.95954964 -6.52734375 40.22265625 C-10.57274934 30.45448178 -17.6358225 24.16904169 -27.17578125 19.90625 C-40.45018659 15.08404645 -54.57454798 19.72895148 -64.08984375 29.84765625 Z " fill="#7A6D79" transform="translate(419.08984375,329.15234375)"/>
<path d="M0 0 C2.67390664 2.32892552 5.16558191 4.76590037 7.6469574 7.29910278 C8.56645676 8.20999161 9.48595612 9.12088043 10.43331909 10.05937195 C12.37179996 11.98462819 14.29318323 13.92510178 16.20384216 15.87796021 C18.64515407 18.3705589 21.12468154 20.82053656 23.61850071 23.26046658 C26.00426573 25.60574515 28.35500136 27.98489032 30.7094574 30.36160278 C32.04515526 31.66997353 32.04515526 31.66997353 33.40783691 33.004776 C40.11307215 39.94432828 40.11307215 39.94432828 40.21922302 45.15994263 C39.97521973 47.38264465 39.97521973 47.38264465 39.58055115 49.42800903 C39.39355652 50.52137573 39.20656189 51.61474243 39.01390076 52.74124146 C38.75616882 53.74517944 38.49843689 54.74911743 38.2328949 55.78347778 C37.95768005 56.90045044 37.68246521 58.0174231 37.39891052 59.16824341 C36.80862059 61.47835811 36.21746588 63.78825201 35.62547302 66.09793091 C35.35154724 67.21103638 35.07762146 68.32414185 34.7953949 69.47097778 C34.53879089 70.47153198 34.28218689 71.47208618 34.01780701 72.50296021 C33.0093431 79.2491389 35.79869927 84.80875033 38.3969574 90.87722778 C38.77287521 91.77166092 39.14879303 92.66609406 39.53610229 93.58763123 C40.73233967 96.43286687 41.93681848 99.27449784 43.14305115 102.11550903 C44.35245271 104.96739081 45.55988766 107.820017 46.76071167 110.67552185 C47.50678003 112.44948435 48.25781747 114.22136683 49.01428223 115.99092102 C49.35140732 116.79217911 49.68853241 117.59343719 50.03587341 118.41897583 C50.33486038 119.12257736 50.63384735 119.82617889 50.94189453 120.55110168 C51.58055115 122.42800903 51.58055115 122.42800903 51.58055115 125.42800903 C52.30959656 125.70346558 53.03864197 125.97892212 53.78977966 126.26272583 C58.29011004 128.14183325 62.34738186 130.72838704 66.51805115 133.24050903 C67.83966248 134.02264771 67.83966248 134.02264771 69.18797302 134.82058716 C81.45778329 142.18247332 81.45778329 142.18247332 83.58055115 146.42800903 C83.68179716 148.28574564 83.71894043 150.14711808 83.72581482 152.00759888 C83.73219467 153.17576141 83.73857452 154.34392395 83.74514771 155.54748535 C83.74626053 156.81516754 83.74737335 158.08284973 83.7485199 159.38894653 C83.7535125 161.33482162 83.7535125 161.33482162 83.75860596 163.32000732 C83.76459817 166.06890698 83.7664458 168.81777518 83.76585388 171.56668091 C83.76575234 175.08626179 83.77939522 178.60564056 83.79662609 182.12517357 C83.81043213 185.48393434 83.80983524 188.84265774 83.8110199 192.20144653 C83.81820541 193.46508026 83.82539093 194.72871399 83.83279419 196.03063965 C83.82971756 197.20510651 83.82664093 198.37957336 83.82347107 199.58963013 C83.82489609 200.62284393 83.82632111 201.65605774 83.82778931 202.72058105 C83.57404058 205.49930425 83.08655099 207.09970316 81.58055115 209.42800903 C79.32151794 211.11965942 79.32151794 211.11965942 76.5297699 212.77566528 C75.52107849 213.38088013 74.51238708 213.98609497 73.47312927 214.60964966 C72.41545349 215.23033325 71.35777771 215.85101685 70.26805115 216.49050903 C69.22197693 217.11505981 68.17590271 217.7396106 67.09812927 218.38308716 C65.1440681 219.5485584 63.18753645 220.70990469 61.22776794 221.86575317 C59.42875134 222.92744341 57.64795155 224.02049103 55.88475037 225.14065552 C53.58055115 226.42800903 53.58055115 226.42800903 51.2641449 226.24050903 C46.46734252 224.50531791 43.15922074 223.1164992 40.58055115 218.42800903 C41.94005254 214.34950485 43.86100537 213.89634594 47.58055115 211.86550903 C51.79242975 209.85877002 51.79242975 209.85877002 54.58055115 206.42800903 C54.71254592 204.52040752 54.7815575 202.60831896 54.82102966 200.69656372 C54.85964867 198.89394073 54.85964867 198.89394073 54.89904785 197.05490112 C54.98310625 191.55159191 55.04911442 186.04845794 55.09544373 180.54470825 C55.12218075 177.63996222 55.17089159 174.73685927 55.23899841 171.83279419 C55.32110727 168.3224771 55.36364939 164.81372306 55.37850761 161.30249786 C55.39665683 159.32021225 55.4542867 157.33841471 55.51257324 155.35690308 C55.66528946 148.92001401 55.66528946 148.92001401 52.92935181 143.35209656 C50.88506441 141.78524295 48.87618237 140.58844171 46.58055115 139.42800903 C45.66040222 138.83560425 44.7402533 138.24319946 43.79222107 137.63284302 C42.97342468 137.15145874 42.1546283 136.67007446 41.3110199 136.17410278 C40.40287537 135.62947388 39.49473083 135.08484497 38.55906677 134.52371216 C36.68223003 133.4086426 34.80194727 132.29935494 32.91844177 131.19558716 C32.01674255 130.65224731 31.11504333 130.10890747 30.1860199 129.54910278 C28.96628479 128.82871826 28.96628479 128.82871826 27.72190857 128.09378052 C22.9544754 124.385173 21.13150744 118.30023164 18.8578949 112.87332153 C18.3386721 111.64366165 18.3386721 111.64366165 17.80895996 110.38916016 C17.08014983 108.66022374 16.35325357 106.93047947 15.62815857 105.19998169 C14.52369676 102.56647059 13.41095413 99.93657053 12.29734802 97.30691528 C11.58786115 95.62092874 10.8788607 93.9347374 10.1703949 92.24832153 C9.6750248 91.07923752 9.6750248 91.07923752 9.16964722 89.88653564 C3.87605978 77.20022839 3.87605978 77.20022839 5.91648865 69.86550903 C6.23875427 68.65636841 6.5610199 67.44722778 6.89305115 66.20144653 C7.24367615 64.95621216 7.59430115 63.71097778 7.95555115 62.42800903 C8.63764622 59.95092692 9.31237274 57.47180159 9.97898865 54.99050903 C10.28497986 53.8986731 10.59097107 52.80683716 10.90623474 51.68191528 C11.96425223 46.58828041 11.96425223 46.58828041 11.58055115 41.42800903 C9.24455529 38.15265314 6.40004798 35.48159127 3.48680115 32.72097778 C2.66554749 31.9143721 1.84429382 31.10776642 0.99815369 30.27671814 C-1.62501979 27.70592278 -4.270858 25.16008756 -6.91944885 22.61550903 C-9.56354298 20.04887204 -12.20267672 17.47735283 -14.83705139 14.90074158 C-16.47748883 13.29911839 -18.12441993 11.70411551 -19.7782135 10.11628723 C-20.51898132 9.39826431 -21.25974915 8.68024139 -22.02296448 7.94046021 C-22.6802655 7.30871384 -23.33756653 6.67696747 -24.01478577 6.02607727 C-25.41944885 4.42800903 -25.41944885 4.42800903 -25.41944885 2.42800903 C-23.27849712 1.74582811 -21.13135469 1.08306605 -18.98194885 0.42800903 C-17.78698792 0.05675903 -16.59202698 -0.31449097 -15.3608551 -0.69699097 C-4.95229603 -3.21766034 -4.95229603 -3.21766034 0 0 Z " fill="#EFBA43" transform="translate(366.41944885253906,52.571990966796875)"/>
<path d="M0 0 C2.19461164 1.87356583 4.15944362 3.8868073 6.1640625 5.96484375 C7.41664544 7.20058351 8.67212291 8.43339273 9.9296875 9.6640625 C12.6200544 12.31105711 15.30559795 14.96231971 17.96875 17.63671875 C18.53577637 18.20487305 19.10280273 18.77302734 19.68701172 19.35839844 C22.51853604 22.43797365 23.52638028 24.56588978 23.4375 28.734375 C22.96094326 32.62171639 21.81914012 36.34524478 20.72265625 40.09765625 C19.05222959 48.67173437 24.72933241 60.79083613 29.1640625 67.96484375 C32.34129885 71.25431447 36.03741826 73.36123705 40.08984375 75.40625 C44.58659062 77.68604924 44.58659062 77.68604924 46.1640625 79.96484375 C46.4867937 82.85872937 46.63208611 85.53311643 46.6328125 88.4296875 C46.64423279 89.67426476 46.64423279 89.67426476 46.65588379 90.94398499 C46.6666855 92.69822176 46.66953759 94.45252285 46.66503906 96.20678711 C46.66406712 98.88960159 46.705675 101.56955208 46.75 104.25195312 C46.7552074 105.95702529 46.75789519 107.66210739 46.7578125 109.3671875 C46.7824054 110.56890846 46.7824054 110.56890846 46.80749512 111.79490662 C46.7587585 115.72719768 46.58505585 117.53104171 43.796875 120.40405273 C41.1037219 122.00061503 38.39693056 123.56220121 35.6640625 125.08984375 C29.71110021 128.85632928 27.63914162 132.52421815 25.1640625 138.96484375 C24.66648437 139.95613281 24.16890625 140.94742188 23.65625 141.96875 C19.95923979 149.85635032 20.13278542 155.36227774 22.33203125 163.5546875 C23.7857093 169.51272005 23.7857093 169.51272005 23.1640625 172.96484375 C21.13665936 175.93185208 18.68766532 178.41673427 16.1640625 180.96484375 C15.45813965 181.69558105 14.7522168 182.42631836 14.02490234 183.17919922 C11.82067376 185.4413434 9.59073709 187.67482142 7.3515625 189.90234375 C6.58908203 190.66869141 5.82660156 191.43503906 5.04101562 192.22460938 C4.31205078 192.95228516 3.58308594 193.67996094 2.83203125 194.4296875 C2.17485107 195.08573975 1.5176709 195.74179199 0.84057617 196.41772461 C-1.25478996 198.35136887 -2.23947088 198.96893615 -5.11328125 198.94921875 C-5.99113281 198.871875 -6.86898438 198.79453125 -7.7734375 198.71484375 C-8.64871094 198.6478125 -9.52398437 198.58078125 -10.42578125 198.51171875 C-13.18612587 197.88538448 -13.96390734 196.99843685 -15.8359375 194.96484375 C-15.19978516 194.37058594 -14.56363281 193.77632812 -13.90820312 193.1640625 C-11.54377773 190.93647931 -9.19827809 188.69101361 -6.86376953 186.43212891 C-5.85234301 185.46078448 -4.83383265 184.49675815 -3.80810547 183.54052734 C2.12734572 178.3594365 2.12734572 178.3594365 5.85546875 171.67236328 C5.95806447 169.31974311 5.95806447 169.31974311 5.1640625 165.96484375 C5.0196875 165.05476562 4.8753125 164.1446875 4.7265625 163.20703125 C4.5409375 162.42585937 4.3553125 161.6446875 4.1640625 160.83984375 C1.5755266 149.87451805 5.65330563 140.23391015 10.57910156 130.44042969 C13.85308651 125.32671937 18.60653967 122.8982524 24.00390625 120.453125 C27.38477986 119.19321203 27.38477986 119.19321203 29.1640625 115.96484375 C29.34774635 113.31388889 29.42023608 110.77076227 29.39453125 108.12109375 C29.39407303 107.35559204 29.39361481 106.59009033 29.3931427 105.8013916 C29.39012392 104.18414763 29.38224875 102.56690647 29.36987305 100.94970703 C29.35163129 98.47417905 29.34936334 95.99902564 29.34960938 93.5234375 C29.34469331 91.95181968 29.33886461 90.3802044 29.33203125 88.80859375 C29.33091843 88.06790649 29.3298056 87.32721924 29.32865906 86.56408691 C29.29974051 83.43275857 29.16171159 80.95779102 28.1640625 77.96484375 C25.87608384 76.84996241 25.87608384 76.84996241 23.1640625 75.96484375 C15.17379596 72.90190824 11.68621992 68.98182024 8.18261719 61.35668945 C7.78461914 60.42300537 7.38662109 59.48932129 6.9765625 58.52734375 C6.59016602 57.62137451 6.20376953 56.71540527 5.80566406 55.78198242 C3.13835 49.01474851 2.08702114 43.66717343 4.1640625 36.52734375 C5.39129374 32.15533246 6.12926827 28.45344296 5.1640625 23.96484375 C3.33610544 20.80081625 0.78437417 18.48643096 -1.8359375 15.96484375 C-3.03242412 14.76287651 -4.2262045 13.55821218 -5.41796875 12.3515625 C-8.86837873 8.86644634 -12.34642985 5.41079305 -15.8359375 1.96484375 C-15.5059375 1.30484375 -15.1759375 0.64484375 -14.8359375 -0.03515625 C-10.11239763 -1.59597812 -4.49034513 -2.53179034 0 0 Z " fill="#7C6F79" transform="translate(457.8359375,282.03515625)"/>
<path d="M0 0 C4.03814395 -0.14886815 8.07521605 -0.25745089 12.11547852 -0.32958984 C13.4881575 -0.3596733 14.86064563 -0.40055334 16.23266602 -0.45263672 C27.85528479 -0.88263567 27.85528479 -0.88263567 31.96875 2.2890625 C32.68785588 3.50209425 33.3584213 4.74423885 34 6 C35.17935336 7.85166594 36.36341381 9.7003378 37.55078125 11.546875 C38.80983212 13.61145475 40.06362021 15.67925185 41.3125 17.75 C41.95767578 18.80316406 42.60285156 19.85632813 43.26757812 20.94140625 C48 28.74364253 48 28.74364253 48 31 C48.61410736 31.17255814 49.22821472 31.34511627 49.8609314 31.52290344 C55.85386621 33.25633466 61.55933609 35.33453264 67.2890625 37.79296875 C68.11836273 38.14386063 68.94766296 38.4947525 69.80209351 38.85627747 C72.41183036 39.96180961 75.01843761 41.07450704 77.625 42.1875 C79.4099529 42.94514071 81.19510752 43.70230637 82.98046875 44.45898438 C87.32265983 46.30051542 91.66206263 48.1484724 96 50 C93.39728645 52.60271355 91.31944201 52.85218537 87.75 53.6875 C86.63109375 53.95949219 85.5121875 54.23148438 84.359375 54.51171875 C77.52396674 55.50523739 72.03627693 52.9739185 65.8671875 50.359375 C64.99409943 49.99531555 64.12101135 49.6312561 63.22146606 49.25616455 C60.4367723 48.09340455 57.65586585 46.92188118 54.875 45.75 C53.02889121 44.97727809 51.18253918 44.20513703 49.3359375 43.43359375 C45.79550015 41.95412107 42.25865022 40.46649018 38.72363281 38.97412109 C35.87604103 37.77555765 33.02242096 36.6042143 30.14355469 35.48291016 C29.07782227 35.06315918 28.01208984 34.6434082 26.9140625 34.2109375 C25.58689209 33.70506104 25.58689209 33.70506104 24.23291016 33.18896484 C19.64446914 30.74574292 17.54134529 26.36470888 15 22 C13.47557178 19.54474027 11.93373133 17.10101678 10.38867188 14.65869141 C9.30920042 12.94845609 8.23737144 11.23336936 7.17382812 9.51318359 C6.67818359 8.71605957 6.18253906 7.91893555 5.671875 7.09765625 C5.2294043 6.38101807 4.78693359 5.66437988 4.33105469 4.92602539 C3.03655342 3.0528925 1.66118445 1.55013457 0 0 Z " fill="#EFBA43" transform="translate(231,8)"/>
<path d="M0 0 C1.94135082 2.83368431 2.75002703 5.58305174 3 9 C1.76823339 12.76118157 -0.27910666 15.80834351 -2.5 19.0625 C-3.04398437 19.90876953 -3.58796875 20.75503906 -4.1484375 21.62695312 C-5.22706411 23.30037264 -6.32062716 24.96426918 -7.4296875 26.61767578 C-9.31712042 29.48110402 -11.04566925 32.42524802 -12.74414062 35.40405273 C-14.35887767 37.45606207 -15.52944049 38.13316978 -18 39 C-21.02441406 39.22705078 -21.02441406 39.22705078 -24.515625 39.1953125 C-26.39121094 39.18564453 -26.39121094 39.18564453 -28.3046875 39.17578125 C-29.60664063 39.15902344 -30.90859375 39.14226562 -32.25 39.125 C-33.56742188 39.11597656 -34.88484375 39.10695313 -36.2421875 39.09765625 C-39.49497462 39.07408533 -42.74739589 39.04118022 -46 39 C-45 37 -45 37 -42 36 C-40.58710272 34.17193282 -40.58710272 34.17193282 -39.328125 31.87890625 C-38.83304443 31.03038086 -38.33796387 30.18185547 -37.82788086 29.30761719 C-37.30718018 28.40172852 -36.78647949 27.49583984 -36.25 26.5625 C-35.15349214 24.7245748 -34.0558485 22.8873267 -32.95703125 21.05078125 C-31.32838719 18.30247586 -29.78211884 15.57490319 -28.32421875 12.73046875 C-23.61294857 4.30326715 -14.68356989 1.66697856 -6.0871582 -1.65136719 C-3.33363945 -2.11130692 -2.25805188 -1.60671923 0 0 Z " fill="#EFBA43" transform="translate(276,411)"/>
<path d="M0 0 C0 0.66 0 1.32 0 2 C-0.59949463 2.22026855 -1.19898926 2.44053711 -1.81665039 2.66748047 C-17.78681042 8.25946096 -17.78681042 8.25946096 -28 21 C-28.77078443 22.20115933 -29.5595678 23.39119189 -30.375 24.5625 C-30.91125 25.366875 -31.4475 26.17125 -32 27 C-33 28 -33 28 -34.76586914 28.11352539 C-35.51473389 28.10828857 -36.26359863 28.10305176 -37.03515625 28.09765625 C-37.84404297 28.09443359 -38.65292969 28.09121094 -39.48632812 28.08789062 C-40.33646484 28.07951172 -41.18660156 28.07113281 -42.0625 28.0625 C-42.91650391 28.05798828 -43.77050781 28.05347656 -44.65039062 28.04882812 C-46.76695663 28.03700373 -48.88348685 28.01906769 -51 28 C-50.63648438 27.53851563 -50.27296875 27.07703125 -49.8984375 26.6015625 C-46.54666488 22.31224668 -46.54666488 22.31224668 -43.86328125 17.59594727 C-40.11134554 9.72358216 -34.43007561 7.03591818 -26.59667969 4.0637207 C-24.61970661 3.31048319 -22.6707366 2.50498568 -20.71875 1.68945312 C-13.52228146 -1.22669482 -7.37603182 -3.68801591 0 0 Z " fill="#7D6F79" transform="translate(433,476)"/>
<path d="M0 0 C2.58445773 -0.1081866 5.16437352 -0.18737237 7.75 -0.25 C8.47960937 -0.28351563 9.20921875 -0.31703125 9.9609375 -0.3515625 C13.34790929 -0.41314381 15.51486275 -0.33805209 18.33203125 1.625 C20.25986685 4.37002118 21.52193036 7.20994712 22.9375 10.25 C27.48750169 18.82230945 35.94399829 20.8724757 44.6875 23.70703125 C46.12312622 24.14422186 47.55992332 24.57769986 49 25 C49 25.99 49 26.98 49 28 C40.07057663 30.04430065 33.5085995 27.58040527 25.25 24.125 C24.05761719 23.67125 22.86523438 23.2175 21.63671875 22.75 C13.82801834 19.5567214 9.8474713 16.48697117 6 9 C5.37351562 8.06027344 4.74703125 7.12054688 4.1015625 6.15234375 C2.734375 4.1015625 1.3671875 2.05078125 0 0 Z " fill="#7B6E79" transform="translate(383,258)"/>
</svg>
