<?xml version="1.0" encoding="UTF-8"?>
<svg version="1.1" xmlns="http://www.w3.org/2000/svg" width="850" height="840">
<path d="M0 0 C0.97087523 -0.00436032 1.94175047 -0.00872064 2.94204617 -0.0132131 C6.20877866 -0.02419739 9.47509158 -0.0137323 12.74182129 -0.00342751 C15.10211148 -0.0068828 17.46240006 -0.0116465 19.82268524 -0.01760924 C24.96133734 -0.02754165 30.09990353 -0.02811367 35.23855591 -0.02046776 C42.87985193 -0.00912896 50.52106806 -0.014917 58.16236353 -0.02409268 C71.80899697 -0.03989928 85.45558832 -0.038517 99.10222578 -0.02985594 C111.04451409 -0.02231365 122.98678695 -0.02033713 134.92907715 -0.02392387 C136.11663791 -0.02426761 136.11663791 -0.02426761 137.32818979 -0.02461828 C140.54186833 -0.02555228 143.75554686 -0.02650747 146.96922538 -0.02749758 C177.125057 -0.03667762 207.28086178 -0.02834937 237.43668926 -0.01220688 C264.23698202 0.00203027 291.03723202 0.0007564 317.83752441 -0.01358986 C347.93768215 -0.02964863 378.03781617 -0.03602661 408.1379776 -0.02675307 C411.34585062 -0.02579089 414.55372365 -0.02485238 417.76159668 -0.02392387 C418.55147521 -0.02368664 419.34135375 -0.02344941 420.155168 -0.02320499 C432.09087859 -0.01979045 444.02657205 -0.02378734 455.96228027 -0.03136253 C469.5317146 -0.03993158 483.10110018 -0.03781449 496.67052841 -0.0215203 C504.26783818 -0.01269875 511.86504243 -0.01215463 519.4623495 -0.02345882 C525.12823712 -0.03096054 530.79401507 -0.02284868 536.4598856 -0.0085351 C538.75723892 -0.00517194 541.05460629 -0.00691557 543.35195065 -0.01416247 C546.46506245 -0.02323265 549.57759281 -0.01398124 552.69067383 0 C553.59088225 -0.0070235 554.49109068 -0.014047 555.41857815 -0.02128333 C561.89526684 0.03719222 566.01991873 1.3765822 571.03283691 5.69002342 C576.13953772 11.62483787 576.78158488 16.50540614 576.72286034 24.03218651 C576.72940082 25.48849936 576.72940082 25.48849936 576.73607343 26.97423267 C576.74705773 30.24096517 576.73659263 33.50727809 576.72628784 36.7740078 C576.72974314 39.13429799 576.73450683 41.49458656 576.74046957 43.85487175 C576.75040198 48.99352385 576.75097401 54.13209004 576.74332809 59.27074242 C576.73198929 66.91203843 576.73777734 74.55325457 576.74695302 82.19455004 C576.76275962 95.84118348 576.76137734 109.48777483 576.75271628 123.13441229 C576.74517399 135.0767006 576.74319746 147.01897346 576.74678421 158.96126366 C576.74712794 160.14882441 576.74712794 160.14882441 576.74747862 161.3603763 C576.74841261 164.57405484 576.74936781 167.78773336 576.75035791 171.00141189 C576.75953795 201.15724351 576.75120971 231.31304829 576.73506722 261.46887577 C576.72083007 288.26916853 576.72210394 315.06941853 576.7364502 341.86971092 C576.75250896 371.96986866 576.75888695 402.07000268 576.7496134 432.17016411 C576.74865123 435.37803713 576.74771271 438.58591016 576.74678421 441.79378319 C576.74642836 442.97860099 576.74642836 442.97860099 576.74606533 444.18735451 C576.74265079 456.1230651 576.74664768 468.05875856 576.75422287 479.99446678 C576.76279192 493.56390111 576.76067482 507.13328669 576.74438064 520.70271492 C576.73555909 528.30002469 576.73501496 535.89722894 576.74631916 543.49453601 C576.75382088 549.16042363 576.74570901 554.82620158 576.73139544 560.49207211 C576.72803228 562.78942543 576.72977591 565.0867928 576.7370228 567.38413715 C576.74609299 570.49724896 576.73684157 573.60977931 576.72286034 576.72286034 C576.72988383 577.62306876 576.73690733 578.52327719 576.74414366 579.45076466 C576.68566812 585.92745334 575.34627814 590.05210524 571.03283691 595.06502342 C565.09802247 600.17172423 560.2174542 600.81377139 552.69067383 600.75504684 C551.23436098 600.76158733 551.23436098 600.76158733 549.74862766 600.76825994 C546.48189517 600.77924424 543.21558225 600.76877914 539.94885254 600.75847435 C537.58856235 600.76192964 535.22827377 600.76669334 532.86798859 600.77265608 C527.72933649 600.78258849 522.59077029 600.78316051 517.45211792 600.7755146 C509.8108219 600.7641758 502.16960576 600.76996385 494.5283103 600.77913952 C480.88167685 600.79494612 467.23508551 600.79356385 453.58844805 600.78490279 C441.64615974 600.77736049 429.70388688 600.77538397 417.76159668 600.77897072 C416.96988951 600.77919987 416.17818234 600.77942903 415.36248404 600.77966513 C412.1488055 600.78059912 408.93512697 600.78155432 405.72144845 600.78254442 C375.56561683 600.79172446 345.40981205 600.78339621 315.25398457 600.76725373 C288.45369181 600.75301658 261.6534418 600.75429044 234.85314941 600.7686367 C204.75299168 600.78469547 174.65285766 600.79107346 144.55269623 600.78179991 C141.34482321 600.78083774 138.13695018 600.77989922 134.92907715 600.77897072 C134.13919861 600.77873349 133.34932008 600.77849625 132.53550583 600.77825183 C120.59979524 600.7748373 108.66410178 600.77883419 96.72839355 600.78640938 C83.15895923 600.79497842 69.58957365 600.79286133 56.02014542 600.77656715 C48.42283565 600.7677456 40.82563139 600.76720147 33.22832432 600.77850567 C27.56243671 600.78600738 21.89665876 600.77789552 16.23078823 600.76358195 C13.93343491 600.76021879 11.63606753 600.76196241 9.33872318 600.76920931 C6.22561137 600.7782795 3.11308102 600.76902808 0 600.75504684 C-1.35031264 600.76558209 -1.35031264 600.76558209 -2.72790432 600.77633017 C-9.20459301 600.71785463 -13.3292449 599.37846465 -18.34216309 595.06502342 C-23.44886389 589.13020897 -24.09091105 584.24964071 -24.03218651 576.72286034 C-24.03654683 575.7519851 -24.04090715 574.78110987 -24.04539961 573.78081417 C-24.0563839 570.51408167 -24.0459188 567.24776876 -24.03561401 563.98103905 C-24.03906931 561.62074886 -24.04383301 559.26046028 -24.04979575 556.90017509 C-24.05972816 551.76152299 -24.06030018 546.6229568 -24.05265427 541.48430443 C-24.04131547 533.84300841 -24.04710351 526.20179227 -24.05627919 518.56049681 C-24.07208579 504.91386336 -24.07070351 491.26727202 -24.06204245 477.62063456 C-24.05450016 465.67834625 -24.05252364 453.73607339 -24.05611038 441.79378319 C-24.05633954 441.00207602 -24.05656869 440.21036884 -24.05680479 439.39467055 C-24.05773878 436.18099201 -24.05869398 432.96731348 -24.05968408 429.75363496 C-24.06886412 399.59780334 -24.06053588 369.44199856 -24.04439339 339.28617108 C-24.03015624 312.48587832 -24.03143011 285.68562831 -24.04577637 258.88533592 C-24.06183514 228.78517818 -24.06821312 198.68504416 -24.05893958 168.58488274 C-24.0579774 165.37700972 -24.05703888 162.16913669 -24.05611038 158.96126366 C-24.05587315 158.17138512 -24.05563592 157.38150659 -24.0553915 156.56769234 C-24.05197696 144.63198175 -24.05597385 132.69628828 -24.06354904 120.76058006 C-24.07211809 107.19114574 -24.070001 93.62176016 -24.05370681 80.05233192 C-24.04488526 72.45502216 -24.04434114 64.8578179 -24.05564533 57.26051083 C-24.06314705 51.59462322 -24.05503518 45.92884527 -24.04072161 40.26297474 C-24.03735845 37.96562142 -24.03910208 35.66825404 -24.04634897 33.37090969 C-24.05541916 30.25779788 -24.04616775 27.14526753 -24.03218651 24.03218651 C-24.03921001 23.13197808 -24.04623351 22.23176966 -24.05346984 21.30428219 C-23.99499429 14.8275935 -22.65560431 10.7029416 -18.34216309 5.69002342 C-12.40734864 0.58332262 -7.52678037 -0.05872454 0 0 Z " fill="#F4F4FA" transform="translate(153.6546630859375,119.62247657775879)"/>
<path d="M0 0 C1.07078387 -0.00467997 2.14156775 -0.00935994 3.24479961 -0.01418173 C6.83300344 -0.0261482 10.42082653 -0.01666773 14.0090332 -0.00723267 C16.58143334 -0.01129762 19.15383173 -0.01663906 21.72622681 -0.02316284 C27.98796463 -0.03649652 34.24959453 -0.0336241 40.51133657 -0.02492492 C45.60077757 -0.01814733 50.69018834 -0.01723197 55.77963257 -0.02049637 C56.50423194 -0.02095607 57.2288313 -0.02141577 57.97538823 -0.0218894 C59.44743865 -0.02284858 60.91948905 -0.02382122 62.39153945 -0.02480717 C76.19210072 -0.03335999 89.99260219 -0.02352864 103.79315364 -0.00740607 C115.63239605 0.00599702 127.4715502 0.0036689 139.31079102 -0.01016235 C153.06226587 -0.02622008 166.81368832 -0.03253603 180.56517124 -0.02332556 C182.0317796 -0.02236992 183.49838796 -0.02142681 184.96499634 -0.02049637 C186.04737037 -0.01980213 186.04737037 -0.01980213 187.15161055 -0.01909386 C192.23441781 -0.01650455 197.3171918 -0.0208737 202.3999939 -0.02793503 C209.2421414 -0.03723167 216.0841194 -0.03060439 222.92625046 -0.01325226 C225.43932188 -0.00928106 227.95240731 -0.01043223 230.46547318 -0.01704025 C233.89204885 -0.02522049 237.31808757 -0.01497605 240.74462891 0 C241.74248759 -0.00669217 242.74034628 -0.01338433 243.76844311 -0.02027929 C250.54735762 0.0373093 254.79980899 1.16739971 260.05981445 5.69345093 C265.67982877 12.22481892 265.81700722 17.84642507 265.77075195 26.13095093 C265.77362213 27.26242554 265.77649231 28.39390015 265.77944946 29.55966187 C265.78148669 31.94671124 265.77598082 34.33377744 265.76342773 36.72079468 C265.7473701 40.3683109 265.76328896 44.01471904 265.7824707 47.66220093 C265.78048821 49.98512003 265.77664442 52.30803845 265.77075195 54.63095093 C265.77682465 55.71859741 265.78289734 56.8062439 265.78915405 57.92684937 C265.72306616 65.06405978 264.83184459 69.52257807 260.05981445 75.06845093 C253.83209141 80.42718936 248.63897171 80.81484547 240.74462891 80.76190186 C239.67384503 80.76658183 238.60306116 80.7712618 237.49982929 80.77608359 C233.91162546 80.78805006 230.32380238 80.77856959 226.7355957 80.76913452 C224.16319557 80.77319947 221.59079718 80.77854092 219.0184021 80.7850647 C212.75666427 80.79839837 206.49503438 80.79552595 200.23329234 80.78682677 C195.14385134 80.78004919 190.05444056 80.77913383 184.96499634 80.78239822 C184.24039697 80.78285792 183.5157976 80.78331762 182.76924068 80.78379125 C181.29719026 80.78475044 179.82513985 80.78572308 178.35308945 80.78670903 C164.55252819 80.79526185 150.75202672 80.78543049 136.95147526 80.76930793 C125.11223286 80.75590483 113.2730787 80.75823296 101.43383789 80.77206421 C87.68236304 80.78812194 73.93094058 80.79443788 60.17945766 80.78522742 C58.71284931 80.78427178 57.24624094 80.78332867 55.77963257 80.78239822 C55.05804988 80.7819354 54.33646719 80.78147257 53.59301835 80.78099572 C48.5102111 80.77840641 43.42743711 80.78277556 38.34463501 80.78983688 C31.50248751 80.79913353 24.66050951 80.79250625 17.81837845 80.77515411 C15.30530703 80.77118292 12.7922216 80.77233409 10.27915573 80.77894211 C6.85258005 80.78712235 3.42654134 80.77687791 0 80.76190186 C-0.99785869 80.76859402 -1.99571737 80.77528619 -3.0238142 80.78218114 C-9.80272871 80.72459255 -14.05518008 79.59450214 -19.31518555 75.06845093 C-24.93519987 68.53708293 -25.07237832 62.91547679 -25.02612305 54.63095093 C-25.02899323 53.49947632 -25.0318634 52.36800171 -25.03482056 51.20223999 C-25.03685778 48.81519061 -25.03135191 46.42812442 -25.01879883 44.04110718 C-25.00274119 40.39359095 -25.01866006 36.74718281 -25.0378418 33.09970093 C-25.03585931 30.77678182 -25.03201551 28.45386341 -25.02612305 26.13095093 C-25.03219574 25.04330444 -25.03826843 23.95565796 -25.04452515 22.83505249 C-24.97843726 15.69784207 -24.08721568 11.23932379 -19.31518555 5.69345093 C-13.08746251 0.3347125 -7.8943428 -0.05294361 0 0 Z " fill="#F4F4FA" transform="translate(464.627685546875,759.6190490722656)"/>
<path d="M0 0 C1.07078387 -0.00467997 2.14156775 -0.00935994 3.24479961 -0.01418173 C6.83300344 -0.0261482 10.42082653 -0.01666773 14.0090332 -0.00723267 C16.58143334 -0.01129762 19.15383173 -0.01663906 21.72622681 -0.02316284 C27.98796463 -0.03649652 34.24959453 -0.0336241 40.51133657 -0.02492492 C45.60077757 -0.01814733 50.69018834 -0.01723197 55.77963257 -0.02049637 C56.50423194 -0.02095607 57.2288313 -0.02141577 57.97538823 -0.0218894 C59.44743865 -0.02284858 60.91948905 -0.02382122 62.39153945 -0.02480717 C76.19210072 -0.03335999 89.99260219 -0.02352864 103.79315364 -0.00740607 C115.63239605 0.00599702 127.4715502 0.0036689 139.31079102 -0.01016235 C153.06226587 -0.02622008 166.81368832 -0.03253603 180.56517124 -0.02332556 C182.0317796 -0.02236992 183.49838796 -0.02142681 184.96499634 -0.02049637 C186.04737037 -0.01980213 186.04737037 -0.01980213 187.15161055 -0.01909386 C192.23441781 -0.01650455 197.3171918 -0.0208737 202.3999939 -0.02793503 C209.2421414 -0.03723167 216.0841194 -0.03060439 222.92625046 -0.01325226 C225.43932188 -0.00928106 227.95240731 -0.01043223 230.46547318 -0.01704025 C233.89204885 -0.02522049 237.31808757 -0.01497605 240.74462891 0 C241.74248759 -0.00669217 242.74034628 -0.01338433 243.76844311 -0.02027929 C250.54735762 0.0373093 254.79980899 1.16739971 260.05981445 5.69345093 C265.67982877 12.22481892 265.81700722 17.84642507 265.77075195 26.13095093 C265.77362213 27.26242554 265.77649231 28.39390015 265.77944946 29.55966187 C265.78148669 31.94671124 265.77598082 34.33377744 265.76342773 36.72079468 C265.7473701 40.3683109 265.76328896 44.01471904 265.7824707 47.66220093 C265.78048821 49.98512003 265.77664442 52.30803845 265.77075195 54.63095093 C265.77682465 55.71859741 265.78289734 56.8062439 265.78915405 57.92684937 C265.72306616 65.06405978 264.83184459 69.52257807 260.05981445 75.06845093 C253.83209141 80.42718936 248.63897171 80.81484547 240.74462891 80.76190186 C239.67384503 80.76658183 238.60306116 80.7712618 237.49982929 80.77608359 C233.91162546 80.78805006 230.32380238 80.77856959 226.7355957 80.76913452 C224.16319557 80.77319947 221.59079718 80.77854092 219.0184021 80.7850647 C212.75666427 80.79839837 206.49503438 80.79552595 200.23329234 80.78682677 C195.14385134 80.78004919 190.05444056 80.77913383 184.96499634 80.78239822 C184.24039697 80.78285792 183.5157976 80.78331762 182.76924068 80.78379125 C181.29719026 80.78475044 179.82513985 80.78572308 178.35308945 80.78670903 C164.55252819 80.79526185 150.75202672 80.78543049 136.95147526 80.76930793 C125.11223286 80.75590483 113.2730787 80.75823296 101.43383789 80.77206421 C87.68236304 80.78812194 73.93094058 80.79443788 60.17945766 80.78522742 C58.71284931 80.78427178 57.24624094 80.78332867 55.77963257 80.78239822 C55.05804988 80.7819354 54.33646719 80.78147257 53.59301835 80.78099572 C48.5102111 80.77840641 43.42743711 80.78277556 38.34463501 80.78983688 C31.50248751 80.79913353 24.66050951 80.79250625 17.81837845 80.77515411 C15.30530703 80.77118292 12.7922216 80.77233409 10.27915573 80.77894211 C6.85258005 80.78712235 3.42654134 80.77687791 0 80.76190186 C-0.99785869 80.76859402 -1.99571737 80.77528619 -3.0238142 80.78218114 C-9.80272871 80.72459255 -14.05518008 79.59450214 -19.31518555 75.06845093 C-24.93519987 68.53708293 -25.07237832 62.91547679 -25.02612305 54.63095093 C-25.02899323 53.49947632 -25.0318634 52.36800171 -25.03482056 51.20223999 C-25.03685778 48.81519061 -25.03135191 46.42812442 -25.01879883 44.04110718 C-25.00274119 40.39359095 -25.01866006 36.74718281 -25.0378418 33.09970093 C-25.03585931 30.77678182 -25.03201551 28.45386341 -25.02612305 26.13095093 C-25.03219574 25.04330444 -25.03826843 23.95565796 -25.04452515 22.83505249 C-24.97843726 15.69784207 -24.08721568 11.23932379 -19.31518555 5.69345093 C-13.08746251 0.3347125 -7.8943428 -0.05294361 0 0 Z " fill="#F4F4FA" transform="translate(154.627685546875,759.6190490722656)"/>
<path d="M0 0 C1.13147461 -0.00287018 2.26294922 -0.00574036 3.42871094 -0.00869751 C5.81576031 -0.01073473 8.20282651 -0.00522887 10.58984375 0.00732422 C14.23735998 0.02338185 17.88376812 0.00746299 21.53125 -0.01171875 C23.85416911 -0.00973626 26.17708752 -0.00589246 28.5 0 C29.58764648 -0.00607269 30.67529297 -0.01214539 31.79589844 -0.0184021 C38.93310886 0.04768579 43.39162714 0.93890737 48.9375 5.7109375 C54.29623843 11.93866054 54.68389454 17.13178025 54.63095093 25.02612305 C54.6356309 26.09690692 54.64031087 27.16769079 54.64513266 28.27092266 C54.65709913 31.85912649 54.64761866 35.44694958 54.63818359 39.03515625 C54.64224854 41.60755639 54.64758999 44.17995478 54.65411377 46.75234985 C54.66744744 53.01408768 54.66457503 59.27571757 54.65587585 65.53745961 C54.64909826 70.62690062 54.6481829 75.71631139 54.6514473 80.80575562 C54.651907 81.53035498 54.65236669 82.25495435 54.65284032 83.00151128 C54.65379951 84.47356169 54.65477215 85.9456121 54.6557581 87.4176625 C54.66431092 101.21822377 54.65447956 115.01872523 54.638357 128.81927669 C54.6249539 140.65851909 54.62728203 152.49767325 54.64111328 164.33691406 C54.65717101 178.08838892 54.66348695 191.83981137 54.65427649 205.59129429 C54.65332085 207.05790265 54.65237774 208.52451101 54.6514473 209.99111938 C54.65098447 210.71270208 54.65052164 211.43428477 54.65004479 212.1777336 C54.64745548 217.26054085 54.65182463 222.34331484 54.65888596 227.42611694 C54.6681826 234.26826445 54.66155532 241.11024245 54.64420319 247.9523735 C54.64023199 250.46544492 54.64138316 252.97853035 54.64799118 255.49159622 C54.65617142 258.9181719 54.64592698 262.34421062 54.63095093 265.77075195 C54.63764309 266.76861064 54.64433526 267.76646933 54.65123022 268.79456615 C54.59364162 275.57348067 53.46355122 279.82593203 48.9375 285.0859375 C42.406132 290.70595182 36.78452586 290.84313027 28.5 290.796875 C27.36852539 290.79974518 26.23705078 290.80261536 25.07128906 290.80557251 C22.68423969 290.80760973 20.29717349 290.80210387 17.91015625 290.78955078 C14.26264002 290.77349315 10.61623188 290.78941201 6.96875 290.80859375 C4.64583089 290.80661126 2.32291248 290.80276746 0 290.796875 C-1.08764648 290.80294769 -2.17529297 290.80902039 -3.29589844 290.8152771 C-10.43310886 290.74918921 -14.89162714 289.85796763 -20.4375 285.0859375 C-25.79623843 278.85821446 -26.18389454 273.66509475 -26.13095093 265.77075195 C-26.1356309 264.69996808 -26.14031087 263.62918421 -26.14513266 262.52595234 C-26.15709913 258.93774851 -26.14761866 255.34992542 -26.13818359 251.76171875 C-26.14224854 249.18931861 -26.14758999 246.61692022 -26.15411377 244.04452515 C-26.16744744 237.78278732 -26.16457503 231.52115743 -26.15587585 225.25941539 C-26.14909826 220.16997438 -26.1481829 215.08056361 -26.1514473 209.99111938 C-26.151907 209.26652002 -26.15236669 208.54192065 -26.15284032 207.79536372 C-26.15379951 206.32331331 -26.15477215 204.8512629 -26.1557581 203.3792125 C-26.16431092 189.57865123 -26.15447956 175.77814977 -26.138357 161.97759831 C-26.1249539 150.13835591 -26.12728203 138.29920175 -26.14111328 126.45996094 C-26.15717101 112.70848608 -26.16348695 98.95706363 -26.15427649 85.20558071 C-26.15332085 83.73897235 -26.15237774 82.27236399 -26.1514473 80.80575562 C-26.15098447 80.08417292 -26.15052164 79.36259023 -26.15004479 78.6191414 C-26.14745548 73.53633415 -26.15182463 68.45356016 -26.15888596 63.37075806 C-26.1681826 56.52861055 -26.16155532 49.68663255 -26.14420319 42.8445015 C-26.14023199 40.33143008 -26.14138316 37.81834465 -26.14799118 35.30527878 C-26.15617142 31.8787031 -26.14592698 28.45266438 -26.13095093 25.02612305 C-26.13764309 24.02826436 -26.14433526 23.03040567 -26.15123022 22.00230885 C-26.09364162 15.22339433 -24.96355122 10.97094297 -20.4375 5.7109375 C-13.906132 0.09092318 -8.28452586 -0.04625527 0 0 Z " fill="#F4F4FA" transform="translate(795.75,429.6015625)"/>
<path d="M0 0 C1.13147461 -0.00287018 2.26294922 -0.00574036 3.42871094 -0.00869751 C5.81576031 -0.01073473 8.20282651 -0.00522887 10.58984375 0.00732422 C14.23735998 0.02338185 17.88376812 0.00746299 21.53125 -0.01171875 C23.85416911 -0.00973626 26.17708752 -0.00589246 28.5 0 C29.58764648 -0.00607269 30.67529297 -0.01214539 31.79589844 -0.0184021 C38.93310886 0.04768579 43.39162714 0.93890737 48.9375 5.7109375 C54.29623843 11.93866054 54.68389454 17.13178025 54.63095093 25.02612305 C54.6356309 26.09690692 54.64031087 27.16769079 54.64513266 28.27092266 C54.65709913 31.85912649 54.64761866 35.44694958 54.63818359 39.03515625 C54.64224854 41.60755639 54.64758999 44.17995478 54.65411377 46.75234985 C54.66744744 53.01408768 54.66457503 59.27571757 54.65587585 65.53745961 C54.64909826 70.62690062 54.6481829 75.71631139 54.6514473 80.80575562 C54.651907 81.53035498 54.65236669 82.25495435 54.65284032 83.00151128 C54.65379951 84.47356169 54.65477215 85.9456121 54.6557581 87.4176625 C54.66431092 101.21822377 54.65447956 115.01872523 54.638357 128.81927669 C54.6249539 140.65851909 54.62728203 152.49767325 54.64111328 164.33691406 C54.65717101 178.08838892 54.66348695 191.83981137 54.65427649 205.59129429 C54.65332085 207.05790265 54.65237774 208.52451101 54.6514473 209.99111938 C54.65098447 210.71270208 54.65052164 211.43428477 54.65004479 212.1777336 C54.64745548 217.26054085 54.65182463 222.34331484 54.65888596 227.42611694 C54.6681826 234.26826445 54.66155532 241.11024245 54.64420319 247.9523735 C54.64023199 250.46544492 54.64138316 252.97853035 54.64799118 255.49159622 C54.65617142 258.9181719 54.64592698 262.34421062 54.63095093 265.77075195 C54.63764309 266.76861064 54.64433526 267.76646933 54.65123022 268.79456615 C54.59364162 275.57348067 53.46355122 279.82593203 48.9375 285.0859375 C42.406132 290.70595182 36.78452586 290.84313027 28.5 290.796875 C27.36852539 290.79974518 26.23705078 290.80261536 25.07128906 290.80557251 C22.68423969 290.80760973 20.29717349 290.80210387 17.91015625 290.78955078 C14.26264002 290.77349315 10.61623188 290.78941201 6.96875 290.80859375 C4.64583089 290.80661126 2.32291248 290.80276746 0 290.796875 C-1.08764648 290.80294769 -2.17529297 290.80902039 -3.29589844 290.8152771 C-10.43310886 290.74918921 -14.89162714 289.85796763 -20.4375 285.0859375 C-25.79623843 278.85821446 -26.18389454 273.66509475 -26.13095093 265.77075195 C-26.1356309 264.69996808 -26.14031087 263.62918421 -26.14513266 262.52595234 C-26.15709913 258.93774851 -26.14761866 255.34992542 -26.13818359 251.76171875 C-26.14224854 249.18931861 -26.14758999 246.61692022 -26.15411377 244.04452515 C-26.16744744 237.78278732 -26.16457503 231.52115743 -26.15587585 225.25941539 C-26.14909826 220.16997438 -26.1481829 215.08056361 -26.1514473 209.99111938 C-26.151907 209.26652002 -26.15236669 208.54192065 -26.15284032 207.79536372 C-26.15379951 206.32331331 -26.15477215 204.8512629 -26.1557581 203.3792125 C-26.16431092 189.57865123 -26.15447956 175.77814977 -26.138357 161.97759831 C-26.1249539 150.13835591 -26.12728203 138.29920175 -26.14111328 126.45996094 C-26.15717101 112.70848608 -26.16348695 98.95706363 -26.15427649 85.20558071 C-26.15332085 83.73897235 -26.15237774 82.27236399 -26.1514473 80.80575562 C-26.15098447 80.08417292 -26.15052164 79.36259023 -26.15004479 78.6191414 C-26.14745548 73.53633415 -26.15182463 68.45356016 -26.15888596 63.37075806 C-26.1681826 56.52861055 -26.16155532 49.68663255 -26.14420319 42.8445015 C-26.14023199 40.33143008 -26.14138316 37.81834465 -26.14799118 35.30527878 C-26.15617142 31.8787031 -26.14592698 28.45266438 -26.13095093 25.02612305 C-26.13764309 24.02826436 -26.14433526 23.03040567 -26.15123022 22.00230885 C-26.09364162 15.22339433 -24.96355122 10.97094297 -20.4375 5.7109375 C-13.906132 0.09092318 -8.28452586 -0.04625527 0 0 Z " fill="#F4F4FA" transform="translate(25.75,429.6015625)"/>
<path d="M0 0 C1.13147461 -0.00287018 2.26294922 -0.00574036 3.42871094 -0.00869751 C5.81576031 -0.01073473 8.20282651 -0.00522887 10.58984375 0.00732422 C14.23735998 0.02338185 17.88376812 0.00746299 21.53125 -0.01171875 C23.85416911 -0.00973626 26.17708752 -0.00589246 28.5 0 C29.58764648 -0.00607269 30.67529297 -0.01214539 31.79589844 -0.0184021 C38.93310886 0.04768579 43.39162714 0.93890737 48.9375 5.7109375 C54.29623843 11.93866054 54.68389454 17.13178025 54.63095093 25.02612305 C54.6356309 26.09690692 54.64031087 27.16769079 54.64513266 28.27092266 C54.65709913 31.85912649 54.64761866 35.44694958 54.63818359 39.03515625 C54.64224854 41.60755639 54.64758999 44.17995478 54.65411377 46.75234985 C54.66744744 53.01408768 54.66457503 59.27571757 54.65587585 65.53745961 C54.64909826 70.62690062 54.6481829 75.71631139 54.6514473 80.80575562 C54.651907 81.53035498 54.65236669 82.25495435 54.65284032 83.00151128 C54.65379951 84.47356169 54.65477215 85.9456121 54.6557581 87.4176625 C54.66431092 101.21822377 54.65447956 115.01872523 54.638357 128.81927669 C54.6249539 140.65851909 54.62728203 152.49767325 54.64111328 164.33691406 C54.65717101 178.08838892 54.66348695 191.83981137 54.65427649 205.59129429 C54.65332085 207.05790265 54.65237774 208.52451101 54.6514473 209.99111938 C54.65098447 210.71270208 54.65052164 211.43428477 54.65004479 212.1777336 C54.64745548 217.26054085 54.65182463 222.34331484 54.65888596 227.42611694 C54.6681826 234.26826445 54.66155532 241.11024245 54.64420319 247.9523735 C54.64023199 250.46544492 54.64138316 252.97853035 54.64799118 255.49159622 C54.65617142 258.9181719 54.64592698 262.34421062 54.63095093 265.77075195 C54.63764309 266.76861064 54.64433526 267.76646933 54.65123022 268.79456615 C54.59364162 275.57348067 53.46355122 279.82593203 48.9375 285.0859375 C42.406132 290.70595182 36.78452586 290.84313027 28.5 290.796875 C27.36852539 290.79974518 26.23705078 290.80261536 25.07128906 290.80557251 C22.68423969 290.80760973 20.29717349 290.80210387 17.91015625 290.78955078 C14.26264002 290.77349315 10.61623188 290.78941201 6.96875 290.80859375 C4.64583089 290.80661126 2.32291248 290.80276746 0 290.796875 C-1.08764648 290.80294769 -2.17529297 290.80902039 -3.29589844 290.8152771 C-10.43310886 290.74918921 -14.89162714 289.85796763 -20.4375 285.0859375 C-25.79623843 278.85821446 -26.18389454 273.66509475 -26.13095093 265.77075195 C-26.1356309 264.69996808 -26.14031087 263.62918421 -26.14513266 262.52595234 C-26.15709913 258.93774851 -26.14761866 255.34992542 -26.13818359 251.76171875 C-26.14224854 249.18931861 -26.14758999 246.61692022 -26.15411377 244.04452515 C-26.16744744 237.78278732 -26.16457503 231.52115743 -26.15587585 225.25941539 C-26.14909826 220.16997438 -26.1481829 215.08056361 -26.1514473 209.99111938 C-26.151907 209.26652002 -26.15236669 208.54192065 -26.15284032 207.79536372 C-26.15379951 206.32331331 -26.15477215 204.8512629 -26.1557581 203.3792125 C-26.16431092 189.57865123 -26.15447956 175.77814977 -26.138357 161.97759831 C-26.1249539 150.13835591 -26.12728203 138.29920175 -26.14111328 126.45996094 C-26.15717101 112.70848608 -26.16348695 98.95706363 -26.15427649 85.20558071 C-26.15332085 83.73897235 -26.15237774 82.27236399 -26.1514473 80.80575562 C-26.15098447 80.08417292 -26.15052164 79.36259023 -26.15004479 78.6191414 C-26.14745548 73.53633415 -26.15182463 68.45356016 -26.15888596 63.37075806 C-26.1681826 56.52861055 -26.16155532 49.68663255 -26.14420319 42.8445015 C-26.14023199 40.33143008 -26.14138316 37.81834465 -26.14799118 35.30527878 C-26.15617142 31.8787031 -26.14592698 28.45266438 -26.13095093 25.02612305 C-26.13764309 24.02826436 -26.14433526 23.03040567 -26.15123022 22.00230885 C-26.09364162 15.22339433 -24.96355122 10.97094297 -20.4375 5.7109375 C-13.906132 0.09092318 -8.28452586 -0.04625527 0 0 Z " fill="#F4F4FA" transform="translate(795.75,119.6015625)"/>
<path d="M0 0 C1.13147461 -0.00287018 2.26294922 -0.00574036 3.42871094 -0.00869751 C5.81576031 -0.01073473 8.20282651 -0.00522887 10.58984375 0.00732422 C14.23735998 0.02338185 17.88376812 0.00746299 21.53125 -0.01171875 C23.85416911 -0.00973626 26.17708752 -0.00589246 28.5 0 C29.58764648 -0.00607269 30.67529297 -0.01214539 31.79589844 -0.0184021 C38.93310886 0.04768579 43.39162714 0.93890737 48.9375 5.7109375 C54.29623843 11.93866054 54.68389454 17.13178025 54.63095093 25.02612305 C54.6356309 26.09690692 54.64031087 27.16769079 54.64513266 28.27092266 C54.65709913 31.85912649 54.64761866 35.44694958 54.63818359 39.03515625 C54.64224854 41.60755639 54.64758999 44.17995478 54.65411377 46.75234985 C54.66744744 53.01408768 54.66457503 59.27571757 54.65587585 65.53745961 C54.64909826 70.62690062 54.6481829 75.71631139 54.6514473 80.80575562 C54.651907 81.53035498 54.65236669 82.25495435 54.65284032 83.00151128 C54.65379951 84.47356169 54.65477215 85.9456121 54.6557581 87.4176625 C54.66431092 101.21822377 54.65447956 115.01872523 54.638357 128.81927669 C54.6249539 140.65851909 54.62728203 152.49767325 54.64111328 164.33691406 C54.65717101 178.08838892 54.66348695 191.83981137 54.65427649 205.59129429 C54.65332085 207.05790265 54.65237774 208.52451101 54.6514473 209.99111938 C54.65098447 210.71270208 54.65052164 211.43428477 54.65004479 212.1777336 C54.64745548 217.26054085 54.65182463 222.34331484 54.65888596 227.42611694 C54.6681826 234.26826445 54.66155532 241.11024245 54.64420319 247.9523735 C54.64023199 250.46544492 54.64138316 252.97853035 54.64799118 255.49159622 C54.65617142 258.9181719 54.64592698 262.34421062 54.63095093 265.77075195 C54.63764309 266.76861064 54.64433526 267.76646933 54.65123022 268.79456615 C54.59364162 275.57348067 53.46355122 279.82593203 48.9375 285.0859375 C42.406132 290.70595182 36.78452586 290.84313027 28.5 290.796875 C27.36852539 290.79974518 26.23705078 290.80261536 25.07128906 290.80557251 C22.68423969 290.80760973 20.29717349 290.80210387 17.91015625 290.78955078 C14.26264002 290.77349315 10.61623188 290.78941201 6.96875 290.80859375 C4.64583089 290.80661126 2.32291248 290.80276746 0 290.796875 C-1.08764648 290.80294769 -2.17529297 290.80902039 -3.29589844 290.8152771 C-10.43310886 290.74918921 -14.89162714 289.85796763 -20.4375 285.0859375 C-25.79623843 278.85821446 -26.18389454 273.66509475 -26.13095093 265.77075195 C-26.1356309 264.69996808 -26.14031087 263.62918421 -26.14513266 262.52595234 C-26.15709913 258.93774851 -26.14761866 255.34992542 -26.13818359 251.76171875 C-26.14224854 249.18931861 -26.14758999 246.61692022 -26.15411377 244.04452515 C-26.16744744 237.78278732 -26.16457503 231.52115743 -26.15587585 225.25941539 C-26.14909826 220.16997438 -26.1481829 215.08056361 -26.1514473 209.99111938 C-26.151907 209.26652002 -26.15236669 208.54192065 -26.15284032 207.79536372 C-26.15379951 206.32331331 -26.15477215 204.8512629 -26.1557581 203.3792125 C-26.16431092 189.57865123 -26.15447956 175.77814977 -26.138357 161.97759831 C-26.1249539 150.13835591 -26.12728203 138.29920175 -26.14111328 126.45996094 C-26.15717101 112.70848608 -26.16348695 98.95706363 -26.15427649 85.20558071 C-26.15332085 83.73897235 -26.15237774 82.27236399 -26.1514473 80.80575562 C-26.15098447 80.08417292 -26.15052164 79.36259023 -26.15004479 78.6191414 C-26.14745548 73.53633415 -26.15182463 68.45356016 -26.15888596 63.37075806 C-26.1681826 56.52861055 -26.16155532 49.68663255 -26.14420319 42.8445015 C-26.14023199 40.33143008 -26.14138316 37.81834465 -26.14799118 35.30527878 C-26.15617142 31.8787031 -26.14592698 28.45266438 -26.13095093 25.02612305 C-26.13764309 24.02826436 -26.14433526 23.03040567 -26.15123022 22.00230885 C-26.09364162 15.22339433 -24.96355122 10.97094297 -20.4375 5.7109375 C-13.906132 0.09092318 -8.28452586 -0.04625527 0 0 Z " fill="#F4F4FA" transform="translate(25.75,119.6015625)"/>
<path d="M0 0 C1.07078387 -0.00467997 2.14156775 -0.00935994 3.24479961 -0.01418173 C6.83300344 -0.0261482 10.42082653 -0.01666773 14.0090332 -0.00723267 C16.58143334 -0.01129762 19.15383173 -0.01663906 21.72622681 -0.02316284 C27.98796463 -0.03649652 34.24959453 -0.0336241 40.51133657 -0.02492492 C45.60077757 -0.01814733 50.69018834 -0.01723197 55.77963257 -0.02049637 C56.50423194 -0.02095607 57.2288313 -0.02141577 57.97538823 -0.0218894 C59.44743865 -0.02284858 60.91948905 -0.02382122 62.39153945 -0.02480717 C76.19210072 -0.03335999 89.99260219 -0.02352864 103.79315364 -0.00740607 C115.63239605 0.00599702 127.4715502 0.0036689 139.31079102 -0.01016235 C153.06226587 -0.02622008 166.81368832 -0.03253603 180.56517124 -0.02332556 C182.0317796 -0.02236992 183.49838796 -0.02142681 184.96499634 -0.02049637 C186.04737037 -0.01980213 186.04737037 -0.01980213 187.15161055 -0.01909386 C192.23441781 -0.01650455 197.3171918 -0.0208737 202.3999939 -0.02793503 C209.2421414 -0.03723167 216.0841194 -0.03060439 222.92625046 -0.01325226 C225.43932188 -0.00928106 227.95240731 -0.01043223 230.46547318 -0.01704025 C233.89204885 -0.02522049 237.31808757 -0.01497605 240.74462891 0 C241.74248759 -0.00669217 242.74034628 -0.01338433 243.76844311 -0.02027929 C250.54735762 0.0373093 254.79980899 1.16739971 260.05981445 5.69345093 C265.67982877 12.22481892 265.81700722 17.84642507 265.77075195 26.13095093 C265.77362213 27.26242554 265.77649231 28.39390015 265.77944946 29.55966187 C265.78148669 31.94671124 265.77598082 34.33377744 265.76342773 36.72079468 C265.7473701 40.3683109 265.76328896 44.01471904 265.7824707 47.66220093 C265.78048821 49.98512003 265.77664442 52.30803845 265.77075195 54.63095093 C265.77682465 55.71859741 265.78289734 56.8062439 265.78915405 57.92684937 C265.72306616 65.06405978 264.83184459 69.52257807 260.05981445 75.06845093 C253.83209141 80.42718936 248.63897171 80.81484547 240.74462891 80.76190186 C239.67384503 80.76658183 238.60306116 80.7712618 237.49982929 80.77608359 C233.91162546 80.78805006 230.32380238 80.77856959 226.7355957 80.76913452 C224.16319557 80.77319947 221.59079718 80.77854092 219.0184021 80.7850647 C212.75666427 80.79839837 206.49503438 80.79552595 200.23329234 80.78682677 C195.14385134 80.78004919 190.05444056 80.77913383 184.96499634 80.78239822 C184.24039697 80.78285792 183.5157976 80.78331762 182.76924068 80.78379125 C181.29719026 80.78475044 179.82513985 80.78572308 178.35308945 80.78670903 C164.55252819 80.79526185 150.75202672 80.78543049 136.95147526 80.76930793 C125.11223286 80.75590483 113.2730787 80.75823296 101.43383789 80.77206421 C87.68236304 80.78812194 73.93094058 80.79443788 60.17945766 80.78522742 C58.71284931 80.78427178 57.24624094 80.78332867 55.77963257 80.78239822 C55.05804988 80.7819354 54.33646719 80.78147257 53.59301835 80.78099572 C48.5102111 80.77840641 43.42743711 80.78277556 38.34463501 80.78983688 C31.50248751 80.79913353 24.66050951 80.79250625 17.81837845 80.77515411 C15.30530703 80.77118292 12.7922216 80.77233409 10.27915573 80.77894211 C6.85258005 80.78712235 3.42654134 80.77687791 0 80.76190186 C-0.99785869 80.76859402 -1.99571737 80.77528619 -3.0238142 80.78218114 C-9.80272871 80.72459255 -14.05518008 79.59450214 -19.31518555 75.06845093 C-24.93519987 68.53708293 -25.07237832 62.91547679 -25.02612305 54.63095093 C-25.02899323 53.49947632 -25.0318634 52.36800171 -25.03482056 51.20223999 C-25.03685778 48.81519061 -25.03135191 46.42812442 -25.01879883 44.04110718 C-25.00274119 40.39359095 -25.01866006 36.74718281 -25.0378418 33.09970093 C-25.03585931 30.77678182 -25.03201551 28.45386341 -25.02612305 26.13095093 C-25.03219574 25.04330444 -25.03826843 23.95565796 -25.04452515 22.83505249 C-24.97843726 15.69784207 -24.08721568 11.23932379 -19.31518555 5.69345093 C-13.08746251 0.3347125 -7.8943428 -0.05294361 0 0 Z " fill="#F4F4FA" transform="translate(464.627685546875,-0.380950927734375)"/>
<path d="M0 0 C1.07078387 -0.00467997 2.14156775 -0.00935994 3.24479961 -0.01418173 C6.83300344 -0.0261482 10.42082653 -0.01666773 14.0090332 -0.00723267 C16.58143334 -0.01129762 19.15383173 -0.01663906 21.72622681 -0.02316284 C27.98796463 -0.03649652 34.24959453 -0.0336241 40.51133657 -0.02492492 C45.60077757 -0.01814733 50.69018834 -0.01723197 55.77963257 -0.02049637 C56.50423194 -0.02095607 57.2288313 -0.02141577 57.97538823 -0.0218894 C59.44743865 -0.02284858 60.91948905 -0.02382122 62.39153945 -0.02480717 C76.19210072 -0.03335999 89.99260219 -0.02352864 103.79315364 -0.00740607 C115.63239605 0.00599702 127.4715502 0.0036689 139.31079102 -0.01016235 C153.06226587 -0.02622008 166.81368832 -0.03253603 180.56517124 -0.02332556 C182.0317796 -0.02236992 183.49838796 -0.02142681 184.96499634 -0.02049637 C186.04737037 -0.01980213 186.04737037 -0.01980213 187.15161055 -0.01909386 C192.23441781 -0.01650455 197.3171918 -0.0208737 202.3999939 -0.02793503 C209.2421414 -0.03723167 216.0841194 -0.03060439 222.92625046 -0.01325226 C225.43932188 -0.00928106 227.95240731 -0.01043223 230.46547318 -0.01704025 C233.89204885 -0.02522049 237.31808757 -0.01497605 240.74462891 0 C241.74248759 -0.00669217 242.74034628 -0.01338433 243.76844311 -0.02027929 C250.54735762 0.0373093 254.79980899 1.16739971 260.05981445 5.69345093 C265.67982877 12.22481892 265.81700722 17.84642507 265.77075195 26.13095093 C265.77362213 27.26242554 265.77649231 28.39390015 265.77944946 29.55966187 C265.78148669 31.94671124 265.77598082 34.33377744 265.76342773 36.72079468 C265.7473701 40.3683109 265.76328896 44.01471904 265.7824707 47.66220093 C265.78048821 49.98512003 265.77664442 52.30803845 265.77075195 54.63095093 C265.77682465 55.71859741 265.78289734 56.8062439 265.78915405 57.92684937 C265.72306616 65.06405978 264.83184459 69.52257807 260.05981445 75.06845093 C253.83209141 80.42718936 248.63897171 80.81484547 240.74462891 80.76190186 C239.67384503 80.76658183 238.60306116 80.7712618 237.49982929 80.77608359 C233.91162546 80.78805006 230.32380238 80.77856959 226.7355957 80.76913452 C224.16319557 80.77319947 221.59079718 80.77854092 219.0184021 80.7850647 C212.75666427 80.79839837 206.49503438 80.79552595 200.23329234 80.78682677 C195.14385134 80.78004919 190.05444056 80.77913383 184.96499634 80.78239822 C184.24039697 80.78285792 183.5157976 80.78331762 182.76924068 80.78379125 C181.29719026 80.78475044 179.82513985 80.78572308 178.35308945 80.78670903 C164.55252819 80.79526185 150.75202672 80.78543049 136.95147526 80.76930793 C125.11223286 80.75590483 113.2730787 80.75823296 101.43383789 80.77206421 C87.68236304 80.78812194 73.93094058 80.79443788 60.17945766 80.78522742 C58.71284931 80.78427178 57.24624094 80.78332867 55.77963257 80.78239822 C55.05804988 80.7819354 54.33646719 80.78147257 53.59301835 80.78099572 C48.5102111 80.77840641 43.42743711 80.78277556 38.34463501 80.78983688 C31.50248751 80.79913353 24.66050951 80.79250625 17.81837845 80.77515411 C15.30530703 80.77118292 12.7922216 80.77233409 10.27915573 80.77894211 C6.85258005 80.78712235 3.42654134 80.77687791 0 80.76190186 C-0.99785869 80.76859402 -1.99571737 80.77528619 -3.0238142 80.78218114 C-9.80272871 80.72459255 -14.05518008 79.59450214 -19.31518555 75.06845093 C-24.93519987 68.53708293 -25.07237832 62.91547679 -25.02612305 54.63095093 C-25.02899323 53.49947632 -25.0318634 52.36800171 -25.03482056 51.20223999 C-25.03685778 48.81519061 -25.03135191 46.42812442 -25.01879883 44.04110718 C-25.00274119 40.39359095 -25.01866006 36.74718281 -25.0378418 33.09970093 C-25.03585931 30.77678182 -25.03201551 28.45386341 -25.02612305 26.13095093 C-25.03219574 25.04330444 -25.03826843 23.95565796 -25.04452515 22.83505249 C-24.97843726 15.69784207 -24.08721568 11.23932379 -19.31518555 5.69345093 C-13.08746251 0.3347125 -7.8943428 -0.05294361 0 0 Z " fill="#F4F4FA" transform="translate(154.627685546875,-0.380950927734375)"/>
</svg>
